%TF.GenerationSoftware,KiCad,Pcbnew,9.0.5*%
%TF.CreationDate,2026-04-22T17:07:10+02:00*%
%TF.ProjectId,DynoLogic_v3,44796e6f-4c6f-4676-9963-5f76332e6b69,rev?*%
%TF.SameCoordinates,Original*%
%TF.FileFunction,Soldermask,Bot*%
%TF.FilePolarity,Negative*%
%FSLAX46Y46*%
G04 Gerber Fmt 4.6, Leading zero omitted, Abs format (unit mm)*
G04 Created by KiCad (PCBNEW 9.0.5) date 2026-04-22 17:07:10*
%MOMM*%
%LPD*%
G01*
G04 APERTURE LIST*
G04 Aperture macros list*
%AMRoundRect*
0 Rectangle with rounded corners*
0 $1 Rounding radius*
0 $2 $3 $4 $5 $6 $7 $8 $9 X,Y pos of 4 corners*
0 Add a 4 corners polygon primitive as box body*
4,1,4,$2,$3,$4,$5,$6,$7,$8,$9,$2,$3,0*
0 Add four circle primitives for the rounded corners*
1,1,$1+$1,$2,$3*
1,1,$1+$1,$4,$5*
1,1,$1+$1,$6,$7*
1,1,$1+$1,$8,$9*
0 Add four rect primitives between the rounded corners*
20,1,$1+$1,$2,$3,$4,$5,0*
20,1,$1+$1,$4,$5,$6,$7,0*
20,1,$1+$1,$6,$7,$8,$9,0*
20,1,$1+$1,$8,$9,$2,$3,0*%
G04 Aperture macros list end*
%ADD10R,1.600000X1.600000*%
%ADD11C,1.600000*%
%ADD12C,0.900000*%
%ADD13C,8.000000*%
%ADD14R,1.650000X1.650000*%
%ADD15C,1.650000*%
%ADD16RoundRect,0.250000X0.312500X0.625000X-0.312500X0.625000X-0.312500X-0.625000X0.312500X-0.625000X0*%
%ADD17O,1.888000X0.574000*%
%ADD18RoundRect,0.200000X0.750000X0.200000X-0.750000X0.200000X-0.750000X-0.200000X0.750000X-0.200000X0*%
G04 APERTURE END LIST*
D10*
%TO.C,U3*%
X137130000Y-69860000D03*
D11*
X139670000Y-69860000D03*
X142210000Y-69860000D03*
X144750000Y-69860000D03*
X147290000Y-69860000D03*
X149830000Y-69860000D03*
X152370000Y-69860000D03*
X154910000Y-69860000D03*
X157450000Y-69860000D03*
X159990000Y-69860000D03*
X162530000Y-69860000D03*
X165070000Y-69860000D03*
X167610000Y-69860000D03*
X170150000Y-69860000D03*
X172690000Y-69860000D03*
X175230000Y-69860000D03*
X177770000Y-69860000D03*
X180310000Y-69860000D03*
X182850000Y-69860000D03*
X185390000Y-69860000D03*
X187930000Y-69860000D03*
X190470000Y-69860000D03*
X193010000Y-69860000D03*
X195550000Y-69860000D03*
X195550000Y-54620000D03*
X193010000Y-54620000D03*
X190470000Y-54620000D03*
X187930000Y-54620000D03*
X185390000Y-54620000D03*
X182850000Y-54620000D03*
X180310000Y-54620000D03*
X177770000Y-54620000D03*
X175230000Y-54620000D03*
X172690000Y-54620000D03*
X170150000Y-54620000D03*
X167610000Y-54620000D03*
X165070000Y-54620000D03*
X162530000Y-54620000D03*
X159990000Y-54620000D03*
X157450000Y-54620000D03*
X154910000Y-54620000D03*
X152370000Y-54620000D03*
X149830000Y-54620000D03*
X147290000Y-54620000D03*
X144750000Y-54620000D03*
X142210000Y-54620000D03*
X139670000Y-54620000D03*
X137130000Y-54620000D03*
%TD*%
D12*
%TO.C,H3*%
X103150000Y-100060000D03*
X104028680Y-97938680D03*
X104028680Y-102181320D03*
X106150000Y-97060000D03*
D13*
X106150000Y-100060000D03*
D12*
X106150000Y-103060000D03*
X108271320Y-97938680D03*
X108271320Y-102181320D03*
X109150000Y-100060000D03*
%TD*%
%TO.C,H1*%
X189700000Y-47599978D03*
X190578680Y-45478658D03*
X190578680Y-49721298D03*
X192700000Y-44599978D03*
D13*
X192700000Y-47599978D03*
D12*
X192700000Y-50599978D03*
X194821320Y-45478658D03*
X194821320Y-49721298D03*
X195700000Y-47599978D03*
%TD*%
D14*
%TO.C,J6*%
X184660000Y-101890000D03*
D15*
X182120000Y-101890000D03*
X179580000Y-101890000D03*
X177040000Y-101890000D03*
X174500000Y-101890000D03*
%TD*%
D14*
%TO.C,J8*%
X169380000Y-101890000D03*
D15*
X166840000Y-101890000D03*
X164300000Y-101890000D03*
%TD*%
%TO.C,J9*%
X104500000Y-89600000D03*
X104500000Y-87060000D03*
%TD*%
D14*
%TO.C,J2*%
X104250000Y-60960000D03*
D15*
X104250000Y-58420000D03*
X104250000Y-55880000D03*
%TD*%
%TO.C,J10*%
X104500000Y-81900000D03*
X104500000Y-79360000D03*
%TD*%
D14*
%TO.C,J5*%
X120900000Y-101890000D03*
D15*
X118360000Y-101890000D03*
X115820000Y-101890000D03*
X113280000Y-101890000D03*
%TD*%
D14*
%TO.C,J7*%
X136180000Y-101890000D03*
D15*
X133640000Y-101890000D03*
X131100000Y-101890000D03*
X128560000Y-101890000D03*
X126020000Y-101890000D03*
%TD*%
D14*
%TO.C,J11*%
X104250000Y-71240000D03*
D15*
X104250000Y-68700000D03*
X104250000Y-66160000D03*
%TD*%
D14*
%TO.C,J4*%
X146430000Y-101890000D03*
D15*
X143890000Y-101890000D03*
X141350000Y-101890000D03*
%TD*%
D12*
%TO.C,H2*%
X103240000Y-47659977D03*
X104118680Y-45538657D03*
X104118680Y-49781297D03*
X106240000Y-44659977D03*
D13*
X106240000Y-47659977D03*
D12*
X106240000Y-50659977D03*
X108361320Y-45538657D03*
X108361320Y-49781297D03*
X109240000Y-47659977D03*
%TD*%
%TO.C,H4*%
X189700000Y-100060000D03*
X190578680Y-97938680D03*
X190578680Y-102181320D03*
X192700000Y-97060000D03*
D13*
X192700000Y-100060000D03*
D12*
X192700000Y-103060000D03*
X194821320Y-97938680D03*
X194821320Y-102181320D03*
X195700000Y-100060000D03*
%TD*%
D15*
%TO.C,J1*%
X114190000Y-45940000D03*
X116730000Y-45940000D03*
%TD*%
D14*
%TO.C,J3*%
X159150000Y-101890000D03*
D15*
X156610000Y-101890000D03*
X154070000Y-101890000D03*
X151530000Y-101890000D03*
%TD*%
D16*
%TO.C,R6*%
X122650000Y-45950000D03*
X119725000Y-45950000D03*
%TD*%
D17*
%TO.C,U2*%
X125598000Y-48480000D03*
X125598000Y-49750000D03*
X125598000Y-51020000D03*
X125598000Y-52290000D03*
X120200000Y-52290000D03*
X120200000Y-51020000D03*
X120200000Y-49750000D03*
X120200000Y-48480000D03*
%TD*%
D18*
%TO.C,D1*%
X131100000Y-52650000D03*
X131100000Y-54550000D03*
X128100000Y-53600000D03*
%TD*%
M02*
