%TF.GenerationSoftware,KiCad,Pcbnew,9.0.5*%
%TF.CreationDate,2026-04-22T17:07:09+02:00*%
%TF.ProjectId,DynoLogic_v3,44796e6f-4c6f-4676-9963-5f76332e6b69,rev?*%
%TF.SameCoordinates,Original*%
%TF.FileFunction,Paste,Top*%
%TF.FilePolarity,Positive*%
%FSLAX46Y46*%
G04 Gerber Fmt 4.6, Leading zero omitted, Abs format (unit mm)*
G04 Created by KiCad (PCBNEW 9.0.5) date 2026-04-22 17:07:09*
%MOMM*%
%LPD*%
G01*
G04 APERTURE LIST*
G04 Aperture macros list*
%AMRoundRect*
0 Rectangle with rounded corners*
0 $1 Rounding radius*
0 $2 $3 $4 $5 $6 $7 $8 $9 X,Y pos of 4 corners*
0 Add a 4 corners polygon primitive as box body*
4,1,4,$2,$3,$4,$5,$6,$7,$8,$9,$2,$3,0*
0 Add four circle primitives for the rounded corners*
1,1,$1+$1,$2,$3*
1,1,$1+$1,$4,$5*
1,1,$1+$1,$6,$7*
1,1,$1+$1,$8,$9*
0 Add four rect primitives between the rounded corners*
20,1,$1+$1,$2,$3,$4,$5,0*
20,1,$1+$1,$4,$5,$6,$7,0*
20,1,$1+$1,$6,$7,$8,$9,0*
20,1,$1+$1,$8,$9,$2,$3,0*%
G04 Aperture macros list end*
%ADD10RoundRect,0.250000X0.312500X0.625000X-0.312500X0.625000X-0.312500X-0.625000X0.312500X-0.625000X0*%
%ADD11RoundRect,0.250000X-0.625000X0.312500X-0.625000X-0.312500X0.625000X-0.312500X0.625000X0.312500X0*%
%ADD12RoundRect,0.150000X-0.825000X-0.150000X0.825000X-0.150000X0.825000X0.150000X-0.825000X0.150000X0*%
%ADD13RoundRect,0.250000X0.625000X-0.312500X0.625000X0.312500X-0.625000X0.312500X-0.625000X-0.312500X0*%
%ADD14R,3.500000X2.350000*%
%ADD15RoundRect,0.250000X-0.650000X0.325000X-0.650000X-0.325000X0.650000X-0.325000X0.650000X0.325000X0*%
%ADD16RoundRect,0.150000X0.825000X0.150000X-0.825000X0.150000X-0.825000X-0.150000X0.825000X-0.150000X0*%
%ADD17RoundRect,0.250000X-0.325000X-0.650000X0.325000X-0.650000X0.325000X0.650000X-0.325000X0.650000X0*%
%ADD18RoundRect,0.167500X-0.407500X0.167500X-0.407500X-0.167500X0.407500X-0.167500X0.407500X0.167500X0*%
%ADD19RoundRect,0.100000X-0.100000X0.625000X-0.100000X-0.625000X0.100000X-0.625000X0.100000X0.625000X0*%
%ADD20RoundRect,0.250000X0.650000X-0.325000X0.650000X0.325000X-0.650000X0.325000X-0.650000X-0.325000X0*%
%ADD21RoundRect,0.250000X1.000000X0.650000X-1.000000X0.650000X-1.000000X-0.650000X1.000000X-0.650000X0*%
%ADD22RoundRect,0.100000X-0.100000X0.637500X-0.100000X-0.637500X0.100000X-0.637500X0.100000X0.637500X0*%
%ADD23R,1.925000X0.650000*%
%ADD24RoundRect,0.225000X0.225000X0.375000X-0.225000X0.375000X-0.225000X-0.375000X0.225000X-0.375000X0*%
%ADD25RoundRect,0.250000X-0.312500X-0.625000X0.312500X-0.625000X0.312500X0.625000X-0.312500X0.625000X0*%
%ADD26RoundRect,0.250000X0.325000X0.650000X-0.325000X0.650000X-0.325000X-0.650000X0.325000X-0.650000X0*%
%ADD27RoundRect,0.250000X0.550000X-1.500000X0.550000X1.500000X-0.550000X1.500000X-0.550000X-1.500000X0*%
%ADD28R,0.725000X0.350000*%
%ADD29R,0.725000X0.349998*%
%ADD30RoundRect,0.100000X-0.637500X-0.100000X0.637500X-0.100000X0.637500X0.100000X-0.637500X0.100000X0*%
%ADD31R,2.350000X3.500000*%
%ADD32RoundRect,0.250000X-0.550000X1.500000X-0.550000X-1.500000X0.550000X-1.500000X0.550000X1.500000X0*%
%ADD33RoundRect,0.150000X-0.150000X0.825000X-0.150000X-0.825000X0.150000X-0.825000X0.150000X0.825000X0*%
%ADD34RoundRect,0.250000X0.650000X-1.000000X0.650000X1.000000X-0.650000X1.000000X-0.650000X-1.000000X0*%
%ADD35RoundRect,0.250000X0.325000X0.450000X-0.325000X0.450000X-0.325000X-0.450000X0.325000X-0.450000X0*%
G04 APERTURE END LIST*
D10*
%TO.C,R36*%
X119700000Y-89400000D03*
X116775000Y-89400000D03*
%TD*%
D11*
%TO.C,R29*%
X147780000Y-58815000D03*
X147780000Y-61740000D03*
%TD*%
%TO.C,R39*%
X118150000Y-78915000D03*
X118150000Y-81840000D03*
%TD*%
D12*
%TO.C,U8*%
X165940000Y-46460000D03*
X165940000Y-47730000D03*
X165940000Y-49000000D03*
X165940000Y-50270000D03*
X170890000Y-50270000D03*
X170890000Y-49000000D03*
X170890000Y-47730000D03*
X170890000Y-46460000D03*
%TD*%
D10*
%TO.C,R5*%
X146775000Y-95970000D03*
X143850000Y-95970000D03*
%TD*%
D13*
%TO.C,R16*%
X167610000Y-75600000D03*
X167610000Y-72675000D03*
%TD*%
D14*
%TO.C,L2*%
X159250000Y-45440000D03*
X159250000Y-51140000D03*
%TD*%
D11*
%TO.C,R30*%
X151020000Y-58815000D03*
X151020000Y-61740000D03*
%TD*%
D15*
%TO.C,C23*%
X138206667Y-82720000D03*
X138206667Y-85670000D03*
%TD*%
D16*
%TO.C,U10*%
X120222501Y-69830000D03*
X120222501Y-68560000D03*
X120222501Y-67290000D03*
X120222501Y-66020000D03*
X115272501Y-66020000D03*
X115272501Y-67290000D03*
X115272501Y-68560000D03*
X115272501Y-69830000D03*
%TD*%
D17*
%TO.C,C2*%
X137750000Y-95950000D03*
X140700000Y-95950000D03*
%TD*%
D10*
%TO.C,R40*%
X168425000Y-96300000D03*
X165500000Y-96300000D03*
%TD*%
D18*
%TO.C,U5*%
X191937500Y-80585000D03*
X190517500Y-80585000D03*
X191937500Y-81415000D03*
X190517500Y-81415000D03*
D19*
X192852500Y-78850000D03*
X192202500Y-78850000D03*
X191552500Y-78850000D03*
X190902500Y-78850000D03*
X190252500Y-78850000D03*
X189602500Y-78850000D03*
X189602500Y-83150000D03*
X190252500Y-83150000D03*
X190902500Y-83150000D03*
X191552500Y-83150000D03*
X192202500Y-83150000D03*
X192852500Y-83150000D03*
%TD*%
D13*
%TO.C,R26*%
X167420000Y-61220000D03*
X167420000Y-58295000D03*
%TD*%
D20*
%TO.C,C34*%
X114465000Y-82552500D03*
X114465000Y-79602500D03*
%TD*%
%TO.C,C11*%
X187000000Y-86350000D03*
X187000000Y-83400000D03*
%TD*%
D11*
%TO.C,R33*%
X146480000Y-64205000D03*
X146480000Y-67130000D03*
%TD*%
D21*
%TO.C,D4*%
X152950000Y-46150000D03*
X148950000Y-46150000D03*
%TD*%
D13*
%TO.C,R12*%
X176800000Y-76450000D03*
X176800000Y-73525000D03*
%TD*%
D22*
%TO.C,U7*%
X155700000Y-74040000D03*
X155050000Y-74040000D03*
X154400000Y-74040000D03*
X153750000Y-74040000D03*
X153100000Y-74040000D03*
X152450000Y-74040000D03*
X151800000Y-74040000D03*
X151150000Y-74040000D03*
X150500000Y-74040000D03*
X149850000Y-74040000D03*
X149850000Y-79765000D03*
X150500000Y-79765000D03*
X151150000Y-79765000D03*
X151800000Y-79765000D03*
X152450000Y-79765000D03*
X153100000Y-79765000D03*
X153750000Y-79765000D03*
X154400000Y-79765000D03*
X155050000Y-79765000D03*
X155700000Y-79765000D03*
%TD*%
D23*
%TO.C,IC1*%
X122640000Y-76410000D03*
X122640000Y-77680000D03*
X122640000Y-78950000D03*
X122640000Y-80220000D03*
X122640000Y-81490000D03*
X122640000Y-82760000D03*
X122640000Y-84030000D03*
X122640000Y-85300000D03*
X132064000Y-85300000D03*
X132064000Y-84030000D03*
X132064000Y-82760000D03*
X132064000Y-81490000D03*
X132064000Y-80220000D03*
X132064000Y-78950000D03*
X132064000Y-77680000D03*
X132064000Y-76410000D03*
%TD*%
D24*
%TO.C,D5*%
X113590000Y-90070000D03*
X110290000Y-90070000D03*
%TD*%
D25*
%TO.C,R28*%
X163810000Y-63390000D03*
X166735000Y-63390000D03*
%TD*%
D13*
%TO.C,R24*%
X149030000Y-67120000D03*
X149030000Y-64195000D03*
%TD*%
D26*
%TO.C,C9*%
X195152500Y-75300000D03*
X192202500Y-75300000D03*
%TD*%
D17*
%TO.C,C32*%
X120200000Y-62817500D03*
X123150000Y-62817500D03*
%TD*%
D15*
%TO.C,C24*%
X183040000Y-45540000D03*
X183040000Y-48490000D03*
%TD*%
D13*
%TO.C,R10*%
X189050000Y-76650000D03*
X189050000Y-73725000D03*
%TD*%
D10*
%TO.C,R27*%
X159175000Y-66210000D03*
X156250000Y-66210000D03*
%TD*%
D13*
%TO.C,R13*%
X170150000Y-75600000D03*
X170150000Y-72675000D03*
%TD*%
D15*
%TO.C,C22*%
X161100000Y-74000000D03*
X161100000Y-76950000D03*
%TD*%
D10*
%TO.C,R11*%
X193975000Y-91450000D03*
X191050000Y-91450000D03*
%TD*%
D27*
%TO.C,C8*%
X133960000Y-50680000D03*
X133960000Y-45280000D03*
%TD*%
D20*
%TO.C,C33*%
X114465000Y-87777500D03*
X114465000Y-84827500D03*
%TD*%
D13*
%TO.C,R18*%
X112920000Y-59230000D03*
X112920000Y-56305000D03*
%TD*%
D17*
%TO.C,C10*%
X191050000Y-88650000D03*
X194000000Y-88650000D03*
%TD*%
D10*
%TO.C,R7*%
X147525000Y-92000000D03*
X144600000Y-92000000D03*
%TD*%
D17*
%TO.C,C4*%
X176875000Y-90450000D03*
X179825000Y-90450000D03*
%TD*%
D13*
%TO.C,R15*%
X188650000Y-91550000D03*
X188650000Y-88625000D03*
%TD*%
D11*
%TO.C,R34*%
X143930000Y-64205000D03*
X143930000Y-67130000D03*
%TD*%
D13*
%TO.C,R17*%
X173550000Y-76450000D03*
X173550000Y-73525000D03*
%TD*%
D12*
%TO.C,U9*%
X154510000Y-59870000D03*
X154510000Y-61140000D03*
X154510000Y-62410000D03*
X154510000Y-63680000D03*
X159460000Y-63680000D03*
X159460000Y-62410000D03*
X159460000Y-61140000D03*
X159460000Y-59870000D03*
%TD*%
D26*
%TO.C,C25*%
X129325000Y-95440000D03*
X126375000Y-95440000D03*
%TD*%
D13*
%TO.C,R1*%
X179580000Y-96150000D03*
X179580000Y-93225000D03*
%TD*%
D28*
%TO.C,U1*%
X142600000Y-91100000D03*
X142600000Y-91750000D03*
X142600000Y-92400000D03*
X142600000Y-93050000D03*
X140325000Y-93050000D03*
X140325000Y-92400000D03*
X140325000Y-91750000D03*
D29*
X140325000Y-91100001D03*
%TD*%
D11*
%TO.C,R22*%
X129020000Y-90007500D03*
X129020000Y-92932500D03*
%TD*%
D25*
%TO.C,R31*%
X142405000Y-61730000D03*
X145330000Y-61730000D03*
%TD*%
D10*
%TO.C,R20*%
X161025000Y-79750000D03*
X158100000Y-79750000D03*
%TD*%
D20*
%TO.C,C17*%
X143425000Y-80625000D03*
X143425000Y-77675000D03*
%TD*%
D13*
%TO.C,R25*%
X170480000Y-61220000D03*
X170480000Y-58295000D03*
%TD*%
D27*
%TO.C,C15*%
X124970000Y-50680000D03*
X124970000Y-45280000D03*
%TD*%
D13*
%TO.C,R23*%
X151580000Y-67130000D03*
X151580000Y-64205000D03*
%TD*%
D30*
%TO.C,U4*%
X174875000Y-79550000D03*
X174875000Y-80200000D03*
X174875000Y-80850000D03*
X174875000Y-81500000D03*
X174875000Y-82150000D03*
X174875000Y-82800000D03*
X174875000Y-83450000D03*
X174875000Y-84100000D03*
X180600000Y-84100000D03*
X180600000Y-83450000D03*
X180600000Y-82800000D03*
X180600000Y-82150000D03*
X180600000Y-81500000D03*
X180600000Y-80850000D03*
X180600000Y-80200000D03*
X180600000Y-79550000D03*
%TD*%
D20*
%TO.C,C19*%
X141073333Y-85670000D03*
X141073333Y-82720000D03*
%TD*%
D25*
%TO.C,R9*%
X171462500Y-89550000D03*
X174387500Y-89550000D03*
%TD*%
D26*
%TO.C,C31*%
X125290000Y-91050000D03*
X122340000Y-91050000D03*
%TD*%
D15*
%TO.C,C14*%
X194962500Y-83150000D03*
X194962500Y-86100000D03*
%TD*%
D20*
%TO.C,C16*%
X135340000Y-85670000D03*
X135340000Y-82720000D03*
%TD*%
D15*
%TO.C,C18*%
X158400000Y-74000000D03*
X158400000Y-76950000D03*
%TD*%
D17*
%TO.C,C21*%
X132460000Y-91320000D03*
X135410000Y-91320000D03*
%TD*%
D15*
%TO.C,C1*%
X138075000Y-90350000D03*
X138075000Y-93300000D03*
%TD*%
D25*
%TO.C,R8*%
X182362500Y-89550000D03*
X185287500Y-89550000D03*
%TD*%
D17*
%TO.C,C5*%
X182350000Y-93225000D03*
X185300000Y-93225000D03*
%TD*%
D11*
%TO.C,R43*%
X112270000Y-62485000D03*
X112270000Y-65410000D03*
%TD*%
D20*
%TO.C,C13*%
X183800000Y-86350000D03*
X183800000Y-83400000D03*
%TD*%
D27*
%TO.C,C27*%
X142950000Y-50680000D03*
X142950000Y-45280000D03*
%TD*%
D26*
%TO.C,C29*%
X125290000Y-88250000D03*
X122340000Y-88250000D03*
%TD*%
D31*
%TO.C,L1*%
X124310000Y-56700000D03*
X118610000Y-56700000D03*
%TD*%
D10*
%TO.C,R21*%
X135397500Y-95090000D03*
X132472500Y-95090000D03*
%TD*%
D15*
%TO.C,C7*%
X184800000Y-76600000D03*
X184800000Y-79550000D03*
%TD*%
D26*
%TO.C,C6*%
X179825000Y-87500000D03*
X176875000Y-87500000D03*
%TD*%
D25*
%TO.C,R19*%
X189602500Y-85750000D03*
X192527500Y-85750000D03*
%TD*%
D11*
%TO.C,R38*%
X118150000Y-84100000D03*
X118150000Y-87025000D03*
%TD*%
D32*
%TO.C,C20*%
X177370000Y-45280000D03*
X177370000Y-50680000D03*
%TD*%
D15*
%TO.C,C28*%
X115940000Y-73400000D03*
X115940000Y-76350000D03*
%TD*%
%TO.C,C30*%
X119040000Y-73400000D03*
X119040000Y-76350000D03*
%TD*%
D24*
%TO.C,D6*%
X113540000Y-77350000D03*
X110240000Y-77350000D03*
%TD*%
D20*
%TO.C,C12*%
X125600000Y-64765000D03*
X125600000Y-61815000D03*
%TD*%
D17*
%TO.C,C26*%
X158087500Y-82850000D03*
X161037500Y-82850000D03*
%TD*%
D11*
%TO.C,R37*%
X112270000Y-69807500D03*
X112270000Y-72732500D03*
%TD*%
D33*
%TO.C,U6*%
X132000000Y-62950000D03*
X130730000Y-62950000D03*
X129460000Y-62950000D03*
X128190000Y-62950000D03*
X128190000Y-67900000D03*
X129460000Y-67900000D03*
X130730000Y-67900000D03*
X132000000Y-67900000D03*
%TD*%
D13*
%TO.C,R32*%
X140560000Y-67130000D03*
X140560000Y-64205000D03*
%TD*%
D34*
%TO.C,D3*%
X130700000Y-59070000D03*
X130700000Y-55070000D03*
%TD*%
D35*
%TO.C,D2*%
X113990000Y-53240000D03*
X111940000Y-53240000D03*
%TD*%
D26*
%TO.C,C3*%
X174400000Y-93225000D03*
X171450000Y-93225000D03*
%TD*%
D13*
%TO.C,R2*%
X177040000Y-96150000D03*
X177040000Y-93225000D03*
%TD*%
D11*
%TO.C,R41*%
X110740000Y-84820000D03*
X110740000Y-87745000D03*
%TD*%
D10*
%TO.C,R35*%
X119700000Y-92000000D03*
X116775000Y-92000000D03*
%TD*%
D11*
%TO.C,R42*%
X110740000Y-79635000D03*
X110740000Y-82560000D03*
%TD*%
%TO.C,R14*%
X182150000Y-72700000D03*
X182150000Y-75625000D03*
%TD*%
M02*
