M48
; DRILL file {KiCad 9.0.5} date 2026-04-22T17:07:07+0200
; FORMAT={-:-/ absolute / metric / decimal}
; #@! TF.CreationDate,2026-04-22T17:07:07+02:00
; #@! TF.GenerationSoftware,Kicad,Pcbnew,9.0.5
; #@! TF.FileFunction,Plated,1,2,PTH
FMAT,2
METRIC
; #@! TA.AperFunction,Plated,PTH,ViaDrill
T1C0.300
; #@! TA.AperFunction,Plated,PTH,ComponentDrill
T2C0.600
; #@! TA.AperFunction,Plated,PTH,ComponentDrill
T3C1.100
; #@! TA.AperFunction,Plated,PTH,ComponentDrill
T4C4.000
%
G90
G05
T1
X102.65Y-57.05
X102.65Y-59.5
X102.65Y-67.35
X102.65Y-70.1
X102.65Y-80.7
X102.65Y-88.2
X102.65Y-92.17
X102.65Y-95.95
X102.75Y-73.55
X104.35Y-63.55
X104.59Y-84.54
X104.63Y-76.84
X106.75Y-92.15
X106.85Y-73.55
X106.9Y-70.55
X108.3Y-63.5
X108.47Y-76.84
X108.53Y-80.86
X108.57Y-88.13
X109.6Y-53.45
X109.6Y-57.25
X109.6Y-61.0
X109.6Y-65.65
X109.6Y-70.55
X109.6Y-73.55
X110.77Y-92.17
X110.77Y-95.95
X112.57Y-83.78
X113.15Y-103.85
X114.5Y-92.17
X114.5Y-95.95
X115.4Y-43.65
X115.45Y-57.55
X116.28Y-78.72
X116.31Y-83.78
X116.35Y-53.45
X116.925Y-103.85
X117.2Y-60.3
X118.05Y-95.95
X118.46Y-66.41
X119.91Y-78.16
X120.7Y-103.85
X120.96Y-75.1
X121.3Y-95.95
X122.35Y-67.95
X122.7Y-64.9
X123.55Y-99.35
X123.55Y-103.65
X123.95Y-69.45
X125.14Y-77.55
X125.22Y-75.02
X125.26Y-82.4
X126.15Y-68.05
X127.0Y-103.85
X127.2Y-57.3
X127.57Y-71.53
X127.75Y-52.3
X127.97Y-60.22
X128.15Y-70.15
X128.2Y-99.8
X129.02Y-90.007
X129.4Y-46.5
X129.45Y-76.75
X129.45Y-79.25
X129.45Y-82.15
X129.45Y-85.0
X129.45Y-87.3
X129.45Y-97.95
X129.5Y-70.88
X129.55Y-73.2
X130.05Y-91.45
X130.775Y-103.85
X131.192Y-64.733
X131.55Y-49.75
X131.71Y-74.84
X133.5Y-69.25
X133.7Y-99.8
X133.95Y-93.25
X134.15Y-72.8
X134.3Y-62.8
X134.55Y-103.85
X135.05Y-80.6
X135.1Y-97.5
X135.398Y-95.09
X136.8Y-56.95
X136.88Y-87.17
X136.95Y-65.9
X137.8Y-51.8
X138.0Y-67.7
X138.05Y-63.4
X138.45Y-44.2
X138.45Y-48.9
X138.65Y-58.45
X138.7Y-71.7
X138.7Y-99.35
X138.7Y-103.65
X139.2Y-74.0
X139.92Y-74.7
X140.1Y-72.85
X140.25Y-80.25
X140.7Y-94.1
X140.75Y-62.65
X141.05Y-60.22
X141.25Y-89.55
X141.95Y-103.85
X143.425Y-80.625
X143.5Y-58.45
X143.9Y-93.9
X144.1Y-82.65
X144.1Y-85.85
X144.65Y-72.85
X144.9Y-75.85
X145.0Y-89.55
X145.725Y-103.85
X145.9Y-48.6
X146.48Y-67.13
X147.1Y-52.35
X147.85Y-72.7
X148.6Y-73.4
X148.7Y-49.55
X148.95Y-101.85
X149.15Y-81.917
X149.15Y-85.162
X149.15Y-88.408
X149.15Y-91.654
X149.15Y-94.9
X149.35Y-98.45
X150.7Y-77.85
X151.2Y-52.35
X151.65Y-103.85
X153.3Y-56.95
X153.4Y-75.95
X153.5Y-49.55
X153.85Y-81.917
X153.95Y-85.162
X153.95Y-91.654
X153.95Y-94.9
X154.0Y-88.408
X154.2Y-66.7
X154.8Y-52.35
X155.425Y-103.85
X155.773Y-75.5
X156.0Y-78.1
X156.2Y-56.95
X156.2Y-60.5
X156.25Y-66.21
X157.35Y-62.95
X158.75Y-85.162
X158.75Y-88.408
X158.75Y-91.654
X158.75Y-94.9
X159.05Y-56.95
X159.2Y-103.85
X159.46Y-59.87
X160.35Y-64.9
X160.4Y-67.35
X161.1Y-75.45
X161.75Y-98.375
X161.75Y-101.85
X161.8Y-85.162
X161.8Y-88.408
X161.8Y-91.654
X161.8Y-94.9
X161.85Y-72.2
X162.4Y-78.85
X162.5Y-60.8
X162.5Y-66.25
X163.2Y-56.95
X163.45Y-43.95
X163.81Y-72.9
X163.9Y-52.15
X164.7Y-73.3
X165.05Y-103.85
X165.07Y-58.82
X165.6Y-66.85
X165.85Y-78.35
X165.85Y-82.05
X166.15Y-88.408
X166.15Y-91.654
X166.4Y-71.2
X167.05Y-52.15
X167.4Y-56.25
X167.9Y-43.95
X168.425Y-96.3
X168.7Y-78.35
X168.7Y-82.05
X168.7Y-85.75
X168.825Y-103.85
X169.4Y-63.8
X169.4Y-66.85
X169.75Y-91.55
X170.4Y-56.4
X170.5Y-52.1
X171.0Y-96.35
X171.95Y-82.05
X172.0Y-101.85
X172.25Y-43.95
X172.75Y-60.55
X172.75Y-64.5
X172.85Y-52.1
X173.1Y-72.0
X173.45Y-86.5
X173.65Y-78.1
X174.1Y-48.6
X174.4Y-95.7
X175.15Y-91.35
X175.6Y-57.55
X175.6Y-103.85
X176.1Y-61.15
X176.1Y-65.95
X176.7Y-71.8
X177.3Y-78.1
X177.37Y-45.28
X177.8Y-81.85
X178.3Y-98.05
X178.3Y-100.35
X178.95Y-72.35
X179.15Y-61.15
X179.15Y-65.95
X179.375Y-103.85
X179.75Y-77.8
X181.35Y-77.85
X181.4Y-57.55
X181.55Y-91.4
X182.35Y-51.95
X182.45Y-95.75
X183.15Y-103.85
X183.5Y-61.15
X183.5Y-65.95
X183.85Y-84.9
X184.8Y-79.55
X184.85Y-81.3
X185.25Y-57.55
X185.3Y-95.9
X185.45Y-72.0
X185.45Y-74.5
X186.35Y-44.15
X186.35Y-47.25
X186.4Y-51.95
X186.9Y-61.15
X186.9Y-65.95
X187.0Y-84.9
X187.4Y-78.4
X187.4Y-81.3
X187.6Y-99.25
X187.6Y-103.8
X187.95Y-93.8
X189.1Y-57.55
X189.55Y-72.0
X190.7Y-61.15
X190.7Y-65.95
X191.15Y-77.1
X194.15Y-57.45
X194.15Y-61.675
X194.15Y-65.9
X194.35Y-72.6
X195.2Y-94.35
X195.75Y-78.15
X195.75Y-81.0
T2
X103.15Y-100.06
X103.24Y-47.66
X104.029Y-97.939
X104.029Y-102.181
X104.119Y-45.539
X104.119Y-49.781
X106.15Y-97.06
X106.15Y-103.06
X106.24Y-44.66
X106.24Y-50.66
X108.271Y-97.939
X108.271Y-102.181
X108.361Y-45.539
X108.361Y-49.781
X109.15Y-100.06
X109.24Y-47.66
X189.7Y-47.6
X189.7Y-100.06
X190.579Y-45.479
X190.579Y-49.721
X190.579Y-97.939
X190.579Y-102.181
X192.7Y-44.6
X192.7Y-50.6
X192.7Y-97.06
X192.7Y-103.06
X194.821Y-45.479
X194.821Y-49.721
X194.821Y-97.939
X194.821Y-102.181
X195.7Y-47.6
X195.7Y-100.06
T3
X104.25Y-55.88
X104.25Y-58.42
X104.25Y-60.96
X104.25Y-66.16
X104.25Y-68.7
X104.25Y-71.24
X104.5Y-79.36
X104.5Y-81.9
X104.5Y-87.06
X104.5Y-89.6
X113.28Y-101.89
X114.19Y-45.94
X115.82Y-101.89
X116.73Y-45.94
X118.36Y-101.89
X120.9Y-101.89
X126.02Y-101.89
X128.56Y-101.89
X131.1Y-101.89
X133.64Y-101.89
X136.18Y-101.89
X137.13Y-54.62
X137.13Y-69.86
X139.67Y-54.62
X139.67Y-69.86
X141.35Y-101.89
X142.21Y-54.62
X142.21Y-69.86
X143.89Y-101.89
X144.75Y-54.62
X144.75Y-69.86
X146.43Y-101.89
X147.29Y-54.62
X147.29Y-69.86
X149.83Y-54.62
X149.83Y-69.86
X151.53Y-101.89
X152.37Y-54.62
X152.37Y-69.86
X154.07Y-101.89
X154.91Y-54.62
X154.91Y-69.86
X156.61Y-101.89
X157.45Y-54.62
X157.45Y-69.86
X159.15Y-101.89
X159.99Y-54.62
X159.99Y-69.86
X162.53Y-54.62
X162.53Y-69.86
X164.3Y-101.89
X165.07Y-54.62
X165.07Y-69.86
X166.84Y-101.89
X167.61Y-54.62
X167.61Y-69.86
X169.38Y-101.89
X170.15Y-54.62
X170.15Y-69.86
X172.69Y-54.62
X172.69Y-69.86
X174.5Y-101.89
X175.23Y-54.62
X175.23Y-69.86
X177.04Y-101.89
X177.77Y-54.62
X177.77Y-69.86
X179.58Y-101.89
X180.31Y-54.62
X180.31Y-69.86
X182.12Y-101.89
X182.85Y-54.62
X182.85Y-69.86
X184.66Y-101.89
X185.39Y-54.62
X185.39Y-69.86
X187.93Y-54.62
X187.93Y-69.86
X190.47Y-54.62
X190.47Y-69.86
X193.01Y-54.62
X193.01Y-69.86
X195.55Y-54.62
X195.55Y-69.86
T4
X106.15Y-100.06
X106.24Y-47.66
X192.7Y-47.6
X192.7Y-100.06
M30
