M48
; DRILL file {KiCad 9.0.5} date 2026-01-10T12:41:51+0100
; FORMAT={-:-/ absolute / metric / decimal}
; #@! TF.CreationDate,2026-01-10T12:41:51+01:00
; #@! TF.GenerationSoftware,Kicad,Pcbnew,9.0.5
; #@! TF.FileFunction,Plated,1,2,PTH
FMAT,2
METRIC
; #@! TA.AperFunction,Plated,PTH,ViaDrill
T1C0.300
; #@! TA.AperFunction,Plated,PTH,ComponentDrill
T2C0.600
; #@! TA.AperFunction,Plated,PTH,ComponentDrill
T3C0.800
; #@! TA.AperFunction,Plated,PTH,ComponentDrill
T4C1.000
; #@! TA.AperFunction,Plated,PTH,ComponentDrill
T5C1.100
; #@! TA.AperFunction,Plated,PTH,ComponentDrill
T6C1.200
; #@! TA.AperFunction,Plated,PTH,ComponentDrill
T7C4.000
%
G90
G05
T1
X98.09Y-96.32
X98.3Y-72.39
X100.41Y-96.32
X100.58Y-72.39
X101.26Y-64.89
X101.42Y-88.82
X102.72Y-72.39
X102.77Y-96.32
X102.81Y-64.89
X102.87Y-88.82
X103.945Y-96.695
X104.03Y-72.85
X104.09Y-64.37
X104.155Y-88.235
X105.085Y-97.835
X105.095Y-87.295
X105.12Y-63.34
X105.19Y-74.01
X106.045Y-62.415
X106.07Y-86.32
X106.145Y-98.895
X106.15Y-74.97
X108.525Y-86.275
X108.553Y-62.387
X108.565Y-98.825
X108.632Y-74.842
X109.31Y-87.06
X109.423Y-63.257
X109.555Y-97.835
X109.567Y-73.907
X110.205Y-87.955
X110.258Y-64.092
X110.492Y-72.982
X110.525Y-96.865
X111.69Y-64.655
X111.69Y-88.57
X111.69Y-96.57
X111.71Y-72.655
X112.92Y-64.655
X112.92Y-88.57
X112.92Y-96.57
X112.94Y-72.655
X114.15Y-64.655
X114.15Y-88.57
X114.15Y-96.57
X114.17Y-72.655
X115.38Y-64.655
X115.38Y-88.57
X115.38Y-96.57
X115.4Y-72.655
X116.61Y-64.655
X116.61Y-72.655
X116.61Y-88.57
X116.61Y-96.57
X126.54Y-64.655
X126.582Y-72.655
X126.642Y-88.57
X126.702Y-96.59
X127.762Y-64.655
X127.804Y-72.655
X127.864Y-88.57
X127.924Y-96.59
X128.984Y-64.655
X129.026Y-72.655
X129.086Y-88.57
X129.146Y-96.59
X130.206Y-64.655
X130.248Y-72.655
X130.308Y-88.57
X130.368Y-96.59
X131.428Y-64.655
X131.47Y-72.655
X131.53Y-88.57
X131.59Y-96.59
X132.65Y-64.655
X132.692Y-72.655
X132.752Y-88.57
X132.812Y-96.59
X133.517Y-64.752
X133.582Y-72.562
X133.87Y-96.38
X134.03Y-88.82
X161.37Y-57.38
X161.37Y-61.932
X161.37Y-61.932
X161.37Y-66.484
X161.37Y-66.484
X161.37Y-71.036
X161.37Y-71.036
X161.37Y-75.588
X161.37Y-75.588
X161.37Y-80.14
X161.37Y-80.14
X161.37Y-84.692
X161.37Y-89.244
X161.37Y-89.244
X161.37Y-93.796
X161.37Y-93.796
X161.37Y-98.348
X161.39Y-106.92
X161.41Y-52.39
X165.58Y-106.96
X165.61Y-52.48
X165.676Y-57.38
X165.676Y-61.932
X165.676Y-66.484
X165.676Y-71.036
X165.676Y-75.588
X165.676Y-80.14
X165.676Y-89.244
X165.676Y-93.796
X165.676Y-102.9
X165.98Y-100.02
X167.11Y-100.02
X168.33Y-100.02
X169.59Y-100.02
X169.94Y-59.69
X169.98Y-52.64
X169.982Y-57.38
X169.982Y-61.932
X169.982Y-66.484
X169.982Y-71.036
X169.982Y-75.588
X169.982Y-80.14
X169.982Y-89.244
X169.982Y-93.796
X169.982Y-98.348
X169.982Y-102.9
X169.99Y-84.71
X170.01Y-106.96
X170.87Y-59.69
X170.94Y-100.02
X171.815Y-60.055
X171.915Y-99.185
X172.63Y-60.87
X172.79Y-98.31
X173.465Y-61.705
X173.675Y-97.425
X174.23Y-106.88
X174.28Y-62.52
X174.288Y-57.38
X174.288Y-71.036
X174.288Y-75.588
X174.288Y-80.14
X174.288Y-89.244
X174.288Y-93.796
X174.29Y-102.76
X174.296Y-84.71
X174.48Y-52.64
X174.6Y-96.5
X175.175Y-63.415
X175.565Y-95.555
X176.06Y-64.3
X176.405Y-94.715
X176.955Y-65.195
X177.09Y-87.25
X177.09Y-88.51
X177.09Y-89.67
X177.09Y-90.93
X177.09Y-93.7
X177.75Y-86.25
X177.755Y-65.995
X178.53Y-85.47
X178.58Y-66.82
X178.594Y-71.036
X178.594Y-75.588
X178.594Y-80.14
X179.435Y-84.565
X180.14Y-96.66
X180.24Y-83.76
X180.35Y-68.59
X181.17Y-69.41
X181.33Y-70.64
X181.33Y-71.91
X181.33Y-73.21
X181.33Y-74.38
X181.33Y-75.68
X182.9Y-61.932
X182.9Y-89.244
X182.9Y-93.796
X183.23Y-66.466
X183.23Y-71.018
X183.23Y-75.57
T2
X86.51Y-55.93
X86.51Y-103.04
X87.389Y-53.809
X87.389Y-58.051
X87.389Y-100.919
X87.389Y-105.161
X89.51Y-52.93
X89.51Y-58.93
X89.51Y-100.04
X89.51Y-106.04
X91.631Y-53.809
X91.631Y-58.051
X91.631Y-100.919
X91.631Y-105.161
X92.51Y-55.93
X92.51Y-103.04
X176.51Y-55.93
X176.51Y-103.04
X177.389Y-53.809
X177.389Y-58.051
X177.389Y-100.919
X177.389Y-105.161
X179.51Y-52.93
X179.51Y-58.93
X179.51Y-100.04
X179.51Y-106.04
X181.631Y-53.809
X181.631Y-58.051
X181.631Y-100.919
X181.631Y-105.161
X182.51Y-55.93
X182.51Y-103.04
T3
X96.55Y-72.39
X96.55Y-96.32
X99.45Y-64.89
X99.45Y-88.82
X172.09Y-92.25
X174.55Y-67.79
X177.09Y-92.25
X179.55Y-67.79
T4
X118.18Y-64.655
X118.18Y-72.655
X118.18Y-88.57
X118.18Y-96.57
X125.18Y-64.655
X125.18Y-72.655
X125.18Y-88.57
X125.18Y-96.57
X134.455Y-65.69
X134.455Y-71.69
X135.23Y-90.02
X135.23Y-95.02
X164.31Y-85.02
X164.31Y-100.02
X168.055Y-59.69
X168.055Y-77.69
T5
X88.06Y-78.93
X88.06Y-81.47
X181.33Y-77.59
X181.33Y-80.13
X181.33Y-82.67
T6
X107.32Y-61.155
X107.32Y-76.155
X107.32Y-85.07
X107.32Y-100.07
T7
X89.51Y-55.93
X89.51Y-103.04
X179.51Y-55.93
X179.51Y-103.04
M30
