%TF.GenerationSoftware,KiCad,Pcbnew,9.0.5*%
%TF.CreationDate,2026-01-10T12:41:53+01:00*%
%TF.ProjectId,IGBT_Power,49474254-5f50-46f7-9765-722e6b696361,rev?*%
%TF.SameCoordinates,Original*%
%TF.FileFunction,Legend,Bot*%
%TF.FilePolarity,Positive*%
%FSLAX46Y46*%
G04 Gerber Fmt 4.6, Leading zero omitted, Abs format (unit mm)*
G04 Created by KiCad (PCBNEW 9.0.5) date 2026-01-10 12:41:53*
%MOMM*%
%LPD*%
G01*
G04 APERTURE LIST*
%ADD10C,0.200000*%
%ADD11C,0.125000*%
G04 APERTURE END LIST*
D10*
X175926517Y-83177219D02*
X176497945Y-83177219D01*
X176212231Y-83177219D02*
X176212231Y-82177219D01*
X176212231Y-82177219D02*
X176307469Y-82320076D01*
X176307469Y-82320076D02*
X176402707Y-82415314D01*
X176402707Y-82415314D02*
X176497945Y-82462933D01*
X175021755Y-82177219D02*
X175497945Y-82177219D01*
X175497945Y-82177219D02*
X175545564Y-82653409D01*
X175545564Y-82653409D02*
X175497945Y-82605790D01*
X175497945Y-82605790D02*
X175402707Y-82558171D01*
X175402707Y-82558171D02*
X175164612Y-82558171D01*
X175164612Y-82558171D02*
X175069374Y-82605790D01*
X175069374Y-82605790D02*
X175021755Y-82653409D01*
X175021755Y-82653409D02*
X174974136Y-82748647D01*
X174974136Y-82748647D02*
X174974136Y-82986742D01*
X174974136Y-82986742D02*
X175021755Y-83081980D01*
X175021755Y-83081980D02*
X175069374Y-83129600D01*
X175069374Y-83129600D02*
X175164612Y-83177219D01*
X175164612Y-83177219D02*
X175402707Y-83177219D01*
X175402707Y-83177219D02*
X175497945Y-83129600D01*
X175497945Y-83129600D02*
X175545564Y-83081980D01*
X174688421Y-82177219D02*
X174355088Y-83177219D01*
X174355088Y-83177219D02*
X174021755Y-82177219D01*
X175799850Y-79697219D02*
X175704612Y-79697219D01*
X175704612Y-79697219D02*
X175609374Y-79744838D01*
X175609374Y-79744838D02*
X175561755Y-79792457D01*
X175561755Y-79792457D02*
X175514136Y-79887695D01*
X175514136Y-79887695D02*
X175466517Y-80078171D01*
X175466517Y-80078171D02*
X175466517Y-80316266D01*
X175466517Y-80316266D02*
X175514136Y-80506742D01*
X175514136Y-80506742D02*
X175561755Y-80601980D01*
X175561755Y-80601980D02*
X175609374Y-80649600D01*
X175609374Y-80649600D02*
X175704612Y-80697219D01*
X175704612Y-80697219D02*
X175799850Y-80697219D01*
X175799850Y-80697219D02*
X175895088Y-80649600D01*
X175895088Y-80649600D02*
X175942707Y-80601980D01*
X175942707Y-80601980D02*
X175990326Y-80506742D01*
X175990326Y-80506742D02*
X176037945Y-80316266D01*
X176037945Y-80316266D02*
X176037945Y-80078171D01*
X176037945Y-80078171D02*
X175990326Y-79887695D01*
X175990326Y-79887695D02*
X175942707Y-79792457D01*
X175942707Y-79792457D02*
X175895088Y-79744838D01*
X175895088Y-79744838D02*
X175799850Y-79697219D01*
X175180802Y-79697219D02*
X174847469Y-80697219D01*
X174847469Y-80697219D02*
X174514136Y-79697219D01*
X176790326Y-77686266D02*
X176028422Y-77686266D01*
X175076041Y-77067219D02*
X175552231Y-77067219D01*
X175552231Y-77067219D02*
X175599850Y-77543409D01*
X175599850Y-77543409D02*
X175552231Y-77495790D01*
X175552231Y-77495790D02*
X175456993Y-77448171D01*
X175456993Y-77448171D02*
X175218898Y-77448171D01*
X175218898Y-77448171D02*
X175123660Y-77495790D01*
X175123660Y-77495790D02*
X175076041Y-77543409D01*
X175076041Y-77543409D02*
X175028422Y-77638647D01*
X175028422Y-77638647D02*
X175028422Y-77876742D01*
X175028422Y-77876742D02*
X175076041Y-77971980D01*
X175076041Y-77971980D02*
X175123660Y-78019600D01*
X175123660Y-78019600D02*
X175218898Y-78067219D01*
X175218898Y-78067219D02*
X175456993Y-78067219D01*
X175456993Y-78067219D02*
X175552231Y-78019600D01*
X175552231Y-78019600D02*
X175599850Y-77971980D01*
X174742707Y-77067219D02*
X174409374Y-78067219D01*
X174409374Y-78067219D02*
X174076041Y-77067219D01*
D11*
X126332857Y-80135460D02*
X125856667Y-80135460D01*
X126428095Y-80421175D02*
X126094762Y-79421175D01*
X126094762Y-79421175D02*
X125761429Y-80421175D01*
X124999524Y-80421175D02*
X124999524Y-79421175D01*
X124999524Y-80373556D02*
X125094762Y-80421175D01*
X125094762Y-80421175D02*
X125285238Y-80421175D01*
X125285238Y-80421175D02*
X125380476Y-80373556D01*
X125380476Y-80373556D02*
X125428095Y-80325936D01*
X125428095Y-80325936D02*
X125475714Y-80230698D01*
X125475714Y-80230698D02*
X125475714Y-79944984D01*
X125475714Y-79944984D02*
X125428095Y-79849746D01*
X125428095Y-79849746D02*
X125380476Y-79802127D01*
X125380476Y-79802127D02*
X125285238Y-79754508D01*
X125285238Y-79754508D02*
X125094762Y-79754508D01*
X125094762Y-79754508D02*
X124999524Y-79802127D01*
X124523333Y-80421175D02*
X124523333Y-79754508D01*
X124523333Y-79944984D02*
X124475714Y-79849746D01*
X124475714Y-79849746D02*
X124428095Y-79802127D01*
X124428095Y-79802127D02*
X124332857Y-79754508D01*
X124332857Y-79754508D02*
X124237619Y-79754508D01*
X123904285Y-80421175D02*
X123904285Y-79754508D01*
X123904285Y-79421175D02*
X123951904Y-79468794D01*
X123951904Y-79468794D02*
X123904285Y-79516413D01*
X123904285Y-79516413D02*
X123856666Y-79468794D01*
X123856666Y-79468794D02*
X123904285Y-79421175D01*
X123904285Y-79421175D02*
X123904285Y-79516413D01*
X122999524Y-80421175D02*
X122999524Y-79897365D01*
X122999524Y-79897365D02*
X123047143Y-79802127D01*
X123047143Y-79802127D02*
X123142381Y-79754508D01*
X123142381Y-79754508D02*
X123332857Y-79754508D01*
X123332857Y-79754508D02*
X123428095Y-79802127D01*
X122999524Y-80373556D02*
X123094762Y-80421175D01*
X123094762Y-80421175D02*
X123332857Y-80421175D01*
X123332857Y-80421175D02*
X123428095Y-80373556D01*
X123428095Y-80373556D02*
X123475714Y-80278317D01*
X123475714Y-80278317D02*
X123475714Y-80183079D01*
X123475714Y-80183079D02*
X123428095Y-80087841D01*
X123428095Y-80087841D02*
X123332857Y-80040222D01*
X123332857Y-80040222D02*
X123094762Y-80040222D01*
X123094762Y-80040222D02*
X122999524Y-79992603D01*
X122523333Y-79754508D02*
X122523333Y-80421175D01*
X122523333Y-79849746D02*
X122475714Y-79802127D01*
X122475714Y-79802127D02*
X122380476Y-79754508D01*
X122380476Y-79754508D02*
X122237619Y-79754508D01*
X122237619Y-79754508D02*
X122142381Y-79802127D01*
X122142381Y-79802127D02*
X122094762Y-79897365D01*
X122094762Y-79897365D02*
X122094762Y-80421175D01*
X120856666Y-80421175D02*
X120856666Y-79421175D01*
X120856666Y-79421175D02*
X120523333Y-80135460D01*
X120523333Y-80135460D02*
X120190000Y-79421175D01*
X120190000Y-79421175D02*
X120190000Y-80421175D01*
X119285238Y-80421175D02*
X119285238Y-79897365D01*
X119285238Y-79897365D02*
X119332857Y-79802127D01*
X119332857Y-79802127D02*
X119428095Y-79754508D01*
X119428095Y-79754508D02*
X119618571Y-79754508D01*
X119618571Y-79754508D02*
X119713809Y-79802127D01*
X119285238Y-80373556D02*
X119380476Y-80421175D01*
X119380476Y-80421175D02*
X119618571Y-80421175D01*
X119618571Y-80421175D02*
X119713809Y-80373556D01*
X119713809Y-80373556D02*
X119761428Y-80278317D01*
X119761428Y-80278317D02*
X119761428Y-80183079D01*
X119761428Y-80183079D02*
X119713809Y-80087841D01*
X119713809Y-80087841D02*
X119618571Y-80040222D01*
X119618571Y-80040222D02*
X119380476Y-80040222D01*
X119380476Y-80040222D02*
X119285238Y-79992603D01*
X118809047Y-80421175D02*
X118809047Y-79754508D01*
X118809047Y-79944984D02*
X118761428Y-79849746D01*
X118761428Y-79849746D02*
X118713809Y-79802127D01*
X118713809Y-79802127D02*
X118618571Y-79754508D01*
X118618571Y-79754508D02*
X118523333Y-79754508D01*
X117761428Y-80373556D02*
X117856666Y-80421175D01*
X117856666Y-80421175D02*
X118047142Y-80421175D01*
X118047142Y-80421175D02*
X118142380Y-80373556D01*
X118142380Y-80373556D02*
X118189999Y-80325936D01*
X118189999Y-80325936D02*
X118237618Y-80230698D01*
X118237618Y-80230698D02*
X118237618Y-79944984D01*
X118237618Y-79944984D02*
X118189999Y-79849746D01*
X118189999Y-79849746D02*
X118142380Y-79802127D01*
X118142380Y-79802127D02*
X118047142Y-79754508D01*
X118047142Y-79754508D02*
X117856666Y-79754508D01*
X117856666Y-79754508D02*
X117761428Y-79802127D01*
X117189999Y-80421175D02*
X117285237Y-80373556D01*
X117285237Y-80373556D02*
X117332856Y-80325936D01*
X117332856Y-80325936D02*
X117380475Y-80230698D01*
X117380475Y-80230698D02*
X117380475Y-79944984D01*
X117380475Y-79944984D02*
X117332856Y-79849746D01*
X117332856Y-79849746D02*
X117285237Y-79802127D01*
X117285237Y-79802127D02*
X117189999Y-79754508D01*
X117189999Y-79754508D02*
X117047142Y-79754508D01*
X117047142Y-79754508D02*
X116951904Y-79802127D01*
X116951904Y-79802127D02*
X116904285Y-79849746D01*
X116904285Y-79849746D02*
X116856666Y-79944984D01*
X116856666Y-79944984D02*
X116856666Y-80230698D01*
X116856666Y-80230698D02*
X116904285Y-80325936D01*
X116904285Y-80325936D02*
X116951904Y-80373556D01*
X116951904Y-80373556D02*
X117047142Y-80421175D01*
X117047142Y-80421175D02*
X117189999Y-80421175D01*
X116475713Y-80373556D02*
X116380475Y-80421175D01*
X116380475Y-80421175D02*
X116189999Y-80421175D01*
X116189999Y-80421175D02*
X116094761Y-80373556D01*
X116094761Y-80373556D02*
X116047142Y-80278317D01*
X116047142Y-80278317D02*
X116047142Y-80230698D01*
X116047142Y-80230698D02*
X116094761Y-80135460D01*
X116094761Y-80135460D02*
X116189999Y-80087841D01*
X116189999Y-80087841D02*
X116332856Y-80087841D01*
X116332856Y-80087841D02*
X116428094Y-80040222D01*
X116428094Y-80040222D02*
X116475713Y-79944984D01*
X116475713Y-79944984D02*
X116475713Y-79897365D01*
X116475713Y-79897365D02*
X116428094Y-79802127D01*
X116428094Y-79802127D02*
X116332856Y-79754508D01*
X116332856Y-79754508D02*
X116189999Y-79754508D01*
X116189999Y-79754508D02*
X116094761Y-79802127D01*
X124142380Y-81031119D02*
X124047142Y-81031119D01*
X124047142Y-81031119D02*
X123951904Y-81078738D01*
X123951904Y-81078738D02*
X123904285Y-81126357D01*
X123904285Y-81126357D02*
X123856666Y-81221595D01*
X123856666Y-81221595D02*
X123809047Y-81412071D01*
X123809047Y-81412071D02*
X123809047Y-81650166D01*
X123809047Y-81650166D02*
X123856666Y-81840642D01*
X123856666Y-81840642D02*
X123904285Y-81935880D01*
X123904285Y-81935880D02*
X123951904Y-81983500D01*
X123951904Y-81983500D02*
X124047142Y-82031119D01*
X124047142Y-82031119D02*
X124142380Y-82031119D01*
X124142380Y-82031119D02*
X124237618Y-81983500D01*
X124237618Y-81983500D02*
X124285237Y-81935880D01*
X124285237Y-81935880D02*
X124332856Y-81840642D01*
X124332856Y-81840642D02*
X124380475Y-81650166D01*
X124380475Y-81650166D02*
X124380475Y-81412071D01*
X124380475Y-81412071D02*
X124332856Y-81221595D01*
X124332856Y-81221595D02*
X124285237Y-81126357D01*
X124285237Y-81126357D02*
X124237618Y-81078738D01*
X124237618Y-81078738D02*
X124142380Y-81031119D01*
X122856666Y-82031119D02*
X123428094Y-82031119D01*
X123142380Y-82031119D02*
X123142380Y-81031119D01*
X123142380Y-81031119D02*
X123237618Y-81173976D01*
X123237618Y-81173976D02*
X123332856Y-81269214D01*
X123332856Y-81269214D02*
X123428094Y-81316833D01*
X121713809Y-80983500D02*
X122570951Y-82269214D01*
X121428094Y-81126357D02*
X121380475Y-81078738D01*
X121380475Y-81078738D02*
X121285237Y-81031119D01*
X121285237Y-81031119D02*
X121047142Y-81031119D01*
X121047142Y-81031119D02*
X120951904Y-81078738D01*
X120951904Y-81078738D02*
X120904285Y-81126357D01*
X120904285Y-81126357D02*
X120856666Y-81221595D01*
X120856666Y-81221595D02*
X120856666Y-81316833D01*
X120856666Y-81316833D02*
X120904285Y-81459690D01*
X120904285Y-81459690D02*
X121475713Y-82031119D01*
X121475713Y-82031119D02*
X120856666Y-82031119D01*
X120237618Y-81031119D02*
X120142380Y-81031119D01*
X120142380Y-81031119D02*
X120047142Y-81078738D01*
X120047142Y-81078738D02*
X119999523Y-81126357D01*
X119999523Y-81126357D02*
X119951904Y-81221595D01*
X119951904Y-81221595D02*
X119904285Y-81412071D01*
X119904285Y-81412071D02*
X119904285Y-81650166D01*
X119904285Y-81650166D02*
X119951904Y-81840642D01*
X119951904Y-81840642D02*
X119999523Y-81935880D01*
X119999523Y-81935880D02*
X120047142Y-81983500D01*
X120047142Y-81983500D02*
X120142380Y-82031119D01*
X120142380Y-82031119D02*
X120237618Y-82031119D01*
X120237618Y-82031119D02*
X120332856Y-81983500D01*
X120332856Y-81983500D02*
X120380475Y-81935880D01*
X120380475Y-81935880D02*
X120428094Y-81840642D01*
X120428094Y-81840642D02*
X120475713Y-81650166D01*
X120475713Y-81650166D02*
X120475713Y-81412071D01*
X120475713Y-81412071D02*
X120428094Y-81221595D01*
X120428094Y-81221595D02*
X120380475Y-81126357D01*
X120380475Y-81126357D02*
X120332856Y-81078738D01*
X120332856Y-81078738D02*
X120237618Y-81031119D01*
X119523332Y-81126357D02*
X119475713Y-81078738D01*
X119475713Y-81078738D02*
X119380475Y-81031119D01*
X119380475Y-81031119D02*
X119142380Y-81031119D01*
X119142380Y-81031119D02*
X119047142Y-81078738D01*
X119047142Y-81078738D02*
X118999523Y-81126357D01*
X118999523Y-81126357D02*
X118951904Y-81221595D01*
X118951904Y-81221595D02*
X118951904Y-81316833D01*
X118951904Y-81316833D02*
X118999523Y-81459690D01*
X118999523Y-81459690D02*
X119570951Y-82031119D01*
X119570951Y-82031119D02*
X118951904Y-82031119D01*
X118094761Y-81031119D02*
X118285237Y-81031119D01*
X118285237Y-81031119D02*
X118380475Y-81078738D01*
X118380475Y-81078738D02*
X118428094Y-81126357D01*
X118428094Y-81126357D02*
X118523332Y-81269214D01*
X118523332Y-81269214D02*
X118570951Y-81459690D01*
X118570951Y-81459690D02*
X118570951Y-81840642D01*
X118570951Y-81840642D02*
X118523332Y-81935880D01*
X118523332Y-81935880D02*
X118475713Y-81983500D01*
X118475713Y-81983500D02*
X118380475Y-82031119D01*
X118380475Y-82031119D02*
X118189999Y-82031119D01*
X118189999Y-82031119D02*
X118094761Y-81983500D01*
X118094761Y-81983500D02*
X118047142Y-81935880D01*
X118047142Y-81935880D02*
X117999523Y-81840642D01*
X117999523Y-81840642D02*
X117999523Y-81602547D01*
X117999523Y-81602547D02*
X118047142Y-81507309D01*
X118047142Y-81507309D02*
X118094761Y-81459690D01*
X118094761Y-81459690D02*
X118189999Y-81412071D01*
X118189999Y-81412071D02*
X118380475Y-81412071D01*
X118380475Y-81412071D02*
X118475713Y-81459690D01*
X118475713Y-81459690D02*
X118523332Y-81507309D01*
X118523332Y-81507309D02*
X118570951Y-81602547D01*
D10*
X152096993Y-79483521D02*
X151954136Y-79531140D01*
X151954136Y-79531140D02*
X151906517Y-79578759D01*
X151906517Y-79578759D02*
X151858898Y-79673997D01*
X151858898Y-79673997D02*
X151858898Y-79816854D01*
X151858898Y-79816854D02*
X151906517Y-79912092D01*
X151906517Y-79912092D02*
X151954136Y-79959712D01*
X151954136Y-79959712D02*
X152049374Y-80007331D01*
X152049374Y-80007331D02*
X152430326Y-80007331D01*
X152430326Y-80007331D02*
X152430326Y-79007331D01*
X152430326Y-79007331D02*
X152096993Y-79007331D01*
X152096993Y-79007331D02*
X152001755Y-79054950D01*
X152001755Y-79054950D02*
X151954136Y-79102569D01*
X151954136Y-79102569D02*
X151906517Y-79197807D01*
X151906517Y-79197807D02*
X151906517Y-79293045D01*
X151906517Y-79293045D02*
X151954136Y-79388283D01*
X151954136Y-79388283D02*
X152001755Y-79435902D01*
X152001755Y-79435902D02*
X152096993Y-79483521D01*
X152096993Y-79483521D02*
X152430326Y-79483521D01*
X151430326Y-80007331D02*
X151430326Y-79340664D01*
X151430326Y-79007331D02*
X151477945Y-79054950D01*
X151477945Y-79054950D02*
X151430326Y-79102569D01*
X151430326Y-79102569D02*
X151382707Y-79054950D01*
X151382707Y-79054950D02*
X151430326Y-79007331D01*
X151430326Y-79007331D02*
X151430326Y-79102569D01*
X150954136Y-79340664D02*
X150954136Y-80340664D01*
X150954136Y-79388283D02*
X150858898Y-79340664D01*
X150858898Y-79340664D02*
X150668422Y-79340664D01*
X150668422Y-79340664D02*
X150573184Y-79388283D01*
X150573184Y-79388283D02*
X150525565Y-79435902D01*
X150525565Y-79435902D02*
X150477946Y-79531140D01*
X150477946Y-79531140D02*
X150477946Y-79816854D01*
X150477946Y-79816854D02*
X150525565Y-79912092D01*
X150525565Y-79912092D02*
X150573184Y-79959712D01*
X150573184Y-79959712D02*
X150668422Y-80007331D01*
X150668422Y-80007331D02*
X150858898Y-80007331D01*
X150858898Y-80007331D02*
X150954136Y-79959712D01*
X149906517Y-80007331D02*
X150001755Y-79959712D01*
X150001755Y-79959712D02*
X150049374Y-79912092D01*
X150049374Y-79912092D02*
X150096993Y-79816854D01*
X150096993Y-79816854D02*
X150096993Y-79531140D01*
X150096993Y-79531140D02*
X150049374Y-79435902D01*
X150049374Y-79435902D02*
X150001755Y-79388283D01*
X150001755Y-79388283D02*
X149906517Y-79340664D01*
X149906517Y-79340664D02*
X149763660Y-79340664D01*
X149763660Y-79340664D02*
X149668422Y-79388283D01*
X149668422Y-79388283D02*
X149620803Y-79435902D01*
X149620803Y-79435902D02*
X149573184Y-79531140D01*
X149573184Y-79531140D02*
X149573184Y-79816854D01*
X149573184Y-79816854D02*
X149620803Y-79912092D01*
X149620803Y-79912092D02*
X149668422Y-79959712D01*
X149668422Y-79959712D02*
X149763660Y-80007331D01*
X149763660Y-80007331D02*
X149906517Y-80007331D01*
X149001755Y-80007331D02*
X149096993Y-79959712D01*
X149096993Y-79959712D02*
X149144612Y-79864473D01*
X149144612Y-79864473D02*
X149144612Y-79007331D01*
X148192231Y-80007331D02*
X148192231Y-79483521D01*
X148192231Y-79483521D02*
X148239850Y-79388283D01*
X148239850Y-79388283D02*
X148335088Y-79340664D01*
X148335088Y-79340664D02*
X148525564Y-79340664D01*
X148525564Y-79340664D02*
X148620802Y-79388283D01*
X148192231Y-79959712D02*
X148287469Y-80007331D01*
X148287469Y-80007331D02*
X148525564Y-80007331D01*
X148525564Y-80007331D02*
X148620802Y-79959712D01*
X148620802Y-79959712D02*
X148668421Y-79864473D01*
X148668421Y-79864473D02*
X148668421Y-79769235D01*
X148668421Y-79769235D02*
X148620802Y-79673997D01*
X148620802Y-79673997D02*
X148525564Y-79626378D01*
X148525564Y-79626378D02*
X148287469Y-79626378D01*
X148287469Y-79626378D02*
X148192231Y-79578759D01*
X147716040Y-80007331D02*
X147716040Y-79340664D01*
X147716040Y-79531140D02*
X147668421Y-79435902D01*
X147668421Y-79435902D02*
X147620802Y-79388283D01*
X147620802Y-79388283D02*
X147525564Y-79340664D01*
X147525564Y-79340664D02*
X147430326Y-79340664D01*
X146335087Y-79340664D02*
X146335087Y-80340664D01*
X146335087Y-79388283D02*
X146239849Y-79340664D01*
X146239849Y-79340664D02*
X146049373Y-79340664D01*
X146049373Y-79340664D02*
X145954135Y-79388283D01*
X145954135Y-79388283D02*
X145906516Y-79435902D01*
X145906516Y-79435902D02*
X145858897Y-79531140D01*
X145858897Y-79531140D02*
X145858897Y-79816854D01*
X145858897Y-79816854D02*
X145906516Y-79912092D01*
X145906516Y-79912092D02*
X145954135Y-79959712D01*
X145954135Y-79959712D02*
X146049373Y-80007331D01*
X146049373Y-80007331D02*
X146239849Y-80007331D01*
X146239849Y-80007331D02*
X146335087Y-79959712D01*
X145287468Y-80007331D02*
X145382706Y-79959712D01*
X145382706Y-79959712D02*
X145430325Y-79912092D01*
X145430325Y-79912092D02*
X145477944Y-79816854D01*
X145477944Y-79816854D02*
X145477944Y-79531140D01*
X145477944Y-79531140D02*
X145430325Y-79435902D01*
X145430325Y-79435902D02*
X145382706Y-79388283D01*
X145382706Y-79388283D02*
X145287468Y-79340664D01*
X145287468Y-79340664D02*
X145144611Y-79340664D01*
X145144611Y-79340664D02*
X145049373Y-79388283D01*
X145049373Y-79388283D02*
X145001754Y-79435902D01*
X145001754Y-79435902D02*
X144954135Y-79531140D01*
X144954135Y-79531140D02*
X144954135Y-79816854D01*
X144954135Y-79816854D02*
X145001754Y-79912092D01*
X145001754Y-79912092D02*
X145049373Y-79959712D01*
X145049373Y-79959712D02*
X145144611Y-80007331D01*
X145144611Y-80007331D02*
X145287468Y-80007331D01*
X144620801Y-79340664D02*
X144430325Y-80007331D01*
X144430325Y-80007331D02*
X144239849Y-79531140D01*
X144239849Y-79531140D02*
X144049373Y-80007331D01*
X144049373Y-80007331D02*
X143858897Y-79340664D01*
X143096992Y-79959712D02*
X143192230Y-80007331D01*
X143192230Y-80007331D02*
X143382706Y-80007331D01*
X143382706Y-80007331D02*
X143477944Y-79959712D01*
X143477944Y-79959712D02*
X143525563Y-79864473D01*
X143525563Y-79864473D02*
X143525563Y-79483521D01*
X143525563Y-79483521D02*
X143477944Y-79388283D01*
X143477944Y-79388283D02*
X143382706Y-79340664D01*
X143382706Y-79340664D02*
X143192230Y-79340664D01*
X143192230Y-79340664D02*
X143096992Y-79388283D01*
X143096992Y-79388283D02*
X143049373Y-79483521D01*
X143049373Y-79483521D02*
X143049373Y-79578759D01*
X143049373Y-79578759D02*
X143525563Y-79673997D01*
X142620801Y-80007331D02*
X142620801Y-79340664D01*
X142620801Y-79531140D02*
X142573182Y-79435902D01*
X142573182Y-79435902D02*
X142525563Y-79388283D01*
X142525563Y-79388283D02*
X142430325Y-79340664D01*
X142430325Y-79340664D02*
X142335087Y-79340664D01*
X141287467Y-79959712D02*
X141192229Y-80007331D01*
X141192229Y-80007331D02*
X141001753Y-80007331D01*
X141001753Y-80007331D02*
X140906515Y-79959712D01*
X140906515Y-79959712D02*
X140858896Y-79864473D01*
X140858896Y-79864473D02*
X140858896Y-79816854D01*
X140858896Y-79816854D02*
X140906515Y-79721616D01*
X140906515Y-79721616D02*
X141001753Y-79673997D01*
X141001753Y-79673997D02*
X141144610Y-79673997D01*
X141144610Y-79673997D02*
X141239848Y-79626378D01*
X141239848Y-79626378D02*
X141287467Y-79531140D01*
X141287467Y-79531140D02*
X141287467Y-79483521D01*
X141287467Y-79483521D02*
X141239848Y-79388283D01*
X141239848Y-79388283D02*
X141144610Y-79340664D01*
X141144610Y-79340664D02*
X141001753Y-79340664D01*
X141001753Y-79340664D02*
X140906515Y-79388283D01*
X140001753Y-79340664D02*
X140001753Y-80007331D01*
X140430324Y-79340664D02*
X140430324Y-79864473D01*
X140430324Y-79864473D02*
X140382705Y-79959712D01*
X140382705Y-79959712D02*
X140287467Y-80007331D01*
X140287467Y-80007331D02*
X140144610Y-80007331D01*
X140144610Y-80007331D02*
X140049372Y-79959712D01*
X140049372Y-79959712D02*
X140001753Y-79912092D01*
X139525562Y-79340664D02*
X139525562Y-80340664D01*
X139525562Y-79388283D02*
X139430324Y-79340664D01*
X139430324Y-79340664D02*
X139239848Y-79340664D01*
X139239848Y-79340664D02*
X139144610Y-79388283D01*
X139144610Y-79388283D02*
X139096991Y-79435902D01*
X139096991Y-79435902D02*
X139049372Y-79531140D01*
X139049372Y-79531140D02*
X139049372Y-79816854D01*
X139049372Y-79816854D02*
X139096991Y-79912092D01*
X139096991Y-79912092D02*
X139144610Y-79959712D01*
X139144610Y-79959712D02*
X139239848Y-80007331D01*
X139239848Y-80007331D02*
X139430324Y-80007331D01*
X139430324Y-80007331D02*
X139525562Y-79959712D01*
X138620800Y-79340664D02*
X138620800Y-80340664D01*
X138620800Y-79388283D02*
X138525562Y-79340664D01*
X138525562Y-79340664D02*
X138335086Y-79340664D01*
X138335086Y-79340664D02*
X138239848Y-79388283D01*
X138239848Y-79388283D02*
X138192229Y-79435902D01*
X138192229Y-79435902D02*
X138144610Y-79531140D01*
X138144610Y-79531140D02*
X138144610Y-79816854D01*
X138144610Y-79816854D02*
X138192229Y-79912092D01*
X138192229Y-79912092D02*
X138239848Y-79959712D01*
X138239848Y-79959712D02*
X138335086Y-80007331D01*
X138335086Y-80007331D02*
X138525562Y-80007331D01*
X138525562Y-80007331D02*
X138620800Y-79959712D01*
X137573181Y-80007331D02*
X137668419Y-79959712D01*
X137668419Y-79959712D02*
X137716038Y-79864473D01*
X137716038Y-79864473D02*
X137716038Y-79007331D01*
X137287466Y-79340664D02*
X137049371Y-80007331D01*
X136811276Y-79340664D02*
X137049371Y-80007331D01*
X137049371Y-80007331D02*
X137144609Y-80245426D01*
X137144609Y-80245426D02*
X137192228Y-80293045D01*
X137192228Y-80293045D02*
X137287466Y-80340664D01*
X152430326Y-81617275D02*
X152430326Y-80617275D01*
X151954136Y-81617275D02*
X151954136Y-80617275D01*
X151954136Y-80617275D02*
X151382708Y-81617275D01*
X151382708Y-81617275D02*
X151382708Y-80617275D01*
X150906517Y-81522036D02*
X150858898Y-81569656D01*
X150858898Y-81569656D02*
X150906517Y-81617275D01*
X150906517Y-81617275D02*
X150954136Y-81569656D01*
X150954136Y-81569656D02*
X150906517Y-81522036D01*
X150906517Y-81522036D02*
X150906517Y-81617275D01*
X150906517Y-80998227D02*
X150858898Y-81045846D01*
X150858898Y-81045846D02*
X150906517Y-81093465D01*
X150906517Y-81093465D02*
X150954136Y-81045846D01*
X150954136Y-81045846D02*
X150906517Y-80998227D01*
X150906517Y-80998227D02*
X150906517Y-81093465D01*
X149716041Y-80712513D02*
X149668422Y-80664894D01*
X149668422Y-80664894D02*
X149573184Y-80617275D01*
X149573184Y-80617275D02*
X149335089Y-80617275D01*
X149335089Y-80617275D02*
X149239851Y-80664894D01*
X149239851Y-80664894D02*
X149192232Y-80712513D01*
X149192232Y-80712513D02*
X149144613Y-80807751D01*
X149144613Y-80807751D02*
X149144613Y-80902989D01*
X149144613Y-80902989D02*
X149192232Y-81045846D01*
X149192232Y-81045846D02*
X149763660Y-81617275D01*
X149763660Y-81617275D02*
X149144613Y-81617275D01*
X148811279Y-80617275D02*
X148192232Y-80617275D01*
X148192232Y-80617275D02*
X148525565Y-80998227D01*
X148525565Y-80998227D02*
X148382708Y-80998227D01*
X148382708Y-80998227D02*
X148287470Y-81045846D01*
X148287470Y-81045846D02*
X148239851Y-81093465D01*
X148239851Y-81093465D02*
X148192232Y-81188703D01*
X148192232Y-81188703D02*
X148192232Y-81426798D01*
X148192232Y-81426798D02*
X148239851Y-81522036D01*
X148239851Y-81522036D02*
X148287470Y-81569656D01*
X148287470Y-81569656D02*
X148382708Y-81617275D01*
X148382708Y-81617275D02*
X148668422Y-81617275D01*
X148668422Y-81617275D02*
X148763660Y-81569656D01*
X148763660Y-81569656D02*
X148811279Y-81522036D01*
X147573184Y-80617275D02*
X147477946Y-80617275D01*
X147477946Y-80617275D02*
X147382708Y-80664894D01*
X147382708Y-80664894D02*
X147335089Y-80712513D01*
X147335089Y-80712513D02*
X147287470Y-80807751D01*
X147287470Y-80807751D02*
X147239851Y-80998227D01*
X147239851Y-80998227D02*
X147239851Y-81236322D01*
X147239851Y-81236322D02*
X147287470Y-81426798D01*
X147287470Y-81426798D02*
X147335089Y-81522036D01*
X147335089Y-81522036D02*
X147382708Y-81569656D01*
X147382708Y-81569656D02*
X147477946Y-81617275D01*
X147477946Y-81617275D02*
X147573184Y-81617275D01*
X147573184Y-81617275D02*
X147668422Y-81569656D01*
X147668422Y-81569656D02*
X147716041Y-81522036D01*
X147716041Y-81522036D02*
X147763660Y-81426798D01*
X147763660Y-81426798D02*
X147811279Y-81236322D01*
X147811279Y-81236322D02*
X147811279Y-80998227D01*
X147811279Y-80998227D02*
X147763660Y-80807751D01*
X147763660Y-80807751D02*
X147716041Y-80712513D01*
X147716041Y-80712513D02*
X147668422Y-80664894D01*
X147668422Y-80664894D02*
X147573184Y-80617275D01*
X146954136Y-80617275D02*
X146620803Y-81617275D01*
X146620803Y-81617275D02*
X146287470Y-80617275D01*
X146001755Y-81331560D02*
X145525565Y-81331560D01*
X146096993Y-81617275D02*
X145763660Y-80617275D01*
X145763660Y-80617275D02*
X145430327Y-81617275D01*
X144525565Y-81522036D02*
X144573184Y-81569656D01*
X144573184Y-81569656D02*
X144716041Y-81617275D01*
X144716041Y-81617275D02*
X144811279Y-81617275D01*
X144811279Y-81617275D02*
X144954136Y-81569656D01*
X144954136Y-81569656D02*
X145049374Y-81474417D01*
X145049374Y-81474417D02*
X145096993Y-81379179D01*
X145096993Y-81379179D02*
X145144612Y-81188703D01*
X145144612Y-81188703D02*
X145144612Y-81045846D01*
X145144612Y-81045846D02*
X145096993Y-80855370D01*
X145096993Y-80855370D02*
X145049374Y-80760132D01*
X145049374Y-80760132D02*
X144954136Y-80664894D01*
X144954136Y-80664894D02*
X144811279Y-80617275D01*
X144811279Y-80617275D02*
X144716041Y-80617275D01*
X144716041Y-80617275D02*
X144573184Y-80664894D01*
X144573184Y-80664894D02*
X144525565Y-80712513D01*
X152239850Y-82227219D02*
X152049374Y-82227219D01*
X152049374Y-82227219D02*
X151954136Y-82274838D01*
X151954136Y-82274838D02*
X151858898Y-82370076D01*
X151858898Y-82370076D02*
X151811279Y-82560552D01*
X151811279Y-82560552D02*
X151811279Y-82893885D01*
X151811279Y-82893885D02*
X151858898Y-83084361D01*
X151858898Y-83084361D02*
X151954136Y-83179600D01*
X151954136Y-83179600D02*
X152049374Y-83227219D01*
X152049374Y-83227219D02*
X152239850Y-83227219D01*
X152239850Y-83227219D02*
X152335088Y-83179600D01*
X152335088Y-83179600D02*
X152430326Y-83084361D01*
X152430326Y-83084361D02*
X152477945Y-82893885D01*
X152477945Y-82893885D02*
X152477945Y-82560552D01*
X152477945Y-82560552D02*
X152430326Y-82370076D01*
X152430326Y-82370076D02*
X152335088Y-82274838D01*
X152335088Y-82274838D02*
X152239850Y-82227219D01*
X151382707Y-82227219D02*
X151382707Y-83036742D01*
X151382707Y-83036742D02*
X151335088Y-83131980D01*
X151335088Y-83131980D02*
X151287469Y-83179600D01*
X151287469Y-83179600D02*
X151192231Y-83227219D01*
X151192231Y-83227219D02*
X151001755Y-83227219D01*
X151001755Y-83227219D02*
X150906517Y-83179600D01*
X150906517Y-83179600D02*
X150858898Y-83131980D01*
X150858898Y-83131980D02*
X150811279Y-83036742D01*
X150811279Y-83036742D02*
X150811279Y-82227219D01*
X150477945Y-82227219D02*
X149906517Y-82227219D01*
X150192231Y-83227219D02*
X150192231Y-82227219D01*
X149573183Y-83131980D02*
X149525564Y-83179600D01*
X149525564Y-83179600D02*
X149573183Y-83227219D01*
X149573183Y-83227219D02*
X149620802Y-83179600D01*
X149620802Y-83179600D02*
X149573183Y-83131980D01*
X149573183Y-83131980D02*
X149573183Y-83227219D01*
X149573183Y-82608171D02*
X149525564Y-82655790D01*
X149525564Y-82655790D02*
X149573183Y-82703409D01*
X149573183Y-82703409D02*
X149620802Y-82655790D01*
X149620802Y-82655790D02*
X149573183Y-82608171D01*
X149573183Y-82608171D02*
X149573183Y-82703409D01*
X148335088Y-82846266D02*
X147573184Y-82846266D01*
X147954136Y-83227219D02*
X147954136Y-82465314D01*
X146573184Y-83227219D02*
X147144612Y-83227219D01*
X146858898Y-83227219D02*
X146858898Y-82227219D01*
X146858898Y-82227219D02*
X146954136Y-82370076D01*
X146954136Y-82370076D02*
X147049374Y-82465314D01*
X147049374Y-82465314D02*
X147144612Y-82512933D01*
X145668422Y-82227219D02*
X146144612Y-82227219D01*
X146144612Y-82227219D02*
X146192231Y-82703409D01*
X146192231Y-82703409D02*
X146144612Y-82655790D01*
X146144612Y-82655790D02*
X146049374Y-82608171D01*
X146049374Y-82608171D02*
X145811279Y-82608171D01*
X145811279Y-82608171D02*
X145716041Y-82655790D01*
X145716041Y-82655790D02*
X145668422Y-82703409D01*
X145668422Y-82703409D02*
X145620803Y-82798647D01*
X145620803Y-82798647D02*
X145620803Y-83036742D01*
X145620803Y-83036742D02*
X145668422Y-83131980D01*
X145668422Y-83131980D02*
X145716041Y-83179600D01*
X145716041Y-83179600D02*
X145811279Y-83227219D01*
X145811279Y-83227219D02*
X146049374Y-83227219D01*
X146049374Y-83227219D02*
X146144612Y-83179600D01*
X146144612Y-83179600D02*
X146192231Y-83131980D01*
X145335088Y-82227219D02*
X145001755Y-83227219D01*
X145001755Y-83227219D02*
X144668422Y-82227219D01*
X143049374Y-83227219D02*
X143620802Y-83227219D01*
X143335088Y-83227219D02*
X143335088Y-82227219D01*
X143335088Y-82227219D02*
X143430326Y-82370076D01*
X143430326Y-82370076D02*
X143525564Y-82465314D01*
X143525564Y-82465314D02*
X143620802Y-82512933D01*
X142668421Y-82941504D02*
X142192231Y-82941504D01*
X142763659Y-83227219D02*
X142430326Y-82227219D01*
X142430326Y-82227219D02*
X142096993Y-83227219D01*
X141001754Y-82846266D02*
X140239850Y-82846266D01*
X139287469Y-82227219D02*
X139763659Y-82227219D01*
X139763659Y-82227219D02*
X139811278Y-82703409D01*
X139811278Y-82703409D02*
X139763659Y-82655790D01*
X139763659Y-82655790D02*
X139668421Y-82608171D01*
X139668421Y-82608171D02*
X139430326Y-82608171D01*
X139430326Y-82608171D02*
X139335088Y-82655790D01*
X139335088Y-82655790D02*
X139287469Y-82703409D01*
X139287469Y-82703409D02*
X139239850Y-82798647D01*
X139239850Y-82798647D02*
X139239850Y-83036742D01*
X139239850Y-83036742D02*
X139287469Y-83131980D01*
X139287469Y-83131980D02*
X139335088Y-83179600D01*
X139335088Y-83179600D02*
X139430326Y-83227219D01*
X139430326Y-83227219D02*
X139668421Y-83227219D01*
X139668421Y-83227219D02*
X139763659Y-83179600D01*
X139763659Y-83179600D02*
X139811278Y-83131980D01*
X138954135Y-82227219D02*
X138620802Y-83227219D01*
X138620802Y-83227219D02*
X138287469Y-82227219D01*
X137001754Y-82227219D02*
X136906516Y-82227219D01*
X136906516Y-82227219D02*
X136811278Y-82274838D01*
X136811278Y-82274838D02*
X136763659Y-82322457D01*
X136763659Y-82322457D02*
X136716040Y-82417695D01*
X136716040Y-82417695D02*
X136668421Y-82608171D01*
X136668421Y-82608171D02*
X136668421Y-82846266D01*
X136668421Y-82846266D02*
X136716040Y-83036742D01*
X136716040Y-83036742D02*
X136763659Y-83131980D01*
X136763659Y-83131980D02*
X136811278Y-83179600D01*
X136811278Y-83179600D02*
X136906516Y-83227219D01*
X136906516Y-83227219D02*
X137001754Y-83227219D01*
X137001754Y-83227219D02*
X137096992Y-83179600D01*
X137096992Y-83179600D02*
X137144611Y-83131980D01*
X137144611Y-83131980D02*
X137192230Y-83036742D01*
X137192230Y-83036742D02*
X137239849Y-82846266D01*
X137239849Y-82846266D02*
X137239849Y-82608171D01*
X137239849Y-82608171D02*
X137192230Y-82417695D01*
X137192230Y-82417695D02*
X137144611Y-82322457D01*
X137144611Y-82322457D02*
X137096992Y-82274838D01*
X137096992Y-82274838D02*
X137001754Y-82227219D01*
X136239849Y-83131980D02*
X136192230Y-83179600D01*
X136192230Y-83179600D02*
X136239849Y-83227219D01*
X136239849Y-83227219D02*
X136287468Y-83179600D01*
X136287468Y-83179600D02*
X136239849Y-83131980D01*
X136239849Y-83131980D02*
X136239849Y-83227219D01*
X135287469Y-82227219D02*
X135763659Y-82227219D01*
X135763659Y-82227219D02*
X135811278Y-82703409D01*
X135811278Y-82703409D02*
X135763659Y-82655790D01*
X135763659Y-82655790D02*
X135668421Y-82608171D01*
X135668421Y-82608171D02*
X135430326Y-82608171D01*
X135430326Y-82608171D02*
X135335088Y-82655790D01*
X135335088Y-82655790D02*
X135287469Y-82703409D01*
X135287469Y-82703409D02*
X135239850Y-82798647D01*
X135239850Y-82798647D02*
X135239850Y-83036742D01*
X135239850Y-83036742D02*
X135287469Y-83131980D01*
X135287469Y-83131980D02*
X135335088Y-83179600D01*
X135335088Y-83179600D02*
X135430326Y-83227219D01*
X135430326Y-83227219D02*
X135668421Y-83227219D01*
X135668421Y-83227219D02*
X135763659Y-83179600D01*
X135763659Y-83179600D02*
X135811278Y-83131980D01*
X134858897Y-82941504D02*
X134382707Y-82941504D01*
X134954135Y-83227219D02*
X134620802Y-82227219D01*
X134620802Y-82227219D02*
X134287469Y-83227219D01*
M02*
