%TF.GenerationSoftware,KiCad,Pcbnew,9.0.5*%
%TF.CreationDate,2026-01-10T12:41:53+01:00*%
%TF.ProjectId,IGBT_Power,49474254-5f50-46f7-9765-722e6b696361,rev?*%
%TF.SameCoordinates,Original*%
%TF.FileFunction,Soldermask,Top*%
%TF.FilePolarity,Negative*%
%FSLAX46Y46*%
G04 Gerber Fmt 4.6, Leading zero omitted, Abs format (unit mm)*
G04 Created by KiCad (PCBNEW 9.0.5) date 2026-01-10 12:41:53*
%MOMM*%
%LPD*%
G01*
G04 APERTURE LIST*
G04 Aperture macros list*
%AMRoundRect*
0 Rectangle with rounded corners*
0 $1 Rounding radius*
0 $2 $3 $4 $5 $6 $7 $8 $9 X,Y pos of 4 corners*
0 Add a 4 corners polygon primitive as box body*
4,1,4,$2,$3,$4,$5,$6,$7,$8,$9,$2,$3,0*
0 Add four circle primitives for the rounded corners*
1,1,$1+$1,$2,$3*
1,1,$1+$1,$4,$5*
1,1,$1+$1,$6,$7*
1,1,$1+$1,$8,$9*
0 Add four rect primitives between the rounded corners*
20,1,$1+$1,$2,$3,$4,$5,0*
20,1,$1+$1,$4,$5,$6,$7,0*
20,1,$1+$1,$6,$7,$8,$9,0*
20,1,$1+$1,$8,$9,$2,$3,0*%
G04 Aperture macros list end*
%ADD10C,2.200000*%
%ADD11RoundRect,0.250000X-0.400000X-0.625000X0.400000X-0.625000X0.400000X0.625000X-0.400000X0.625000X0*%
%ADD12RoundRect,0.250000X0.400000X0.625000X-0.400000X0.625000X-0.400000X-0.625000X0.400000X-0.625000X0*%
%ADD13RoundRect,0.250000X0.325000X0.450000X-0.325000X0.450000X-0.325000X-0.450000X0.325000X-0.450000X0*%
%ADD14RoundRect,0.250000X-0.325000X-0.450000X0.325000X-0.450000X0.325000X0.450000X-0.325000X0.450000X0*%
%ADD15R,1.650000X1.650000*%
%ADD16C,1.650000*%
%ADD17C,0.900000*%
%ADD18C,8.000000*%
%ADD19R,3.000000X2.400000*%
%ADD20C,1.600000*%
%ADD21C,1.800000*%
%ADD22C,2.400000*%
G04 APERTURE END LIST*
D10*
%TO.C,HLK-3M15B*%
X164310000Y-100020000D03*
X164310000Y-85020000D03*
X135230000Y-95020000D03*
X135230000Y-90020000D03*
%TD*%
D11*
%TO.C,R2*%
X161340000Y-105240000D03*
X164440000Y-105240000D03*
%TD*%
D12*
%TO.C,R1*%
X164440000Y-54640000D03*
X161340000Y-54640000D03*
%TD*%
D13*
%TO.C,D2*%
X169290000Y-105240000D03*
X167240000Y-105240000D03*
%TD*%
D14*
%TO.C,D1*%
X167240000Y-54640000D03*
X169290000Y-54640000D03*
%TD*%
D15*
%TO.C,J2*%
X181330000Y-82670000D03*
D16*
X181330000Y-80130000D03*
X181330000Y-77590000D03*
%TD*%
D17*
%TO.C,M2*%
X176510000Y-103040000D03*
X177388680Y-100918680D03*
X177388680Y-105161320D03*
X179510000Y-100040000D03*
D18*
X179510000Y-103040000D03*
D17*
X179510000Y-106040000D03*
X181631320Y-100918680D03*
X181631320Y-105161320D03*
X182510000Y-103040000D03*
%TD*%
%TO.C,M2*%
X176510000Y-55930000D03*
X177388680Y-53808680D03*
X177388680Y-58051320D03*
X179510000Y-52930000D03*
D18*
X179510000Y-55930000D03*
D17*
X179510000Y-58930000D03*
X181631320Y-53808680D03*
X181631320Y-58051320D03*
X182510000Y-55930000D03*
%TD*%
D19*
%TO.C,F1*%
X89080000Y-95000000D03*
X89080000Y-90140000D03*
%TD*%
D20*
%TO.C,C3*%
X174550000Y-67790000D03*
X179550000Y-67790000D03*
%TD*%
D10*
%TO.C,HLK-5M05*%
X134455000Y-65690000D03*
X134455000Y-71690000D03*
X168055000Y-59690000D03*
X168055000Y-77690000D03*
%TD*%
D17*
%TO.C,M2*%
X86510000Y-103040000D03*
X87388680Y-100918680D03*
X87388680Y-105161320D03*
X89510000Y-100040000D03*
D18*
X89510000Y-103040000D03*
D17*
X89510000Y-106040000D03*
X91631320Y-100918680D03*
X91631320Y-105161320D03*
X92510000Y-103040000D03*
%TD*%
D21*
%TO.C,RV2*%
X99450000Y-88820000D03*
X96550000Y-96320000D03*
%TD*%
D20*
%TO.C,L1*%
X118180000Y-64654967D03*
X125180000Y-64654967D03*
X125180000Y-72654967D03*
X118180000Y-72654967D03*
%TD*%
D17*
%TO.C,M2*%
X86510000Y-55930000D03*
X87388680Y-53808680D03*
X87388680Y-58051320D03*
X89510000Y-52930000D03*
D18*
X89510000Y-55930000D03*
D17*
X89510000Y-58930000D03*
X91631320Y-53808680D03*
X91631320Y-58051320D03*
X92510000Y-55930000D03*
%TD*%
D20*
%TO.C,L2*%
X118180000Y-88570000D03*
X125180000Y-88570000D03*
X125180000Y-96570000D03*
X118180000Y-96570000D03*
%TD*%
D19*
%TO.C,F2*%
X89080000Y-66210000D03*
X89080000Y-71070000D03*
%TD*%
D22*
%TO.C,C1*%
X107320000Y-61154967D03*
X107320000Y-76154967D03*
%TD*%
D21*
%TO.C,RV1*%
X99450000Y-64890000D03*
X96550000Y-72390000D03*
%TD*%
D20*
%TO.C,C4*%
X177090000Y-92250000D03*
X172090000Y-92250000D03*
%TD*%
D16*
%TO.C,J1*%
X88060000Y-81470000D03*
X88060000Y-78930000D03*
%TD*%
D22*
%TO.C,C2*%
X107320000Y-85070000D03*
X107320000Y-100070000D03*
%TD*%
M02*
