%TF.GenerationSoftware,KiCad,Pcbnew,9.0.5*%
%TF.CreationDate,2026-01-10T12:41:53+01:00*%
%TF.ProjectId,IGBT_Power,49474254-5f50-46f7-9765-722e6b696361,rev?*%
%TF.SameCoordinates,Original*%
%TF.FileFunction,Legend,Top*%
%TF.FilePolarity,Positive*%
%FSLAX46Y46*%
G04 Gerber Fmt 4.6, Leading zero omitted, Abs format (unit mm)*
G04 Created by KiCad (PCBNEW 9.0.5) date 2026-01-10 12:41:53*
%MOMM*%
%LPD*%
G01*
G04 APERTURE LIST*
%ADD10C,0.125000*%
%ADD11C,0.200000*%
%ADD12C,0.100000*%
%ADD13C,0.150000*%
%ADD14C,0.120000*%
%ADD15C,0.254000*%
G04 APERTURE END LIST*
D10*
X170384286Y-54740166D02*
X171146191Y-54740166D01*
X172098571Y-54121119D02*
X171622381Y-54121119D01*
X171622381Y-54121119D02*
X171574762Y-54597309D01*
X171574762Y-54597309D02*
X171622381Y-54549690D01*
X171622381Y-54549690D02*
X171717619Y-54502071D01*
X171717619Y-54502071D02*
X171955714Y-54502071D01*
X171955714Y-54502071D02*
X172050952Y-54549690D01*
X172050952Y-54549690D02*
X172098571Y-54597309D01*
X172098571Y-54597309D02*
X172146190Y-54692547D01*
X172146190Y-54692547D02*
X172146190Y-54930642D01*
X172146190Y-54930642D02*
X172098571Y-55025880D01*
X172098571Y-55025880D02*
X172050952Y-55073500D01*
X172050952Y-55073500D02*
X171955714Y-55121119D01*
X171955714Y-55121119D02*
X171717619Y-55121119D01*
X171717619Y-55121119D02*
X171622381Y-55073500D01*
X171622381Y-55073500D02*
X171574762Y-55025880D01*
X172431905Y-54121119D02*
X172765238Y-55121119D01*
X172765238Y-55121119D02*
X173098571Y-54121119D01*
X171100952Y-105641119D02*
X170529524Y-105641119D01*
X170815238Y-105641119D02*
X170815238Y-104641119D01*
X170815238Y-104641119D02*
X170720000Y-104783976D01*
X170720000Y-104783976D02*
X170624762Y-104879214D01*
X170624762Y-104879214D02*
X170529524Y-104926833D01*
X172005714Y-104641119D02*
X171529524Y-104641119D01*
X171529524Y-104641119D02*
X171481905Y-105117309D01*
X171481905Y-105117309D02*
X171529524Y-105069690D01*
X171529524Y-105069690D02*
X171624762Y-105022071D01*
X171624762Y-105022071D02*
X171862857Y-105022071D01*
X171862857Y-105022071D02*
X171958095Y-105069690D01*
X171958095Y-105069690D02*
X172005714Y-105117309D01*
X172005714Y-105117309D02*
X172053333Y-105212547D01*
X172053333Y-105212547D02*
X172053333Y-105450642D01*
X172053333Y-105450642D02*
X172005714Y-105545880D01*
X172005714Y-105545880D02*
X171958095Y-105593500D01*
X171958095Y-105593500D02*
X171862857Y-105641119D01*
X171862857Y-105641119D02*
X171624762Y-105641119D01*
X171624762Y-105641119D02*
X171529524Y-105593500D01*
X171529524Y-105593500D02*
X171481905Y-105545880D01*
X172339048Y-104641119D02*
X172672381Y-105641119D01*
X172672381Y-105641119D02*
X173005714Y-104641119D01*
D11*
X174826339Y-79661219D02*
X174921577Y-79661219D01*
X174921577Y-79661219D02*
X175016815Y-79708838D01*
X175016815Y-79708838D02*
X175064434Y-79756457D01*
X175064434Y-79756457D02*
X175112053Y-79851695D01*
X175112053Y-79851695D02*
X175159672Y-80042171D01*
X175159672Y-80042171D02*
X175159672Y-80280266D01*
X175159672Y-80280266D02*
X175112053Y-80470742D01*
X175112053Y-80470742D02*
X175064434Y-80565980D01*
X175064434Y-80565980D02*
X175016815Y-80613600D01*
X175016815Y-80613600D02*
X174921577Y-80661219D01*
X174921577Y-80661219D02*
X174826339Y-80661219D01*
X174826339Y-80661219D02*
X174731101Y-80613600D01*
X174731101Y-80613600D02*
X174683482Y-80565980D01*
X174683482Y-80565980D02*
X174635863Y-80470742D01*
X174635863Y-80470742D02*
X174588244Y-80280266D01*
X174588244Y-80280266D02*
X174588244Y-80042171D01*
X174588244Y-80042171D02*
X174635863Y-79851695D01*
X174635863Y-79851695D02*
X174683482Y-79756457D01*
X174683482Y-79756457D02*
X174731101Y-79708838D01*
X174731101Y-79708838D02*
X174826339Y-79661219D01*
X175445387Y-79661219D02*
X175778720Y-80661219D01*
X175778720Y-80661219D02*
X176112053Y-79661219D01*
X105013006Y-53053521D02*
X105155863Y-53101140D01*
X105155863Y-53101140D02*
X105203482Y-53148759D01*
X105203482Y-53148759D02*
X105251101Y-53243997D01*
X105251101Y-53243997D02*
X105251101Y-53386854D01*
X105251101Y-53386854D02*
X105203482Y-53482092D01*
X105203482Y-53482092D02*
X105155863Y-53529712D01*
X105155863Y-53529712D02*
X105060625Y-53577331D01*
X105060625Y-53577331D02*
X104679673Y-53577331D01*
X104679673Y-53577331D02*
X104679673Y-52577331D01*
X104679673Y-52577331D02*
X105013006Y-52577331D01*
X105013006Y-52577331D02*
X105108244Y-52624950D01*
X105108244Y-52624950D02*
X105155863Y-52672569D01*
X105155863Y-52672569D02*
X105203482Y-52767807D01*
X105203482Y-52767807D02*
X105203482Y-52863045D01*
X105203482Y-52863045D02*
X105155863Y-52958283D01*
X105155863Y-52958283D02*
X105108244Y-53005902D01*
X105108244Y-53005902D02*
X105013006Y-53053521D01*
X105013006Y-53053521D02*
X104679673Y-53053521D01*
X105679673Y-53577331D02*
X105679673Y-52910664D01*
X105679673Y-52577331D02*
X105632054Y-52624950D01*
X105632054Y-52624950D02*
X105679673Y-52672569D01*
X105679673Y-52672569D02*
X105727292Y-52624950D01*
X105727292Y-52624950D02*
X105679673Y-52577331D01*
X105679673Y-52577331D02*
X105679673Y-52672569D01*
X106155863Y-52910664D02*
X106155863Y-53910664D01*
X106155863Y-52958283D02*
X106251101Y-52910664D01*
X106251101Y-52910664D02*
X106441577Y-52910664D01*
X106441577Y-52910664D02*
X106536815Y-52958283D01*
X106536815Y-52958283D02*
X106584434Y-53005902D01*
X106584434Y-53005902D02*
X106632053Y-53101140D01*
X106632053Y-53101140D02*
X106632053Y-53386854D01*
X106632053Y-53386854D02*
X106584434Y-53482092D01*
X106584434Y-53482092D02*
X106536815Y-53529712D01*
X106536815Y-53529712D02*
X106441577Y-53577331D01*
X106441577Y-53577331D02*
X106251101Y-53577331D01*
X106251101Y-53577331D02*
X106155863Y-53529712D01*
X107203482Y-53577331D02*
X107108244Y-53529712D01*
X107108244Y-53529712D02*
X107060625Y-53482092D01*
X107060625Y-53482092D02*
X107013006Y-53386854D01*
X107013006Y-53386854D02*
X107013006Y-53101140D01*
X107013006Y-53101140D02*
X107060625Y-53005902D01*
X107060625Y-53005902D02*
X107108244Y-52958283D01*
X107108244Y-52958283D02*
X107203482Y-52910664D01*
X107203482Y-52910664D02*
X107346339Y-52910664D01*
X107346339Y-52910664D02*
X107441577Y-52958283D01*
X107441577Y-52958283D02*
X107489196Y-53005902D01*
X107489196Y-53005902D02*
X107536815Y-53101140D01*
X107536815Y-53101140D02*
X107536815Y-53386854D01*
X107536815Y-53386854D02*
X107489196Y-53482092D01*
X107489196Y-53482092D02*
X107441577Y-53529712D01*
X107441577Y-53529712D02*
X107346339Y-53577331D01*
X107346339Y-53577331D02*
X107203482Y-53577331D01*
X108108244Y-53577331D02*
X108013006Y-53529712D01*
X108013006Y-53529712D02*
X107965387Y-53434473D01*
X107965387Y-53434473D02*
X107965387Y-52577331D01*
X108917768Y-53577331D02*
X108917768Y-53053521D01*
X108917768Y-53053521D02*
X108870149Y-52958283D01*
X108870149Y-52958283D02*
X108774911Y-52910664D01*
X108774911Y-52910664D02*
X108584435Y-52910664D01*
X108584435Y-52910664D02*
X108489197Y-52958283D01*
X108917768Y-53529712D02*
X108822530Y-53577331D01*
X108822530Y-53577331D02*
X108584435Y-53577331D01*
X108584435Y-53577331D02*
X108489197Y-53529712D01*
X108489197Y-53529712D02*
X108441578Y-53434473D01*
X108441578Y-53434473D02*
X108441578Y-53339235D01*
X108441578Y-53339235D02*
X108489197Y-53243997D01*
X108489197Y-53243997D02*
X108584435Y-53196378D01*
X108584435Y-53196378D02*
X108822530Y-53196378D01*
X108822530Y-53196378D02*
X108917768Y-53148759D01*
X109393959Y-53577331D02*
X109393959Y-52910664D01*
X109393959Y-53101140D02*
X109441578Y-53005902D01*
X109441578Y-53005902D02*
X109489197Y-52958283D01*
X109489197Y-52958283D02*
X109584435Y-52910664D01*
X109584435Y-52910664D02*
X109679673Y-52910664D01*
X110774912Y-53577331D02*
X110774912Y-52577331D01*
X110774912Y-52577331D02*
X111155864Y-52577331D01*
X111155864Y-52577331D02*
X111251102Y-52624950D01*
X111251102Y-52624950D02*
X111298721Y-52672569D01*
X111298721Y-52672569D02*
X111346340Y-52767807D01*
X111346340Y-52767807D02*
X111346340Y-52910664D01*
X111346340Y-52910664D02*
X111298721Y-53005902D01*
X111298721Y-53005902D02*
X111251102Y-53053521D01*
X111251102Y-53053521D02*
X111155864Y-53101140D01*
X111155864Y-53101140D02*
X110774912Y-53101140D01*
X111917769Y-53577331D02*
X111822531Y-53529712D01*
X111822531Y-53529712D02*
X111774912Y-53482092D01*
X111774912Y-53482092D02*
X111727293Y-53386854D01*
X111727293Y-53386854D02*
X111727293Y-53101140D01*
X111727293Y-53101140D02*
X111774912Y-53005902D01*
X111774912Y-53005902D02*
X111822531Y-52958283D01*
X111822531Y-52958283D02*
X111917769Y-52910664D01*
X111917769Y-52910664D02*
X112060626Y-52910664D01*
X112060626Y-52910664D02*
X112155864Y-52958283D01*
X112155864Y-52958283D02*
X112203483Y-53005902D01*
X112203483Y-53005902D02*
X112251102Y-53101140D01*
X112251102Y-53101140D02*
X112251102Y-53386854D01*
X112251102Y-53386854D02*
X112203483Y-53482092D01*
X112203483Y-53482092D02*
X112155864Y-53529712D01*
X112155864Y-53529712D02*
X112060626Y-53577331D01*
X112060626Y-53577331D02*
X111917769Y-53577331D01*
X112584436Y-52910664D02*
X112774912Y-53577331D01*
X112774912Y-53577331D02*
X112965388Y-53101140D01*
X112965388Y-53101140D02*
X113155864Y-53577331D01*
X113155864Y-53577331D02*
X113346340Y-52910664D01*
X114108245Y-53529712D02*
X114013007Y-53577331D01*
X114013007Y-53577331D02*
X113822531Y-53577331D01*
X113822531Y-53577331D02*
X113727293Y-53529712D01*
X113727293Y-53529712D02*
X113679674Y-53434473D01*
X113679674Y-53434473D02*
X113679674Y-53053521D01*
X113679674Y-53053521D02*
X113727293Y-52958283D01*
X113727293Y-52958283D02*
X113822531Y-52910664D01*
X113822531Y-52910664D02*
X114013007Y-52910664D01*
X114013007Y-52910664D02*
X114108245Y-52958283D01*
X114108245Y-52958283D02*
X114155864Y-53053521D01*
X114155864Y-53053521D02*
X114155864Y-53148759D01*
X114155864Y-53148759D02*
X113679674Y-53243997D01*
X114584436Y-53577331D02*
X114584436Y-52910664D01*
X114584436Y-53101140D02*
X114632055Y-53005902D01*
X114632055Y-53005902D02*
X114679674Y-52958283D01*
X114679674Y-52958283D02*
X114774912Y-52910664D01*
X114774912Y-52910664D02*
X114870150Y-52910664D01*
X115917770Y-53529712D02*
X116060627Y-53577331D01*
X116060627Y-53577331D02*
X116298722Y-53577331D01*
X116298722Y-53577331D02*
X116393960Y-53529712D01*
X116393960Y-53529712D02*
X116441579Y-53482092D01*
X116441579Y-53482092D02*
X116489198Y-53386854D01*
X116489198Y-53386854D02*
X116489198Y-53291616D01*
X116489198Y-53291616D02*
X116441579Y-53196378D01*
X116441579Y-53196378D02*
X116393960Y-53148759D01*
X116393960Y-53148759D02*
X116298722Y-53101140D01*
X116298722Y-53101140D02*
X116108246Y-53053521D01*
X116108246Y-53053521D02*
X116013008Y-53005902D01*
X116013008Y-53005902D02*
X115965389Y-52958283D01*
X115965389Y-52958283D02*
X115917770Y-52863045D01*
X115917770Y-52863045D02*
X115917770Y-52767807D01*
X115917770Y-52767807D02*
X115965389Y-52672569D01*
X115965389Y-52672569D02*
X116013008Y-52624950D01*
X116013008Y-52624950D02*
X116108246Y-52577331D01*
X116108246Y-52577331D02*
X116346341Y-52577331D01*
X116346341Y-52577331D02*
X116489198Y-52624950D01*
X117346341Y-52910664D02*
X117346341Y-53577331D01*
X116917770Y-52910664D02*
X116917770Y-53434473D01*
X116917770Y-53434473D02*
X116965389Y-53529712D01*
X116965389Y-53529712D02*
X117060627Y-53577331D01*
X117060627Y-53577331D02*
X117203484Y-53577331D01*
X117203484Y-53577331D02*
X117298722Y-53529712D01*
X117298722Y-53529712D02*
X117346341Y-53482092D01*
X117822532Y-52910664D02*
X117822532Y-53910664D01*
X117822532Y-52958283D02*
X117917770Y-52910664D01*
X117917770Y-52910664D02*
X118108246Y-52910664D01*
X118108246Y-52910664D02*
X118203484Y-52958283D01*
X118203484Y-52958283D02*
X118251103Y-53005902D01*
X118251103Y-53005902D02*
X118298722Y-53101140D01*
X118298722Y-53101140D02*
X118298722Y-53386854D01*
X118298722Y-53386854D02*
X118251103Y-53482092D01*
X118251103Y-53482092D02*
X118203484Y-53529712D01*
X118203484Y-53529712D02*
X118108246Y-53577331D01*
X118108246Y-53577331D02*
X117917770Y-53577331D01*
X117917770Y-53577331D02*
X117822532Y-53529712D01*
X118727294Y-52910664D02*
X118727294Y-53910664D01*
X118727294Y-52958283D02*
X118822532Y-52910664D01*
X118822532Y-52910664D02*
X119013008Y-52910664D01*
X119013008Y-52910664D02*
X119108246Y-52958283D01*
X119108246Y-52958283D02*
X119155865Y-53005902D01*
X119155865Y-53005902D02*
X119203484Y-53101140D01*
X119203484Y-53101140D02*
X119203484Y-53386854D01*
X119203484Y-53386854D02*
X119155865Y-53482092D01*
X119155865Y-53482092D02*
X119108246Y-53529712D01*
X119108246Y-53529712D02*
X119013008Y-53577331D01*
X119013008Y-53577331D02*
X118822532Y-53577331D01*
X118822532Y-53577331D02*
X118727294Y-53529712D01*
X119774913Y-53577331D02*
X119679675Y-53529712D01*
X119679675Y-53529712D02*
X119632056Y-53434473D01*
X119632056Y-53434473D02*
X119632056Y-52577331D01*
X120060628Y-52910664D02*
X120298723Y-53577331D01*
X120536818Y-52910664D02*
X120298723Y-53577331D01*
X120298723Y-53577331D02*
X120203485Y-53815426D01*
X120203485Y-53815426D02*
X120155866Y-53863045D01*
X120155866Y-53863045D02*
X120060628Y-53910664D01*
X121584438Y-52910664D02*
X121822533Y-53577331D01*
X121822533Y-53577331D02*
X122060628Y-52910664D01*
X122965390Y-53577331D02*
X122393962Y-53577331D01*
X122679676Y-53577331D02*
X122679676Y-52577331D01*
X122679676Y-52577331D02*
X122584438Y-52720188D01*
X122584438Y-52720188D02*
X122489200Y-52815426D01*
X122489200Y-52815426D02*
X122393962Y-52863045D01*
X123393962Y-53482092D02*
X123441581Y-53529712D01*
X123441581Y-53529712D02*
X123393962Y-53577331D01*
X123393962Y-53577331D02*
X123346343Y-53529712D01*
X123346343Y-53529712D02*
X123393962Y-53482092D01*
X123393962Y-53482092D02*
X123393962Y-53577331D01*
X124393961Y-53577331D02*
X123822533Y-53577331D01*
X124108247Y-53577331D02*
X124108247Y-52577331D01*
X124108247Y-52577331D02*
X124013009Y-52720188D01*
X124013009Y-52720188D02*
X123917771Y-52815426D01*
X123917771Y-52815426D02*
X123822533Y-52863045D01*
X104679673Y-55187275D02*
X104679673Y-54187275D01*
X105155863Y-55187275D02*
X105155863Y-54187275D01*
X105155863Y-54187275D02*
X105727291Y-55187275D01*
X105727291Y-55187275D02*
X105727291Y-54187275D01*
X106203482Y-55092036D02*
X106251101Y-55139656D01*
X106251101Y-55139656D02*
X106203482Y-55187275D01*
X106203482Y-55187275D02*
X106155863Y-55139656D01*
X106155863Y-55139656D02*
X106203482Y-55092036D01*
X106203482Y-55092036D02*
X106203482Y-55187275D01*
X106203482Y-54568227D02*
X106251101Y-54615846D01*
X106251101Y-54615846D02*
X106203482Y-54663465D01*
X106203482Y-54663465D02*
X106155863Y-54615846D01*
X106155863Y-54615846D02*
X106203482Y-54568227D01*
X106203482Y-54568227D02*
X106203482Y-54663465D01*
X107393958Y-54282513D02*
X107441577Y-54234894D01*
X107441577Y-54234894D02*
X107536815Y-54187275D01*
X107536815Y-54187275D02*
X107774910Y-54187275D01*
X107774910Y-54187275D02*
X107870148Y-54234894D01*
X107870148Y-54234894D02*
X107917767Y-54282513D01*
X107917767Y-54282513D02*
X107965386Y-54377751D01*
X107965386Y-54377751D02*
X107965386Y-54472989D01*
X107965386Y-54472989D02*
X107917767Y-54615846D01*
X107917767Y-54615846D02*
X107346339Y-55187275D01*
X107346339Y-55187275D02*
X107965386Y-55187275D01*
X108298720Y-54187275D02*
X108917767Y-54187275D01*
X108917767Y-54187275D02*
X108584434Y-54568227D01*
X108584434Y-54568227D02*
X108727291Y-54568227D01*
X108727291Y-54568227D02*
X108822529Y-54615846D01*
X108822529Y-54615846D02*
X108870148Y-54663465D01*
X108870148Y-54663465D02*
X108917767Y-54758703D01*
X108917767Y-54758703D02*
X108917767Y-54996798D01*
X108917767Y-54996798D02*
X108870148Y-55092036D01*
X108870148Y-55092036D02*
X108822529Y-55139656D01*
X108822529Y-55139656D02*
X108727291Y-55187275D01*
X108727291Y-55187275D02*
X108441577Y-55187275D01*
X108441577Y-55187275D02*
X108346339Y-55139656D01*
X108346339Y-55139656D02*
X108298720Y-55092036D01*
X109536815Y-54187275D02*
X109632053Y-54187275D01*
X109632053Y-54187275D02*
X109727291Y-54234894D01*
X109727291Y-54234894D02*
X109774910Y-54282513D01*
X109774910Y-54282513D02*
X109822529Y-54377751D01*
X109822529Y-54377751D02*
X109870148Y-54568227D01*
X109870148Y-54568227D02*
X109870148Y-54806322D01*
X109870148Y-54806322D02*
X109822529Y-54996798D01*
X109822529Y-54996798D02*
X109774910Y-55092036D01*
X109774910Y-55092036D02*
X109727291Y-55139656D01*
X109727291Y-55139656D02*
X109632053Y-55187275D01*
X109632053Y-55187275D02*
X109536815Y-55187275D01*
X109536815Y-55187275D02*
X109441577Y-55139656D01*
X109441577Y-55139656D02*
X109393958Y-55092036D01*
X109393958Y-55092036D02*
X109346339Y-54996798D01*
X109346339Y-54996798D02*
X109298720Y-54806322D01*
X109298720Y-54806322D02*
X109298720Y-54568227D01*
X109298720Y-54568227D02*
X109346339Y-54377751D01*
X109346339Y-54377751D02*
X109393958Y-54282513D01*
X109393958Y-54282513D02*
X109441577Y-54234894D01*
X109441577Y-54234894D02*
X109536815Y-54187275D01*
X110155863Y-54187275D02*
X110489196Y-55187275D01*
X110489196Y-55187275D02*
X110822529Y-54187275D01*
X111108244Y-54901560D02*
X111584434Y-54901560D01*
X111013006Y-55187275D02*
X111346339Y-54187275D01*
X111346339Y-54187275D02*
X111679672Y-55187275D01*
X112584434Y-55092036D02*
X112536815Y-55139656D01*
X112536815Y-55139656D02*
X112393958Y-55187275D01*
X112393958Y-55187275D02*
X112298720Y-55187275D01*
X112298720Y-55187275D02*
X112155863Y-55139656D01*
X112155863Y-55139656D02*
X112060625Y-55044417D01*
X112060625Y-55044417D02*
X112013006Y-54949179D01*
X112013006Y-54949179D02*
X111965387Y-54758703D01*
X111965387Y-54758703D02*
X111965387Y-54615846D01*
X111965387Y-54615846D02*
X112013006Y-54425370D01*
X112013006Y-54425370D02*
X112060625Y-54330132D01*
X112060625Y-54330132D02*
X112155863Y-54234894D01*
X112155863Y-54234894D02*
X112298720Y-54187275D01*
X112298720Y-54187275D02*
X112393958Y-54187275D01*
X112393958Y-54187275D02*
X112536815Y-54234894D01*
X112536815Y-54234894D02*
X112584434Y-54282513D01*
X104870149Y-55797219D02*
X105060625Y-55797219D01*
X105060625Y-55797219D02*
X105155863Y-55844838D01*
X105155863Y-55844838D02*
X105251101Y-55940076D01*
X105251101Y-55940076D02*
X105298720Y-56130552D01*
X105298720Y-56130552D02*
X105298720Y-56463885D01*
X105298720Y-56463885D02*
X105251101Y-56654361D01*
X105251101Y-56654361D02*
X105155863Y-56749600D01*
X105155863Y-56749600D02*
X105060625Y-56797219D01*
X105060625Y-56797219D02*
X104870149Y-56797219D01*
X104870149Y-56797219D02*
X104774911Y-56749600D01*
X104774911Y-56749600D02*
X104679673Y-56654361D01*
X104679673Y-56654361D02*
X104632054Y-56463885D01*
X104632054Y-56463885D02*
X104632054Y-56130552D01*
X104632054Y-56130552D02*
X104679673Y-55940076D01*
X104679673Y-55940076D02*
X104774911Y-55844838D01*
X104774911Y-55844838D02*
X104870149Y-55797219D01*
X105727292Y-55797219D02*
X105727292Y-56606742D01*
X105727292Y-56606742D02*
X105774911Y-56701980D01*
X105774911Y-56701980D02*
X105822530Y-56749600D01*
X105822530Y-56749600D02*
X105917768Y-56797219D01*
X105917768Y-56797219D02*
X106108244Y-56797219D01*
X106108244Y-56797219D02*
X106203482Y-56749600D01*
X106203482Y-56749600D02*
X106251101Y-56701980D01*
X106251101Y-56701980D02*
X106298720Y-56606742D01*
X106298720Y-56606742D02*
X106298720Y-55797219D01*
X106632054Y-55797219D02*
X107203482Y-55797219D01*
X106917768Y-56797219D02*
X106917768Y-55797219D01*
X107536816Y-56701980D02*
X107584435Y-56749600D01*
X107584435Y-56749600D02*
X107536816Y-56797219D01*
X107536816Y-56797219D02*
X107489197Y-56749600D01*
X107489197Y-56749600D02*
X107536816Y-56701980D01*
X107536816Y-56701980D02*
X107536816Y-56797219D01*
X107536816Y-56178171D02*
X107584435Y-56225790D01*
X107584435Y-56225790D02*
X107536816Y-56273409D01*
X107536816Y-56273409D02*
X107489197Y-56225790D01*
X107489197Y-56225790D02*
X107536816Y-56178171D01*
X107536816Y-56178171D02*
X107536816Y-56273409D01*
X108774911Y-56416266D02*
X109536816Y-56416266D01*
X109155863Y-56797219D02*
X109155863Y-56035314D01*
X110536815Y-56797219D02*
X109965387Y-56797219D01*
X110251101Y-56797219D02*
X110251101Y-55797219D01*
X110251101Y-55797219D02*
X110155863Y-55940076D01*
X110155863Y-55940076D02*
X110060625Y-56035314D01*
X110060625Y-56035314D02*
X109965387Y-56082933D01*
X111441577Y-55797219D02*
X110965387Y-55797219D01*
X110965387Y-55797219D02*
X110917768Y-56273409D01*
X110917768Y-56273409D02*
X110965387Y-56225790D01*
X110965387Y-56225790D02*
X111060625Y-56178171D01*
X111060625Y-56178171D02*
X111298720Y-56178171D01*
X111298720Y-56178171D02*
X111393958Y-56225790D01*
X111393958Y-56225790D02*
X111441577Y-56273409D01*
X111441577Y-56273409D02*
X111489196Y-56368647D01*
X111489196Y-56368647D02*
X111489196Y-56606742D01*
X111489196Y-56606742D02*
X111441577Y-56701980D01*
X111441577Y-56701980D02*
X111393958Y-56749600D01*
X111393958Y-56749600D02*
X111298720Y-56797219D01*
X111298720Y-56797219D02*
X111060625Y-56797219D01*
X111060625Y-56797219D02*
X110965387Y-56749600D01*
X110965387Y-56749600D02*
X110917768Y-56701980D01*
X111774911Y-55797219D02*
X112108244Y-56797219D01*
X112108244Y-56797219D02*
X112441577Y-55797219D01*
X114060625Y-56797219D02*
X113489197Y-56797219D01*
X113774911Y-56797219D02*
X113774911Y-55797219D01*
X113774911Y-55797219D02*
X113679673Y-55940076D01*
X113679673Y-55940076D02*
X113584435Y-56035314D01*
X113584435Y-56035314D02*
X113489197Y-56082933D01*
X114441578Y-56511504D02*
X114917768Y-56511504D01*
X114346340Y-56797219D02*
X114679673Y-55797219D01*
X114679673Y-55797219D02*
X115013006Y-56797219D01*
X116108245Y-56416266D02*
X116870150Y-56416266D01*
X117822530Y-55797219D02*
X117346340Y-55797219D01*
X117346340Y-55797219D02*
X117298721Y-56273409D01*
X117298721Y-56273409D02*
X117346340Y-56225790D01*
X117346340Y-56225790D02*
X117441578Y-56178171D01*
X117441578Y-56178171D02*
X117679673Y-56178171D01*
X117679673Y-56178171D02*
X117774911Y-56225790D01*
X117774911Y-56225790D02*
X117822530Y-56273409D01*
X117822530Y-56273409D02*
X117870149Y-56368647D01*
X117870149Y-56368647D02*
X117870149Y-56606742D01*
X117870149Y-56606742D02*
X117822530Y-56701980D01*
X117822530Y-56701980D02*
X117774911Y-56749600D01*
X117774911Y-56749600D02*
X117679673Y-56797219D01*
X117679673Y-56797219D02*
X117441578Y-56797219D01*
X117441578Y-56797219D02*
X117346340Y-56749600D01*
X117346340Y-56749600D02*
X117298721Y-56701980D01*
X118155864Y-55797219D02*
X118489197Y-56797219D01*
X118489197Y-56797219D02*
X118822530Y-55797219D01*
X120108245Y-55797219D02*
X120203483Y-55797219D01*
X120203483Y-55797219D02*
X120298721Y-55844838D01*
X120298721Y-55844838D02*
X120346340Y-55892457D01*
X120346340Y-55892457D02*
X120393959Y-55987695D01*
X120393959Y-55987695D02*
X120441578Y-56178171D01*
X120441578Y-56178171D02*
X120441578Y-56416266D01*
X120441578Y-56416266D02*
X120393959Y-56606742D01*
X120393959Y-56606742D02*
X120346340Y-56701980D01*
X120346340Y-56701980D02*
X120298721Y-56749600D01*
X120298721Y-56749600D02*
X120203483Y-56797219D01*
X120203483Y-56797219D02*
X120108245Y-56797219D01*
X120108245Y-56797219D02*
X120013007Y-56749600D01*
X120013007Y-56749600D02*
X119965388Y-56701980D01*
X119965388Y-56701980D02*
X119917769Y-56606742D01*
X119917769Y-56606742D02*
X119870150Y-56416266D01*
X119870150Y-56416266D02*
X119870150Y-56178171D01*
X119870150Y-56178171D02*
X119917769Y-55987695D01*
X119917769Y-55987695D02*
X119965388Y-55892457D01*
X119965388Y-55892457D02*
X120013007Y-55844838D01*
X120013007Y-55844838D02*
X120108245Y-55797219D01*
X120870150Y-56701980D02*
X120917769Y-56749600D01*
X120917769Y-56749600D02*
X120870150Y-56797219D01*
X120870150Y-56797219D02*
X120822531Y-56749600D01*
X120822531Y-56749600D02*
X120870150Y-56701980D01*
X120870150Y-56701980D02*
X120870150Y-56797219D01*
X121822530Y-55797219D02*
X121346340Y-55797219D01*
X121346340Y-55797219D02*
X121298721Y-56273409D01*
X121298721Y-56273409D02*
X121346340Y-56225790D01*
X121346340Y-56225790D02*
X121441578Y-56178171D01*
X121441578Y-56178171D02*
X121679673Y-56178171D01*
X121679673Y-56178171D02*
X121774911Y-56225790D01*
X121774911Y-56225790D02*
X121822530Y-56273409D01*
X121822530Y-56273409D02*
X121870149Y-56368647D01*
X121870149Y-56368647D02*
X121870149Y-56606742D01*
X121870149Y-56606742D02*
X121822530Y-56701980D01*
X121822530Y-56701980D02*
X121774911Y-56749600D01*
X121774911Y-56749600D02*
X121679673Y-56797219D01*
X121679673Y-56797219D02*
X121441578Y-56797219D01*
X121441578Y-56797219D02*
X121346340Y-56749600D01*
X121346340Y-56749600D02*
X121298721Y-56701980D01*
X122251102Y-56511504D02*
X122727292Y-56511504D01*
X122155864Y-56797219D02*
X122489197Y-55797219D01*
X122489197Y-55797219D02*
X122822530Y-56797219D01*
X85992054Y-85561504D02*
X86468244Y-85561504D01*
X85896816Y-85847219D02*
X86230149Y-84847219D01*
X86230149Y-84847219D02*
X86563482Y-85847219D01*
X87468244Y-85751980D02*
X87420625Y-85799600D01*
X87420625Y-85799600D02*
X87277768Y-85847219D01*
X87277768Y-85847219D02*
X87182530Y-85847219D01*
X87182530Y-85847219D02*
X87039673Y-85799600D01*
X87039673Y-85799600D02*
X86944435Y-85704361D01*
X86944435Y-85704361D02*
X86896816Y-85609123D01*
X86896816Y-85609123D02*
X86849197Y-85418647D01*
X86849197Y-85418647D02*
X86849197Y-85275790D01*
X86849197Y-85275790D02*
X86896816Y-85085314D01*
X86896816Y-85085314D02*
X86944435Y-84990076D01*
X86944435Y-84990076D02*
X87039673Y-84894838D01*
X87039673Y-84894838D02*
X87182530Y-84847219D01*
X87182530Y-84847219D02*
X87277768Y-84847219D01*
X87277768Y-84847219D02*
X87420625Y-84894838D01*
X87420625Y-84894838D02*
X87468244Y-84942457D01*
X88658721Y-85847219D02*
X88658721Y-84847219D01*
X89134911Y-85847219D02*
X89134911Y-84847219D01*
X89134911Y-84847219D02*
X89706339Y-85847219D01*
X89706339Y-85847219D02*
X89706339Y-84847219D01*
D10*
X102167142Y-104275460D02*
X102643332Y-104275460D01*
X102071904Y-104561175D02*
X102405237Y-103561175D01*
X102405237Y-103561175D02*
X102738570Y-104561175D01*
X103500475Y-104561175D02*
X103500475Y-103561175D01*
X103500475Y-104513556D02*
X103405237Y-104561175D01*
X103405237Y-104561175D02*
X103214761Y-104561175D01*
X103214761Y-104561175D02*
X103119523Y-104513556D01*
X103119523Y-104513556D02*
X103071904Y-104465936D01*
X103071904Y-104465936D02*
X103024285Y-104370698D01*
X103024285Y-104370698D02*
X103024285Y-104084984D01*
X103024285Y-104084984D02*
X103071904Y-103989746D01*
X103071904Y-103989746D02*
X103119523Y-103942127D01*
X103119523Y-103942127D02*
X103214761Y-103894508D01*
X103214761Y-103894508D02*
X103405237Y-103894508D01*
X103405237Y-103894508D02*
X103500475Y-103942127D01*
X103976666Y-104561175D02*
X103976666Y-103894508D01*
X103976666Y-104084984D02*
X104024285Y-103989746D01*
X104024285Y-103989746D02*
X104071904Y-103942127D01*
X104071904Y-103942127D02*
X104167142Y-103894508D01*
X104167142Y-103894508D02*
X104262380Y-103894508D01*
X104595714Y-104561175D02*
X104595714Y-103894508D01*
X104595714Y-103561175D02*
X104548095Y-103608794D01*
X104548095Y-103608794D02*
X104595714Y-103656413D01*
X104595714Y-103656413D02*
X104643333Y-103608794D01*
X104643333Y-103608794D02*
X104595714Y-103561175D01*
X104595714Y-103561175D02*
X104595714Y-103656413D01*
X105500475Y-104561175D02*
X105500475Y-104037365D01*
X105500475Y-104037365D02*
X105452856Y-103942127D01*
X105452856Y-103942127D02*
X105357618Y-103894508D01*
X105357618Y-103894508D02*
X105167142Y-103894508D01*
X105167142Y-103894508D02*
X105071904Y-103942127D01*
X105500475Y-104513556D02*
X105405237Y-104561175D01*
X105405237Y-104561175D02*
X105167142Y-104561175D01*
X105167142Y-104561175D02*
X105071904Y-104513556D01*
X105071904Y-104513556D02*
X105024285Y-104418317D01*
X105024285Y-104418317D02*
X105024285Y-104323079D01*
X105024285Y-104323079D02*
X105071904Y-104227841D01*
X105071904Y-104227841D02*
X105167142Y-104180222D01*
X105167142Y-104180222D02*
X105405237Y-104180222D01*
X105405237Y-104180222D02*
X105500475Y-104132603D01*
X105976666Y-103894508D02*
X105976666Y-104561175D01*
X105976666Y-103989746D02*
X106024285Y-103942127D01*
X106024285Y-103942127D02*
X106119523Y-103894508D01*
X106119523Y-103894508D02*
X106262380Y-103894508D01*
X106262380Y-103894508D02*
X106357618Y-103942127D01*
X106357618Y-103942127D02*
X106405237Y-104037365D01*
X106405237Y-104037365D02*
X106405237Y-104561175D01*
X107643333Y-104561175D02*
X107643333Y-103561175D01*
X107643333Y-103561175D02*
X107976666Y-104275460D01*
X107976666Y-104275460D02*
X108309999Y-103561175D01*
X108309999Y-103561175D02*
X108309999Y-104561175D01*
X109214761Y-104561175D02*
X109214761Y-104037365D01*
X109214761Y-104037365D02*
X109167142Y-103942127D01*
X109167142Y-103942127D02*
X109071904Y-103894508D01*
X109071904Y-103894508D02*
X108881428Y-103894508D01*
X108881428Y-103894508D02*
X108786190Y-103942127D01*
X109214761Y-104513556D02*
X109119523Y-104561175D01*
X109119523Y-104561175D02*
X108881428Y-104561175D01*
X108881428Y-104561175D02*
X108786190Y-104513556D01*
X108786190Y-104513556D02*
X108738571Y-104418317D01*
X108738571Y-104418317D02*
X108738571Y-104323079D01*
X108738571Y-104323079D02*
X108786190Y-104227841D01*
X108786190Y-104227841D02*
X108881428Y-104180222D01*
X108881428Y-104180222D02*
X109119523Y-104180222D01*
X109119523Y-104180222D02*
X109214761Y-104132603D01*
X109690952Y-104561175D02*
X109690952Y-103894508D01*
X109690952Y-104084984D02*
X109738571Y-103989746D01*
X109738571Y-103989746D02*
X109786190Y-103942127D01*
X109786190Y-103942127D02*
X109881428Y-103894508D01*
X109881428Y-103894508D02*
X109976666Y-103894508D01*
X110738571Y-104513556D02*
X110643333Y-104561175D01*
X110643333Y-104561175D02*
X110452857Y-104561175D01*
X110452857Y-104561175D02*
X110357619Y-104513556D01*
X110357619Y-104513556D02*
X110310000Y-104465936D01*
X110310000Y-104465936D02*
X110262381Y-104370698D01*
X110262381Y-104370698D02*
X110262381Y-104084984D01*
X110262381Y-104084984D02*
X110310000Y-103989746D01*
X110310000Y-103989746D02*
X110357619Y-103942127D01*
X110357619Y-103942127D02*
X110452857Y-103894508D01*
X110452857Y-103894508D02*
X110643333Y-103894508D01*
X110643333Y-103894508D02*
X110738571Y-103942127D01*
X111310000Y-104561175D02*
X111214762Y-104513556D01*
X111214762Y-104513556D02*
X111167143Y-104465936D01*
X111167143Y-104465936D02*
X111119524Y-104370698D01*
X111119524Y-104370698D02*
X111119524Y-104084984D01*
X111119524Y-104084984D02*
X111167143Y-103989746D01*
X111167143Y-103989746D02*
X111214762Y-103942127D01*
X111214762Y-103942127D02*
X111310000Y-103894508D01*
X111310000Y-103894508D02*
X111452857Y-103894508D01*
X111452857Y-103894508D02*
X111548095Y-103942127D01*
X111548095Y-103942127D02*
X111595714Y-103989746D01*
X111595714Y-103989746D02*
X111643333Y-104084984D01*
X111643333Y-104084984D02*
X111643333Y-104370698D01*
X111643333Y-104370698D02*
X111595714Y-104465936D01*
X111595714Y-104465936D02*
X111548095Y-104513556D01*
X111548095Y-104513556D02*
X111452857Y-104561175D01*
X111452857Y-104561175D02*
X111310000Y-104561175D01*
X112024286Y-104513556D02*
X112119524Y-104561175D01*
X112119524Y-104561175D02*
X112310000Y-104561175D01*
X112310000Y-104561175D02*
X112405238Y-104513556D01*
X112405238Y-104513556D02*
X112452857Y-104418317D01*
X112452857Y-104418317D02*
X112452857Y-104370698D01*
X112452857Y-104370698D02*
X112405238Y-104275460D01*
X112405238Y-104275460D02*
X112310000Y-104227841D01*
X112310000Y-104227841D02*
X112167143Y-104227841D01*
X112167143Y-104227841D02*
X112071905Y-104180222D01*
X112071905Y-104180222D02*
X112024286Y-104084984D01*
X112024286Y-104084984D02*
X112024286Y-104037365D01*
X112024286Y-104037365D02*
X112071905Y-103942127D01*
X112071905Y-103942127D02*
X112167143Y-103894508D01*
X112167143Y-103894508D02*
X112310000Y-103894508D01*
X112310000Y-103894508D02*
X112405238Y-103942127D01*
X104357619Y-105171119D02*
X104452857Y-105171119D01*
X104452857Y-105171119D02*
X104548095Y-105218738D01*
X104548095Y-105218738D02*
X104595714Y-105266357D01*
X104595714Y-105266357D02*
X104643333Y-105361595D01*
X104643333Y-105361595D02*
X104690952Y-105552071D01*
X104690952Y-105552071D02*
X104690952Y-105790166D01*
X104690952Y-105790166D02*
X104643333Y-105980642D01*
X104643333Y-105980642D02*
X104595714Y-106075880D01*
X104595714Y-106075880D02*
X104548095Y-106123500D01*
X104548095Y-106123500D02*
X104452857Y-106171119D01*
X104452857Y-106171119D02*
X104357619Y-106171119D01*
X104357619Y-106171119D02*
X104262381Y-106123500D01*
X104262381Y-106123500D02*
X104214762Y-106075880D01*
X104214762Y-106075880D02*
X104167143Y-105980642D01*
X104167143Y-105980642D02*
X104119524Y-105790166D01*
X104119524Y-105790166D02*
X104119524Y-105552071D01*
X104119524Y-105552071D02*
X104167143Y-105361595D01*
X104167143Y-105361595D02*
X104214762Y-105266357D01*
X104214762Y-105266357D02*
X104262381Y-105218738D01*
X104262381Y-105218738D02*
X104357619Y-105171119D01*
X105643333Y-106171119D02*
X105071905Y-106171119D01*
X105357619Y-106171119D02*
X105357619Y-105171119D01*
X105357619Y-105171119D02*
X105262381Y-105313976D01*
X105262381Y-105313976D02*
X105167143Y-105409214D01*
X105167143Y-105409214D02*
X105071905Y-105456833D01*
X106786190Y-105123500D02*
X105929048Y-106409214D01*
X107071905Y-105266357D02*
X107119524Y-105218738D01*
X107119524Y-105218738D02*
X107214762Y-105171119D01*
X107214762Y-105171119D02*
X107452857Y-105171119D01*
X107452857Y-105171119D02*
X107548095Y-105218738D01*
X107548095Y-105218738D02*
X107595714Y-105266357D01*
X107595714Y-105266357D02*
X107643333Y-105361595D01*
X107643333Y-105361595D02*
X107643333Y-105456833D01*
X107643333Y-105456833D02*
X107595714Y-105599690D01*
X107595714Y-105599690D02*
X107024286Y-106171119D01*
X107024286Y-106171119D02*
X107643333Y-106171119D01*
X108262381Y-105171119D02*
X108357619Y-105171119D01*
X108357619Y-105171119D02*
X108452857Y-105218738D01*
X108452857Y-105218738D02*
X108500476Y-105266357D01*
X108500476Y-105266357D02*
X108548095Y-105361595D01*
X108548095Y-105361595D02*
X108595714Y-105552071D01*
X108595714Y-105552071D02*
X108595714Y-105790166D01*
X108595714Y-105790166D02*
X108548095Y-105980642D01*
X108548095Y-105980642D02*
X108500476Y-106075880D01*
X108500476Y-106075880D02*
X108452857Y-106123500D01*
X108452857Y-106123500D02*
X108357619Y-106171119D01*
X108357619Y-106171119D02*
X108262381Y-106171119D01*
X108262381Y-106171119D02*
X108167143Y-106123500D01*
X108167143Y-106123500D02*
X108119524Y-106075880D01*
X108119524Y-106075880D02*
X108071905Y-105980642D01*
X108071905Y-105980642D02*
X108024286Y-105790166D01*
X108024286Y-105790166D02*
X108024286Y-105552071D01*
X108024286Y-105552071D02*
X108071905Y-105361595D01*
X108071905Y-105361595D02*
X108119524Y-105266357D01*
X108119524Y-105266357D02*
X108167143Y-105218738D01*
X108167143Y-105218738D02*
X108262381Y-105171119D01*
X108976667Y-105266357D02*
X109024286Y-105218738D01*
X109024286Y-105218738D02*
X109119524Y-105171119D01*
X109119524Y-105171119D02*
X109357619Y-105171119D01*
X109357619Y-105171119D02*
X109452857Y-105218738D01*
X109452857Y-105218738D02*
X109500476Y-105266357D01*
X109500476Y-105266357D02*
X109548095Y-105361595D01*
X109548095Y-105361595D02*
X109548095Y-105456833D01*
X109548095Y-105456833D02*
X109500476Y-105599690D01*
X109500476Y-105599690D02*
X108929048Y-106171119D01*
X108929048Y-106171119D02*
X109548095Y-106171119D01*
X110405238Y-105171119D02*
X110214762Y-105171119D01*
X110214762Y-105171119D02*
X110119524Y-105218738D01*
X110119524Y-105218738D02*
X110071905Y-105266357D01*
X110071905Y-105266357D02*
X109976667Y-105409214D01*
X109976667Y-105409214D02*
X109929048Y-105599690D01*
X109929048Y-105599690D02*
X109929048Y-105980642D01*
X109929048Y-105980642D02*
X109976667Y-106075880D01*
X109976667Y-106075880D02*
X110024286Y-106123500D01*
X110024286Y-106123500D02*
X110119524Y-106171119D01*
X110119524Y-106171119D02*
X110310000Y-106171119D01*
X110310000Y-106171119D02*
X110405238Y-106123500D01*
X110405238Y-106123500D02*
X110452857Y-106075880D01*
X110452857Y-106075880D02*
X110500476Y-105980642D01*
X110500476Y-105980642D02*
X110500476Y-105742547D01*
X110500476Y-105742547D02*
X110452857Y-105647309D01*
X110452857Y-105647309D02*
X110405238Y-105599690D01*
X110405238Y-105599690D02*
X110310000Y-105552071D01*
X110310000Y-105552071D02*
X110119524Y-105552071D01*
X110119524Y-105552071D02*
X110024286Y-105599690D01*
X110024286Y-105599690D02*
X109976667Y-105647309D01*
X109976667Y-105647309D02*
X109929048Y-105742547D01*
D11*
X174683482Y-83201219D02*
X174112054Y-83201219D01*
X174397768Y-83201219D02*
X174397768Y-82201219D01*
X174397768Y-82201219D02*
X174302530Y-82344076D01*
X174302530Y-82344076D02*
X174207292Y-82439314D01*
X174207292Y-82439314D02*
X174112054Y-82486933D01*
X175588244Y-82201219D02*
X175112054Y-82201219D01*
X175112054Y-82201219D02*
X175064435Y-82677409D01*
X175064435Y-82677409D02*
X175112054Y-82629790D01*
X175112054Y-82629790D02*
X175207292Y-82582171D01*
X175207292Y-82582171D02*
X175445387Y-82582171D01*
X175445387Y-82582171D02*
X175540625Y-82629790D01*
X175540625Y-82629790D02*
X175588244Y-82677409D01*
X175588244Y-82677409D02*
X175635863Y-82772647D01*
X175635863Y-82772647D02*
X175635863Y-83010742D01*
X175635863Y-83010742D02*
X175588244Y-83105980D01*
X175588244Y-83105980D02*
X175540625Y-83153600D01*
X175540625Y-83153600D02*
X175445387Y-83201219D01*
X175445387Y-83201219D02*
X175207292Y-83201219D01*
X175207292Y-83201219D02*
X175112054Y-83153600D01*
X175112054Y-83153600D02*
X175064435Y-83105980D01*
X175921578Y-82201219D02*
X176254911Y-83201219D01*
X176254911Y-83201219D02*
X176588244Y-82201219D01*
X178549673Y-86427219D02*
X178549673Y-85427219D01*
X178549673Y-85427219D02*
X178787768Y-85427219D01*
X178787768Y-85427219D02*
X178930625Y-85474838D01*
X178930625Y-85474838D02*
X179025863Y-85570076D01*
X179025863Y-85570076D02*
X179073482Y-85665314D01*
X179073482Y-85665314D02*
X179121101Y-85855790D01*
X179121101Y-85855790D02*
X179121101Y-85998647D01*
X179121101Y-85998647D02*
X179073482Y-86189123D01*
X179073482Y-86189123D02*
X179025863Y-86284361D01*
X179025863Y-86284361D02*
X178930625Y-86379600D01*
X178930625Y-86379600D02*
X178787768Y-86427219D01*
X178787768Y-86427219D02*
X178549673Y-86427219D01*
X180121101Y-86331980D02*
X180073482Y-86379600D01*
X180073482Y-86379600D02*
X179930625Y-86427219D01*
X179930625Y-86427219D02*
X179835387Y-86427219D01*
X179835387Y-86427219D02*
X179692530Y-86379600D01*
X179692530Y-86379600D02*
X179597292Y-86284361D01*
X179597292Y-86284361D02*
X179549673Y-86189123D01*
X179549673Y-86189123D02*
X179502054Y-85998647D01*
X179502054Y-85998647D02*
X179502054Y-85855790D01*
X179502054Y-85855790D02*
X179549673Y-85665314D01*
X179549673Y-85665314D02*
X179597292Y-85570076D01*
X179597292Y-85570076D02*
X179692530Y-85474838D01*
X179692530Y-85474838D02*
X179835387Y-85427219D01*
X179835387Y-85427219D02*
X179930625Y-85427219D01*
X179930625Y-85427219D02*
X180073482Y-85474838D01*
X180073482Y-85474838D02*
X180121101Y-85522457D01*
X181502054Y-85427219D02*
X181692530Y-85427219D01*
X181692530Y-85427219D02*
X181787768Y-85474838D01*
X181787768Y-85474838D02*
X181883006Y-85570076D01*
X181883006Y-85570076D02*
X181930625Y-85760552D01*
X181930625Y-85760552D02*
X181930625Y-86093885D01*
X181930625Y-86093885D02*
X181883006Y-86284361D01*
X181883006Y-86284361D02*
X181787768Y-86379600D01*
X181787768Y-86379600D02*
X181692530Y-86427219D01*
X181692530Y-86427219D02*
X181502054Y-86427219D01*
X181502054Y-86427219D02*
X181406816Y-86379600D01*
X181406816Y-86379600D02*
X181311578Y-86284361D01*
X181311578Y-86284361D02*
X181263959Y-86093885D01*
X181263959Y-86093885D02*
X181263959Y-85760552D01*
X181263959Y-85760552D02*
X181311578Y-85570076D01*
X181311578Y-85570076D02*
X181406816Y-85474838D01*
X181406816Y-85474838D02*
X181502054Y-85427219D01*
X182359197Y-85427219D02*
X182359197Y-86236742D01*
X182359197Y-86236742D02*
X182406816Y-86331980D01*
X182406816Y-86331980D02*
X182454435Y-86379600D01*
X182454435Y-86379600D02*
X182549673Y-86427219D01*
X182549673Y-86427219D02*
X182740149Y-86427219D01*
X182740149Y-86427219D02*
X182835387Y-86379600D01*
X182835387Y-86379600D02*
X182883006Y-86331980D01*
X182883006Y-86331980D02*
X182930625Y-86236742D01*
X182930625Y-86236742D02*
X182930625Y-85427219D01*
X183263959Y-85427219D02*
X183835387Y-85427219D01*
X183549673Y-86427219D02*
X183549673Y-85427219D01*
X174016816Y-77740266D02*
X174778721Y-77740266D01*
X175731101Y-77121219D02*
X175254911Y-77121219D01*
X175254911Y-77121219D02*
X175207292Y-77597409D01*
X175207292Y-77597409D02*
X175254911Y-77549790D01*
X175254911Y-77549790D02*
X175350149Y-77502171D01*
X175350149Y-77502171D02*
X175588244Y-77502171D01*
X175588244Y-77502171D02*
X175683482Y-77549790D01*
X175683482Y-77549790D02*
X175731101Y-77597409D01*
X175731101Y-77597409D02*
X175778720Y-77692647D01*
X175778720Y-77692647D02*
X175778720Y-77930742D01*
X175778720Y-77930742D02*
X175731101Y-78025980D01*
X175731101Y-78025980D02*
X175683482Y-78073600D01*
X175683482Y-78073600D02*
X175588244Y-78121219D01*
X175588244Y-78121219D02*
X175350149Y-78121219D01*
X175350149Y-78121219D02*
X175254911Y-78073600D01*
X175254911Y-78073600D02*
X175207292Y-78025980D01*
X176064435Y-77121219D02*
X176397768Y-78121219D01*
X176397768Y-78121219D02*
X176731101Y-77121219D01*
D12*
X145420476Y-93027419D02*
X145420476Y-92027419D01*
X145420476Y-92503609D02*
X145991904Y-92503609D01*
X145991904Y-93027419D02*
X145991904Y-92027419D01*
X146944285Y-93027419D02*
X146468095Y-93027419D01*
X146468095Y-93027419D02*
X146468095Y-92027419D01*
X147277619Y-93027419D02*
X147277619Y-92027419D01*
X147849047Y-93027419D02*
X147420476Y-92455990D01*
X147849047Y-92027419D02*
X147277619Y-92598847D01*
X148277619Y-92646466D02*
X149039524Y-92646466D01*
X149420476Y-92027419D02*
X150039523Y-92027419D01*
X150039523Y-92027419D02*
X149706190Y-92408371D01*
X149706190Y-92408371D02*
X149849047Y-92408371D01*
X149849047Y-92408371D02*
X149944285Y-92455990D01*
X149944285Y-92455990D02*
X149991904Y-92503609D01*
X149991904Y-92503609D02*
X150039523Y-92598847D01*
X150039523Y-92598847D02*
X150039523Y-92836942D01*
X150039523Y-92836942D02*
X149991904Y-92932180D01*
X149991904Y-92932180D02*
X149944285Y-92979800D01*
X149944285Y-92979800D02*
X149849047Y-93027419D01*
X149849047Y-93027419D02*
X149563333Y-93027419D01*
X149563333Y-93027419D02*
X149468095Y-92979800D01*
X149468095Y-92979800D02*
X149420476Y-92932180D01*
X150468095Y-93027419D02*
X150468095Y-92027419D01*
X150468095Y-92027419D02*
X150801428Y-92741704D01*
X150801428Y-92741704D02*
X151134761Y-92027419D01*
X151134761Y-92027419D02*
X151134761Y-93027419D01*
X152134761Y-93027419D02*
X151563333Y-93027419D01*
X151849047Y-93027419D02*
X151849047Y-92027419D01*
X151849047Y-92027419D02*
X151753809Y-92170276D01*
X151753809Y-92170276D02*
X151658571Y-92265514D01*
X151658571Y-92265514D02*
X151563333Y-92313133D01*
X153039523Y-92027419D02*
X152563333Y-92027419D01*
X152563333Y-92027419D02*
X152515714Y-92503609D01*
X152515714Y-92503609D02*
X152563333Y-92455990D01*
X152563333Y-92455990D02*
X152658571Y-92408371D01*
X152658571Y-92408371D02*
X152896666Y-92408371D01*
X152896666Y-92408371D02*
X152991904Y-92455990D01*
X152991904Y-92455990D02*
X153039523Y-92503609D01*
X153039523Y-92503609D02*
X153087142Y-92598847D01*
X153087142Y-92598847D02*
X153087142Y-92836942D01*
X153087142Y-92836942D02*
X153039523Y-92932180D01*
X153039523Y-92932180D02*
X152991904Y-92979800D01*
X152991904Y-92979800D02*
X152896666Y-93027419D01*
X152896666Y-93027419D02*
X152658571Y-93027419D01*
X152658571Y-93027419D02*
X152563333Y-92979800D01*
X152563333Y-92979800D02*
X152515714Y-92932180D01*
X153849047Y-92503609D02*
X153991904Y-92551228D01*
X153991904Y-92551228D02*
X154039523Y-92598847D01*
X154039523Y-92598847D02*
X154087142Y-92694085D01*
X154087142Y-92694085D02*
X154087142Y-92836942D01*
X154087142Y-92836942D02*
X154039523Y-92932180D01*
X154039523Y-92932180D02*
X153991904Y-92979800D01*
X153991904Y-92979800D02*
X153896666Y-93027419D01*
X153896666Y-93027419D02*
X153515714Y-93027419D01*
X153515714Y-93027419D02*
X153515714Y-92027419D01*
X153515714Y-92027419D02*
X153849047Y-92027419D01*
X153849047Y-92027419D02*
X153944285Y-92075038D01*
X153944285Y-92075038D02*
X153991904Y-92122657D01*
X153991904Y-92122657D02*
X154039523Y-92217895D01*
X154039523Y-92217895D02*
X154039523Y-92313133D01*
X154039523Y-92313133D02*
X153991904Y-92408371D01*
X153991904Y-92408371D02*
X153944285Y-92455990D01*
X153944285Y-92455990D02*
X153849047Y-92503609D01*
X153849047Y-92503609D02*
X153515714Y-92503609D01*
D13*
X162723333Y-104034819D02*
X162390000Y-103558628D01*
X162151905Y-104034819D02*
X162151905Y-103034819D01*
X162151905Y-103034819D02*
X162532857Y-103034819D01*
X162532857Y-103034819D02*
X162628095Y-103082438D01*
X162628095Y-103082438D02*
X162675714Y-103130057D01*
X162675714Y-103130057D02*
X162723333Y-103225295D01*
X162723333Y-103225295D02*
X162723333Y-103368152D01*
X162723333Y-103368152D02*
X162675714Y-103463390D01*
X162675714Y-103463390D02*
X162628095Y-103511009D01*
X162628095Y-103511009D02*
X162532857Y-103558628D01*
X162532857Y-103558628D02*
X162151905Y-103558628D01*
X163104286Y-103130057D02*
X163151905Y-103082438D01*
X163151905Y-103082438D02*
X163247143Y-103034819D01*
X163247143Y-103034819D02*
X163485238Y-103034819D01*
X163485238Y-103034819D02*
X163580476Y-103082438D01*
X163580476Y-103082438D02*
X163628095Y-103130057D01*
X163628095Y-103130057D02*
X163675714Y-103225295D01*
X163675714Y-103225295D02*
X163675714Y-103320533D01*
X163675714Y-103320533D02*
X163628095Y-103463390D01*
X163628095Y-103463390D02*
X163056667Y-104034819D01*
X163056667Y-104034819D02*
X163675714Y-104034819D01*
X162723333Y-56924819D02*
X162390000Y-56448628D01*
X162151905Y-56924819D02*
X162151905Y-55924819D01*
X162151905Y-55924819D02*
X162532857Y-55924819D01*
X162532857Y-55924819D02*
X162628095Y-55972438D01*
X162628095Y-55972438D02*
X162675714Y-56020057D01*
X162675714Y-56020057D02*
X162723333Y-56115295D01*
X162723333Y-56115295D02*
X162723333Y-56258152D01*
X162723333Y-56258152D02*
X162675714Y-56353390D01*
X162675714Y-56353390D02*
X162628095Y-56401009D01*
X162628095Y-56401009D02*
X162532857Y-56448628D01*
X162532857Y-56448628D02*
X162151905Y-56448628D01*
X163675714Y-56924819D02*
X163104286Y-56924819D01*
X163390000Y-56924819D02*
X163390000Y-55924819D01*
X163390000Y-55924819D02*
X163294762Y-56067676D01*
X163294762Y-56067676D02*
X163199524Y-56162914D01*
X163199524Y-56162914D02*
X163104286Y-56210533D01*
X167526905Y-104044819D02*
X167526905Y-103044819D01*
X167526905Y-103044819D02*
X167765000Y-103044819D01*
X167765000Y-103044819D02*
X167907857Y-103092438D01*
X167907857Y-103092438D02*
X168003095Y-103187676D01*
X168003095Y-103187676D02*
X168050714Y-103282914D01*
X168050714Y-103282914D02*
X168098333Y-103473390D01*
X168098333Y-103473390D02*
X168098333Y-103616247D01*
X168098333Y-103616247D02*
X168050714Y-103806723D01*
X168050714Y-103806723D02*
X168003095Y-103901961D01*
X168003095Y-103901961D02*
X167907857Y-103997200D01*
X167907857Y-103997200D02*
X167765000Y-104044819D01*
X167765000Y-104044819D02*
X167526905Y-104044819D01*
X168479286Y-103140057D02*
X168526905Y-103092438D01*
X168526905Y-103092438D02*
X168622143Y-103044819D01*
X168622143Y-103044819D02*
X168860238Y-103044819D01*
X168860238Y-103044819D02*
X168955476Y-103092438D01*
X168955476Y-103092438D02*
X169003095Y-103140057D01*
X169003095Y-103140057D02*
X169050714Y-103235295D01*
X169050714Y-103235295D02*
X169050714Y-103330533D01*
X169050714Y-103330533D02*
X169003095Y-103473390D01*
X169003095Y-103473390D02*
X168431667Y-104044819D01*
X168431667Y-104044819D02*
X169050714Y-104044819D01*
X167526905Y-56834819D02*
X167526905Y-55834819D01*
X167526905Y-55834819D02*
X167765000Y-55834819D01*
X167765000Y-55834819D02*
X167907857Y-55882438D01*
X167907857Y-55882438D02*
X168003095Y-55977676D01*
X168003095Y-55977676D02*
X168050714Y-56072914D01*
X168050714Y-56072914D02*
X168098333Y-56263390D01*
X168098333Y-56263390D02*
X168098333Y-56406247D01*
X168098333Y-56406247D02*
X168050714Y-56596723D01*
X168050714Y-56596723D02*
X168003095Y-56691961D01*
X168003095Y-56691961D02*
X167907857Y-56787200D01*
X167907857Y-56787200D02*
X167765000Y-56834819D01*
X167765000Y-56834819D02*
X167526905Y-56834819D01*
X169050714Y-56834819D02*
X168479286Y-56834819D01*
X168765000Y-56834819D02*
X168765000Y-55834819D01*
X168765000Y-55834819D02*
X168669762Y-55977676D01*
X168669762Y-55977676D02*
X168574524Y-56072914D01*
X168574524Y-56072914D02*
X168479286Y-56120533D01*
X91856666Y-92501009D02*
X91523333Y-92501009D01*
X91523333Y-93024819D02*
X91523333Y-92024819D01*
X91523333Y-92024819D02*
X91999523Y-92024819D01*
X92904285Y-93024819D02*
X92332857Y-93024819D01*
X92618571Y-93024819D02*
X92618571Y-92024819D01*
X92618571Y-92024819D02*
X92523333Y-92167676D01*
X92523333Y-92167676D02*
X92428095Y-92262914D01*
X92428095Y-92262914D02*
X92332857Y-92310533D01*
X174253333Y-60819580D02*
X174205714Y-60867200D01*
X174205714Y-60867200D02*
X174062857Y-60914819D01*
X174062857Y-60914819D02*
X173967619Y-60914819D01*
X173967619Y-60914819D02*
X173824762Y-60867200D01*
X173824762Y-60867200D02*
X173729524Y-60771961D01*
X173729524Y-60771961D02*
X173681905Y-60676723D01*
X173681905Y-60676723D02*
X173634286Y-60486247D01*
X173634286Y-60486247D02*
X173634286Y-60343390D01*
X173634286Y-60343390D02*
X173681905Y-60152914D01*
X173681905Y-60152914D02*
X173729524Y-60057676D01*
X173729524Y-60057676D02*
X173824762Y-59962438D01*
X173824762Y-59962438D02*
X173967619Y-59914819D01*
X173967619Y-59914819D02*
X174062857Y-59914819D01*
X174062857Y-59914819D02*
X174205714Y-59962438D01*
X174205714Y-59962438D02*
X174253333Y-60010057D01*
X174586667Y-59914819D02*
X175205714Y-59914819D01*
X175205714Y-59914819D02*
X174872381Y-60295771D01*
X174872381Y-60295771D02*
X175015238Y-60295771D01*
X175015238Y-60295771D02*
X175110476Y-60343390D01*
X175110476Y-60343390D02*
X175158095Y-60391009D01*
X175158095Y-60391009D02*
X175205714Y-60486247D01*
X175205714Y-60486247D02*
X175205714Y-60724342D01*
X175205714Y-60724342D02*
X175158095Y-60819580D01*
X175158095Y-60819580D02*
X175110476Y-60867200D01*
X175110476Y-60867200D02*
X175015238Y-60914819D01*
X175015238Y-60914819D02*
X174729524Y-60914819D01*
X174729524Y-60914819D02*
X174634286Y-60867200D01*
X174634286Y-60867200D02*
X174586667Y-60819580D01*
D12*
X147495476Y-69097419D02*
X147495476Y-68097419D01*
X147495476Y-68573609D02*
X148066904Y-68573609D01*
X148066904Y-69097419D02*
X148066904Y-68097419D01*
X149019285Y-69097419D02*
X148543095Y-69097419D01*
X148543095Y-69097419D02*
X148543095Y-68097419D01*
X149352619Y-69097419D02*
X149352619Y-68097419D01*
X149924047Y-69097419D02*
X149495476Y-68525990D01*
X149924047Y-68097419D02*
X149352619Y-68668847D01*
X150352619Y-68716466D02*
X151114524Y-68716466D01*
X152066904Y-68097419D02*
X151590714Y-68097419D01*
X151590714Y-68097419D02*
X151543095Y-68573609D01*
X151543095Y-68573609D02*
X151590714Y-68525990D01*
X151590714Y-68525990D02*
X151685952Y-68478371D01*
X151685952Y-68478371D02*
X151924047Y-68478371D01*
X151924047Y-68478371D02*
X152019285Y-68525990D01*
X152019285Y-68525990D02*
X152066904Y-68573609D01*
X152066904Y-68573609D02*
X152114523Y-68668847D01*
X152114523Y-68668847D02*
X152114523Y-68906942D01*
X152114523Y-68906942D02*
X152066904Y-69002180D01*
X152066904Y-69002180D02*
X152019285Y-69049800D01*
X152019285Y-69049800D02*
X151924047Y-69097419D01*
X151924047Y-69097419D02*
X151685952Y-69097419D01*
X151685952Y-69097419D02*
X151590714Y-69049800D01*
X151590714Y-69049800D02*
X151543095Y-69002180D01*
X152543095Y-69097419D02*
X152543095Y-68097419D01*
X152543095Y-68097419D02*
X152876428Y-68811704D01*
X152876428Y-68811704D02*
X153209761Y-68097419D01*
X153209761Y-68097419D02*
X153209761Y-69097419D01*
X153876428Y-68097419D02*
X153971666Y-68097419D01*
X153971666Y-68097419D02*
X154066904Y-68145038D01*
X154066904Y-68145038D02*
X154114523Y-68192657D01*
X154114523Y-68192657D02*
X154162142Y-68287895D01*
X154162142Y-68287895D02*
X154209761Y-68478371D01*
X154209761Y-68478371D02*
X154209761Y-68716466D01*
X154209761Y-68716466D02*
X154162142Y-68906942D01*
X154162142Y-68906942D02*
X154114523Y-69002180D01*
X154114523Y-69002180D02*
X154066904Y-69049800D01*
X154066904Y-69049800D02*
X153971666Y-69097419D01*
X153971666Y-69097419D02*
X153876428Y-69097419D01*
X153876428Y-69097419D02*
X153781190Y-69049800D01*
X153781190Y-69049800D02*
X153733571Y-69002180D01*
X153733571Y-69002180D02*
X153685952Y-68906942D01*
X153685952Y-68906942D02*
X153638333Y-68716466D01*
X153638333Y-68716466D02*
X153638333Y-68478371D01*
X153638333Y-68478371D02*
X153685952Y-68287895D01*
X153685952Y-68287895D02*
X153733571Y-68192657D01*
X153733571Y-68192657D02*
X153781190Y-68145038D01*
X153781190Y-68145038D02*
X153876428Y-68097419D01*
X155114523Y-68097419D02*
X154638333Y-68097419D01*
X154638333Y-68097419D02*
X154590714Y-68573609D01*
X154590714Y-68573609D02*
X154638333Y-68525990D01*
X154638333Y-68525990D02*
X154733571Y-68478371D01*
X154733571Y-68478371D02*
X154971666Y-68478371D01*
X154971666Y-68478371D02*
X155066904Y-68525990D01*
X155066904Y-68525990D02*
X155114523Y-68573609D01*
X155114523Y-68573609D02*
X155162142Y-68668847D01*
X155162142Y-68668847D02*
X155162142Y-68906942D01*
X155162142Y-68906942D02*
X155114523Y-69002180D01*
X155114523Y-69002180D02*
X155066904Y-69049800D01*
X155066904Y-69049800D02*
X154971666Y-69097419D01*
X154971666Y-69097419D02*
X154733571Y-69097419D01*
X154733571Y-69097419D02*
X154638333Y-69049800D01*
X154638333Y-69049800D02*
X154590714Y-69002180D01*
D13*
X97404761Y-85984819D02*
X97071428Y-85508628D01*
X96833333Y-85984819D02*
X96833333Y-84984819D01*
X96833333Y-84984819D02*
X97214285Y-84984819D01*
X97214285Y-84984819D02*
X97309523Y-85032438D01*
X97309523Y-85032438D02*
X97357142Y-85080057D01*
X97357142Y-85080057D02*
X97404761Y-85175295D01*
X97404761Y-85175295D02*
X97404761Y-85318152D01*
X97404761Y-85318152D02*
X97357142Y-85413390D01*
X97357142Y-85413390D02*
X97309523Y-85461009D01*
X97309523Y-85461009D02*
X97214285Y-85508628D01*
X97214285Y-85508628D02*
X96833333Y-85508628D01*
X97690476Y-84984819D02*
X98023809Y-85984819D01*
X98023809Y-85984819D02*
X98357142Y-84984819D01*
X98642857Y-85080057D02*
X98690476Y-85032438D01*
X98690476Y-85032438D02*
X98785714Y-84984819D01*
X98785714Y-84984819D02*
X99023809Y-84984819D01*
X99023809Y-84984819D02*
X99119047Y-85032438D01*
X99119047Y-85032438D02*
X99166666Y-85080057D01*
X99166666Y-85080057D02*
X99214285Y-85175295D01*
X99214285Y-85175295D02*
X99214285Y-85270533D01*
X99214285Y-85270533D02*
X99166666Y-85413390D01*
X99166666Y-85413390D02*
X98595238Y-85984819D01*
X98595238Y-85984819D02*
X99214285Y-85984819D01*
X121553333Y-78574819D02*
X121077143Y-78574819D01*
X121077143Y-78574819D02*
X121077143Y-77574819D01*
X122410476Y-78574819D02*
X121839048Y-78574819D01*
X122124762Y-78574819D02*
X122124762Y-77574819D01*
X122124762Y-77574819D02*
X122029524Y-77717676D01*
X122029524Y-77717676D02*
X121934286Y-77812914D01*
X121934286Y-77812914D02*
X121839048Y-77860533D01*
X121543333Y-83494819D02*
X121067143Y-83494819D01*
X121067143Y-83494819D02*
X121067143Y-82494819D01*
X121829048Y-82590057D02*
X121876667Y-82542438D01*
X121876667Y-82542438D02*
X121971905Y-82494819D01*
X121971905Y-82494819D02*
X122210000Y-82494819D01*
X122210000Y-82494819D02*
X122305238Y-82542438D01*
X122305238Y-82542438D02*
X122352857Y-82590057D01*
X122352857Y-82590057D02*
X122400476Y-82685295D01*
X122400476Y-82685295D02*
X122400476Y-82780533D01*
X122400476Y-82780533D02*
X122352857Y-82923390D01*
X122352857Y-82923390D02*
X121781429Y-83494819D01*
X121781429Y-83494819D02*
X122400476Y-83494819D01*
X91796666Y-68561009D02*
X91463333Y-68561009D01*
X91463333Y-69084819D02*
X91463333Y-68084819D01*
X91463333Y-68084819D02*
X91939523Y-68084819D01*
X92272857Y-68180057D02*
X92320476Y-68132438D01*
X92320476Y-68132438D02*
X92415714Y-68084819D01*
X92415714Y-68084819D02*
X92653809Y-68084819D01*
X92653809Y-68084819D02*
X92749047Y-68132438D01*
X92749047Y-68132438D02*
X92796666Y-68180057D01*
X92796666Y-68180057D02*
X92844285Y-68275295D01*
X92844285Y-68275295D02*
X92844285Y-68370533D01*
X92844285Y-68370533D02*
X92796666Y-68513390D01*
X92796666Y-68513390D02*
X92225238Y-69084819D01*
X92225238Y-69084819D02*
X92844285Y-69084819D01*
X107183333Y-79124547D02*
X107135714Y-79172167D01*
X107135714Y-79172167D02*
X106992857Y-79219786D01*
X106992857Y-79219786D02*
X106897619Y-79219786D01*
X106897619Y-79219786D02*
X106754762Y-79172167D01*
X106754762Y-79172167D02*
X106659524Y-79076928D01*
X106659524Y-79076928D02*
X106611905Y-78981690D01*
X106611905Y-78981690D02*
X106564286Y-78791214D01*
X106564286Y-78791214D02*
X106564286Y-78648357D01*
X106564286Y-78648357D02*
X106611905Y-78457881D01*
X106611905Y-78457881D02*
X106659524Y-78362643D01*
X106659524Y-78362643D02*
X106754762Y-78267405D01*
X106754762Y-78267405D02*
X106897619Y-78219786D01*
X106897619Y-78219786D02*
X106992857Y-78219786D01*
X106992857Y-78219786D02*
X107135714Y-78267405D01*
X107135714Y-78267405D02*
X107183333Y-78315024D01*
X108135714Y-79219786D02*
X107564286Y-79219786D01*
X107850000Y-79219786D02*
X107850000Y-78219786D01*
X107850000Y-78219786D02*
X107754762Y-78362643D01*
X107754762Y-78362643D02*
X107659524Y-78457881D01*
X107659524Y-78457881D02*
X107564286Y-78505500D01*
X97514761Y-76364819D02*
X97181428Y-75888628D01*
X96943333Y-76364819D02*
X96943333Y-75364819D01*
X96943333Y-75364819D02*
X97324285Y-75364819D01*
X97324285Y-75364819D02*
X97419523Y-75412438D01*
X97419523Y-75412438D02*
X97467142Y-75460057D01*
X97467142Y-75460057D02*
X97514761Y-75555295D01*
X97514761Y-75555295D02*
X97514761Y-75698152D01*
X97514761Y-75698152D02*
X97467142Y-75793390D01*
X97467142Y-75793390D02*
X97419523Y-75841009D01*
X97419523Y-75841009D02*
X97324285Y-75888628D01*
X97324285Y-75888628D02*
X96943333Y-75888628D01*
X97800476Y-75364819D02*
X98133809Y-76364819D01*
X98133809Y-76364819D02*
X98467142Y-75364819D01*
X99324285Y-76364819D02*
X98752857Y-76364819D01*
X99038571Y-76364819D02*
X99038571Y-75364819D01*
X99038571Y-75364819D02*
X98943333Y-75507676D01*
X98943333Y-75507676D02*
X98848095Y-75602914D01*
X98848095Y-75602914D02*
X98752857Y-75650533D01*
X171923333Y-99699580D02*
X171875714Y-99747200D01*
X171875714Y-99747200D02*
X171732857Y-99794819D01*
X171732857Y-99794819D02*
X171637619Y-99794819D01*
X171637619Y-99794819D02*
X171494762Y-99747200D01*
X171494762Y-99747200D02*
X171399524Y-99651961D01*
X171399524Y-99651961D02*
X171351905Y-99556723D01*
X171351905Y-99556723D02*
X171304286Y-99366247D01*
X171304286Y-99366247D02*
X171304286Y-99223390D01*
X171304286Y-99223390D02*
X171351905Y-99032914D01*
X171351905Y-99032914D02*
X171399524Y-98937676D01*
X171399524Y-98937676D02*
X171494762Y-98842438D01*
X171494762Y-98842438D02*
X171637619Y-98794819D01*
X171637619Y-98794819D02*
X171732857Y-98794819D01*
X171732857Y-98794819D02*
X171875714Y-98842438D01*
X171875714Y-98842438D02*
X171923333Y-98890057D01*
X172780476Y-99128152D02*
X172780476Y-99794819D01*
X172542381Y-98747200D02*
X172304286Y-99461485D01*
X172304286Y-99461485D02*
X172923333Y-99461485D01*
X107153333Y-82979580D02*
X107105714Y-83027200D01*
X107105714Y-83027200D02*
X106962857Y-83074819D01*
X106962857Y-83074819D02*
X106867619Y-83074819D01*
X106867619Y-83074819D02*
X106724762Y-83027200D01*
X106724762Y-83027200D02*
X106629524Y-82931961D01*
X106629524Y-82931961D02*
X106581905Y-82836723D01*
X106581905Y-82836723D02*
X106534286Y-82646247D01*
X106534286Y-82646247D02*
X106534286Y-82503390D01*
X106534286Y-82503390D02*
X106581905Y-82312914D01*
X106581905Y-82312914D02*
X106629524Y-82217676D01*
X106629524Y-82217676D02*
X106724762Y-82122438D01*
X106724762Y-82122438D02*
X106867619Y-82074819D01*
X106867619Y-82074819D02*
X106962857Y-82074819D01*
X106962857Y-82074819D02*
X107105714Y-82122438D01*
X107105714Y-82122438D02*
X107153333Y-82170057D01*
X107534286Y-82170057D02*
X107581905Y-82122438D01*
X107581905Y-82122438D02*
X107677143Y-82074819D01*
X107677143Y-82074819D02*
X107915238Y-82074819D01*
X107915238Y-82074819D02*
X108010476Y-82122438D01*
X108010476Y-82122438D02*
X108058095Y-82170057D01*
X108058095Y-82170057D02*
X108105714Y-82265295D01*
X108105714Y-82265295D02*
X108105714Y-82360533D01*
X108105714Y-82360533D02*
X108058095Y-82503390D01*
X108058095Y-82503390D02*
X107486667Y-83074819D01*
X107486667Y-83074819D02*
X108105714Y-83074819D01*
%TO.C,HLK-3M15B*%
D12*
X132330000Y-82320000D02*
X167130000Y-82320000D01*
X167130000Y-102820000D01*
X132330000Y-102820000D01*
X132330000Y-82320000D01*
D14*
%TO.C,R2*%
X162162936Y-104330000D02*
X163617064Y-104330000D01*
X162162936Y-106150000D02*
X163617064Y-106150000D01*
%TO.C,R1*%
X163617064Y-55550000D02*
X162162936Y-55550000D01*
X163617064Y-53730000D02*
X162162936Y-53730000D01*
%TO.C,D2*%
X170125000Y-106200000D02*
X170125000Y-104280000D01*
X170125000Y-104280000D02*
X167265000Y-104280000D01*
X167265000Y-106200000D02*
X170125000Y-106200000D01*
%TO.C,D1*%
X166405000Y-53680000D02*
X166405000Y-55600000D01*
X166405000Y-55600000D02*
X169265000Y-55600000D01*
X169265000Y-53680000D02*
X166405000Y-53680000D01*
D12*
%TO.C,J2*%
X178080000Y-76090000D02*
X178080000Y-84170000D01*
X178080000Y-84170000D02*
X184580000Y-84170000D01*
X184580000Y-76090000D02*
X178080000Y-76090000D01*
X184580000Y-84170000D02*
X184580000Y-76090000D01*
D14*
%TO.C,F1*%
X87120000Y-89210000D02*
X87320000Y-89210000D01*
X87120000Y-95930000D02*
X87120000Y-89210000D01*
X87120000Y-95930000D02*
X87320000Y-95930000D01*
X90840000Y-89210000D02*
X91040000Y-89210000D01*
X90840000Y-95930000D02*
X91040000Y-95930000D01*
X91040000Y-95930000D02*
X91040000Y-89210000D01*
%TO.C,C3*%
X183420000Y-67790000D02*
G75*
G02*
X170680000Y-67790000I-6370000J0D01*
G01*
X170680000Y-67790000D02*
G75*
G02*
X183420000Y-67790000I6370000J0D01*
G01*
%TO.C,HLK-5M05*%
D12*
X132305000Y-57140000D02*
X170305000Y-57140000D01*
X170305000Y-80140000D01*
X132305000Y-80140000D01*
X132305000Y-57140000D01*
D13*
%TO.C,RV2*%
X94950000Y-86570000D02*
X94950000Y-98570000D01*
X101050000Y-86570000D02*
X94950000Y-86570000D01*
X101050000Y-86570000D02*
X101050000Y-98570000D01*
X101050000Y-98570000D02*
X94950000Y-98570000D01*
D15*
%TO.C,L1*%
X115680000Y-60154967D02*
X115680000Y-61754967D01*
X115680000Y-60154967D02*
X127680000Y-60154967D01*
X115680000Y-61754967D02*
X127680000Y-61754967D01*
X115680000Y-67854967D02*
X127680000Y-67854967D01*
X115680000Y-69454967D02*
X115680000Y-67854967D01*
X115680000Y-75454967D02*
X127680000Y-75454967D01*
X115680000Y-75854967D02*
X115680000Y-75454967D01*
X115680000Y-75854967D02*
X115680000Y-77154967D01*
X116580000Y-61754967D02*
X116580000Y-67754967D01*
X116580000Y-69454967D02*
X116580000Y-75454967D01*
X126777500Y-69452467D02*
X126777500Y-75452467D01*
X126778500Y-61753967D02*
X126778500Y-67753967D01*
X127680000Y-61754967D02*
X127680000Y-60254967D01*
X127680000Y-67854967D02*
X127680000Y-69454967D01*
X127680000Y-69454967D02*
X115680000Y-69454967D01*
X127680000Y-75454967D02*
X127680000Y-77154967D01*
X127680000Y-77154967D02*
X115680000Y-77154967D01*
X116380000Y-76354967D02*
G75*
G02*
X116180000Y-76354967I-100000J0D01*
G01*
X116180000Y-76354967D02*
G75*
G02*
X116380000Y-76354967I100000J0D01*
G01*
%TO.C,L2*%
X115680000Y-84070000D02*
X115680000Y-85670000D01*
X115680000Y-84070000D02*
X127680000Y-84070000D01*
X115680000Y-85670000D02*
X127680000Y-85670000D01*
X115680000Y-91770000D02*
X127680000Y-91770000D01*
X115680000Y-93370000D02*
X115680000Y-91770000D01*
X115680000Y-99370000D02*
X127680000Y-99370000D01*
X115680000Y-99770000D02*
X115680000Y-99370000D01*
X115680000Y-99770000D02*
X115680000Y-101070000D01*
X116580000Y-85670000D02*
X116580000Y-91670000D01*
X116580000Y-93370000D02*
X116580000Y-99370000D01*
X126777500Y-93367500D02*
X126777500Y-99367500D01*
X126778500Y-85669000D02*
X126778500Y-91669000D01*
X127680000Y-85670000D02*
X127680000Y-84170000D01*
X127680000Y-91770000D02*
X127680000Y-93370000D01*
X127680000Y-93370000D02*
X115680000Y-93370000D01*
X127680000Y-99370000D02*
X127680000Y-101070000D01*
X127680000Y-101070000D02*
X115680000Y-101070000D01*
X116580000Y-100220000D02*
G75*
G02*
X116380000Y-100220000I-100000J0D01*
G01*
X116380000Y-100220000D02*
G75*
G02*
X116580000Y-100220000I100000J0D01*
G01*
D14*
%TO.C,F2*%
X87120000Y-65280000D02*
X87120000Y-72000000D01*
X87320000Y-65280000D02*
X87120000Y-65280000D01*
X87320000Y-72000000D02*
X87120000Y-72000000D01*
X91040000Y-65280000D02*
X90840000Y-65280000D01*
X91040000Y-65280000D02*
X91040000Y-72000000D01*
X91040000Y-72000000D02*
X90840000Y-72000000D01*
%TO.C,C1*%
X103700000Y-59534967D02*
X110940000Y-59534967D01*
X103700000Y-77774967D02*
X103700000Y-59534967D01*
X110940000Y-59534967D02*
X110940000Y-77774967D01*
X110940000Y-77774967D02*
X103700000Y-77774967D01*
D13*
%TO.C,RV1*%
X94950000Y-62640000D02*
X94950000Y-74640000D01*
X101050000Y-62640000D02*
X94950000Y-62640000D01*
X101050000Y-62640000D02*
X101050000Y-74640000D01*
X101050000Y-74640000D02*
X94950000Y-74640000D01*
D14*
%TO.C,C4*%
X180960000Y-92250000D02*
G75*
G02*
X168220000Y-92250000I-6370000J0D01*
G01*
X168220000Y-92250000D02*
G75*
G02*
X180960000Y-92250000I6370000J0D01*
G01*
D12*
%TO.C,J1*%
X84560000Y-77430000D02*
X91060000Y-77430000D01*
X84560000Y-82970000D02*
X84560000Y-77430000D01*
X91060000Y-77430000D02*
X91060000Y-82970000D01*
X91060000Y-82970000D02*
X84560000Y-82970000D01*
D14*
%TO.C,C2*%
X103700000Y-83450000D02*
X110940000Y-83450000D01*
X103700000Y-101690000D02*
X103700000Y-83450000D01*
X110940000Y-83450000D02*
X110940000Y-101690000D01*
X110940000Y-101690000D02*
X103700000Y-101690000D01*
%TD*%
M02*
