%TF.GenerationSoftware,KiCad,Pcbnew,9.0.5*%
%TF.CreationDate,2026-01-10T12:41:53+01:00*%
%TF.ProjectId,IGBT_Power,49474254-5f50-46f7-9765-722e6b696361,rev?*%
%TF.SameCoordinates,Original*%
%TF.FileFunction,Copper,L2,Bot*%
%TF.FilePolarity,Positive*%
%FSLAX46Y46*%
G04 Gerber Fmt 4.6, Leading zero omitted, Abs format (unit mm)*
G04 Created by KiCad (PCBNEW 9.0.5) date 2026-01-10 12:41:53*
%MOMM*%
%LPD*%
G01*
G04 APERTURE LIST*
%TA.AperFunction,ComponentPad*%
%ADD10C,2.200000*%
%TD*%
%TA.AperFunction,ComponentPad*%
%ADD11R,1.650000X1.650000*%
%TD*%
%TA.AperFunction,ComponentPad*%
%ADD12C,1.650000*%
%TD*%
%TA.AperFunction,ComponentPad*%
%ADD13C,0.900000*%
%TD*%
%TA.AperFunction,ComponentPad*%
%ADD14C,8.000000*%
%TD*%
%TA.AperFunction,ComponentPad*%
%ADD15C,1.600000*%
%TD*%
%TA.AperFunction,ComponentPad*%
%ADD16C,1.800000*%
%TD*%
%TA.AperFunction,ComponentPad*%
%ADD17C,2.400000*%
%TD*%
%TA.AperFunction,ViaPad*%
%ADD18C,0.600000*%
%TD*%
%TA.AperFunction,Conductor*%
%ADD19C,1.000000*%
%TD*%
G04 APERTURE END LIST*
D10*
%TO.P,HLK-3M15B,4,V+*%
%TO.N,+15V*%
X164310000Y-100020000D03*
%TO.P,HLK-3M15B,3,V-*%
%TO.N,GND*%
X164310000Y-85020000D03*
%TO.P,HLK-3M15B,2,AC*%
%TO.N,Net-(L2-Pad3)*%
X135230000Y-95020000D03*
%TO.P,HLK-3M15B,1,AC*%
%TO.N,Net-(L2-Pad2)*%
X135230000Y-90020000D03*
%TD*%
D11*
%TO.P,J2,1,Pin_1*%
%TO.N,+15V*%
X181330000Y-82670000D03*
D12*
%TO.P,J2,2,Pin_2*%
%TO.N,GND*%
X181330000Y-80130000D03*
%TO.P,J2,3,Pin_3*%
%TO.N,-5V*%
X181330000Y-77590000D03*
%TD*%
D13*
%TO.P,M2,1*%
%TO.N,N/C*%
X176510000Y-103040000D03*
X177388680Y-100918680D03*
X177388680Y-105161320D03*
X179510000Y-100040000D03*
D14*
X179510000Y-103040000D03*
D13*
X179510000Y-106040000D03*
X181631320Y-100918680D03*
X181631320Y-105161320D03*
X182510000Y-103040000D03*
%TD*%
%TO.P,M2,1*%
%TO.N,N/C*%
X176510000Y-55930000D03*
X177388680Y-53808680D03*
X177388680Y-58051320D03*
X179510000Y-52930000D03*
D14*
X179510000Y-55930000D03*
D13*
X179510000Y-58930000D03*
X181631320Y-53808680D03*
X181631320Y-58051320D03*
X182510000Y-55930000D03*
%TD*%
D15*
%TO.P,C3,1*%
%TO.N,GND*%
X174550000Y-67790000D03*
%TO.P,C3,2*%
%TO.N,-5V*%
X179550000Y-67790000D03*
%TD*%
D10*
%TO.P,HLK-5M05,1,AC*%
%TO.N,Net-(L1-Pad2)*%
X134455000Y-65690000D03*
%TO.P,HLK-5M05,2,AC*%
%TO.N,Net-(L1-Pad3)*%
X134455000Y-71690000D03*
%TO.P,HLK-5M05,3,V-*%
%TO.N,-5V*%
X168055000Y-59690000D03*
%TO.P,HLK-5M05,4,V+*%
%TO.N,GND*%
X168055000Y-77690000D03*
%TD*%
D13*
%TO.P,M2,1*%
%TO.N,N/C*%
X86510000Y-103040000D03*
X87388680Y-100918680D03*
X87388680Y-105161320D03*
X89510000Y-100040000D03*
D14*
X89510000Y-103040000D03*
D13*
X89510000Y-106040000D03*
X91631320Y-100918680D03*
X91631320Y-105161320D03*
X92510000Y-103040000D03*
%TD*%
D16*
%TO.P,RV2,1*%
%TO.N,Net-(C2-Pad1)*%
X99450000Y-88820000D03*
%TO.P,RV2,2*%
%TO.N,Net-(J1-Pin_2)*%
X96550000Y-96320000D03*
%TD*%
D15*
%TO.P,L1,1,1*%
%TO.N,Net-(C1-Pad1)*%
X118180000Y-64654967D03*
%TO.P,L1,2,2*%
%TO.N,Net-(L1-Pad2)*%
X125180000Y-64654967D03*
%TO.P,L1,3,3*%
%TO.N,Net-(L1-Pad3)*%
X125180000Y-72654967D03*
%TO.P,L1,4,4*%
%TO.N,Net-(J1-Pin_2)*%
X118180000Y-72654967D03*
%TD*%
D13*
%TO.P,M2,1*%
%TO.N,N/C*%
X86510000Y-55930000D03*
X87388680Y-53808680D03*
X87388680Y-58051320D03*
X89510000Y-52930000D03*
D14*
X89510000Y-55930000D03*
D13*
X89510000Y-58930000D03*
X91631320Y-53808680D03*
X91631320Y-58051320D03*
X92510000Y-55930000D03*
%TD*%
D15*
%TO.P,L2,1,1*%
%TO.N,Net-(C2-Pad1)*%
X118180000Y-88570000D03*
%TO.P,L2,2,2*%
%TO.N,Net-(L2-Pad2)*%
X125180000Y-88570000D03*
%TO.P,L2,3,3*%
%TO.N,Net-(L2-Pad3)*%
X125180000Y-96570000D03*
%TO.P,L2,4,4*%
%TO.N,Net-(J1-Pin_2)*%
X118180000Y-96570000D03*
%TD*%
D17*
%TO.P,C1,1*%
%TO.N,Net-(C1-Pad1)*%
X107320000Y-61154967D03*
%TO.P,C1,2*%
%TO.N,Net-(J1-Pin_2)*%
X107320000Y-76154967D03*
%TD*%
D16*
%TO.P,RV1,1*%
%TO.N,Net-(C1-Pad1)*%
X99450000Y-64890000D03*
%TO.P,RV1,2*%
%TO.N,Net-(J1-Pin_2)*%
X96550000Y-72390000D03*
%TD*%
D15*
%TO.P,C4,1*%
%TO.N,+15V*%
X177090000Y-92250000D03*
%TO.P,C4,2*%
%TO.N,GND*%
X172090000Y-92250000D03*
%TD*%
D12*
%TO.P,J1,1,Pin_1*%
%TO.N,Net-(J1-Pin_1)*%
X88060000Y-81470000D03*
%TO.P,J1,2,Pin_2*%
%TO.N,Net-(J1-Pin_2)*%
X88060000Y-78930000D03*
%TD*%
D17*
%TO.P,C2,1*%
%TO.N,Net-(C2-Pad1)*%
X107320000Y-85070000D03*
%TO.P,C2,2*%
%TO.N,Net-(J1-Pin_2)*%
X107320000Y-100070000D03*
%TD*%
D18*
%TO.N,+15V*%
X180240000Y-83760000D03*
X179435000Y-84565000D03*
X178530000Y-85470000D03*
X177750000Y-86250000D03*
X177090000Y-87250000D03*
X177090000Y-88510000D03*
X177090000Y-89670000D03*
X177090000Y-90930000D03*
X177090000Y-93700000D03*
X176405000Y-94715000D03*
X175565000Y-95555000D03*
X174600000Y-96500000D03*
X173675000Y-97425000D03*
X172790000Y-98310000D03*
X171915000Y-99185000D03*
X170940000Y-100020000D03*
X169590000Y-100020000D03*
X168330000Y-100020000D03*
X167110000Y-100020000D03*
X165980000Y-100020000D03*
%TO.N,GND*%
X174296000Y-84710000D03*
X169990000Y-84710000D03*
%TO.N,Net-(J1-Pin_2)*%
X100410000Y-96320000D03*
X103945000Y-96695000D03*
X111710000Y-72654967D03*
X110525000Y-96865000D03*
X115400000Y-72654967D03*
X114150000Y-96570000D03*
X100580000Y-72390000D03*
X112940000Y-72654967D03*
X106150000Y-74970000D03*
X112920000Y-96570000D03*
X111690000Y-96570000D03*
X116610000Y-72654967D03*
X108632483Y-74842483D03*
X106145000Y-98895000D03*
X109555000Y-97835000D03*
X98300000Y-72390000D03*
X109567483Y-73907483D03*
X105085000Y-97835000D03*
X104030000Y-72850000D03*
X115380000Y-96570000D03*
X105190000Y-74010000D03*
X110492483Y-72982483D03*
X98090000Y-96320000D03*
X102770000Y-96320000D03*
X108565000Y-98825000D03*
X116610000Y-96570000D03*
X102720000Y-72390000D03*
X114170000Y-72654967D03*
%TO.N,Net-(C1-Pad1)*%
X116610000Y-64654967D03*
X109422516Y-63257484D03*
X115380000Y-64654967D03*
X101260000Y-64890000D03*
X110257516Y-64092484D03*
X108552516Y-62387484D03*
X104090000Y-64370000D03*
X114150000Y-64654967D03*
X111690000Y-64654967D03*
X105120000Y-63340000D03*
X106045000Y-62415000D03*
X102810000Y-64890000D03*
X112920000Y-64654967D03*
%TO.N,Net-(C2-Pad1)*%
X111690000Y-88570000D03*
X104155000Y-88235000D03*
X115380000Y-88570000D03*
X112920000Y-88570000D03*
X109310000Y-87060000D03*
X102870000Y-88820000D03*
X108525000Y-86275000D03*
X114150000Y-88570000D03*
X106070000Y-86320000D03*
X105095000Y-87295000D03*
X110205000Y-87955000D03*
X101420000Y-88820000D03*
X116610000Y-88570000D03*
%TO.N,-5V*%
X180350000Y-68590000D03*
X181330000Y-75680000D03*
X171815000Y-60055000D03*
X178580000Y-66820000D03*
X181170000Y-69410000D03*
X176060000Y-64300000D03*
X173465000Y-61705000D03*
X175175000Y-63415000D03*
X181330000Y-70640000D03*
X169940000Y-59690000D03*
X170870000Y-59690000D03*
X176955000Y-65195000D03*
X181330000Y-74380000D03*
X177755000Y-65995000D03*
X172630000Y-60870000D03*
X181330000Y-71910000D03*
X174280000Y-62520000D03*
X181330000Y-73210000D03*
%TO.N,Net-(L1-Pad3)*%
X133582500Y-72562500D03*
X126582000Y-72654967D03*
X130248000Y-72654967D03*
X131470000Y-72654967D03*
X132692000Y-72654967D03*
X129026000Y-72654967D03*
X127804000Y-72654967D03*
%TO.N,Net-(L1-Pad2)*%
X133517500Y-64752500D03*
X130206000Y-64654967D03*
X131428000Y-64654967D03*
X132650000Y-64654967D03*
X126540000Y-64654967D03*
X127762000Y-64654967D03*
X128984000Y-64654967D03*
%TO.N,Net-(L2-Pad2)*%
X127864000Y-88570000D03*
X134030000Y-88820000D03*
X131530000Y-88570000D03*
X126642000Y-88570000D03*
X129086000Y-88570000D03*
X130308000Y-88570000D03*
X132752000Y-88570000D03*
%TO.N,Net-(L2-Pad3)*%
X127924000Y-96590000D03*
X131590000Y-96590000D03*
X126702000Y-96590000D03*
X132812000Y-96590000D03*
X129146000Y-96590000D03*
X133870000Y-96380000D03*
X130368000Y-96590000D03*
%TO.N,GND*%
X161370000Y-57380000D03*
X169982000Y-80140000D03*
X169982000Y-66484000D03*
X165676000Y-102900000D03*
X161370000Y-89244000D03*
X165676000Y-93796000D03*
X161370000Y-71036000D03*
X174288000Y-57380000D03*
X183230000Y-75570000D03*
X165676000Y-75588000D03*
X180140000Y-96660000D03*
X161390000Y-106920000D03*
X182900000Y-93796000D03*
X169982000Y-61932000D03*
X165580000Y-106960000D03*
X161370000Y-71036000D03*
X169982000Y-71036000D03*
X178594000Y-80140000D03*
X174290000Y-102760000D03*
X182900000Y-89244000D03*
X161370000Y-80140000D03*
X169982000Y-89244000D03*
X178594000Y-75588000D03*
X161370000Y-61932000D03*
X174288000Y-89244000D03*
X174480000Y-52640000D03*
X165676000Y-89244000D03*
X183230000Y-71018000D03*
X161370000Y-66484000D03*
X165676000Y-66484000D03*
X169982000Y-102900000D03*
X169982000Y-98348000D03*
X182900000Y-61932000D03*
X169980000Y-52640000D03*
X165676000Y-61932000D03*
X174288000Y-93796000D03*
X161370000Y-61932000D03*
X161370000Y-66484000D03*
X169982000Y-57380000D03*
X174288000Y-75588000D03*
X174288000Y-71036000D03*
X161370000Y-93796000D03*
X183230000Y-66466000D03*
X170010000Y-106960000D03*
X161370000Y-89244000D03*
X165676000Y-57380000D03*
X169982000Y-75588000D03*
X161370000Y-75588000D03*
X161370000Y-75588000D03*
X174230000Y-106880000D03*
X165676000Y-71036000D03*
X161370000Y-93796000D03*
X169982000Y-93796000D03*
X161410000Y-52390000D03*
X161370000Y-80140000D03*
X165610000Y-52480000D03*
X165676000Y-80140000D03*
X161370000Y-84692000D03*
X178594000Y-71036000D03*
X174288000Y-80140000D03*
X161370000Y-98348000D03*
%TD*%
D19*
%TO.N,+15V*%
X180240000Y-83760000D02*
X181330000Y-82670000D01*
X179435000Y-84565000D02*
X180240000Y-83760000D01*
X178530000Y-85470000D02*
X179435000Y-84565000D01*
X177750000Y-86250000D02*
X178530000Y-85470000D01*
X177090000Y-87250000D02*
X177090000Y-86910000D01*
X177090000Y-88510000D02*
X177090000Y-87250000D01*
X177090000Y-89670000D02*
X177090000Y-88510000D01*
X177090000Y-90930000D02*
X177090000Y-89670000D01*
X177090000Y-93700000D02*
X177090000Y-92250000D01*
X176035000Y-95065000D02*
X176975000Y-94125000D01*
X175360000Y-95740000D02*
X176035000Y-95065000D01*
X174600000Y-96500000D02*
X175360000Y-95740000D01*
X173675000Y-97425000D02*
X174600000Y-96500000D01*
X172790000Y-98310000D02*
X173675000Y-97425000D01*
X171915000Y-99185000D02*
X172790000Y-98310000D01*
X170940000Y-100020000D02*
X171080000Y-100020000D01*
X169590000Y-100020000D02*
X170940000Y-100020000D01*
X168330000Y-100020000D02*
X169590000Y-100020000D01*
X167110000Y-100020000D02*
X168330000Y-100020000D01*
X165980000Y-100020000D02*
X167110000Y-100020000D01*
X176975000Y-94125000D02*
X177090000Y-94010000D01*
X177090000Y-94010000D02*
X177090000Y-93700000D01*
X164310000Y-100020000D02*
X165980000Y-100020000D01*
X171080000Y-100020000D02*
X171915000Y-99185000D01*
X177090000Y-86910000D02*
X177750000Y-86250000D01*
X177090000Y-92250000D02*
X177090000Y-90930000D01*
%TO.N,Net-(J1-Pin_2)*%
X96550000Y-96320000D02*
X103570000Y-96320000D01*
X103570000Y-72390000D02*
X107320000Y-76140000D01*
X110820000Y-72654967D02*
X118180000Y-72654967D01*
X96550000Y-96320000D02*
X96550000Y-83640000D01*
X88060000Y-78930000D02*
X91840000Y-78930000D01*
X96550000Y-72390000D02*
X103570000Y-72390000D01*
X96550000Y-72390000D02*
X94600000Y-72390000D01*
X94600000Y-72390000D02*
X88060000Y-78930000D01*
X91840000Y-78930000D02*
X96550000Y-83640000D01*
X107320000Y-76154967D02*
X110820000Y-72654967D01*
X103570000Y-96320000D02*
X107320000Y-100070000D01*
X110820000Y-96570000D02*
X118180000Y-96570000D01*
X107320000Y-100070000D02*
X110820000Y-96570000D01*
%TO.N,Net-(C1-Pad1)*%
X110820000Y-64654967D02*
X118180000Y-64654967D01*
X103570000Y-64890000D02*
X107320000Y-61140000D01*
X107320000Y-61154967D02*
X110820000Y-64654967D01*
X99450000Y-64890000D02*
X103570000Y-64890000D01*
%TO.N,Net-(C2-Pad1)*%
X118180000Y-88570000D02*
X110820000Y-88570000D01*
X110820000Y-88570000D02*
X107320000Y-85070000D01*
X103570000Y-88820000D02*
X107320000Y-85070000D01*
X99450000Y-88820000D02*
X103570000Y-88820000D01*
%TO.N,-5V*%
X179550000Y-67790000D02*
X181330000Y-69570000D01*
X181330000Y-69570000D02*
X181330000Y-77590000D01*
X171450000Y-59690000D02*
X179550000Y-67790000D01*
%TO.N,Net-(L1-Pad3)*%
X125180000Y-72654967D02*
X133490033Y-72654967D01*
X133490033Y-72654967D02*
X134455000Y-71690000D01*
%TO.N,Net-(L1-Pad2)*%
X133419967Y-64654967D02*
X134455000Y-65690000D01*
X125180000Y-64654967D02*
X133419967Y-64654967D01*
%TO.N,Net-(L2-Pad2)*%
X133780000Y-88570000D02*
X135230000Y-90020000D01*
X125180000Y-88570000D02*
X133780000Y-88570000D01*
%TO.N,Net-(L2-Pad3)*%
X133680000Y-96570000D02*
X135230000Y-95020000D01*
X125180000Y-96570000D02*
X133680000Y-96570000D01*
%TO.N,GND*%
X168055000Y-77690000D02*
X168055000Y-77425000D01*
%TO.N,-5V*%
X168055000Y-59690000D02*
X171450000Y-59690000D01*
%TD*%
%TA.AperFunction,Conductor*%
%TO.N,GND*%
G36*
X178077492Y-51450185D02*
G01*
X178123247Y-51502989D01*
X178133191Y-51572147D01*
X178104166Y-51635703D01*
X178052865Y-51671020D01*
X177830895Y-51751812D01*
X177786078Y-51768124D01*
X177429937Y-51934195D01*
X177429913Y-51934207D01*
X177089587Y-52130695D01*
X177089572Y-52130704D01*
X176767652Y-52356115D01*
X176466606Y-52608724D01*
X176188724Y-52886606D01*
X175936115Y-53187652D01*
X175710704Y-53509572D01*
X175710695Y-53509587D01*
X175514207Y-53849913D01*
X175514195Y-53849937D01*
X175348124Y-54206078D01*
X175298650Y-54342007D01*
X175213707Y-54575384D01*
X175171339Y-54733504D01*
X175111993Y-54954983D01*
X175111991Y-54954994D01*
X175043751Y-55342000D01*
X175043751Y-55342004D01*
X175009500Y-55733499D01*
X175009500Y-56126500D01*
X175043751Y-56517995D01*
X175043751Y-56517999D01*
X175111991Y-56905005D01*
X175111993Y-56905015D01*
X175213707Y-57284616D01*
X175213708Y-57284618D01*
X175213708Y-57284619D01*
X175244514Y-57369258D01*
X175266457Y-57429546D01*
X175348124Y-57653921D01*
X175514195Y-58010062D01*
X175514207Y-58010086D01*
X175710695Y-58350412D01*
X175710704Y-58350427D01*
X175936115Y-58672347D01*
X176046058Y-58803371D01*
X176188722Y-58973391D01*
X176466609Y-59251278D01*
X176542805Y-59315214D01*
X176767652Y-59503884D01*
X176767658Y-59503888D01*
X176767659Y-59503889D01*
X177089579Y-59729300D01*
X177429920Y-59925796D01*
X177429934Y-59925802D01*
X177429937Y-59925804D01*
X177786078Y-60091875D01*
X177786083Y-60091876D01*
X177786092Y-60091881D01*
X178155384Y-60226293D01*
X178534985Y-60328007D01*
X178922007Y-60396249D01*
X179313502Y-60430499D01*
X179313503Y-60430500D01*
X179313504Y-60430500D01*
X179706497Y-60430500D01*
X179706497Y-60430499D01*
X180097993Y-60396249D01*
X180485015Y-60328007D01*
X180864616Y-60226293D01*
X181233908Y-60091881D01*
X181590080Y-59925796D01*
X181930421Y-59729300D01*
X182252341Y-59503889D01*
X182553391Y-59251278D01*
X182831278Y-58973391D01*
X183083889Y-58672341D01*
X183309300Y-58350421D01*
X183505796Y-58010080D01*
X183671881Y-57653908D01*
X183768979Y-57387132D01*
X183810405Y-57330871D01*
X183875673Y-57305936D01*
X183944062Y-57320246D01*
X183993857Y-57369258D01*
X184009500Y-57429546D01*
X184009500Y-101540453D01*
X183989815Y-101607492D01*
X183937011Y-101653247D01*
X183867853Y-101663191D01*
X183804297Y-101634166D01*
X183768979Y-101582865D01*
X183671881Y-101316092D01*
X183671876Y-101316083D01*
X183671875Y-101316078D01*
X183505804Y-100959937D01*
X183505792Y-100959913D01*
X183411814Y-100797139D01*
X183309300Y-100619579D01*
X183083889Y-100297659D01*
X183083888Y-100297658D01*
X183083884Y-100297652D01*
X182831275Y-99996606D01*
X182553393Y-99718724D01*
X182252347Y-99466115D01*
X181930427Y-99240704D01*
X181930424Y-99240702D01*
X181930421Y-99240700D01*
X181827279Y-99181151D01*
X181590086Y-99044207D01*
X181590062Y-99044195D01*
X181233921Y-98878124D01*
X181233910Y-98878120D01*
X181233908Y-98878119D01*
X180864616Y-98743707D01*
X180623960Y-98679223D01*
X180485016Y-98641993D01*
X180485005Y-98641991D01*
X180097997Y-98573751D01*
X179706500Y-98539500D01*
X179706496Y-98539500D01*
X179313504Y-98539500D01*
X179313499Y-98539500D01*
X178922004Y-98573751D01*
X178922000Y-98573751D01*
X178534994Y-98641991D01*
X178534983Y-98641993D01*
X178331555Y-98696502D01*
X178155384Y-98743707D01*
X178155381Y-98743708D01*
X178155380Y-98743708D01*
X177786078Y-98878124D01*
X177429937Y-99044195D01*
X177429913Y-99044207D01*
X177089587Y-99240695D01*
X177089572Y-99240704D01*
X176767652Y-99466115D01*
X176466606Y-99718724D01*
X176188724Y-99996606D01*
X175936115Y-100297652D01*
X175710704Y-100619572D01*
X175710695Y-100619587D01*
X175514207Y-100959913D01*
X175514195Y-100959937D01*
X175348124Y-101316078D01*
X175213708Y-101685380D01*
X175213708Y-101685382D01*
X175111993Y-102064983D01*
X175111991Y-102064994D01*
X175043751Y-102452000D01*
X175043751Y-102452004D01*
X175009500Y-102843499D01*
X175009500Y-103236500D01*
X175043751Y-103627995D01*
X175043751Y-103627999D01*
X175104780Y-103974108D01*
X175111993Y-104015015D01*
X175213707Y-104394616D01*
X175333127Y-104722719D01*
X175348124Y-104763921D01*
X175514195Y-105120062D01*
X175514204Y-105120080D01*
X175672707Y-105394616D01*
X175710695Y-105460412D01*
X175710704Y-105460427D01*
X175936115Y-105782347D01*
X176101117Y-105978988D01*
X176188722Y-106083391D01*
X176466609Y-106361278D01*
X176573738Y-106451170D01*
X176767652Y-106613884D01*
X176767658Y-106613888D01*
X176767659Y-106613889D01*
X177089579Y-106839300D01*
X177429920Y-107035796D01*
X177429934Y-107035802D01*
X177429937Y-107035804D01*
X177786078Y-107201875D01*
X177786083Y-107201876D01*
X177786092Y-107201881D01*
X178052865Y-107298979D01*
X178109128Y-107340405D01*
X178134063Y-107405673D01*
X178119753Y-107474062D01*
X178070741Y-107523857D01*
X178010453Y-107539500D01*
X158474000Y-107539500D01*
X158406961Y-107519815D01*
X158361206Y-107467011D01*
X158350000Y-107415500D01*
X158350000Y-99894038D01*
X162709500Y-99894038D01*
X162709500Y-100145961D01*
X162748910Y-100394785D01*
X162826760Y-100634383D01*
X162941132Y-100858848D01*
X163089201Y-101062649D01*
X163089205Y-101062654D01*
X163267345Y-101240794D01*
X163267350Y-101240798D01*
X163370965Y-101316078D01*
X163471155Y-101388870D01*
X163614184Y-101461747D01*
X163695616Y-101503239D01*
X163695618Y-101503239D01*
X163695621Y-101503241D01*
X163935215Y-101581090D01*
X164184038Y-101620500D01*
X164184039Y-101620500D01*
X164435961Y-101620500D01*
X164435962Y-101620500D01*
X164684785Y-101581090D01*
X164924379Y-101503241D01*
X165148845Y-101388870D01*
X165352656Y-101240793D01*
X165530793Y-101062656D01*
X165530793Y-101062655D01*
X165534238Y-101059211D01*
X165535312Y-101060285D01*
X165588180Y-101025775D01*
X165623962Y-101020500D01*
X171178543Y-101020500D01*
X171226026Y-101011054D01*
X171294284Y-100997477D01*
X171371836Y-100982051D01*
X171439622Y-100953973D01*
X171553914Y-100906632D01*
X171717782Y-100797139D01*
X171857139Y-100657782D01*
X171857139Y-100657780D01*
X171867347Y-100647573D01*
X171867348Y-100647570D01*
X172692139Y-99822782D01*
X172692140Y-99822779D01*
X172699200Y-99815720D01*
X172699205Y-99815713D01*
X173567139Y-98947781D01*
X174452139Y-98062781D01*
X174510698Y-98004222D01*
X174510709Y-98004209D01*
X175377140Y-97137781D01*
X175377140Y-97137779D01*
X175387344Y-97127576D01*
X175387347Y-97127571D01*
X176137139Y-96377782D01*
X176137140Y-96377779D01*
X176144200Y-96370720D01*
X176144205Y-96370713D01*
X176812139Y-95702781D01*
X176870698Y-95644222D01*
X176870709Y-95644209D01*
X177752140Y-94762781D01*
X177867139Y-94647782D01*
X177976632Y-94483914D01*
X178000116Y-94427219D01*
X178052052Y-94301835D01*
X178090501Y-94108540D01*
X178090501Y-93911459D01*
X178090501Y-93906349D01*
X178090500Y-93906323D01*
X178090500Y-93125761D01*
X178110185Y-93058722D01*
X178114165Y-93052899D01*
X178202287Y-92931610D01*
X178295220Y-92749219D01*
X178358477Y-92554534D01*
X178390500Y-92352352D01*
X178390500Y-92147648D01*
X178382257Y-92095606D01*
X178358477Y-91945465D01*
X178327458Y-91850000D01*
X178295220Y-91750781D01*
X178295218Y-91750778D01*
X178295218Y-91750776D01*
X178202419Y-91568650D01*
X178202287Y-91568390D01*
X178170091Y-91524076D01*
X178114182Y-91447122D01*
X178090702Y-91381316D01*
X178090500Y-91374237D01*
X178090500Y-87375782D01*
X178110185Y-87308743D01*
X178126819Y-87288101D01*
X178585698Y-86829222D01*
X178585709Y-86829209D01*
X179307140Y-86107781D01*
X179307140Y-86107779D01*
X179317344Y-86097576D01*
X179317347Y-86097571D01*
X180212139Y-85202782D01*
X180212140Y-85202779D01*
X180219200Y-85195720D01*
X180219205Y-85195713D01*
X181017139Y-84397781D01*
X181383101Y-84031817D01*
X181444424Y-83998333D01*
X181470782Y-83995499D01*
X182202871Y-83995499D01*
X182202872Y-83995499D01*
X182262483Y-83989091D01*
X182397331Y-83938796D01*
X182512546Y-83852546D01*
X182598796Y-83737331D01*
X182649091Y-83602483D01*
X182655500Y-83542873D01*
X182655499Y-81797128D01*
X182649091Y-81737517D01*
X182598796Y-81602669D01*
X182598795Y-81602668D01*
X182598793Y-81602664D01*
X182512547Y-81487455D01*
X182512544Y-81487452D01*
X182397335Y-81401206D01*
X182397328Y-81401202D01*
X182262482Y-81350908D01*
X182262483Y-81350908D01*
X182202883Y-81344501D01*
X182202881Y-81344500D01*
X182202873Y-81344500D01*
X182202865Y-81344500D01*
X182198743Y-81344500D01*
X182131704Y-81324815D01*
X182085949Y-81272011D01*
X182078969Y-81232522D01*
X181500234Y-80653787D01*
X181542292Y-80642518D01*
X181667708Y-80570110D01*
X181770110Y-80467708D01*
X181842518Y-80342292D01*
X181853787Y-80300234D01*
X182427371Y-80873818D01*
X182427372Y-80873818D01*
X182463240Y-80824451D01*
X182557924Y-80638627D01*
X182622373Y-80440272D01*
X182655000Y-80234279D01*
X182655000Y-80025720D01*
X182622373Y-79819727D01*
X182557924Y-79621372D01*
X182463244Y-79435556D01*
X182463236Y-79435543D01*
X182427372Y-79386180D01*
X182427371Y-79386179D01*
X181853787Y-79959764D01*
X181842518Y-79917708D01*
X181770110Y-79792292D01*
X181667708Y-79689890D01*
X181542292Y-79617482D01*
X181500233Y-79606212D01*
X182073819Y-79032627D01*
X182024451Y-78996759D01*
X181973437Y-78970766D01*
X181922641Y-78922791D01*
X181905846Y-78854970D01*
X181928384Y-78788835D01*
X181973438Y-78749796D01*
X182024712Y-78723671D01*
X182024711Y-78723671D01*
X182024714Y-78723670D01*
X182193505Y-78601035D01*
X182341035Y-78453505D01*
X182463670Y-78284714D01*
X182558389Y-78098816D01*
X182622862Y-77900389D01*
X182625617Y-77882993D01*
X182655500Y-77694324D01*
X182655500Y-77485675D01*
X182622862Y-77279610D01*
X182558387Y-77081179D01*
X182463669Y-76895285D01*
X182354182Y-76744590D01*
X182330702Y-76678783D01*
X182330500Y-76671704D01*
X182330500Y-69471456D01*
X182292052Y-69278170D01*
X182292051Y-69278169D01*
X182292051Y-69278165D01*
X182225178Y-69116717D01*
X182216635Y-69096092D01*
X182216628Y-69096079D01*
X182107139Y-68932218D01*
X182107136Y-68932214D01*
X181964686Y-68789764D01*
X181964655Y-68789735D01*
X180876717Y-67701797D01*
X180843232Y-67640474D01*
X180841925Y-67633513D01*
X180818477Y-67485466D01*
X180818477Y-67485465D01*
X180787458Y-67390000D01*
X180755220Y-67290781D01*
X180755218Y-67290778D01*
X180755218Y-67290776D01*
X180662419Y-67108650D01*
X180662287Y-67108390D01*
X180630092Y-67064077D01*
X180541971Y-66942786D01*
X180397213Y-66798028D01*
X180231613Y-66677715D01*
X180231612Y-66677714D01*
X180231610Y-66677713D01*
X180174653Y-66648691D01*
X180049223Y-66584781D01*
X179854535Y-66521523D01*
X179706483Y-66498073D01*
X179643349Y-66468143D01*
X179638201Y-66463281D01*
X172231479Y-59056559D01*
X172231459Y-59056537D01*
X172087785Y-58912863D01*
X172087781Y-58912860D01*
X171923920Y-58803371D01*
X171923911Y-58803366D01*
X171851315Y-58773296D01*
X171795165Y-58750038D01*
X171741836Y-58727949D01*
X171741832Y-58727948D01*
X171741828Y-58727946D01*
X171645188Y-58708724D01*
X171548544Y-58689500D01*
X171548541Y-58689500D01*
X169368962Y-58689500D01*
X169301923Y-58669815D01*
X169279650Y-58650376D01*
X169279238Y-58650789D01*
X169097654Y-58469205D01*
X169097649Y-58469201D01*
X168893848Y-58321132D01*
X168893847Y-58321131D01*
X168893845Y-58321130D01*
X168823747Y-58285413D01*
X168669383Y-58206760D01*
X168429785Y-58128910D01*
X168180962Y-58089500D01*
X167929038Y-58089500D01*
X167804626Y-58109205D01*
X167680214Y-58128910D01*
X167440616Y-58206760D01*
X167216151Y-58321132D01*
X167012350Y-58469201D01*
X167012345Y-58469205D01*
X166834205Y-58647345D01*
X166834201Y-58647350D01*
X166686132Y-58851151D01*
X166571760Y-59075616D01*
X166493910Y-59315214D01*
X166464027Y-59503889D01*
X166454500Y-59564038D01*
X166454500Y-59815962D01*
X166471896Y-59925796D01*
X166493910Y-60064785D01*
X166571760Y-60304383D01*
X166686132Y-60528848D01*
X166834201Y-60732649D01*
X166834205Y-60732654D01*
X167012345Y-60910794D01*
X167012350Y-60910798D01*
X167190117Y-61039952D01*
X167216155Y-61058870D01*
X167359184Y-61131747D01*
X167440616Y-61173239D01*
X167440618Y-61173239D01*
X167440621Y-61173241D01*
X167680215Y-61251090D01*
X167929038Y-61290500D01*
X167929039Y-61290500D01*
X168180961Y-61290500D01*
X168180962Y-61290500D01*
X168429785Y-61251090D01*
X168669379Y-61173241D01*
X168893845Y-61058870D01*
X169097656Y-60910793D01*
X169275793Y-60732656D01*
X169275793Y-60732655D01*
X169279238Y-60729211D01*
X169280312Y-60730285D01*
X169333180Y-60695775D01*
X169368962Y-60690500D01*
X170984218Y-60690500D01*
X171051257Y-60710185D01*
X171071899Y-60726819D01*
X178223281Y-67878201D01*
X178256766Y-67939524D01*
X178258073Y-67946483D01*
X178281523Y-68094535D01*
X178344781Y-68289223D01*
X178408691Y-68414653D01*
X178437585Y-68471359D01*
X178437715Y-68471613D01*
X178558028Y-68637213D01*
X178702786Y-68781971D01*
X178823226Y-68869474D01*
X178868390Y-68902287D01*
X178984607Y-68961503D01*
X179050776Y-68995218D01*
X179050778Y-68995218D01*
X179050781Y-68995220D01*
X179155137Y-69029127D01*
X179245465Y-69058477D01*
X179322966Y-69070751D01*
X179393513Y-69081925D01*
X179456648Y-69111854D01*
X179461797Y-69116717D01*
X180293181Y-69948101D01*
X180326666Y-70009424D01*
X180329500Y-70035782D01*
X180329500Y-76671704D01*
X180309815Y-76738743D01*
X180305818Y-76744590D01*
X180196330Y-76895285D01*
X180101612Y-77081179D01*
X180037137Y-77279610D01*
X180004500Y-77485675D01*
X180004500Y-77694324D01*
X180037137Y-77900389D01*
X180101612Y-78098820D01*
X180130709Y-78155925D01*
X180196330Y-78284714D01*
X180318965Y-78453505D01*
X180466495Y-78601035D01*
X180579022Y-78682791D01*
X180635287Y-78723671D01*
X180686561Y-78749796D01*
X180737358Y-78797770D01*
X180754153Y-78865591D01*
X180731616Y-78931726D01*
X180686563Y-78970765D01*
X180635555Y-78996755D01*
X180586180Y-79032627D01*
X181159766Y-79606212D01*
X181117708Y-79617482D01*
X180992292Y-79689890D01*
X180889890Y-79792292D01*
X180817482Y-79917708D01*
X180806212Y-79959765D01*
X180232627Y-79386180D01*
X180196757Y-79435552D01*
X180102075Y-79621372D01*
X180037626Y-79819727D01*
X180005000Y-80025720D01*
X180005000Y-80234279D01*
X180037626Y-80440272D01*
X180102075Y-80638627D01*
X180196759Y-80824451D01*
X180232627Y-80873818D01*
X180232627Y-80873819D01*
X180806212Y-80300234D01*
X180817482Y-80342292D01*
X180889890Y-80467708D01*
X180992292Y-80570110D01*
X181117708Y-80642518D01*
X181159765Y-80653787D01*
X180580110Y-81233440D01*
X180570508Y-81279150D01*
X180521456Y-81328906D01*
X180461272Y-81344500D01*
X180457138Y-81344500D01*
X180457123Y-81344501D01*
X180397516Y-81350908D01*
X180262671Y-81401202D01*
X180262664Y-81401206D01*
X180147455Y-81487452D01*
X180147452Y-81487455D01*
X180061206Y-81602664D01*
X180061202Y-81602671D01*
X180010908Y-81737517D01*
X180004501Y-81797116D01*
X180004501Y-81797123D01*
X180004500Y-81797135D01*
X180004500Y-82529217D01*
X179984815Y-82596256D01*
X179968180Y-82616898D01*
X179602219Y-82982861D01*
X178797221Y-83787858D01*
X178797218Y-83787861D01*
X177892221Y-84692858D01*
X177892219Y-84692860D01*
X177112219Y-85472861D01*
X176452221Y-86132858D01*
X176452218Y-86132861D01*
X176382538Y-86202540D01*
X176312859Y-86272219D01*
X176203371Y-86436079D01*
X176203364Y-86436092D01*
X176127950Y-86618160D01*
X176127947Y-86618170D01*
X176089500Y-86811456D01*
X176089500Y-91374237D01*
X176069815Y-91441276D01*
X176065818Y-91447122D01*
X175977715Y-91568386D01*
X175884781Y-91750776D01*
X175821522Y-91945465D01*
X175789500Y-92147648D01*
X175789500Y-92352351D01*
X175821522Y-92554534D01*
X175884781Y-92749223D01*
X175977580Y-92931349D01*
X175977713Y-92931610D01*
X176065819Y-93052877D01*
X176089298Y-93118681D01*
X176089500Y-93125761D01*
X176089500Y-93544217D01*
X176069815Y-93611256D01*
X176053181Y-93631898D01*
X175397219Y-94287861D01*
X174722221Y-94962858D01*
X173962219Y-95722860D01*
X173037219Y-96647861D01*
X172152219Y-97532861D01*
X171277221Y-98407858D01*
X171277218Y-98407861D01*
X170701899Y-98983181D01*
X170640576Y-99016666D01*
X170614218Y-99019500D01*
X165623962Y-99019500D01*
X165556923Y-98999815D01*
X165534650Y-98980376D01*
X165534238Y-98980789D01*
X165352654Y-98799205D01*
X165352649Y-98799201D01*
X165148848Y-98651132D01*
X165148847Y-98651131D01*
X165148845Y-98651130D01*
X165078747Y-98615413D01*
X164924383Y-98536760D01*
X164684785Y-98458910D01*
X164435962Y-98419500D01*
X164184038Y-98419500D01*
X164059626Y-98439205D01*
X163935214Y-98458910D01*
X163695616Y-98536760D01*
X163471151Y-98651132D01*
X163267350Y-98799201D01*
X163267345Y-98799205D01*
X163089205Y-98977345D01*
X163089201Y-98977350D01*
X162941132Y-99181151D01*
X162826760Y-99405616D01*
X162748910Y-99645214D01*
X162709500Y-99894038D01*
X158350000Y-99894038D01*
X158350000Y-92147682D01*
X170790000Y-92147682D01*
X170790000Y-92352317D01*
X170822009Y-92554417D01*
X170885244Y-92749031D01*
X170978141Y-92931350D01*
X170978147Y-92931359D01*
X171010523Y-92975921D01*
X171010524Y-92975922D01*
X171690000Y-92296446D01*
X171690000Y-92302661D01*
X171717259Y-92404394D01*
X171769920Y-92495606D01*
X171844394Y-92570080D01*
X171935606Y-92622741D01*
X172037339Y-92650000D01*
X172043553Y-92650000D01*
X171364076Y-93329474D01*
X171408650Y-93361859D01*
X171590968Y-93454755D01*
X171785582Y-93517990D01*
X171987683Y-93550000D01*
X172192317Y-93550000D01*
X172394417Y-93517990D01*
X172589031Y-93454755D01*
X172771349Y-93361859D01*
X172815921Y-93329474D01*
X172136447Y-92650000D01*
X172142661Y-92650000D01*
X172244394Y-92622741D01*
X172335606Y-92570080D01*
X172410080Y-92495606D01*
X172462741Y-92404394D01*
X172490000Y-92302661D01*
X172490000Y-92296448D01*
X173169474Y-92975922D01*
X173169474Y-92975921D01*
X173201859Y-92931349D01*
X173294755Y-92749031D01*
X173357990Y-92554417D01*
X173390000Y-92352317D01*
X173390000Y-92147682D01*
X173357990Y-91945582D01*
X173294755Y-91750968D01*
X173201859Y-91568650D01*
X173169474Y-91524077D01*
X173169474Y-91524076D01*
X172490000Y-92203551D01*
X172490000Y-92197339D01*
X172462741Y-92095606D01*
X172410080Y-92004394D01*
X172335606Y-91929920D01*
X172244394Y-91877259D01*
X172142661Y-91850000D01*
X172136446Y-91850000D01*
X172815922Y-91170524D01*
X172815921Y-91170523D01*
X172771359Y-91138147D01*
X172771350Y-91138141D01*
X172589031Y-91045244D01*
X172394417Y-90982009D01*
X172192317Y-90950000D01*
X171987683Y-90950000D01*
X171785582Y-90982009D01*
X171590968Y-91045244D01*
X171408644Y-91138143D01*
X171364077Y-91170523D01*
X171364077Y-91170524D01*
X172043554Y-91850000D01*
X172037339Y-91850000D01*
X171935606Y-91877259D01*
X171844394Y-91929920D01*
X171769920Y-92004394D01*
X171717259Y-92095606D01*
X171690000Y-92197339D01*
X171690000Y-92203553D01*
X171010524Y-91524077D01*
X171010523Y-91524077D01*
X170978143Y-91568644D01*
X170885244Y-91750968D01*
X170822009Y-91945582D01*
X170790000Y-92147682D01*
X158350000Y-92147682D01*
X158350000Y-84894071D01*
X162710000Y-84894071D01*
X162710000Y-85145928D01*
X162749397Y-85394669D01*
X162827219Y-85634184D01*
X162941557Y-85858583D01*
X163015748Y-85960697D01*
X163015748Y-85960698D01*
X163827037Y-85149409D01*
X163844075Y-85212993D01*
X163909901Y-85327007D01*
X164002993Y-85420099D01*
X164117007Y-85485925D01*
X164180590Y-85502962D01*
X163369300Y-86314250D01*
X163471416Y-86388442D01*
X163695815Y-86502780D01*
X163935330Y-86580602D01*
X164184072Y-86620000D01*
X164435928Y-86620000D01*
X164684669Y-86580602D01*
X164924184Y-86502780D01*
X165148575Y-86388446D01*
X165148581Y-86388442D01*
X165250697Y-86314250D01*
X165250698Y-86314250D01*
X164439409Y-85502962D01*
X164502993Y-85485925D01*
X164617007Y-85420099D01*
X164710099Y-85327007D01*
X164775925Y-85212993D01*
X164792962Y-85149409D01*
X165604250Y-85960698D01*
X165604250Y-85960697D01*
X165678442Y-85858581D01*
X165678446Y-85858575D01*
X165792780Y-85634184D01*
X165870602Y-85394669D01*
X165910000Y-85145928D01*
X165910000Y-84894071D01*
X165870602Y-84645330D01*
X165792780Y-84405815D01*
X165678442Y-84181416D01*
X165604250Y-84079301D01*
X165604250Y-84079300D01*
X164792962Y-84890589D01*
X164775925Y-84827007D01*
X164710099Y-84712993D01*
X164617007Y-84619901D01*
X164502993Y-84554075D01*
X164439408Y-84537037D01*
X165250698Y-83725748D01*
X165148583Y-83651557D01*
X164924184Y-83537219D01*
X164684669Y-83459397D01*
X164435928Y-83420000D01*
X164184072Y-83420000D01*
X163935330Y-83459397D01*
X163695815Y-83537219D01*
X163471413Y-83651559D01*
X163369301Y-83725747D01*
X163369300Y-83725748D01*
X164180590Y-84537037D01*
X164117007Y-84554075D01*
X164002993Y-84619901D01*
X163909901Y-84712993D01*
X163844075Y-84827007D01*
X163827037Y-84890590D01*
X163015748Y-84079300D01*
X163015747Y-84079301D01*
X162941559Y-84181413D01*
X162827219Y-84405815D01*
X162749397Y-84645330D01*
X162710000Y-84894071D01*
X158350000Y-84894071D01*
X158350000Y-77564071D01*
X166455000Y-77564071D01*
X166455000Y-77815928D01*
X166494397Y-78064669D01*
X166572219Y-78304184D01*
X166686557Y-78528583D01*
X166760748Y-78630697D01*
X166760748Y-78630698D01*
X167572037Y-77819409D01*
X167589075Y-77882993D01*
X167654901Y-77997007D01*
X167747993Y-78090099D01*
X167862007Y-78155925D01*
X167925590Y-78172962D01*
X167114300Y-78984250D01*
X167216416Y-79058442D01*
X167440815Y-79172780D01*
X167680330Y-79250602D01*
X167929072Y-79290000D01*
X168180928Y-79290000D01*
X168429669Y-79250602D01*
X168669184Y-79172780D01*
X168893575Y-79058446D01*
X168893581Y-79058442D01*
X168995697Y-78984250D01*
X168995698Y-78984250D01*
X168184409Y-78172962D01*
X168247993Y-78155925D01*
X168362007Y-78090099D01*
X168455099Y-77997007D01*
X168520925Y-77882993D01*
X168537962Y-77819409D01*
X169349250Y-78630698D01*
X169349250Y-78630697D01*
X169423442Y-78528581D01*
X169423446Y-78528575D01*
X169537780Y-78304184D01*
X169615602Y-78064669D01*
X169655000Y-77815928D01*
X169655000Y-77564071D01*
X169615602Y-77315330D01*
X169537780Y-77075815D01*
X169423442Y-76851416D01*
X169349250Y-76749301D01*
X169349250Y-76749300D01*
X168537962Y-77560589D01*
X168520925Y-77497007D01*
X168455099Y-77382993D01*
X168362007Y-77289901D01*
X168247993Y-77224075D01*
X168184408Y-77207037D01*
X168995698Y-76395748D01*
X168893583Y-76321557D01*
X168669184Y-76207219D01*
X168429669Y-76129397D01*
X168180928Y-76090000D01*
X167929072Y-76090000D01*
X167680330Y-76129397D01*
X167440815Y-76207219D01*
X167216413Y-76321559D01*
X167114301Y-76395747D01*
X167114300Y-76395748D01*
X167925590Y-77207037D01*
X167862007Y-77224075D01*
X167747993Y-77289901D01*
X167654901Y-77382993D01*
X167589075Y-77497007D01*
X167572037Y-77560590D01*
X166760748Y-76749300D01*
X166760747Y-76749301D01*
X166686559Y-76851413D01*
X166572219Y-77075815D01*
X166494397Y-77315330D01*
X166455000Y-77564071D01*
X158350000Y-77564071D01*
X158350000Y-67687682D01*
X173250000Y-67687682D01*
X173250000Y-67892317D01*
X173282009Y-68094417D01*
X173345244Y-68289031D01*
X173438141Y-68471350D01*
X173438147Y-68471359D01*
X173470523Y-68515921D01*
X173470524Y-68515922D01*
X174150000Y-67836446D01*
X174150000Y-67842661D01*
X174177259Y-67944394D01*
X174229920Y-68035606D01*
X174304394Y-68110080D01*
X174395606Y-68162741D01*
X174497339Y-68190000D01*
X174503553Y-68190000D01*
X173824076Y-68869474D01*
X173868650Y-68901859D01*
X174050968Y-68994755D01*
X174245582Y-69057990D01*
X174447683Y-69090000D01*
X174652317Y-69090000D01*
X174854417Y-69057990D01*
X175049031Y-68994755D01*
X175231349Y-68901859D01*
X175275921Y-68869474D01*
X174596447Y-68190000D01*
X174602661Y-68190000D01*
X174704394Y-68162741D01*
X174795606Y-68110080D01*
X174870080Y-68035606D01*
X174922741Y-67944394D01*
X174950000Y-67842661D01*
X174950000Y-67836448D01*
X175629474Y-68515922D01*
X175629474Y-68515921D01*
X175661859Y-68471349D01*
X175754755Y-68289031D01*
X175817990Y-68094417D01*
X175850000Y-67892317D01*
X175850000Y-67687682D01*
X175817990Y-67485582D01*
X175754755Y-67290968D01*
X175661859Y-67108650D01*
X175629474Y-67064077D01*
X175629474Y-67064076D01*
X174950000Y-67743551D01*
X174950000Y-67737339D01*
X174922741Y-67635606D01*
X174870080Y-67544394D01*
X174795606Y-67469920D01*
X174704394Y-67417259D01*
X174602661Y-67390000D01*
X174596446Y-67390000D01*
X175275922Y-66710524D01*
X175275921Y-66710523D01*
X175231359Y-66678147D01*
X175231350Y-66678141D01*
X175049031Y-66585244D01*
X174854417Y-66522009D01*
X174652317Y-66490000D01*
X174447683Y-66490000D01*
X174245582Y-66522009D01*
X174050968Y-66585244D01*
X173868644Y-66678143D01*
X173824077Y-66710523D01*
X173824077Y-66710524D01*
X174503554Y-67390000D01*
X174497339Y-67390000D01*
X174395606Y-67417259D01*
X174304394Y-67469920D01*
X174229920Y-67544394D01*
X174177259Y-67635606D01*
X174150000Y-67737339D01*
X174150000Y-67743553D01*
X173470524Y-67064077D01*
X173470523Y-67064077D01*
X173438143Y-67108644D01*
X173345244Y-67290968D01*
X173282009Y-67485582D01*
X173250000Y-67687682D01*
X158350000Y-67687682D01*
X158350000Y-51554500D01*
X158369685Y-51487461D01*
X158422489Y-51441706D01*
X158474000Y-51430500D01*
X178010453Y-51430500D01*
X178077492Y-51450185D01*
G37*
%TD.AperFunction*%
%TD*%
M02*
