M48
; DRILL file {KiCad 9.0.5} date 2026-06-18T12:13:12+0200
; FORMAT={-:-/ absolute / metric / decimal}
; #@! TF.CreationDate,2026-06-18T12:13:12+02:00
; #@! TF.GenerationSoftware,Kicad,Pcbnew,9.0.5
; #@! TF.FileFunction,Plated,1,2,PTH
FMAT,2
METRIC
; #@! TA.AperFunction,Plated,PTH,ViaDrill
T1C0.300
; #@! TA.AperFunction,Plated,PTH,ComponentDrill
T2C0.600
; #@! TA.AperFunction,Plated,PTH,ComponentDrill
T3C0.750
; #@! TA.AperFunction,Plated,PTH,ComponentDrill
T4C1.100
; #@! TA.AperFunction,Plated,PTH,ComponentDrill
T5C1.200
; #@! TA.AperFunction,Plated,PTH,ComponentDrill
T6C1.250
; #@! TA.AperFunction,Plated,PTH,ComponentDrill
T7C1.560
; #@! TA.AperFunction,Plated,PTH,ComponentDrill
T8C1.690
; #@! TA.AperFunction,Plated,PTH,ComponentDrill
T9C1.810
; #@! TA.AperFunction,Plated,PTH,ComponentDrill
T10C1.980
; #@! TA.AperFunction,Plated,PTH,ComponentDrill
T11C2.500
; #@! TA.AperFunction,Plated,PTH,ComponentDrill
T12C4.000
%
G90
G05
T1
X98.42Y-77.91
X98.42Y-80.265
X98.42Y-82.62
X98.42Y-84.975
X98.42Y-87.33
X99.81Y-88.94
X100.24Y-76.6
X101.31Y-77.67
X102.27Y-78.63
X110.37Y-69.2
X110.96Y-74.78
X111.35Y-52.24
X111.35Y-55.245
X111.35Y-58.25
X112.06Y-60.91
X112.19Y-71.02
X113.187Y-74.78
X113.53Y-49.17
X113.53Y-52.24
X113.56Y-55.24
X113.935Y-72.765
X114.22Y-92.85
X114.25Y-63.17
X115.15Y-65.91
X115.413Y-74.78
X115.75Y-60.91
X116.94Y-80.19
X117.35Y-92.85
X117.64Y-74.78
X117.85Y-63.33
X117.85Y-65.91
X118.67Y-80.19
X118.99Y-74.02
X119.32Y-55.33
X119.98Y-72.18
X120.4Y-80.19
X120.48Y-92.85
X120.64Y-71.54
X120.88Y-72.84
X121.08Y-70.89
X121.43Y-71.97
X121.59Y-70.14
X121.895Y-81.225
X122.11Y-70.9
X122.67Y-55.33
X123.12Y-62.64
X123.47Y-84.88
X123.47Y-86.66
X123.47Y-88.33
X123.47Y-93.15
X123.47Y-95.5
X123.47Y-97.89
X124.085Y-48.77
X124.09Y-52.31
X124.11Y-70.92
X124.272Y-100.578
X124.59Y-70.14
X124.86Y-72.09
X125.16Y-70.96
X125.63Y-73.1
X125.71Y-71.68
X125.927Y-102.233
X126.49Y-48.77
X126.49Y-52.31
X126.49Y-54.5
X126.52Y-72.575
X126.96Y-74.07
X127.33Y-58.12
X127.617Y-103.923
X128.525Y-75.635
X128.71Y-54.86
X128.85Y-65.91
X128.85Y-67.41
X129.367Y-105.673
X129.905Y-77.015
X130.43Y-63.52
X131.147Y-107.453
X131.19Y-75.42
X131.19Y-77.02
X131.19Y-78.62
X131.37Y-54.86
X132.17Y-65.91
X132.2Y-67.41
X132.6Y-73.95
X132.81Y-63.52
X133.017Y-109.323
X133.93Y-72.63
X135.52Y-107.82
X135.615Y-104.475
X136.13Y-72.22
X137.11Y-54.62
X137.392Y-113.698
X137.725Y-102.365
X138.122Y-72.22
X138.91Y-49.43
X138.91Y-51.69
X138.957Y-115.263
X139.565Y-100.525
X140.114Y-72.22
X140.27Y-68.99
X140.35Y-56.88
X140.4Y-93.28
X140.4Y-95.7
X140.4Y-98.27
X140.462Y-116.768
X141.972Y-108.378
X142.062Y-118.368
X142.1Y-61.87
X142.106Y-72.22
X143.21Y-68.99
X143.317Y-109.723
X143.34Y-78.85
X144.098Y-72.22
X144.15Y-119.17
X144.57Y-77.67
X144.732Y-111.138
X145.46Y-62.42
X146.09Y-72.22
X146.172Y-112.578
X146.32Y-77.67
X146.453Y-119.17
X147.472Y-113.878
X148.757Y-119.17
X149.23Y-78.64
X149.42Y-114.22
X150.03Y-49.5
X150.04Y-52.88
X150.12Y-79.53
X151.06Y-119.17
X151.56Y-59.47
X151.57Y-81.03
X151.59Y-114.22
X151.6Y-57.24
X153.14Y-82.55
X153.76Y-114.22
X154.19Y-57.1
X154.475Y-83.885
X154.63Y-66.82
X155.93Y-114.22
X155.935Y-85.395
X156.64Y-119.17
X157.495Y-86.955
X158.29Y-74.68
X158.29Y-77.19
X158.71Y-52.83
X158.78Y-49.14
X159.055Y-88.515
X159.058Y-119.17
X159.57Y-59.17
X159.57Y-61.18
X159.75Y-71.37
X160.094Y-112.854
X160.785Y-90.245
X161.16Y-65.54
X161.16Y-67.89
X161.476Y-119.17
X161.504Y-111.444
X162.4Y-93.03
X162.4Y-95.381
X162.4Y-97.733
X162.4Y-100.084
X162.4Y-102.436
X162.4Y-104.787
X162.4Y-107.139
X162.4Y-109.49
X162.6Y-74.68
X162.6Y-77.19
X163.894Y-119.17
X164.17Y-91.86
X164.55Y-65.54
X164.55Y-67.89
X165.4Y-77.24
X166.29Y-91.86
X166.312Y-119.17
X168.41Y-91.86
X168.73Y-119.17
X170.53Y-91.86
X170.73Y-118.03
T2
X96.15Y-52.55
X96.15Y-126.05
X97.029Y-50.429
X97.029Y-54.671
X97.029Y-123.929
X97.029Y-128.171
X99.15Y-49.55
X99.15Y-55.55
X99.15Y-123.05
X99.15Y-129.05
X101.271Y-50.429
X101.271Y-54.671
X101.271Y-123.929
X101.271Y-128.171
X102.15Y-52.55
X102.15Y-126.05
X186.15Y-52.55
X186.15Y-126.05
X187.029Y-50.429
X187.029Y-54.671
X187.029Y-123.929
X187.029Y-128.171
X189.15Y-49.55
X189.15Y-55.55
X189.15Y-123.05
X189.15Y-129.05
X191.271Y-50.429
X191.271Y-54.671
X191.271Y-123.929
X191.271Y-128.171
X192.15Y-52.55
X192.15Y-126.05
T3
X148.34Y-62.14
X149.61Y-62.14
X150.88Y-62.14
T4
X116.44Y-50.95
X118.98Y-50.95
X121.52Y-50.95
X129.72Y-50.95
X132.26Y-50.95
X134.8Y-50.95
X143.0Y-50.95
X145.54Y-50.95
X148.08Y-50.95
X153.64Y-50.75
X156.18Y-50.75
X169.39Y-50.95
X171.93Y-50.95
X178.04Y-50.95
X180.58Y-50.95
T5
X135.52Y-111.826
X140.4Y-91.86
X140.47Y-106.876
X153.779Y-119.17
X158.728Y-114.22
X162.4Y-91.86
T6
X101.22Y-90.35
X111.22Y-92.85
T7
X171.9Y-91.86
X171.9Y-99.36
X171.9Y-106.86
X171.9Y-116.86
T8
X148.26Y-66.77
X148.26Y-72.22
X148.26Y-77.67
T9
X103.65Y-80.19
X114.55Y-80.19
X131.19Y-80.1
X142.09Y-80.1
T10
X123.47Y-82.8
X123.47Y-90.42
X123.47Y-109.39
X123.47Y-117.01
T11
X98.42Y-64.78
X98.42Y-74.78
X98.42Y-107.01
X98.42Y-117.01
X108.92Y-64.78
X108.92Y-74.78
X108.92Y-107.01
X108.92Y-117.01
X178.22Y-89.36
X178.22Y-99.36
X178.22Y-106.86
X178.22Y-116.86
X188.72Y-89.36
X188.72Y-99.36
X188.72Y-106.86
X188.72Y-116.86
T12
X99.15Y-52.55
X99.15Y-126.05
X189.15Y-52.55
X189.15Y-126.05
M30
