%TF.GenerationSoftware,KiCad,Pcbnew,9.0.5*%
%TF.CreationDate,2026-06-18T12:13:14+02:00*%
%TF.ProjectId,DynoPower_v2,44796e6f-506f-4776-9572-5f76322e6b69,rev?*%
%TF.SameCoordinates,Original*%
%TF.FileFunction,Soldermask,Bot*%
%TF.FilePolarity,Negative*%
%FSLAX46Y46*%
G04 Gerber Fmt 4.6, Leading zero omitted, Abs format (unit mm)*
G04 Created by KiCad (PCBNEW 9.0.5) date 2026-06-18 12:13:14*
%MOMM*%
%LPD*%
G01*
G04 APERTURE LIST*
G04 Aperture macros list*
%AMRoundRect*
0 Rectangle with rounded corners*
0 $1 Rounding radius*
0 $2 $3 $4 $5 $6 $7 $8 $9 X,Y pos of 4 corners*
0 Add a 4 corners polygon primitive as box body*
4,1,4,$2,$3,$4,$5,$6,$7,$8,$9,$2,$3,0*
0 Add four circle primitives for the rounded corners*
1,1,$1+$1,$2,$3*
1,1,$1+$1,$4,$5*
1,1,$1+$1,$6,$7*
1,1,$1+$1,$8,$9*
0 Add four rect primitives between the rounded corners*
20,1,$1+$1,$2,$3,$4,$5,0*
20,1,$1+$1,$4,$5,$6,$7,0*
20,1,$1+$1,$6,$7,$8,$9,0*
20,1,$1+$1,$8,$9,$2,$3,0*%
G04 Aperture macros list end*
%ADD10C,0.200000*%
%ADD11R,1.875000X1.875000*%
%ADD12C,1.875000*%
%ADD13R,1.650000X1.650000*%
%ADD14C,1.650000*%
%ADD15C,0.900000*%
%ADD16C,8.000000*%
%ADD17C,3.000000*%
%ADD18R,2.715000X2.715000*%
%ADD19C,2.715000*%
%ADD20C,3.300000*%
%ADD21C,2.500000*%
%ADD22R,2.535000X2.535000*%
%ADD23C,2.535000*%
%ADD24RoundRect,0.750000X0.750000X-0.750000X0.750000X0.750000X-0.750000X0.750000X-0.750000X-0.750000X0*%
%ADD25R,1.050000X1.500000*%
%ADD26O,1.050000X1.500000*%
%ADD27C,3.000000*%
G04 APERTURE END LIST*
D10*
X125490000Y-70990000D02*
X127955376Y-73089298D01*
X129350000Y-75820000D01*
X125800000Y-74850000D01*
X123690000Y-70990000D01*
X123690000Y-69290000D01*
X125490000Y-69290000D01*
X125490000Y-70990000D01*
G36*
X125490000Y-70990000D02*
G01*
X127955376Y-73089298D01*
X129350000Y-75820000D01*
X125800000Y-74850000D01*
X123690000Y-70990000D01*
X123690000Y-69290000D01*
X125490000Y-69290000D01*
X125490000Y-70990000D01*
G37*
X122490000Y-70990000D02*
X120040000Y-74930000D01*
X118080000Y-72960000D01*
X120690000Y-70990000D01*
X120690000Y-69290000D01*
X122490000Y-69290000D01*
X122490000Y-70990000D01*
G36*
X122490000Y-70990000D02*
G01*
X120040000Y-74930000D01*
X118080000Y-72960000D01*
X120690000Y-70990000D01*
X120690000Y-69290000D01*
X122490000Y-69290000D01*
X122490000Y-70990000D01*
G37*
X190370000Y-106860000D02*
X190370000Y-116860000D01*
X188720000Y-118510000D01*
X178220000Y-118510000D01*
X176570000Y-116860000D01*
X171900000Y-108110000D01*
X171900000Y-105610000D01*
X178220000Y-105210000D01*
X188720000Y-105210000D01*
X190370000Y-106860000D01*
G36*
X190370000Y-106860000D02*
G01*
X190370000Y-116860000D01*
X188720000Y-118510000D01*
X178220000Y-118510000D01*
X176570000Y-116860000D01*
X171900000Y-108110000D01*
X171900000Y-105610000D01*
X178220000Y-105210000D01*
X188720000Y-105210000D01*
X190370000Y-106860000D01*
G37*
X190370000Y-89360000D02*
X190370000Y-99360000D01*
X188720000Y-101010000D01*
X178220000Y-101010000D01*
X171900000Y-100610000D01*
X171900000Y-98110000D01*
X176570000Y-89360000D01*
X178220000Y-87710000D01*
X188720000Y-87710000D01*
X190370000Y-89360000D01*
G36*
X190370000Y-89360000D02*
G01*
X190370000Y-99360000D01*
X188720000Y-101010000D01*
X178220000Y-101010000D01*
X171900000Y-100610000D01*
X171900000Y-98110000D01*
X176570000Y-89360000D01*
X178220000Y-87710000D01*
X188720000Y-87710000D01*
X190370000Y-89360000D01*
G37*
X110570000Y-64780000D02*
X110570000Y-74780000D01*
X108920000Y-76430000D01*
X98420000Y-76430000D01*
X96770000Y-74780000D01*
X96770000Y-64780000D01*
X98420000Y-63130000D01*
X108920000Y-63130000D01*
X110570000Y-64780000D01*
G36*
X110570000Y-64780000D02*
G01*
X110570000Y-74780000D01*
X108920000Y-76430000D01*
X98420000Y-76430000D01*
X96770000Y-74780000D01*
X96770000Y-64780000D01*
X98420000Y-63130000D01*
X108920000Y-63130000D01*
X110570000Y-64780000D01*
G37*
X124970000Y-107890000D02*
X124970000Y-118510000D01*
X98420000Y-118660000D01*
X98420000Y-105360000D01*
X108920000Y-105360000D01*
X124970000Y-107890000D01*
G36*
X124970000Y-107890000D02*
G01*
X124970000Y-118510000D01*
X98420000Y-118660000D01*
X98420000Y-105360000D01*
X108920000Y-105360000D01*
X124970000Y-107890000D01*
G37*
D11*
%TO.C,RV1*%
X101220000Y-90350000D03*
D12*
X111220000Y-92850000D03*
%TD*%
D13*
%TO.C,J3*%
X134800000Y-50950000D03*
D14*
X132260000Y-50950000D03*
X129720000Y-50950000D03*
%TD*%
D13*
%TO.C,J2*%
X121520000Y-50950000D03*
D14*
X118980000Y-50950000D03*
X116440000Y-50950000D03*
%TD*%
D15*
%TO.C,REF\u002A\u002A*%
X96150000Y-52550000D03*
X97028680Y-50428680D03*
X97028680Y-54671320D03*
X99150000Y-49550000D03*
D16*
X99150000Y-52550000D03*
D15*
X99150000Y-55550000D03*
X101271320Y-50428680D03*
X101271320Y-54671320D03*
X102150000Y-52550000D03*
%TD*%
%TO.C,REF\u002A\u002A*%
X186150000Y-52550000D03*
X187028680Y-50428680D03*
X187028680Y-54671320D03*
X189150000Y-49550000D03*
D16*
X189150000Y-52550000D03*
D15*
X189150000Y-55550000D03*
X191271320Y-50428680D03*
X191271320Y-54671320D03*
X192150000Y-52550000D03*
%TD*%
D17*
%TO.C,C10*%
X135520253Y-111825584D03*
X140470000Y-106875837D03*
%TD*%
D18*
%TO.C,D3*%
X142090000Y-80100000D03*
D19*
X131190000Y-80100000D03*
%TD*%
D20*
%TO.C,U5*%
X178220000Y-99360000D03*
X188720000Y-99360000D03*
X188720000Y-89360000D03*
X178220000Y-89360000D03*
%TD*%
D15*
%TO.C,REF\u002A\u002A*%
X96150000Y-126050000D03*
X97028680Y-123928680D03*
X97028680Y-128171320D03*
X99150000Y-123050000D03*
D16*
X99150000Y-126050000D03*
D15*
X99150000Y-129050000D03*
X101271320Y-123928680D03*
X101271320Y-128171320D03*
X102150000Y-126050000D03*
%TD*%
D17*
%TO.C,C9*%
X140400000Y-91860000D03*
X162400000Y-91860000D03*
%TD*%
D20*
%TO.C,U1*%
X98420000Y-117010000D03*
X108920000Y-117010000D03*
X108920000Y-107010000D03*
X98420000Y-107010000D03*
%TD*%
%TO.C,U2*%
X98420000Y-74780000D03*
X108920000Y-74780000D03*
X108920000Y-64780000D03*
X98420000Y-64780000D03*
%TD*%
D21*
%TO.C,BR1*%
X171900000Y-116860000D03*
X171900000Y-106860000D03*
X171900000Y-99360000D03*
X171900000Y-91860000D03*
%TD*%
D14*
%TO.C,J4*%
X180580000Y-50950000D03*
X178040000Y-50950000D03*
%TD*%
D22*
%TO.C,Q1*%
X148260000Y-66770000D03*
D23*
X148260000Y-72220000D03*
X148260000Y-77670000D03*
%TD*%
D14*
%TO.C,J5*%
X156180000Y-50750000D03*
X153640000Y-50750000D03*
%TD*%
D13*
%TO.C,J6*%
X148080000Y-50950000D03*
D14*
X145540000Y-50950000D03*
X143000000Y-50950000D03*
%TD*%
D20*
%TO.C,U4*%
X178220000Y-116860000D03*
X188720000Y-116860000D03*
X188720000Y-106860000D03*
X178220000Y-106860000D03*
%TD*%
D15*
%TO.C,REF\u002A\u002A*%
X186150000Y-126050000D03*
X187028680Y-123928680D03*
X187028680Y-128171320D03*
X189150000Y-123050000D03*
D16*
X189150000Y-126050000D03*
D15*
X189150000Y-129050000D03*
X191271320Y-123928680D03*
X191271320Y-128171320D03*
X192150000Y-126050000D03*
%TD*%
D24*
%TO.C,F1*%
X123470000Y-117010000D03*
X123470000Y-109390000D03*
D17*
X123470000Y-90420000D03*
X123470000Y-82800000D03*
%TD*%
D14*
%TO.C,J1*%
X171930000Y-50950000D03*
X169390000Y-50950000D03*
%TD*%
D18*
%TO.C,D2*%
X103650000Y-80190000D03*
D19*
X114550000Y-80190000D03*
%TD*%
D17*
%TO.C,C11*%
X153778552Y-119169720D03*
X158728299Y-114219973D03*
%TD*%
D25*
%TO.C,U3*%
X150880000Y-62140000D03*
D26*
X149610000Y-62140000D03*
X148340000Y-62140000D03*
%TD*%
D27*
X153778552Y-119169720D02*
X169590280Y-119169720D01*
X123470000Y-90420000D02*
X123470000Y-99775330D01*
X135520253Y-111825584D02*
X135520253Y-104569747D01*
X123470000Y-90420000D02*
X123470000Y-82800000D01*
X114550000Y-80190000D02*
X120860000Y-80190000D01*
X140400000Y-99690000D02*
X140400000Y-91860000D01*
X121040000Y-92850000D02*
X123470000Y-90420000D01*
X169590280Y-119169720D02*
X171900000Y-116860000D01*
X135520253Y-111825584D02*
X142864389Y-119169720D01*
X120860000Y-80190000D02*
X123470000Y-82800000D01*
X135520253Y-111825584D02*
X124272335Y-100577665D01*
X142864389Y-119169720D02*
X153778552Y-119169720D01*
X135615000Y-104475000D02*
X140400000Y-99690000D01*
X111220000Y-92850000D02*
X120480000Y-92850000D01*
X103650000Y-80010000D02*
X98420000Y-74780000D01*
X118230000Y-74780000D02*
X118990000Y-74020000D01*
X108920000Y-74780000D02*
X118230000Y-74780000D01*
X110370000Y-69200000D02*
X115950000Y-74780000D01*
X98420000Y-87550000D02*
X98420000Y-74780000D01*
X115950000Y-74780000D02*
X118230000Y-74780000D01*
X101220000Y-90350000D02*
X98420000Y-87550000D01*
X171900000Y-91860000D02*
X162400000Y-91860000D01*
X148260000Y-77670000D02*
X144520000Y-77670000D01*
X149515000Y-78925000D02*
X149230000Y-78640000D01*
X140470000Y-106875837D02*
X147814136Y-114219973D01*
X162400000Y-91860000D02*
X155935000Y-85395000D01*
X151570000Y-81030000D02*
X154530000Y-83990000D01*
X162400000Y-110548272D02*
X162400000Y-91860000D01*
X155935000Y-85395000D02*
X154530000Y-83990000D01*
X147814136Y-114219973D02*
X158728299Y-114219973D01*
X149515000Y-78925000D02*
X150120000Y-79530000D01*
X144520000Y-77670000D02*
X142090000Y-80100000D01*
X149230000Y-78640000D02*
X148260000Y-77670000D01*
X150120000Y-79530000D02*
X151570000Y-80980000D01*
X158728299Y-114219973D02*
X162400000Y-110548272D01*
X131190000Y-78300000D02*
X126960000Y-74070000D01*
X134340000Y-72220000D02*
X148260000Y-72220000D01*
X131190000Y-80100000D02*
X131190000Y-78300000D01*
X131190000Y-75370000D02*
X133930000Y-72630000D01*
X131190000Y-78300000D02*
X131190000Y-75370000D01*
M02*
