%TF.GenerationSoftware,KiCad,Pcbnew,9.0.5*%
%TF.CreationDate,2026-06-18T12:13:14+02:00*%
%TF.ProjectId,DynoPower_v2,44796e6f-506f-4776-9572-5f76322e6b69,rev?*%
%TF.SameCoordinates,Original*%
%TF.FileFunction,Copper,L2,Bot*%
%TF.FilePolarity,Positive*%
%FSLAX46Y46*%
G04 Gerber Fmt 4.6, Leading zero omitted, Abs format (unit mm)*
G04 Created by KiCad (PCBNEW 9.0.5) date 2026-06-18 12:13:14*
%MOMM*%
%LPD*%
G01*
G04 APERTURE LIST*
G04 Aperture macros list*
%AMRoundRect*
0 Rectangle with rounded corners*
0 $1 Rounding radius*
0 $2 $3 $4 $5 $6 $7 $8 $9 X,Y pos of 4 corners*
0 Add a 4 corners polygon primitive as box body*
4,1,4,$2,$3,$4,$5,$6,$7,$8,$9,$2,$3,0*
0 Add four circle primitives for the rounded corners*
1,1,$1+$1,$2,$3*
1,1,$1+$1,$4,$5*
1,1,$1+$1,$6,$7*
1,1,$1+$1,$8,$9*
0 Add four rect primitives between the rounded corners*
20,1,$1+$1,$2,$3,$4,$5,0*
20,1,$1+$1,$4,$5,$6,$7,0*
20,1,$1+$1,$6,$7,$8,$9,0*
20,1,$1+$1,$8,$9,$2,$3,0*%
G04 Aperture macros list end*
%TA.AperFunction,Conductor*%
%ADD10C,0.200000*%
%TD*%
%TA.AperFunction,ComponentPad*%
%ADD11R,1.875000X1.875000*%
%TD*%
%TA.AperFunction,ComponentPad*%
%ADD12C,1.875000*%
%TD*%
%TA.AperFunction,ComponentPad*%
%ADD13R,1.650000X1.650000*%
%TD*%
%TA.AperFunction,ComponentPad*%
%ADD14C,1.650000*%
%TD*%
%TA.AperFunction,ComponentPad*%
%ADD15C,0.900000*%
%TD*%
%TA.AperFunction,ComponentPad*%
%ADD16C,8.000000*%
%TD*%
%TA.AperFunction,ComponentPad*%
%ADD17C,3.000000*%
%TD*%
%TA.AperFunction,ComponentPad*%
%ADD18R,2.715000X2.715000*%
%TD*%
%TA.AperFunction,ComponentPad*%
%ADD19C,2.715000*%
%TD*%
%TA.AperFunction,ComponentPad*%
%ADD20C,3.300000*%
%TD*%
%TA.AperFunction,ComponentPad*%
%ADD21C,2.500000*%
%TD*%
%TA.AperFunction,ComponentPad*%
%ADD22R,2.535000X2.535000*%
%TD*%
%TA.AperFunction,ComponentPad*%
%ADD23C,2.535000*%
%TD*%
%TA.AperFunction,ComponentPad*%
%ADD24RoundRect,0.750000X0.750000X-0.750000X0.750000X0.750000X-0.750000X0.750000X-0.750000X-0.750000X0*%
%TD*%
%TA.AperFunction,ComponentPad*%
%ADD25R,1.050000X1.500000*%
%TD*%
%TA.AperFunction,ComponentPad*%
%ADD26O,1.050000X1.500000*%
%TD*%
%TA.AperFunction,ViaPad*%
%ADD27C,0.600000*%
%TD*%
%TA.AperFunction,Conductor*%
%ADD28C,3.000000*%
%TD*%
G04 APERTURE END LIST*
D10*
%TO.N,Net-(D3-K)*%
X125490000Y-70990000D02*
X127955376Y-73089298D01*
X129350000Y-75820000D01*
X125800000Y-74850000D01*
X123690000Y-70990000D01*
X123690000Y-69290000D01*
X125490000Y-69290000D01*
X125490000Y-70990000D01*
%TA.AperFunction,Conductor*%
G36*
X125490000Y-70990000D02*
G01*
X127955376Y-73089298D01*
X129350000Y-75820000D01*
X125800000Y-74850000D01*
X123690000Y-70990000D01*
X123690000Y-69290000D01*
X125490000Y-69290000D01*
X125490000Y-70990000D01*
G37*
%TD.AperFunction*%
%TO.N,GND2*%
X122490000Y-70990000D02*
X120040000Y-74930000D01*
X118080000Y-72960000D01*
X120690000Y-70990000D01*
X120690000Y-69290000D01*
X122490000Y-69290000D01*
X122490000Y-70990000D01*
%TA.AperFunction,Conductor*%
G36*
X122490000Y-70990000D02*
G01*
X120040000Y-74930000D01*
X118080000Y-72960000D01*
X120690000Y-70990000D01*
X120690000Y-69290000D01*
X122490000Y-69290000D01*
X122490000Y-70990000D01*
G37*
%TD.AperFunction*%
%TO.N,Net-(BR1-~_1)*%
X190370000Y-106860000D02*
X190370000Y-116860000D01*
X188720000Y-118510000D01*
X178220000Y-118510000D01*
X176570000Y-116860000D01*
X171900000Y-108110000D01*
X171900000Y-105610000D01*
X178220000Y-105210000D01*
X188720000Y-105210000D01*
X190370000Y-106860000D01*
%TA.AperFunction,Conductor*%
G36*
X190370000Y-106860000D02*
G01*
X190370000Y-116860000D01*
X188720000Y-118510000D01*
X178220000Y-118510000D01*
X176570000Y-116860000D01*
X171900000Y-108110000D01*
X171900000Y-105610000D01*
X178220000Y-105210000D01*
X188720000Y-105210000D01*
X190370000Y-106860000D01*
G37*
%TD.AperFunction*%
%TO.N,Net-(BR1-~_2)*%
X190370000Y-89360000D02*
X190370000Y-99360000D01*
X188720000Y-101010000D01*
X178220000Y-101010000D01*
X171900000Y-100610000D01*
X171900000Y-98110000D01*
X176570000Y-89360000D01*
X178220000Y-87710000D01*
X188720000Y-87710000D01*
X190370000Y-89360000D01*
%TA.AperFunction,Conductor*%
G36*
X190370000Y-89360000D02*
G01*
X190370000Y-99360000D01*
X188720000Y-101010000D01*
X178220000Y-101010000D01*
X171900000Y-100610000D01*
X171900000Y-98110000D01*
X176570000Y-89360000D01*
X178220000Y-87710000D01*
X188720000Y-87710000D01*
X190370000Y-89360000D01*
G37*
%TD.AperFunction*%
%TO.N,GND2*%
X110570000Y-64780000D02*
X110570000Y-74780000D01*
X108920000Y-76430000D01*
X98420000Y-76430000D01*
X96770000Y-74780000D01*
X96770000Y-64780000D01*
X98420000Y-63130000D01*
X108920000Y-63130000D01*
X110570000Y-64780000D01*
%TA.AperFunction,Conductor*%
G36*
X110570000Y-64780000D02*
G01*
X110570000Y-74780000D01*
X108920000Y-76430000D01*
X98420000Y-76430000D01*
X96770000Y-74780000D01*
X96770000Y-64780000D01*
X98420000Y-63130000D01*
X108920000Y-63130000D01*
X110570000Y-64780000D01*
G37*
%TD.AperFunction*%
%TO.N,Net-(F1-Pad1)*%
X124970000Y-107890000D02*
X124970000Y-118510000D01*
X98420000Y-118660000D01*
X98420000Y-105360000D01*
X108920000Y-105360000D01*
X124970000Y-107890000D01*
%TA.AperFunction,Conductor*%
G36*
X124970000Y-107890000D02*
G01*
X124970000Y-118510000D01*
X98420000Y-118660000D01*
X98420000Y-105360000D01*
X108920000Y-105360000D01*
X124970000Y-107890000D01*
G37*
%TD.AperFunction*%
%TD*%
D11*
%TO.P,RV1,1,1*%
%TO.N,GND2*%
X101220000Y-90350000D03*
D12*
%TO.P,RV1,2,2*%
%TO.N,HV*%
X111220000Y-92850000D03*
%TD*%
D13*
%TO.P,J3,1,1*%
%TO.N,Net-(U3-DQ)*%
X134800000Y-50950000D03*
D14*
%TO.P,J3,2,2*%
%TO.N,+3.3V*%
X132260000Y-50950000D03*
%TO.P,J3,3,3*%
%TO.N,GND*%
X129720000Y-50950000D03*
%TD*%
D13*
%TO.P,J2,1,1*%
%TO.N,+3.3V*%
X121520000Y-50950000D03*
D14*
%TO.P,J2,2,2*%
%TO.N,GND*%
X118980000Y-50950000D03*
%TO.P,J2,3,3*%
%TO.N,Net-(C2-Pad2)*%
X116440000Y-50950000D03*
%TD*%
D15*
%TO.P,REF\u002A\u002A,1*%
%TO.N,N/C*%
X96150000Y-52550000D03*
X97028680Y-50428680D03*
X97028680Y-54671320D03*
X99150000Y-49550000D03*
D16*
X99150000Y-52550000D03*
D15*
X99150000Y-55550000D03*
X101271320Y-50428680D03*
X101271320Y-54671320D03*
X102150000Y-52550000D03*
%TD*%
%TO.P,REF\u002A\u002A,1*%
%TO.N,N/C*%
X186150000Y-52550000D03*
X187028680Y-50428680D03*
X187028680Y-54671320D03*
X189150000Y-49550000D03*
D16*
X189150000Y-52550000D03*
D15*
X189150000Y-55550000D03*
X191271320Y-50428680D03*
X191271320Y-54671320D03*
X192150000Y-52550000D03*
%TD*%
D17*
%TO.P,C10,1*%
%TO.N,HV*%
X135520253Y-111825584D03*
%TO.P,C10,2*%
%TO.N,GNDA*%
X140470000Y-106875837D03*
%TD*%
D18*
%TO.P,D3,1,A*%
%TO.N,GNDA*%
X142090000Y-80100000D03*
D19*
%TO.P,D3,2,K*%
%TO.N,Net-(D3-K)*%
X131190000Y-80100000D03*
%TD*%
D20*
%TO.P,U5,1,1*%
%TO.N,Net-(BR1-~_2)*%
X178220000Y-99360000D03*
%TO.P,U5,2,2*%
X188720000Y-99360000D03*
%TO.P,U5,3,3*%
X188720000Y-89360000D03*
%TO.P,U5,4,4*%
X178220000Y-89360000D03*
%TD*%
D15*
%TO.P,REF\u002A\u002A,1*%
%TO.N,N/C*%
X96150000Y-126050000D03*
X97028680Y-123928680D03*
X97028680Y-128171320D03*
X99150000Y-123050000D03*
D16*
X99150000Y-126050000D03*
D15*
X99150000Y-129050000D03*
X101271320Y-123928680D03*
X101271320Y-128171320D03*
X102150000Y-126050000D03*
%TD*%
D17*
%TO.P,C9,1*%
%TO.N,HV*%
X140400000Y-91860000D03*
%TO.P,C9,2*%
%TO.N,GNDA*%
X162400000Y-91860000D03*
%TD*%
D20*
%TO.P,U1,1,1*%
%TO.N,Net-(F1-Pad1)*%
X98420000Y-117010000D03*
%TO.P,U1,2,2*%
X108920000Y-117010000D03*
%TO.P,U1,3,3*%
X108920000Y-107010000D03*
%TO.P,U1,4,4*%
X98420000Y-107010000D03*
%TD*%
%TO.P,U2,1,1*%
%TO.N,GND2*%
X98420000Y-74780000D03*
%TO.P,U2,2,2*%
X108920000Y-74780000D03*
%TO.P,U2,3,3*%
X108920000Y-64780000D03*
%TO.P,U2,4,4*%
X98420000Y-64780000D03*
%TD*%
D21*
%TO.P,BR1,1,+*%
%TO.N,HV*%
X171900000Y-116860000D03*
%TO.P,BR1,2,~_1*%
%TO.N,Net-(BR1-~_1)*%
X171900000Y-106860000D03*
%TO.P,BR1,3,~_2*%
%TO.N,Net-(BR1-~_2)*%
X171900000Y-99360000D03*
%TO.P,BR1,4,-*%
%TO.N,GNDA*%
X171900000Y-91860000D03*
%TD*%
D14*
%TO.P,J4,1,1*%
%TO.N,Net-(BR1-~_1)*%
X180580000Y-50950000D03*
%TO.P,J4,2,2*%
%TO.N,Net-(BR1-~_2)*%
X178040000Y-50950000D03*
%TD*%
D22*
%TO.P,Q1,1,G*%
%TO.N,Q1_Gate*%
X148260000Y-66770000D03*
D23*
%TO.P,Q1,2,C*%
%TO.N,Net-(D3-K)*%
X148260000Y-72220000D03*
%TO.P,Q1,3,E*%
%TO.N,GNDA*%
X148260000Y-77670000D03*
%TD*%
D14*
%TO.P,J5,1,1*%
%TO.N,+15V*%
X156180000Y-50750000D03*
%TO.P,J5,2,2*%
%TO.N,GNDA*%
X153640000Y-50750000D03*
%TD*%
D13*
%TO.P,J6,1,1*%
%TO.N,GND*%
X148080000Y-50950000D03*
D14*
%TO.P,J6,2,2*%
%TO.N,+5V*%
X145540000Y-50950000D03*
%TO.P,J6,3,3*%
%TO.N,PWM*%
X143000000Y-50950000D03*
%TD*%
D20*
%TO.P,U4,1,1*%
%TO.N,Net-(BR1-~_1)*%
X178220000Y-116860000D03*
%TO.P,U4,2,2*%
X188720000Y-116860000D03*
%TO.P,U4,3,3*%
X188720000Y-106860000D03*
%TO.P,U4,4,4*%
X178220000Y-106860000D03*
%TD*%
D15*
%TO.P,REF\u002A\u002A,1*%
%TO.N,N/C*%
X186150000Y-126050000D03*
X187028680Y-123928680D03*
X187028680Y-128171320D03*
X189150000Y-123050000D03*
D16*
X189150000Y-126050000D03*
D15*
X189150000Y-129050000D03*
X191271320Y-123928680D03*
X191271320Y-128171320D03*
X192150000Y-126050000D03*
%TD*%
D24*
%TO.P,F1,1*%
%TO.N,Net-(F1-Pad1)*%
X123470000Y-117010000D03*
X123470000Y-109390000D03*
D17*
%TO.P,F1,2*%
%TO.N,HV*%
X123470000Y-90420000D03*
X123470000Y-82800000D03*
%TD*%
D14*
%TO.P,J1,1,1*%
%TO.N,GND2*%
X171930000Y-50950000D03*
%TO.P,J1,2,2*%
%TO.N,Net-(D1-K)*%
X169390000Y-50950000D03*
%TD*%
D18*
%TO.P,D2,1,A*%
%TO.N,GND2*%
X103650000Y-80190000D03*
D19*
%TO.P,D2,2,K*%
%TO.N,HV*%
X114550000Y-80190000D03*
%TD*%
D17*
%TO.P,C11,1*%
%TO.N,HV*%
X153778552Y-119169720D03*
%TO.P,C11,2*%
%TO.N,GNDA*%
X158728299Y-114219973D03*
%TD*%
D25*
%TO.P,U3,1,GND*%
%TO.N,GND*%
X150880000Y-62140000D03*
D26*
%TO.P,U3,2,DQ*%
%TO.N,Net-(U3-DQ)*%
X149610000Y-62140000D03*
%TO.P,U3,3,V_{DD}*%
%TO.N,+3.3V*%
X148340000Y-62140000D03*
%TD*%
D27*
%TO.N,GND*%
X140350000Y-56880000D03*
X115150000Y-65910000D03*
X113530000Y-52240000D03*
X126490000Y-48770000D03*
X128710000Y-54860000D03*
X140270000Y-68990000D03*
X111350000Y-58250000D03*
X122670000Y-55330000D03*
X138910000Y-51690000D03*
X115750000Y-60910000D03*
X145460000Y-62420000D03*
X138910000Y-49430000D03*
X154190000Y-57100000D03*
X128850000Y-67410000D03*
X150040000Y-52880000D03*
X113560000Y-55240000D03*
X119320000Y-55330000D03*
X143210000Y-68990000D03*
X111350000Y-52240000D03*
X124090000Y-52310000D03*
X117850000Y-65910000D03*
X126490000Y-52310000D03*
X113530000Y-49170000D03*
X130430000Y-63520000D03*
X151600000Y-57240000D03*
X123120000Y-62640000D03*
X128850000Y-65910000D03*
X150030000Y-49500000D03*
X112060000Y-60910000D03*
X117850000Y-63330000D03*
X127330000Y-58120000D03*
X114250000Y-63170000D03*
X111350000Y-55245000D03*
X132810000Y-63520000D03*
X131370000Y-54860000D03*
X132200000Y-67410000D03*
X126490000Y-54500000D03*
X132170000Y-65910000D03*
X151560000Y-59470000D03*
X124085000Y-48770000D03*
X137110000Y-54620000D03*
X142100000Y-61870000D03*
%TO.N,HV*%
X114220000Y-92850000D03*
X144150000Y-119169720D03*
X124272335Y-100577665D03*
X138957334Y-115262666D03*
X123470000Y-93150000D03*
X129367335Y-105672665D03*
X123470000Y-86660000D03*
X137392334Y-113697666D03*
X117350000Y-92850000D03*
X135615000Y-104475000D03*
X120480000Y-92850000D03*
X127617335Y-103922665D03*
X140462334Y-116767666D03*
X142062334Y-118367666D03*
X135520253Y-107820000D03*
X123470000Y-97890000D03*
X168730000Y-119169720D03*
X159058000Y-119169720D03*
X163894000Y-119169720D03*
X116940000Y-80190000D03*
X161476000Y-119169720D03*
X120400000Y-80190000D03*
X123470000Y-88330000D03*
X146453333Y-119169720D03*
X156640000Y-119169720D03*
X133017335Y-109322665D03*
X151060000Y-119169720D03*
X140400000Y-98270000D03*
X123470000Y-84880000D03*
X131147335Y-107452665D03*
X148756667Y-119169720D03*
X170730000Y-118030000D03*
X118670000Y-80190000D03*
X140400000Y-95700000D03*
X137725000Y-102365000D03*
X166312000Y-119169720D03*
X139565000Y-100525000D03*
X123470000Y-95500000D03*
X140400000Y-93280000D03*
X121895000Y-81225000D03*
X125927335Y-102232665D03*
%TO.N,GND2*%
X99810000Y-88940000D03*
X98420000Y-87330000D03*
X98420000Y-77910000D03*
X102270000Y-78630000D03*
X113935000Y-72765000D03*
X101310000Y-77670000D03*
X110370000Y-69200000D03*
X98420000Y-80265000D03*
X119980000Y-72180000D03*
X115413333Y-74780000D03*
X117640000Y-74780000D03*
X120880000Y-72840000D03*
X100240000Y-76600000D03*
X98420000Y-84975000D03*
X113186667Y-74780000D03*
X121430000Y-71970000D03*
X122110000Y-70900000D03*
X120640000Y-71540000D03*
X98420000Y-82620000D03*
X112190000Y-71020000D03*
X118990000Y-74020000D03*
X121590000Y-70140000D03*
X121080000Y-70890000D03*
X110960000Y-74780000D03*
%TO.N,GNDA*%
X162400000Y-104787143D03*
X158290000Y-74680000D03*
X161160000Y-65540000D03*
X161160000Y-67890000D03*
X147472082Y-113877918D03*
X162400000Y-93030000D03*
X162400000Y-100084286D03*
X159570000Y-59170000D03*
X143340000Y-78850000D03*
X158780000Y-49140000D03*
X155930000Y-114219973D03*
X151570000Y-81030000D03*
X144732082Y-111137918D03*
X155935000Y-85395000D03*
X143317082Y-109722918D03*
X162600000Y-77190000D03*
X162400000Y-107138571D03*
X161504136Y-111444136D03*
X144570000Y-77670000D03*
X153140000Y-82550000D03*
X164550000Y-67890000D03*
X146172082Y-112577918D03*
X159570000Y-61180000D03*
X165400000Y-77240000D03*
X160094136Y-112854136D03*
X164550000Y-65540000D03*
X162600000Y-74680000D03*
X154475000Y-83885000D03*
X153760000Y-114219973D03*
X149230000Y-78640000D03*
X170530000Y-91860000D03*
X160785000Y-90245000D03*
X164170000Y-91860000D03*
X158290000Y-77190000D03*
X159750000Y-71370000D03*
X157495000Y-86955000D03*
X162400000Y-97732857D03*
X166290000Y-91860000D03*
X162400000Y-102435714D03*
X168410000Y-91860000D03*
X162400000Y-109490000D03*
X158710000Y-52830000D03*
X146320000Y-77670000D03*
X159055000Y-88515000D03*
X162400000Y-95381429D03*
X154630000Y-66820000D03*
X151590000Y-114219973D03*
X141972082Y-108377918D03*
X150120000Y-79530000D03*
X149420000Y-114219973D03*
%TO.N,Net-(D3-K)*%
X125160000Y-70960000D03*
X142106000Y-72220000D03*
X126520000Y-72575000D03*
X126960000Y-74070000D03*
X124590000Y-70140000D03*
X136130000Y-72220000D03*
X131190000Y-77020000D03*
X125630000Y-73100000D03*
X128525000Y-75635000D03*
X124860000Y-72090000D03*
X132600000Y-73950000D03*
X146090000Y-72220000D03*
X124110000Y-70920000D03*
X125710000Y-71680000D03*
X131190000Y-78620000D03*
X133930000Y-72630000D03*
X140114000Y-72220000D03*
X131190000Y-75420000D03*
X129905000Y-77015000D03*
X138122000Y-72220000D03*
X144098000Y-72220000D03*
%TD*%
D10*
%TO.N,+3.3V*%
X148340000Y-62140000D02*
X141660000Y-55460000D01*
X121520000Y-50950000D02*
X122960000Y-49510000D01*
X130820000Y-49510000D02*
X122960000Y-49510000D01*
X136770000Y-55460000D02*
X132260000Y-50950000D01*
X141660000Y-55460000D02*
X136770000Y-55460000D01*
X132260000Y-50950000D02*
X130820000Y-49510000D01*
D28*
%TO.N,HV*%
X153778552Y-119169720D02*
X169590280Y-119169720D01*
X123470000Y-90420000D02*
X123470000Y-99775330D01*
X135520253Y-111825584D02*
X135520253Y-104569747D01*
X123470000Y-90420000D02*
X123470000Y-82800000D01*
X114550000Y-80190000D02*
X120860000Y-80190000D01*
X140400000Y-99690000D02*
X140400000Y-91860000D01*
X121040000Y-92850000D02*
X123470000Y-90420000D01*
X169590280Y-119169720D02*
X171900000Y-116860000D01*
X135520253Y-111825584D02*
X142864389Y-119169720D01*
X120480000Y-92850000D02*
X121040000Y-92850000D01*
X120860000Y-80190000D02*
X123470000Y-82800000D01*
X123470000Y-99775330D02*
X124272335Y-100577665D01*
X135520253Y-111825584D02*
X124272335Y-100577665D01*
X142864389Y-119169720D02*
X153778552Y-119169720D01*
X135615000Y-104475000D02*
X140400000Y-99690000D01*
X111220000Y-92850000D02*
X120480000Y-92850000D01*
D10*
%TO.N,GND2*%
X108920000Y-64780000D02*
X159460000Y-64780000D01*
X171930000Y-52310000D02*
X171930000Y-50950000D01*
D28*
X103650000Y-80010000D02*
X98420000Y-74780000D01*
X118230000Y-74780000D02*
X118990000Y-74020000D01*
X108920000Y-74780000D02*
X118230000Y-74780000D01*
D10*
X159460000Y-64780000D02*
X171930000Y-52310000D01*
D28*
X110370000Y-69200000D02*
X115950000Y-74780000D01*
X98420000Y-87550000D02*
X98420000Y-74780000D01*
X103650000Y-80190000D02*
X103650000Y-80010000D01*
X115950000Y-74780000D02*
X118230000Y-74780000D01*
X101220000Y-90350000D02*
X98420000Y-87550000D01*
%TO.N,GNDA*%
X171900000Y-91860000D02*
X162400000Y-91860000D01*
X148260000Y-77670000D02*
X144520000Y-77670000D01*
X149515000Y-78925000D02*
X149230000Y-78640000D01*
X140470000Y-106875837D02*
X147814136Y-114219973D01*
X162400000Y-91860000D02*
X155935000Y-85395000D01*
X151570000Y-81030000D02*
X154530000Y-83990000D01*
X162400000Y-110548272D02*
X162400000Y-91860000D01*
X155935000Y-85395000D02*
X154530000Y-83990000D01*
X151570000Y-80980000D02*
X151570000Y-81030000D01*
X147814136Y-114219973D02*
X158728299Y-114219973D01*
X149515000Y-78925000D02*
X150120000Y-79530000D01*
X144520000Y-77670000D02*
X142090000Y-80100000D01*
X149230000Y-78640000D02*
X148260000Y-77670000D01*
X150120000Y-79530000D02*
X151570000Y-80980000D01*
X158728299Y-114219973D02*
X162400000Y-110548272D01*
%TO.N,Net-(D3-K)*%
X131190000Y-78300000D02*
X126960000Y-74070000D01*
X134340000Y-72220000D02*
X148260000Y-72220000D01*
X131190000Y-80100000D02*
X131190000Y-78300000D01*
X131190000Y-75370000D02*
X133930000Y-72630000D01*
X131190000Y-78300000D02*
X131190000Y-75370000D01*
X133930000Y-72630000D02*
X134340000Y-72220000D01*
D10*
%TO.N,Net-(U3-DQ)*%
X149610000Y-62140000D02*
X149610000Y-60450000D01*
X138420000Y-54570000D02*
X134800000Y-50950000D01*
X143730000Y-54570000D02*
X138420000Y-54570000D01*
X149610000Y-60450000D02*
X143730000Y-54570000D01*
%TD*%
%TA.AperFunction,Conductor*%
%TO.N,GND*%
G36*
X145099565Y-65100185D02*
G01*
X145145320Y-65152989D01*
X145155264Y-65222147D01*
X145146422Y-65253527D01*
X145137338Y-65274628D01*
X145132335Y-68685703D01*
X145112552Y-68752713D01*
X145093483Y-68775664D01*
X144136003Y-69680087D01*
X144073751Y-69711812D01*
X144050973Y-69713944D01*
X134363557Y-69723180D01*
X134296499Y-69703559D01*
X134269198Y-69679769D01*
X133263084Y-68503221D01*
X115331769Y-68500010D01*
X115264733Y-68480313D01*
X115234599Y-68453015D01*
X112721838Y-65281505D01*
X112695635Y-65216734D01*
X112708609Y-65148080D01*
X112756641Y-65097338D01*
X112819030Y-65080500D01*
X145032526Y-65080500D01*
X145099565Y-65100185D01*
G37*
%TD.AperFunction*%
%TA.AperFunction,Conductor*%
G36*
X150287298Y-48080185D02*
G01*
X150307909Y-48096788D01*
X151453653Y-49241785D01*
X151487158Y-49303096D01*
X151490000Y-49329494D01*
X151490000Y-54212313D01*
X152531584Y-55255191D01*
X155024763Y-55258289D01*
X155091778Y-55278057D01*
X155112344Y-55294661D01*
X157313737Y-57498791D01*
X157347183Y-57560133D01*
X157350000Y-57586416D01*
X157350000Y-62275120D01*
X157330315Y-62342159D01*
X157314342Y-62362135D01*
X155564547Y-64138605D01*
X155503479Y-64172553D01*
X155476051Y-64175590D01*
X146307331Y-64164174D01*
X146010986Y-64445440D01*
X145948810Y-64477313D01*
X145925623Y-64479500D01*
X137853214Y-64479500D01*
X137786175Y-64459815D01*
X137740420Y-64407011D01*
X137730476Y-64337853D01*
X137759501Y-64274297D01*
X137818279Y-64236523D01*
X137821120Y-64235725D01*
X137934413Y-64205368D01*
X137934412Y-64205368D01*
X137934417Y-64205367D01*
X138287298Y-64076929D01*
X138627642Y-63918224D01*
X138952858Y-63730460D01*
X139260473Y-63515066D01*
X139548144Y-63273682D01*
X139813682Y-63008144D01*
X140055066Y-62720473D01*
X140270460Y-62412858D01*
X140458224Y-62087642D01*
X140616929Y-61747298D01*
X140745367Y-61394417D01*
X140842561Y-61031685D01*
X140907771Y-60661863D01*
X140940500Y-60287764D01*
X140940500Y-59912236D01*
X140907771Y-59538137D01*
X140842561Y-59168315D01*
X140745367Y-58805583D01*
X140703037Y-58689282D01*
X140616931Y-58452706D01*
X140458228Y-58112366D01*
X140458220Y-58112351D01*
X140326491Y-57884191D01*
X140270460Y-57787142D01*
X140270452Y-57787131D01*
X140270448Y-57787124D01*
X140055065Y-57479525D01*
X139914048Y-57311468D01*
X139813682Y-57191856D01*
X139548144Y-56926318D01*
X139402936Y-56804474D01*
X139260474Y-56684934D01*
X138952875Y-56469551D01*
X138952864Y-56469544D01*
X138952858Y-56469540D01*
X138811513Y-56387934D01*
X138627648Y-56281779D01*
X138627633Y-56281771D01*
X138287293Y-56123068D01*
X138008528Y-56021607D01*
X137951969Y-56001021D01*
X137895706Y-55959596D01*
X137870770Y-55894327D01*
X137885080Y-55825939D01*
X137934091Y-55776143D01*
X137994380Y-55760500D01*
X141484167Y-55760500D01*
X141551206Y-55780185D01*
X141571848Y-55796819D01*
X147578181Y-61803152D01*
X147611666Y-61864475D01*
X147614500Y-61890833D01*
X147614500Y-62436455D01*
X147614500Y-62436457D01*
X147614499Y-62436457D01*
X147642379Y-62576614D01*
X147642381Y-62576620D01*
X147697069Y-62708650D01*
X147697074Y-62708659D01*
X147776467Y-62827478D01*
X147776470Y-62827482D01*
X147877517Y-62928529D01*
X147877521Y-62928532D01*
X147996340Y-63007925D01*
X147996349Y-63007930D01*
X148026258Y-63020318D01*
X148128380Y-63062619D01*
X148128384Y-63062619D01*
X148128385Y-63062620D01*
X148268542Y-63090500D01*
X148268545Y-63090500D01*
X148411457Y-63090500D01*
X148509250Y-63071047D01*
X148551620Y-63062619D01*
X148683653Y-63007929D01*
X148802479Y-62928532D01*
X148826778Y-62904233D01*
X148887319Y-62843693D01*
X148948642Y-62810208D01*
X149018334Y-62815192D01*
X149062681Y-62843693D01*
X149147517Y-62928529D01*
X149147521Y-62928532D01*
X149266340Y-63007925D01*
X149266349Y-63007930D01*
X149296258Y-63020318D01*
X149398380Y-63062619D01*
X149398384Y-63062619D01*
X149398385Y-63062620D01*
X149538542Y-63090500D01*
X149538545Y-63090500D01*
X149681457Y-63090500D01*
X149779250Y-63071047D01*
X149848841Y-63077274D01*
X149904019Y-63120136D01*
X149911040Y-63131280D01*
X149997809Y-63247187D01*
X149997812Y-63247190D01*
X150112906Y-63333350D01*
X150112913Y-63333354D01*
X150247620Y-63383596D01*
X150247627Y-63383598D01*
X150307155Y-63389999D01*
X150307172Y-63390000D01*
X150630000Y-63390000D01*
X150630000Y-62420330D01*
X150649745Y-62440075D01*
X150735255Y-62489444D01*
X150830630Y-62515000D01*
X150929370Y-62515000D01*
X151024745Y-62489444D01*
X151110255Y-62440075D01*
X151130000Y-62420330D01*
X151130000Y-63390000D01*
X151452828Y-63390000D01*
X151452844Y-63389999D01*
X151512372Y-63383598D01*
X151512379Y-63383596D01*
X151647086Y-63333354D01*
X151647093Y-63333350D01*
X151762187Y-63247190D01*
X151762190Y-63247187D01*
X151848350Y-63132093D01*
X151848354Y-63132086D01*
X151898596Y-62997379D01*
X151898598Y-62997372D01*
X151904999Y-62937844D01*
X151905000Y-62937827D01*
X151905000Y-62390000D01*
X151160330Y-62390000D01*
X151180075Y-62370255D01*
X151229444Y-62284745D01*
X151255000Y-62189370D01*
X151255000Y-62090630D01*
X151229444Y-61995255D01*
X151180075Y-61909745D01*
X151160330Y-61890000D01*
X151905000Y-61890000D01*
X151905000Y-61342172D01*
X151904999Y-61342155D01*
X151898598Y-61282627D01*
X151898596Y-61282620D01*
X151848354Y-61147913D01*
X151848350Y-61147906D01*
X151762190Y-61032812D01*
X151762187Y-61032809D01*
X151647093Y-60946649D01*
X151647086Y-60946645D01*
X151512379Y-60896403D01*
X151512372Y-60896401D01*
X151452844Y-60890000D01*
X151130000Y-60890000D01*
X151130000Y-61859670D01*
X151110255Y-61839925D01*
X151024745Y-61790556D01*
X150929370Y-61765000D01*
X150830630Y-61765000D01*
X150735255Y-61790556D01*
X150649745Y-61839925D01*
X150630000Y-61859670D01*
X150630000Y-60890000D01*
X150307155Y-60890000D01*
X150247627Y-60896401D01*
X150247620Y-60896403D01*
X150112913Y-60946645D01*
X150112907Y-60946648D01*
X150108809Y-60949717D01*
X150043345Y-60974133D01*
X149975072Y-60959280D01*
X149925667Y-60909875D01*
X149910500Y-60850449D01*
X149910500Y-60410440D01*
X149910500Y-60410438D01*
X149890022Y-60334012D01*
X149850460Y-60265489D01*
X143914511Y-54329540D01*
X143914509Y-54329539D01*
X143914504Y-54329535D01*
X143845995Y-54289982D01*
X143845990Y-54289979D01*
X143820513Y-54283152D01*
X143769562Y-54269500D01*
X143769560Y-54269500D01*
X138595833Y-54269500D01*
X138528794Y-54249815D01*
X138508152Y-54233181D01*
X135861819Y-51586848D01*
X135828334Y-51525525D01*
X135825500Y-51499167D01*
X135825500Y-50848992D01*
X141974500Y-50848992D01*
X141974500Y-51051007D01*
X142013907Y-51249119D01*
X142013909Y-51249127D01*
X142091212Y-51435752D01*
X142091217Y-51435762D01*
X142203441Y-51603718D01*
X142346281Y-51746558D01*
X142514237Y-51858782D01*
X142514241Y-51858784D01*
X142514244Y-51858786D01*
X142700873Y-51936091D01*
X142840519Y-51963868D01*
X142898992Y-51975499D01*
X142898996Y-51975500D01*
X142898997Y-51975500D01*
X143101004Y-51975500D01*
X143101005Y-51975499D01*
X143299127Y-51936091D01*
X143485756Y-51858786D01*
X143653718Y-51746558D01*
X143796558Y-51603718D01*
X143908786Y-51435756D01*
X143986091Y-51249127D01*
X144025500Y-51051003D01*
X144025500Y-50848997D01*
X144025499Y-50848992D01*
X144514500Y-50848992D01*
X144514500Y-51051007D01*
X144553907Y-51249119D01*
X144553909Y-51249127D01*
X144631212Y-51435752D01*
X144631217Y-51435762D01*
X144743441Y-51603718D01*
X144886281Y-51746558D01*
X145054237Y-51858782D01*
X145054241Y-51858784D01*
X145054244Y-51858786D01*
X145240873Y-51936091D01*
X145380519Y-51963868D01*
X145438992Y-51975499D01*
X145438996Y-51975500D01*
X145438997Y-51975500D01*
X145641004Y-51975500D01*
X145641005Y-51975499D01*
X145839127Y-51936091D01*
X146025756Y-51858786D01*
X146193718Y-51746558D01*
X146336558Y-51603718D01*
X146448786Y-51435756D01*
X146516439Y-51272427D01*
X146560280Y-51218025D01*
X146626574Y-51195960D01*
X146694274Y-51213239D01*
X146741884Y-51264377D01*
X146755000Y-51319881D01*
X146755000Y-51822844D01*
X146761401Y-51882372D01*
X146761403Y-51882379D01*
X146811645Y-52017086D01*
X146811649Y-52017093D01*
X146897809Y-52132187D01*
X146897812Y-52132190D01*
X147012906Y-52218350D01*
X147012913Y-52218354D01*
X147147620Y-52268596D01*
X147147627Y-52268598D01*
X147207155Y-52274999D01*
X147207172Y-52275000D01*
X147830000Y-52275000D01*
X147830000Y-51440747D01*
X147867708Y-51462518D01*
X148007591Y-51500000D01*
X148152409Y-51500000D01*
X148292292Y-51462518D01*
X148330000Y-51440747D01*
X148330000Y-52275000D01*
X148952828Y-52275000D01*
X148952844Y-52274999D01*
X149012372Y-52268598D01*
X149012379Y-52268596D01*
X149147086Y-52218354D01*
X149147093Y-52218350D01*
X149262187Y-52132190D01*
X149262190Y-52132187D01*
X149348350Y-52017093D01*
X149348354Y-52017086D01*
X149398596Y-51882379D01*
X149398598Y-51882372D01*
X149404999Y-51822844D01*
X149405000Y-51822827D01*
X149405000Y-51200000D01*
X148570748Y-51200000D01*
X148592518Y-51162292D01*
X148630000Y-51022409D01*
X148630000Y-50877591D01*
X148592518Y-50737708D01*
X148570748Y-50700000D01*
X149405000Y-50700000D01*
X149405000Y-50077172D01*
X149404999Y-50077155D01*
X149398598Y-50017627D01*
X149398596Y-50017620D01*
X149348354Y-49882913D01*
X149348350Y-49882906D01*
X149262190Y-49767812D01*
X149262187Y-49767809D01*
X149147093Y-49681649D01*
X149147086Y-49681645D01*
X149012379Y-49631403D01*
X149012372Y-49631401D01*
X148952844Y-49625000D01*
X148330000Y-49625000D01*
X148330000Y-50459252D01*
X148292292Y-50437482D01*
X148152409Y-50400000D01*
X148007591Y-50400000D01*
X147867708Y-50437482D01*
X147830000Y-50459252D01*
X147830000Y-49625000D01*
X147207155Y-49625000D01*
X147147627Y-49631401D01*
X147147620Y-49631403D01*
X147012913Y-49681645D01*
X147012906Y-49681649D01*
X146897812Y-49767809D01*
X146897809Y-49767812D01*
X146811649Y-49882906D01*
X146811645Y-49882913D01*
X146761403Y-50017620D01*
X146761401Y-50017627D01*
X146755000Y-50077155D01*
X146755000Y-50580118D01*
X146735315Y-50647157D01*
X146682511Y-50692912D01*
X146613353Y-50702856D01*
X146549797Y-50673831D01*
X146516439Y-50627571D01*
X146479355Y-50538044D01*
X146448786Y-50464244D01*
X146448784Y-50464241D01*
X146448782Y-50464237D01*
X146336558Y-50296281D01*
X146193718Y-50153441D01*
X146025762Y-50041217D01*
X146025752Y-50041212D01*
X145839127Y-49963909D01*
X145839119Y-49963907D01*
X145641007Y-49924500D01*
X145641003Y-49924500D01*
X145438997Y-49924500D01*
X145438992Y-49924500D01*
X145240880Y-49963907D01*
X145240872Y-49963909D01*
X145054247Y-50041212D01*
X145054237Y-50041217D01*
X144886281Y-50153441D01*
X144743441Y-50296281D01*
X144631217Y-50464237D01*
X144631212Y-50464247D01*
X144553909Y-50650872D01*
X144553907Y-50650880D01*
X144514500Y-50848992D01*
X144025499Y-50848992D01*
X143986091Y-50650873D01*
X143908786Y-50464244D01*
X143908784Y-50464241D01*
X143908782Y-50464237D01*
X143796558Y-50296281D01*
X143653718Y-50153441D01*
X143485762Y-50041217D01*
X143485752Y-50041212D01*
X143299127Y-49963909D01*
X143299119Y-49963907D01*
X143101007Y-49924500D01*
X143101003Y-49924500D01*
X142898997Y-49924500D01*
X142898992Y-49924500D01*
X142700880Y-49963907D01*
X142700872Y-49963909D01*
X142514247Y-50041212D01*
X142514237Y-50041217D01*
X142346281Y-50153441D01*
X142203441Y-50296281D01*
X142091217Y-50464237D01*
X142091212Y-50464247D01*
X142013909Y-50650872D01*
X142013907Y-50650880D01*
X141974500Y-50848992D01*
X135825500Y-50848992D01*
X135825500Y-50105249D01*
X135825499Y-50105247D01*
X135813868Y-50046770D01*
X135813867Y-50046769D01*
X135769552Y-49980447D01*
X135703230Y-49936132D01*
X135703229Y-49936131D01*
X135644752Y-49924500D01*
X135644748Y-49924500D01*
X133955252Y-49924500D01*
X133955247Y-49924500D01*
X133896770Y-49936131D01*
X133896769Y-49936132D01*
X133830447Y-49980447D01*
X133786132Y-50046769D01*
X133786131Y-50046770D01*
X133774500Y-50105247D01*
X133774500Y-51740167D01*
X133754815Y-51807206D01*
X133702011Y-51852961D01*
X133632853Y-51862905D01*
X133569297Y-51833880D01*
X133562819Y-51827848D01*
X133227941Y-51492970D01*
X133194456Y-51431647D01*
X133199440Y-51361955D01*
X133201045Y-51357874D01*
X133246091Y-51249127D01*
X133285500Y-51051003D01*
X133285500Y-50848997D01*
X133246091Y-50650873D01*
X133168786Y-50464244D01*
X133168784Y-50464241D01*
X133168782Y-50464237D01*
X133056558Y-50296281D01*
X132913718Y-50153441D01*
X132745762Y-50041217D01*
X132745752Y-50041212D01*
X132559127Y-49963909D01*
X132559119Y-49963907D01*
X132361007Y-49924500D01*
X132361003Y-49924500D01*
X132158997Y-49924500D01*
X132158992Y-49924500D01*
X131960880Y-49963907D01*
X131960868Y-49963910D01*
X131852162Y-50008938D01*
X131782693Y-50016407D01*
X131720214Y-49985132D01*
X131717029Y-49982058D01*
X131004512Y-49269541D01*
X131004504Y-49269535D01*
X130935995Y-49229982D01*
X130935990Y-49229979D01*
X130910513Y-49223152D01*
X130859562Y-49209500D01*
X122999562Y-49209500D01*
X122920438Y-49209500D01*
X122844010Y-49229978D01*
X122775489Y-49269540D01*
X122775486Y-49269542D01*
X122156848Y-49888181D01*
X122095525Y-49921666D01*
X122069167Y-49924500D01*
X120675247Y-49924500D01*
X120616770Y-49936131D01*
X120616769Y-49936132D01*
X120550447Y-49980447D01*
X120506132Y-50046769D01*
X120506131Y-50046770D01*
X120494500Y-50105247D01*
X120494500Y-50540455D01*
X120474815Y-50607494D01*
X120422011Y-50653249D01*
X120352853Y-50663193D01*
X120289297Y-50634168D01*
X120252569Y-50578774D01*
X120207924Y-50441372D01*
X120113244Y-50255556D01*
X120113236Y-50255543D01*
X120077372Y-50206180D01*
X120077371Y-50206179D01*
X119503787Y-50779764D01*
X119492518Y-50737708D01*
X119420110Y-50612292D01*
X119317708Y-50509890D01*
X119192292Y-50437482D01*
X119150233Y-50426212D01*
X119723819Y-49852627D01*
X119674451Y-49816759D01*
X119488627Y-49722075D01*
X119290272Y-49657626D01*
X119084279Y-49625000D01*
X118875721Y-49625000D01*
X118669727Y-49657626D01*
X118471372Y-49722075D01*
X118285552Y-49816757D01*
X118236180Y-49852627D01*
X118809766Y-50426212D01*
X118767708Y-50437482D01*
X118642292Y-50509890D01*
X118539890Y-50612292D01*
X118467482Y-50737708D01*
X118456212Y-50779765D01*
X117882627Y-50206180D01*
X117846757Y-50255552D01*
X117752075Y-50441372D01*
X117687626Y-50639725D01*
X117679332Y-50692089D01*
X117649401Y-50755223D01*
X117590089Y-50792153D01*
X117520227Y-50791155D01*
X117461995Y-50752544D01*
X117435242Y-50696881D01*
X117426091Y-50650873D01*
X117348786Y-50464244D01*
X117348784Y-50464241D01*
X117348782Y-50464237D01*
X117236558Y-50296281D01*
X117093718Y-50153441D01*
X116925762Y-50041217D01*
X116925752Y-50041212D01*
X116861136Y-50014447D01*
X116739127Y-49963909D01*
X116739119Y-49963907D01*
X116541007Y-49924500D01*
X116541003Y-49924500D01*
X116338997Y-49924500D01*
X116338992Y-49924500D01*
X116140880Y-49963907D01*
X116140872Y-49963909D01*
X115954247Y-50041212D01*
X115954237Y-50041217D01*
X115786281Y-50153441D01*
X115643441Y-50296281D01*
X115531217Y-50464237D01*
X115531212Y-50464247D01*
X115453909Y-50650872D01*
X115453907Y-50650880D01*
X115414500Y-50848992D01*
X115414500Y-51051007D01*
X115453907Y-51249119D01*
X115453909Y-51249127D01*
X115531212Y-51435752D01*
X115531217Y-51435762D01*
X115643441Y-51603718D01*
X115786281Y-51746558D01*
X115954237Y-51858782D01*
X115954241Y-51858784D01*
X115954244Y-51858786D01*
X116140873Y-51936091D01*
X116280519Y-51963868D01*
X116338992Y-51975499D01*
X116338996Y-51975500D01*
X116338997Y-51975500D01*
X116541004Y-51975500D01*
X116541005Y-51975499D01*
X116739127Y-51936091D01*
X116925756Y-51858786D01*
X117093718Y-51746558D01*
X117236558Y-51603718D01*
X117348786Y-51435756D01*
X117426091Y-51249127D01*
X117435242Y-51203117D01*
X117467625Y-51141210D01*
X117528340Y-51106634D01*
X117598110Y-51110372D01*
X117654782Y-51151238D01*
X117679332Y-51207910D01*
X117687626Y-51260274D01*
X117752075Y-51458627D01*
X117846759Y-51644451D01*
X117882627Y-51693818D01*
X117882627Y-51693819D01*
X118456212Y-51120234D01*
X118467482Y-51162292D01*
X118539890Y-51287708D01*
X118642292Y-51390110D01*
X118767708Y-51462518D01*
X118809765Y-51473787D01*
X118236179Y-52047371D01*
X118236180Y-52047372D01*
X118285543Y-52083236D01*
X118285556Y-52083244D01*
X118471372Y-52177924D01*
X118669727Y-52242373D01*
X118875721Y-52275000D01*
X119084279Y-52275000D01*
X119290272Y-52242373D01*
X119488627Y-52177924D01*
X119674451Y-52083240D01*
X119723818Y-52047372D01*
X119723818Y-52047371D01*
X119150234Y-51473787D01*
X119192292Y-51462518D01*
X119317708Y-51390110D01*
X119420110Y-51287708D01*
X119492518Y-51162292D01*
X119503787Y-51120234D01*
X120077371Y-51693818D01*
X120077372Y-51693818D01*
X120113240Y-51644451D01*
X120207924Y-51458625D01*
X120252569Y-51321226D01*
X120292007Y-51263550D01*
X120356365Y-51236352D01*
X120425212Y-51248267D01*
X120476687Y-51295511D01*
X120494500Y-51359544D01*
X120494500Y-51794752D01*
X120506131Y-51853229D01*
X120506132Y-51853230D01*
X120550447Y-51919552D01*
X120616769Y-51963867D01*
X120616770Y-51963868D01*
X120675247Y-51975499D01*
X120675250Y-51975500D01*
X120675252Y-51975500D01*
X122364750Y-51975500D01*
X122364751Y-51975499D01*
X122379568Y-51972552D01*
X122423229Y-51963868D01*
X122423229Y-51963867D01*
X122423231Y-51963867D01*
X122489552Y-51919552D01*
X122533867Y-51853231D01*
X122533867Y-51853229D01*
X122533868Y-51853229D01*
X122545499Y-51794752D01*
X122545500Y-51794750D01*
X122545500Y-50400833D01*
X122565185Y-50333794D01*
X122581819Y-50313152D01*
X123048152Y-49846819D01*
X123109475Y-49813334D01*
X123135833Y-49810500D01*
X128882691Y-49810500D01*
X128949730Y-49830185D01*
X128970372Y-49846819D01*
X129549766Y-50426212D01*
X129507708Y-50437482D01*
X129382292Y-50509890D01*
X129279890Y-50612292D01*
X129207482Y-50737708D01*
X129196212Y-50779765D01*
X128622627Y-50206180D01*
X128586757Y-50255552D01*
X128492075Y-50441372D01*
X128427626Y-50639727D01*
X128395000Y-50845720D01*
X128395000Y-51054279D01*
X128427626Y-51260272D01*
X128492075Y-51458627D01*
X128586759Y-51644451D01*
X128622627Y-51693818D01*
X128622627Y-51693819D01*
X129196212Y-51120234D01*
X129207482Y-51162292D01*
X129279890Y-51287708D01*
X129382292Y-51390110D01*
X129507708Y-51462518D01*
X129549765Y-51473787D01*
X128976179Y-52047371D01*
X128976180Y-52047372D01*
X129025543Y-52083236D01*
X129025556Y-52083244D01*
X129211372Y-52177924D01*
X129409727Y-52242373D01*
X129615721Y-52275000D01*
X129824279Y-52275000D01*
X130030272Y-52242373D01*
X130228627Y-52177924D01*
X130414451Y-52083240D01*
X130463818Y-52047372D01*
X130463818Y-52047371D01*
X129890234Y-51473787D01*
X129932292Y-51462518D01*
X130057708Y-51390110D01*
X130160110Y-51287708D01*
X130232518Y-51162292D01*
X130243787Y-51120233D01*
X130817371Y-51693818D01*
X130817372Y-51693818D01*
X130853240Y-51644451D01*
X130947924Y-51458627D01*
X131012373Y-51260273D01*
X131020667Y-51207912D01*
X131050596Y-51144778D01*
X131109907Y-51107846D01*
X131179770Y-51108844D01*
X131238003Y-51147453D01*
X131264757Y-51203119D01*
X131273907Y-51249119D01*
X131273909Y-51249127D01*
X131351212Y-51435752D01*
X131351217Y-51435762D01*
X131463441Y-51603718D01*
X131606281Y-51746558D01*
X131774237Y-51858782D01*
X131774241Y-51858784D01*
X131774244Y-51858786D01*
X131960873Y-51936091D01*
X132100519Y-51963868D01*
X132158992Y-51975499D01*
X132158996Y-51975500D01*
X132158997Y-51975500D01*
X132361004Y-51975500D01*
X132361005Y-51975499D01*
X132559127Y-51936091D01*
X132667837Y-51891060D01*
X132737305Y-51883592D01*
X132799784Y-51914866D01*
X132802970Y-51917941D01*
X136477808Y-55592779D01*
X136511293Y-55654102D01*
X136506309Y-55723794D01*
X136464437Y-55779727D01*
X136400934Y-55803988D01*
X136078134Y-55832229D01*
X135708320Y-55897438D01*
X135708317Y-55897438D01*
X135708315Y-55897439D01*
X135708310Y-55897440D01*
X135708307Y-55897441D01*
X135345589Y-55994630D01*
X134992706Y-56123068D01*
X134652366Y-56281771D01*
X134652351Y-56281779D01*
X134327150Y-56469535D01*
X134327124Y-56469551D01*
X134019525Y-56684934D01*
X133731853Y-56926320D01*
X133466320Y-57191853D01*
X133224934Y-57479525D01*
X133009551Y-57787124D01*
X133009535Y-57787150D01*
X132821779Y-58112351D01*
X132821771Y-58112366D01*
X132663068Y-58452706D01*
X132534630Y-58805589D01*
X132437441Y-59168307D01*
X132437438Y-59168320D01*
X132372229Y-59538134D01*
X132339500Y-59912232D01*
X132339500Y-60287767D01*
X132372229Y-60661865D01*
X132437438Y-61031679D01*
X132437441Y-61031692D01*
X132534630Y-61394410D01*
X132663068Y-61747293D01*
X132821771Y-62087633D01*
X132821776Y-62087642D01*
X133009540Y-62412858D01*
X133009544Y-62412864D01*
X133009551Y-62412875D01*
X133224934Y-62720474D01*
X133387304Y-62913979D01*
X133466318Y-63008144D01*
X133731856Y-63273682D01*
X133802966Y-63333350D01*
X134019525Y-63515065D01*
X134327124Y-63730448D01*
X134327131Y-63730452D01*
X134327142Y-63730460D01*
X134631930Y-63906429D01*
X134652351Y-63918220D01*
X134652366Y-63918228D01*
X134992706Y-64076931D01*
X135345586Y-64205368D01*
X135458880Y-64235725D01*
X135518540Y-64272090D01*
X135549069Y-64334937D01*
X135540774Y-64404313D01*
X135496289Y-64458191D01*
X135429737Y-64479465D01*
X135426786Y-64479500D01*
X112146373Y-64479500D01*
X112079334Y-64459815D01*
X112049181Y-64432504D01*
X109745105Y-61524388D01*
X109718902Y-61459618D01*
X109718297Y-61447369D01*
X109718298Y-61441348D01*
X109719628Y-50794314D01*
X109739321Y-50727279D01*
X109755918Y-50706679D01*
X112364318Y-48096843D01*
X112425632Y-48063341D01*
X112452023Y-48060500D01*
X150220259Y-48060500D01*
X150287298Y-48080185D01*
G37*
%TD.AperFunction*%
%TA.AperFunction,Conductor*%
G36*
X135416206Y-51995185D02*
G01*
X135436848Y-52011819D01*
X138179540Y-54754511D01*
X138235489Y-54810460D01*
X138235491Y-54810461D01*
X138235495Y-54810464D01*
X138304004Y-54850017D01*
X138304011Y-54850021D01*
X138380438Y-54870500D01*
X143554167Y-54870500D01*
X143621206Y-54890185D01*
X143641848Y-54906819D01*
X149273181Y-60538152D01*
X149306666Y-60599475D01*
X149309500Y-60625833D01*
X149309500Y-61176957D01*
X149289815Y-61243996D01*
X149254391Y-61280059D01*
X149147521Y-61351467D01*
X149147517Y-61351470D01*
X149062681Y-61436307D01*
X149001358Y-61469792D01*
X148931666Y-61464808D01*
X148887319Y-61436307D01*
X148802482Y-61351470D01*
X148802478Y-61351467D01*
X148683659Y-61272074D01*
X148683650Y-61272069D01*
X148551620Y-61217381D01*
X148551614Y-61217379D01*
X148411457Y-61189500D01*
X148411455Y-61189500D01*
X148268545Y-61189500D01*
X148268543Y-61189500D01*
X148128385Y-61217379D01*
X148128375Y-61217382D01*
X148002673Y-61269449D01*
X147933203Y-61276918D01*
X147870724Y-61245642D01*
X147867540Y-61242569D01*
X141844512Y-55219541D01*
X141844504Y-55219535D01*
X141775995Y-55179982D01*
X141775990Y-55179979D01*
X141750513Y-55173152D01*
X141699562Y-55159500D01*
X141699560Y-55159500D01*
X136945833Y-55159500D01*
X136878794Y-55139815D01*
X136858152Y-55123181D01*
X133922152Y-52187181D01*
X133888667Y-52125858D01*
X133893651Y-52056166D01*
X133935523Y-52000233D01*
X134000987Y-51975816D01*
X134009833Y-51975500D01*
X135349167Y-51975500D01*
X135416206Y-51995185D01*
G37*
%TD.AperFunction*%
%TD*%
%TA.AperFunction,Conductor*%
%TO.N,GNDA*%
G36*
X168169334Y-56598151D02*
G01*
X168225267Y-56640023D01*
X168249684Y-56705487D01*
X168250000Y-56714333D01*
X168250000Y-57000107D01*
X168230315Y-57067146D01*
X168214995Y-57086455D01*
X166860000Y-58482994D01*
X166860000Y-68102228D01*
X166840315Y-68169267D01*
X166787511Y-68215022D01*
X166778412Y-68218749D01*
X166702705Y-68246304D01*
X166702684Y-68246313D01*
X166362367Y-68405006D01*
X166362351Y-68405014D01*
X166037150Y-68592770D01*
X166037124Y-68592786D01*
X165729525Y-68808169D01*
X165441853Y-69049555D01*
X165176320Y-69315088D01*
X164934934Y-69602760D01*
X164719551Y-69910359D01*
X164719535Y-69910385D01*
X164531779Y-70235586D01*
X164531771Y-70235601D01*
X164373068Y-70575941D01*
X164244630Y-70928824D01*
X164147441Y-71291542D01*
X164147438Y-71291555D01*
X164082229Y-71661369D01*
X164049500Y-72035467D01*
X164049500Y-72411002D01*
X164082229Y-72785100D01*
X164147438Y-73154914D01*
X164147441Y-73154927D01*
X164244630Y-73517645D01*
X164373068Y-73870528D01*
X164531771Y-74210868D01*
X164531776Y-74210877D01*
X164719540Y-74536093D01*
X164719544Y-74536099D01*
X164719551Y-74536110D01*
X164934934Y-74843709D01*
X165109407Y-75051637D01*
X165176318Y-75131379D01*
X165441856Y-75396917D01*
X165549240Y-75487023D01*
X165729525Y-75638300D01*
X166037124Y-75853683D01*
X166037131Y-75853687D01*
X166037142Y-75853695D01*
X166277928Y-75992713D01*
X166362351Y-76041455D01*
X166362366Y-76041463D01*
X166702706Y-76200166D01*
X166702712Y-76200168D01*
X166778409Y-76227719D01*
X166834674Y-76269144D01*
X166859610Y-76334413D01*
X166860000Y-76344241D01*
X166860000Y-79971578D01*
X166840315Y-80038617D01*
X166823660Y-80059280D01*
X165219297Y-81662878D01*
X165157966Y-81696348D01*
X165131578Y-81699176D01*
X148314399Y-81691160D01*
X148247369Y-81671443D01*
X148226756Y-81654820D01*
X145916298Y-79343260D01*
X145901608Y-79316343D01*
X145885023Y-79290535D01*
X145884128Y-79284311D01*
X145882828Y-79281929D01*
X145880000Y-79255600D01*
X145880000Y-77554144D01*
X146492500Y-77554144D01*
X146492500Y-77785855D01*
X146522743Y-78015560D01*
X146582710Y-78239362D01*
X146582713Y-78239372D01*
X146671374Y-78453418D01*
X146671376Y-78453422D01*
X146787225Y-78654076D01*
X146845900Y-78730544D01*
X147509710Y-78066734D01*
X147511170Y-78070258D01*
X147603645Y-78208656D01*
X147721344Y-78326355D01*
X147859742Y-78418830D01*
X147863264Y-78420288D01*
X147199454Y-79084098D01*
X147199454Y-79084099D01*
X147275913Y-79142768D01*
X147275923Y-79142774D01*
X147476577Y-79258623D01*
X147476581Y-79258625D01*
X147690627Y-79347286D01*
X147690637Y-79347289D01*
X147914439Y-79407256D01*
X148144144Y-79437499D01*
X148144159Y-79437500D01*
X148375841Y-79437500D01*
X148375855Y-79437499D01*
X148605560Y-79407256D01*
X148829362Y-79347289D01*
X148829372Y-79347286D01*
X149043418Y-79258625D01*
X149043422Y-79258623D01*
X149244076Y-79142774D01*
X149244077Y-79142773D01*
X149320544Y-79084098D01*
X148656735Y-78420289D01*
X148660258Y-78418830D01*
X148798656Y-78326355D01*
X148916355Y-78208656D01*
X149008830Y-78070258D01*
X149010289Y-78066735D01*
X149674098Y-78730544D01*
X149732773Y-78654077D01*
X149732774Y-78654076D01*
X149848623Y-78453422D01*
X149848625Y-78453418D01*
X149937286Y-78239372D01*
X149937289Y-78239362D01*
X149997256Y-78015560D01*
X150027499Y-77785855D01*
X150027500Y-77785841D01*
X150027500Y-77554158D01*
X150027499Y-77554144D01*
X149997256Y-77324439D01*
X149937289Y-77100637D01*
X149937286Y-77100627D01*
X149848625Y-76886581D01*
X149848623Y-76886577D01*
X149732774Y-76685923D01*
X149732768Y-76685913D01*
X149674099Y-76609454D01*
X149674098Y-76609454D01*
X149010288Y-77273263D01*
X149008830Y-77269742D01*
X148916355Y-77131344D01*
X148798656Y-77013645D01*
X148660258Y-76921170D01*
X148656735Y-76919710D01*
X149320544Y-76255900D01*
X149320544Y-76255899D01*
X149244076Y-76197225D01*
X149043422Y-76081376D01*
X149043418Y-76081374D01*
X148829372Y-75992713D01*
X148829362Y-75992710D01*
X148605560Y-75932743D01*
X148375855Y-75902500D01*
X148144144Y-75902500D01*
X147914439Y-75932743D01*
X147690637Y-75992710D01*
X147690627Y-75992713D01*
X147476581Y-76081374D01*
X147476570Y-76081379D01*
X147275931Y-76197219D01*
X147275916Y-76197229D01*
X147199454Y-76255900D01*
X147863264Y-76919710D01*
X147859742Y-76921170D01*
X147721344Y-77013645D01*
X147603645Y-77131344D01*
X147511170Y-77269742D01*
X147509710Y-77273264D01*
X146845900Y-76609454D01*
X146787229Y-76685916D01*
X146787219Y-76685931D01*
X146671379Y-76886570D01*
X146671374Y-76886581D01*
X146582713Y-77100627D01*
X146582710Y-77100637D01*
X146522743Y-77324439D01*
X146492500Y-77554144D01*
X145880000Y-77554144D01*
X145880000Y-77169169D01*
X145899685Y-77102130D01*
X145916319Y-77081488D01*
X147471488Y-75526319D01*
X147532811Y-75492834D01*
X147559169Y-75490000D01*
X149179475Y-75490000D01*
X150140000Y-74647693D01*
X150140000Y-70795000D01*
X148965000Y-69620000D01*
X146556881Y-69620000D01*
X146489842Y-69600315D01*
X146464735Y-69578976D01*
X145987999Y-69049555D01*
X145641854Y-68665156D01*
X145611621Y-68602166D01*
X145610000Y-68582180D01*
X145610000Y-65562216D01*
X145629685Y-65495177D01*
X145650539Y-65470508D01*
X145999463Y-65152989D01*
X146043639Y-65112789D01*
X146106470Y-65082227D01*
X146127096Y-65080500D01*
X146854404Y-65080500D01*
X146921443Y-65100185D01*
X146967198Y-65152989D01*
X146977142Y-65222147D01*
X146948117Y-65285703D01*
X146923295Y-65307602D01*
X146847947Y-65357947D01*
X146803632Y-65424269D01*
X146803631Y-65424270D01*
X146792000Y-65482747D01*
X146792000Y-68057252D01*
X146803631Y-68115729D01*
X146803632Y-68115730D01*
X146847947Y-68182052D01*
X146914269Y-68226367D01*
X146914270Y-68226368D01*
X146972747Y-68237999D01*
X146972750Y-68238000D01*
X146972752Y-68238000D01*
X149547250Y-68238000D01*
X149547251Y-68237999D01*
X149562068Y-68235052D01*
X149605729Y-68226368D01*
X149605729Y-68226367D01*
X149605731Y-68226367D01*
X149672052Y-68182052D01*
X149716367Y-68115731D01*
X149716367Y-68115729D01*
X149716368Y-68115729D01*
X149727999Y-68057252D01*
X149728000Y-68057250D01*
X149728000Y-65482749D01*
X149727999Y-65482747D01*
X149716368Y-65424270D01*
X149716367Y-65424269D01*
X149672052Y-65357947D01*
X149596705Y-65307602D01*
X149551900Y-65253990D01*
X149543193Y-65184665D01*
X149573348Y-65121637D01*
X149632791Y-65084918D01*
X149665596Y-65080500D01*
X159499560Y-65080500D01*
X159499562Y-65080500D01*
X159575989Y-65060021D01*
X159644511Y-65020460D01*
X159700460Y-64964511D01*
X168038319Y-56626652D01*
X168099642Y-56593167D01*
X168169334Y-56598151D01*
G37*
%TD.AperFunction*%
%TA.AperFunction,Conductor*%
G36*
X165483755Y-48080185D02*
G01*
X165504192Y-48096614D01*
X166143460Y-48732898D01*
X166177088Y-48794143D01*
X166179983Y-48820204D01*
X166193259Y-51658782D01*
X166200000Y-53100000D01*
X168208838Y-54903443D01*
X168245573Y-54962874D01*
X168250000Y-54995713D01*
X168250000Y-55513667D01*
X168230315Y-55580706D01*
X168213681Y-55601348D01*
X159371848Y-64443181D01*
X159310525Y-64476666D01*
X159284167Y-64479500D01*
X156229184Y-64479500D01*
X156162145Y-64459815D01*
X156116390Y-64407011D01*
X156106446Y-64337853D01*
X156135471Y-64274297D01*
X156140024Y-64269323D01*
X157810000Y-62541540D01*
X157810000Y-57341775D01*
X155320207Y-54800000D01*
X152741413Y-54800000D01*
X152674374Y-54780315D01*
X152653732Y-54763681D01*
X151896319Y-54006268D01*
X151862834Y-53944945D01*
X151860000Y-53918587D01*
X151860000Y-50645720D01*
X152315000Y-50645720D01*
X152315000Y-50854279D01*
X152347626Y-51060272D01*
X152412075Y-51258627D01*
X152506759Y-51444451D01*
X152542627Y-51493818D01*
X152542627Y-51493819D01*
X153116212Y-50920234D01*
X153127482Y-50962292D01*
X153199890Y-51087708D01*
X153302292Y-51190110D01*
X153427708Y-51262518D01*
X153469765Y-51273787D01*
X152896179Y-51847371D01*
X152896180Y-51847372D01*
X152945543Y-51883236D01*
X152945556Y-51883244D01*
X153131372Y-51977924D01*
X153329727Y-52042373D01*
X153535721Y-52075000D01*
X153744279Y-52075000D01*
X153950272Y-52042373D01*
X154148627Y-51977924D01*
X154334451Y-51883240D01*
X154383818Y-51847372D01*
X154383818Y-51847371D01*
X153810234Y-51273787D01*
X153852292Y-51262518D01*
X153977708Y-51190110D01*
X154080110Y-51087708D01*
X154152518Y-50962292D01*
X154163787Y-50920234D01*
X154737371Y-51493818D01*
X154737372Y-51493818D01*
X154773240Y-51444451D01*
X154867924Y-51258627D01*
X154932373Y-51060273D01*
X154940667Y-51007912D01*
X154970596Y-50944778D01*
X155029907Y-50907846D01*
X155099770Y-50908844D01*
X155158003Y-50947453D01*
X155184757Y-51003119D01*
X155193907Y-51049119D01*
X155193909Y-51049127D01*
X155271212Y-51235752D01*
X155271217Y-51235762D01*
X155383441Y-51403718D01*
X155526281Y-51546558D01*
X155694237Y-51658782D01*
X155694241Y-51658784D01*
X155694244Y-51658786D01*
X155880873Y-51736091D01*
X156078992Y-51775499D01*
X156078996Y-51775500D01*
X156078997Y-51775500D01*
X156281004Y-51775500D01*
X156281005Y-51775499D01*
X156479127Y-51736091D01*
X156665756Y-51658786D01*
X156833718Y-51546558D01*
X156976558Y-51403718D01*
X157088786Y-51235756D01*
X157166091Y-51049127D01*
X157205500Y-50851003D01*
X157205500Y-50648997D01*
X157166091Y-50450873D01*
X157088786Y-50264244D01*
X157088784Y-50264241D01*
X157088782Y-50264237D01*
X156976558Y-50096281D01*
X156833718Y-49953441D01*
X156665762Y-49841217D01*
X156665752Y-49841212D01*
X156479127Y-49763909D01*
X156479119Y-49763907D01*
X156281007Y-49724500D01*
X156281003Y-49724500D01*
X156078997Y-49724500D01*
X156078992Y-49724500D01*
X155880880Y-49763907D01*
X155880872Y-49763909D01*
X155694247Y-49841212D01*
X155694237Y-49841217D01*
X155526281Y-49953441D01*
X155383441Y-50096281D01*
X155271217Y-50264237D01*
X155271212Y-50264247D01*
X155193909Y-50450872D01*
X155193907Y-50450878D01*
X155184757Y-50496881D01*
X155152372Y-50558791D01*
X155091656Y-50593366D01*
X155021887Y-50589626D01*
X154965215Y-50548759D01*
X154940667Y-50492087D01*
X154932373Y-50439727D01*
X154867924Y-50241372D01*
X154773244Y-50055556D01*
X154773236Y-50055543D01*
X154737372Y-50006180D01*
X154737371Y-50006179D01*
X154163787Y-50579764D01*
X154152518Y-50537708D01*
X154080110Y-50412292D01*
X153977708Y-50309890D01*
X153852292Y-50237482D01*
X153810233Y-50226212D01*
X154383819Y-49652627D01*
X154334451Y-49616759D01*
X154148627Y-49522075D01*
X153950272Y-49457626D01*
X153744279Y-49425000D01*
X153535721Y-49425000D01*
X153329727Y-49457626D01*
X153131372Y-49522075D01*
X152945552Y-49616757D01*
X152896180Y-49652627D01*
X153469766Y-50226212D01*
X153427708Y-50237482D01*
X153302292Y-50309890D01*
X153199890Y-50412292D01*
X153127482Y-50537708D01*
X153116212Y-50579765D01*
X152542627Y-50006180D01*
X152506757Y-50055552D01*
X152412075Y-50241372D01*
X152347626Y-50439727D01*
X152315000Y-50645720D01*
X151860000Y-50645720D01*
X151860000Y-49296580D01*
X151879685Y-49229541D01*
X151892151Y-49213275D01*
X152900783Y-48101195D01*
X152960402Y-48064762D01*
X152992632Y-48060500D01*
X165416716Y-48060500D01*
X165483755Y-48080185D01*
G37*
%TD.AperFunction*%
%TD*%
M02*
