%TF.GenerationSoftware,KiCad,Pcbnew,9.0.5*%
%TF.CreationDate,2026-06-18T12:13:14+02:00*%
%TF.ProjectId,DynoPower_v2,44796e6f-506f-4776-9572-5f76322e6b69,rev?*%
%TF.SameCoordinates,Original*%
%TF.FileFunction,Soldermask,Top*%
%TF.FilePolarity,Negative*%
%FSLAX46Y46*%
G04 Gerber Fmt 4.6, Leading zero omitted, Abs format (unit mm)*
G04 Created by KiCad (PCBNEW 9.0.5) date 2026-06-18 12:13:14*
%MOMM*%
%LPD*%
G01*
G04 APERTURE LIST*
G04 Aperture macros list*
%AMRoundRect*
0 Rectangle with rounded corners*
0 $1 Rounding radius*
0 $2 $3 $4 $5 $6 $7 $8 $9 X,Y pos of 4 corners*
0 Add a 4 corners polygon primitive as box body*
4,1,4,$2,$3,$4,$5,$6,$7,$8,$9,$2,$3,0*
0 Add four circle primitives for the rounded corners*
1,1,$1+$1,$2,$3*
1,1,$1+$1,$4,$5*
1,1,$1+$1,$6,$7*
1,1,$1+$1,$8,$9*
0 Add four rect primitives between the rounded corners*
20,1,$1+$1,$2,$3,$4,$5,0*
20,1,$1+$1,$4,$5,$6,$7,0*
20,1,$1+$1,$6,$7,$8,$9,0*
20,1,$1+$1,$8,$9,$2,$3,0*%
%AMFreePoly0*
4,1,23,0.500000,-0.750000,0.000000,-0.750000,0.000000,-0.745722,-0.065263,-0.745722,-0.191342,-0.711940,-0.304381,-0.646677,-0.396677,-0.554381,-0.461940,-0.441342,-0.495722,-0.315263,-0.495722,-0.250000,-0.500000,-0.250000,-0.500000,0.250000,-0.495722,0.250000,-0.495722,0.315263,-0.461940,0.441342,-0.396677,0.554381,-0.304381,0.646677,-0.191342,0.711940,-0.065263,0.745722,0.000000,0.745722,
0.000000,0.750000,0.500000,0.750000,0.500000,-0.750000,0.500000,-0.750000,$1*%
%AMFreePoly1*
4,1,23,0.000000,0.745722,0.065263,0.745722,0.191342,0.711940,0.304381,0.646677,0.396677,0.554381,0.461940,0.441342,0.495722,0.315263,0.495722,0.250000,0.500000,0.250000,0.500000,-0.250000,0.495722,-0.250000,0.495722,-0.315263,0.461940,-0.441342,0.396677,-0.554381,0.304381,-0.646677,0.191342,-0.711940,0.065263,-0.745722,0.000000,-0.745722,0.000000,-0.750000,-0.500000,-0.750000,
-0.500000,0.750000,0.000000,0.750000,0.000000,0.745722,0.000000,0.745722,$1*%
G04 Aperture macros list end*
%ADD10C,0.200000*%
%ADD11R,1.875000X1.875000*%
%ADD12C,1.875000*%
%ADD13R,1.650000X1.650000*%
%ADD14C,1.650000*%
%ADD15RoundRect,0.250000X-0.312500X-0.625000X0.312500X-0.625000X0.312500X0.625000X-0.312500X0.625000X0*%
%ADD16C,0.900000*%
%ADD17C,8.000000*%
%ADD18RoundRect,0.250000X0.312500X0.625000X-0.312500X0.625000X-0.312500X-0.625000X0.312500X-0.625000X0*%
%ADD19C,3.000000*%
%ADD20RoundRect,0.250000X0.325000X0.450000X-0.325000X0.450000X-0.325000X-0.450000X0.325000X-0.450000X0*%
%ADD21R,2.715000X2.715000*%
%ADD22C,2.715000*%
%ADD23RoundRect,0.237500X-0.300000X-0.237500X0.300000X-0.237500X0.300000X0.237500X-0.300000X0.237500X0*%
%ADD24RoundRect,0.249999X0.450001X1.425001X-0.450001X1.425001X-0.450001X-1.425001X0.450001X-1.425001X0*%
%ADD25RoundRect,0.250000X0.400000X0.625000X-0.400000X0.625000X-0.400000X-0.625000X0.400000X-0.625000X0*%
%ADD26FreePoly0,0.000000*%
%ADD27FreePoly1,0.000000*%
%ADD28RoundRect,0.250000X-0.625000X0.312500X-0.625000X-0.312500X0.625000X-0.312500X0.625000X0.312500X0*%
%ADD29FreePoly0,180.000000*%
%ADD30FreePoly1,180.000000*%
%ADD31RoundRect,0.250000X0.625000X-0.312500X0.625000X0.312500X-0.625000X0.312500X-0.625000X-0.312500X0*%
%ADD32RoundRect,0.250000X-0.625000X0.400000X-0.625000X-0.400000X0.625000X-0.400000X0.625000X0.400000X0*%
%ADD33RoundRect,0.250000X-0.400000X-0.625000X0.400000X-0.625000X0.400000X0.625000X-0.400000X0.625000X0*%
%ADD34RoundRect,0.250000X0.325000X0.650000X-0.325000X0.650000X-0.325000X-0.650000X0.325000X-0.650000X0*%
%ADD35RoundRect,0.249999X-0.450001X-1.425001X0.450001X-1.425001X0.450001X1.425001X-0.450001X1.425001X0*%
%ADD36C,3.300000*%
%ADD37RoundRect,0.250000X-0.650000X0.412500X-0.650000X-0.412500X0.650000X-0.412500X0.650000X0.412500X0*%
%ADD38RoundRect,0.250000X-0.412500X-0.650000X0.412500X-0.650000X0.412500X0.650000X-0.412500X0.650000X0*%
%ADD39C,2.500000*%
%ADD40RoundRect,0.250000X-0.325000X-0.650000X0.325000X-0.650000X0.325000X0.650000X-0.325000X0.650000X0*%
%ADD41R,2.535000X2.535000*%
%ADD42C,2.535000*%
%ADD43R,0.500000X1.600000*%
%ADD44R,0.900000X0.600000*%
%ADD45R,1.800000X1.700000*%
%ADD46R,1.850000X0.650000*%
%ADD47RoundRect,0.250000X0.300000X-0.300000X0.300000X0.300000X-0.300000X0.300000X-0.300000X-0.300000X0*%
%ADD48RoundRect,0.225000X0.225000X0.375000X-0.225000X0.375000X-0.225000X-0.375000X0.225000X-0.375000X0*%
%ADD49RoundRect,0.250000X-0.325000X-0.450000X0.325000X-0.450000X0.325000X0.450000X-0.325000X0.450000X0*%
%ADD50RoundRect,0.750000X0.750000X-0.750000X0.750000X0.750000X-0.750000X0.750000X-0.750000X-0.750000X0*%
%ADD51RoundRect,0.249999X1.425001X-0.450001X1.425001X0.450001X-1.425001X0.450001X-1.425001X-0.450001X0*%
%ADD52R,1.050000X1.500000*%
%ADD53O,1.050000X1.500000*%
%ADD54C,3.000000*%
G04 APERTURE END LIST*
D10*
X124970000Y-107890000D02*
X124970000Y-118510000D01*
X98420000Y-118660000D01*
X98420000Y-105360000D01*
X108920000Y-105360000D01*
X124970000Y-107890000D01*
G36*
X124970000Y-107890000D02*
G01*
X124970000Y-118510000D01*
X98420000Y-118660000D01*
X98420000Y-105360000D01*
X108920000Y-105360000D01*
X124970000Y-107890000D01*
G37*
X122490000Y-70990000D02*
X120040000Y-74930000D01*
X118080000Y-72960000D01*
X120690000Y-70990000D01*
X120690000Y-69290000D01*
X122490000Y-69290000D01*
X122490000Y-70990000D01*
G36*
X122490000Y-70990000D02*
G01*
X120040000Y-74930000D01*
X118080000Y-72960000D01*
X120690000Y-70990000D01*
X120690000Y-69290000D01*
X122490000Y-69290000D01*
X122490000Y-70990000D01*
G37*
X110570000Y-64780000D02*
X110570000Y-74780000D01*
X108920000Y-76430000D01*
X98420000Y-76430000D01*
X96770000Y-74780000D01*
X96770000Y-64780000D01*
X98420000Y-63130000D01*
X108920000Y-63130000D01*
X110570000Y-64780000D01*
G36*
X110570000Y-64780000D02*
G01*
X110570000Y-74780000D01*
X108920000Y-76430000D01*
X98420000Y-76430000D01*
X96770000Y-74780000D01*
X96770000Y-64780000D01*
X98420000Y-63130000D01*
X108920000Y-63130000D01*
X110570000Y-64780000D01*
G37*
X190370000Y-89360000D02*
X190370000Y-99360000D01*
X188720000Y-101010000D01*
X178220000Y-101010000D01*
X171900000Y-100610000D01*
X171900000Y-98110000D01*
X176570000Y-89360000D01*
X178220000Y-87710000D01*
X188720000Y-87710000D01*
X190370000Y-89360000D01*
G36*
X190370000Y-89360000D02*
G01*
X190370000Y-99360000D01*
X188720000Y-101010000D01*
X178220000Y-101010000D01*
X171900000Y-100610000D01*
X171900000Y-98110000D01*
X176570000Y-89360000D01*
X178220000Y-87710000D01*
X188720000Y-87710000D01*
X190370000Y-89360000D01*
G37*
X125509111Y-70990000D02*
X127969111Y-73100000D01*
X129369111Y-75820000D01*
X125800000Y-74850000D01*
X123709111Y-70990000D01*
X123709111Y-69290000D01*
X125509111Y-69290000D01*
X125509111Y-70990000D01*
G36*
X125509111Y-70990000D02*
G01*
X127969111Y-73100000D01*
X129369111Y-75820000D01*
X125800000Y-74850000D01*
X123709111Y-70990000D01*
X123709111Y-69290000D01*
X125509111Y-69290000D01*
X125509111Y-70990000D01*
G37*
X190370000Y-106860000D02*
X190370000Y-116860000D01*
X188720000Y-118510000D01*
X178220000Y-118510000D01*
X176570000Y-116860000D01*
X171900000Y-108110000D01*
X171900000Y-105610000D01*
X178220000Y-105210000D01*
X188720000Y-105210000D01*
X190370000Y-106860000D01*
G36*
X190370000Y-106860000D02*
G01*
X190370000Y-116860000D01*
X188720000Y-118510000D01*
X178220000Y-118510000D01*
X176570000Y-116860000D01*
X171900000Y-108110000D01*
X171900000Y-105610000D01*
X178220000Y-105210000D01*
X188720000Y-105210000D01*
X190370000Y-106860000D01*
G37*
%TO.C,JP5*%
G36*
X185980000Y-73238750D02*
G01*
X186280000Y-73238750D01*
X186280000Y-74738750D01*
X185980000Y-74738750D01*
X185980000Y-73238750D01*
G37*
%TO.C,JP1*%
G36*
X181117500Y-67578750D02*
G01*
X180817500Y-67578750D01*
X180817500Y-66078750D01*
X181117500Y-66078750D01*
X181117500Y-67578750D01*
G37*
%TO.C,JP6*%
G36*
X186280000Y-82538750D02*
G01*
X185980000Y-82538750D01*
X185980000Y-81038750D01*
X186280000Y-81038750D01*
X186280000Y-82538750D01*
G37*
%TO.C,JP4*%
G36*
X180817500Y-73238750D02*
G01*
X181117500Y-73238750D01*
X181117500Y-74738750D01*
X180817500Y-74738750D01*
X180817500Y-73238750D01*
G37*
%TO.C,JP7*%
G36*
X181117500Y-82538750D02*
G01*
X180817500Y-82538750D01*
X180817500Y-81038750D01*
X181117500Y-81038750D01*
X181117500Y-82538750D01*
G37*
%TO.C,JP8*%
G36*
X175847500Y-82538750D02*
G01*
X175547500Y-82538750D01*
X175547500Y-81038750D01*
X175847500Y-81038750D01*
X175847500Y-82538750D01*
G37*
%TO.C,JP2*%
G36*
X175847500Y-67578750D02*
G01*
X175547500Y-67578750D01*
X175547500Y-66078750D01*
X175847500Y-66078750D01*
X175847500Y-67578750D01*
G37*
%TO.C,JP3*%
G36*
X175547500Y-73238750D02*
G01*
X175847500Y-73238750D01*
X175847500Y-74738750D01*
X175547500Y-74738750D01*
X175547500Y-73238750D01*
G37*
%TD*%
D11*
%TO.C,RV1*%
X101220000Y-90350000D03*
D12*
X111220000Y-92850000D03*
%TD*%
D13*
%TO.C,J3*%
X134800000Y-50950000D03*
D14*
X132260000Y-50950000D03*
X129720000Y-50950000D03*
%TD*%
D15*
%TO.C,R14*%
X179505000Y-85628750D03*
X182430000Y-85628750D03*
%TD*%
D13*
%TO.C,J2*%
X121520000Y-50950000D03*
D14*
X118980000Y-50950000D03*
X116440000Y-50950000D03*
%TD*%
D16*
%TO.C,REF\u002A\u002A*%
X96150000Y-52550000D03*
X97028680Y-50428680D03*
X97028680Y-54671320D03*
X99150000Y-49550000D03*
D17*
X99150000Y-52550000D03*
D16*
X99150000Y-55550000D03*
X101271320Y-50428680D03*
X101271320Y-54671320D03*
X102150000Y-52550000D03*
%TD*%
D18*
%TO.C,R6*%
X174947500Y-57160000D03*
X172022500Y-57160000D03*
%TD*%
D16*
%TO.C,REF\u002A\u002A*%
X186150000Y-52550000D03*
X187028680Y-50428680D03*
X187028680Y-54671320D03*
X189150000Y-49550000D03*
D17*
X189150000Y-52550000D03*
D16*
X189150000Y-55550000D03*
X191271320Y-50428680D03*
X191271320Y-54671320D03*
X192150000Y-52550000D03*
%TD*%
D19*
%TO.C,C10*%
X135520253Y-111825584D03*
X140470000Y-106875837D03*
%TD*%
D15*
%TO.C,R15*%
X174235000Y-85628750D03*
X177160000Y-85628750D03*
%TD*%
D20*
%TO.C,D7*%
X141100000Y-75600000D03*
X139050000Y-75600000D03*
%TD*%
D21*
%TO.C,D3*%
X142090000Y-80100000D03*
D22*
X131190000Y-80100000D03*
%TD*%
D18*
%TO.C,R10*%
X121490000Y-61010000D03*
X118565000Y-61010000D03*
%TD*%
%TO.C,R8*%
X177160000Y-78018750D03*
X174235000Y-78018750D03*
%TD*%
D23*
%TO.C,C14*%
X152285000Y-74060000D03*
X154010000Y-74060000D03*
%TD*%
D24*
%TO.C,R24*%
X135530000Y-92120000D03*
X129430000Y-92120000D03*
%TD*%
D25*
%TO.C,R28*%
X155497500Y-76310000D03*
X152397500Y-76310000D03*
%TD*%
D26*
%TO.C,JP5*%
X185480000Y-73988750D03*
D27*
X186780000Y-73988750D03*
%TD*%
D24*
%TO.C,R26*%
X162860000Y-71310000D03*
X156760000Y-71310000D03*
%TD*%
D28*
%TO.C,R4*%
X177530000Y-57905000D03*
X177530000Y-60830000D03*
%TD*%
D29*
%TO.C,JP1*%
X181617500Y-66828750D03*
D30*
X180317500Y-66828750D03*
%TD*%
D15*
%TO.C,R7*%
X174235000Y-70228750D03*
X177160000Y-70228750D03*
%TD*%
D31*
%TO.C,R16*%
X124690000Y-58505000D03*
X124690000Y-55580000D03*
%TD*%
D32*
%TO.C,R20*%
X143163333Y-56392500D03*
X143163333Y-59492500D03*
%TD*%
D33*
%TO.C,R18*%
X159090000Y-56080000D03*
X162190000Y-56080000D03*
%TD*%
D34*
%TO.C,C4*%
X121502500Y-57530000D03*
X118552500Y-57530000D03*
%TD*%
D18*
%TO.C,R12*%
X187592500Y-78018750D03*
X184667500Y-78018750D03*
%TD*%
D35*
%TO.C,R22*%
X129430000Y-97430000D03*
X135530000Y-97430000D03*
%TD*%
D29*
%TO.C,JP6*%
X186780000Y-81788750D03*
D30*
X185480000Y-81788750D03*
%TD*%
D36*
%TO.C,U5*%
X178220000Y-99360000D03*
X188720000Y-99360000D03*
X188720000Y-89360000D03*
X178220000Y-89360000D03*
%TD*%
D16*
%TO.C,REF\u002A\u002A*%
X96150000Y-126050000D03*
X97028680Y-123928680D03*
X97028680Y-128171320D03*
X99150000Y-123050000D03*
D17*
X99150000Y-126050000D03*
D16*
X99150000Y-129050000D03*
X101271320Y-123928680D03*
X101271320Y-128171320D03*
X102150000Y-126050000D03*
%TD*%
D19*
%TO.C,C9*%
X140400000Y-91860000D03*
X162400000Y-91860000D03*
%TD*%
D36*
%TO.C,U1*%
X98420000Y-117010000D03*
X108920000Y-117010000D03*
X108920000Y-107010000D03*
X98420000Y-107010000D03*
%TD*%
%TO.C,U2*%
X98420000Y-74780000D03*
X108920000Y-74780000D03*
X108920000Y-64780000D03*
X98420000Y-64780000D03*
%TD*%
D37*
%TO.C,C8*%
X143160000Y-64105000D03*
X143160000Y-67230000D03*
%TD*%
D38*
%TO.C,C5*%
X155640000Y-79660000D03*
X158765000Y-79660000D03*
%TD*%
D35*
%TO.C,R25*%
X129430000Y-86810000D03*
X135530000Y-86810000D03*
%TD*%
D26*
%TO.C,JP4*%
X180317500Y-73988750D03*
D27*
X181617500Y-73988750D03*
%TD*%
D18*
%TO.C,R9*%
X182430000Y-78018750D03*
X179505000Y-78018750D03*
%TD*%
D31*
%TO.C,R3*%
X181250000Y-60830000D03*
X181250000Y-57905000D03*
%TD*%
D29*
%TO.C,JP7*%
X181617500Y-81788750D03*
D30*
X180317500Y-81788750D03*
%TD*%
D32*
%TO.C,R17*%
X140210000Y-64150000D03*
X140210000Y-67250000D03*
%TD*%
D20*
%TO.C,D4*%
X131742500Y-57640000D03*
X129692500Y-57640000D03*
%TD*%
D37*
%TO.C,C7*%
X149170000Y-56380000D03*
X149170000Y-59505000D03*
%TD*%
D39*
%TO.C,BR1*%
X171900000Y-116860000D03*
X171900000Y-106860000D03*
X171900000Y-99360000D03*
X171900000Y-91860000D03*
%TD*%
D40*
%TO.C,C2*%
X113510000Y-57480000D03*
X116460000Y-57480000D03*
%TD*%
D34*
%TO.C,C1*%
X174960000Y-60840000D03*
X172010000Y-60840000D03*
%TD*%
D14*
%TO.C,J4*%
X180580000Y-50950000D03*
X178040000Y-50950000D03*
%TD*%
D29*
%TO.C,JP8*%
X176347500Y-81788750D03*
D30*
X175047500Y-81788750D03*
%TD*%
D41*
%TO.C,Q1*%
X148260000Y-66770000D03*
D42*
X148260000Y-72220000D03*
X148260000Y-77670000D03*
%TD*%
D43*
%TO.C,IC1*%
X124690000Y-65290000D03*
X123090000Y-65290000D03*
X121490000Y-65290000D03*
D44*
X120290000Y-67790000D03*
D45*
X121590000Y-70140000D03*
X124590000Y-70140000D03*
D44*
X125890000Y-67790000D03*
%TD*%
D24*
%TO.C,R27*%
X157790000Y-66790000D03*
X151690000Y-66790000D03*
%TD*%
D38*
%TO.C,C12*%
X160597500Y-49660000D03*
X163722500Y-49660000D03*
%TD*%
D46*
%TO.C,IC2*%
X153975000Y-59125000D03*
X153975000Y-60395000D03*
X153975000Y-61665000D03*
X153975000Y-62935000D03*
X164625000Y-62935000D03*
X164625000Y-61665000D03*
X164625000Y-60395000D03*
X164625000Y-59125000D03*
%TD*%
D14*
%TO.C,J5*%
X156180000Y-50750000D03*
X153640000Y-50750000D03*
%TD*%
D38*
%TO.C,C13*%
X160597500Y-53010000D03*
X163722500Y-53010000D03*
%TD*%
D37*
%TO.C,C6*%
X146156667Y-56380000D03*
X146156667Y-59505000D03*
%TD*%
D13*
%TO.C,J6*%
X148080000Y-50950000D03*
D14*
X145540000Y-50950000D03*
X143000000Y-50950000D03*
%TD*%
D15*
%TO.C,R13*%
X184667500Y-85628750D03*
X187592500Y-85628750D03*
%TD*%
D47*
%TO.C,D1*%
X169590000Y-61150000D03*
X169590000Y-58350000D03*
%TD*%
D31*
%TO.C,R1*%
X185647500Y-70228750D03*
X185647500Y-67303750D03*
%TD*%
D40*
%TO.C,C3*%
X126660000Y-61520000D03*
X129610000Y-61520000D03*
%TD*%
D29*
%TO.C,JP2*%
X176347500Y-66828750D03*
D30*
X175047500Y-66828750D03*
%TD*%
D31*
%TO.C,R2*%
X185647500Y-65068750D03*
X185647500Y-62143750D03*
%TD*%
D20*
%TO.C,D6*%
X166560000Y-56080000D03*
X164510000Y-56080000D03*
%TD*%
D48*
%TO.C,D8*%
X154440000Y-70530000D03*
X151140000Y-70530000D03*
%TD*%
D36*
%TO.C,U4*%
X178220000Y-116860000D03*
X188720000Y-116860000D03*
X188720000Y-106860000D03*
X178220000Y-106860000D03*
%TD*%
D16*
%TO.C,REF\u002A\u002A*%
X186150000Y-126050000D03*
X187028680Y-123928680D03*
X187028680Y-128171320D03*
X189150000Y-123050000D03*
D17*
X189150000Y-126050000D03*
D16*
X189150000Y-129050000D03*
X191271320Y-123928680D03*
X191271320Y-128171320D03*
X192150000Y-126050000D03*
%TD*%
D49*
%TO.C,D5*%
X135200000Y-67250000D03*
X137250000Y-67250000D03*
%TD*%
D25*
%TO.C,R19*%
X164260000Y-79700000D03*
X161160000Y-79700000D03*
%TD*%
D50*
%TO.C,F1*%
X123470000Y-117010000D03*
X123470000Y-109390000D03*
D19*
X123470000Y-90420000D03*
X123470000Y-82800000D03*
%TD*%
D15*
%TO.C,R5*%
X179505000Y-70228750D03*
X182430000Y-70228750D03*
%TD*%
D14*
%TO.C,J1*%
X171930000Y-50950000D03*
X169390000Y-50950000D03*
%TD*%
D21*
%TO.C,D2*%
X103650000Y-80190000D03*
D22*
X114550000Y-80190000D03*
%TD*%
D51*
%TO.C,R23*%
X135550000Y-83350000D03*
X135550000Y-77250000D03*
%TD*%
D19*
%TO.C,C11*%
X153778552Y-119169720D03*
X158728299Y-114219973D03*
%TD*%
D26*
%TO.C,JP3*%
X175047500Y-73988750D03*
D27*
X176347500Y-73988750D03*
%TD*%
D52*
%TO.C,U3*%
X150880000Y-62140000D03*
D53*
X149610000Y-62140000D03*
X148340000Y-62140000D03*
%TD*%
D54*
X120860000Y-80190000D02*
X121895000Y-81225000D01*
X116940000Y-80190000D02*
X118520000Y-80190000D01*
X123470000Y-99775331D02*
X135520253Y-111825584D01*
X135520253Y-104569747D02*
X139565000Y-100525000D01*
X123470000Y-90420000D02*
X123470000Y-82800000D01*
X169590280Y-119169720D02*
X171900000Y-116860000D01*
X121040000Y-92850000D02*
X123470000Y-90420000D01*
X139565000Y-100525000D02*
X140400000Y-99690000D01*
X135520253Y-111825584D02*
X135520253Y-104569747D01*
X153778552Y-119169720D02*
X169590280Y-119169720D01*
X135520253Y-111825584D02*
X142864389Y-119169720D01*
X121895000Y-81225000D02*
X123470000Y-82800000D01*
X140400000Y-99690000D02*
X140400000Y-91860000D01*
X123470000Y-90420000D02*
X123470000Y-99775331D01*
X120400000Y-80190000D02*
X120860000Y-80190000D01*
X118520000Y-80190000D02*
X120400000Y-80190000D01*
X114550000Y-80190000D02*
X116940000Y-80190000D01*
X142864389Y-119169720D02*
X153778552Y-119169720D01*
X111220000Y-92850000D02*
X121040000Y-92850000D01*
X115950000Y-74780000D02*
X118230000Y-74780000D01*
X102270000Y-78630000D02*
X101310000Y-77670000D01*
X110370000Y-69200000D02*
X115950000Y-74780000D01*
X101310000Y-77670000D02*
X100240000Y-76600000D01*
X101220000Y-90350000D02*
X98420000Y-87550000D01*
X98420000Y-87550000D02*
X98420000Y-74780000D01*
X103650000Y-80010000D02*
X102270000Y-78630000D01*
X108920000Y-74780000D02*
X118230000Y-74780000D01*
X118230000Y-74780000D02*
X118990000Y-74020000D01*
X100240000Y-76600000D02*
X98420000Y-74780000D01*
X162400000Y-110548272D02*
X158728299Y-114219973D01*
X171900000Y-91860000D02*
X162400000Y-91860000D01*
X158728299Y-114219973D02*
X147814136Y-114219973D01*
X147814136Y-114219973D02*
X140470000Y-106875837D01*
X162400000Y-91860000D02*
X154530000Y-83990000D01*
X154475000Y-83885000D02*
X153140000Y-82550000D01*
X146320000Y-77670000D02*
X144570000Y-77670000D01*
X148260000Y-77670000D02*
X146320000Y-77670000D01*
X162400000Y-91860000D02*
X162400000Y-110548272D01*
X144520000Y-77670000D02*
X143340000Y-78850000D01*
X143340000Y-78850000D02*
X142090000Y-80100000D01*
X153140000Y-82550000D02*
X148260000Y-77670000D01*
X98420000Y-107010000D02*
X98420000Y-117010000D01*
X134330000Y-72220000D02*
X136130000Y-72220000D01*
X130520000Y-77630000D02*
X129905000Y-77015000D01*
X129905000Y-77015000D02*
X129770000Y-76880000D01*
X131190000Y-78620000D02*
X131190000Y-78300000D01*
X128045000Y-75155000D02*
X126960000Y-74070000D01*
X129770000Y-76880000D02*
X128945000Y-76055000D01*
X132600000Y-73950000D02*
X134330000Y-72220000D01*
X128525000Y-75635000D02*
X128045000Y-75155000D01*
X131190000Y-77250000D02*
X131190000Y-75420000D01*
X131190000Y-75360000D02*
X132600000Y-73950000D01*
X140160000Y-72220000D02*
X142180000Y-72220000D01*
X146090000Y-72220000D02*
X148260000Y-72220000D01*
X138100000Y-72220000D02*
X140160000Y-72220000D01*
X142180000Y-72220000D02*
X144170000Y-72220000D01*
X131190000Y-80100000D02*
X131190000Y-77250000D01*
X136130000Y-72220000D02*
X138100000Y-72220000D01*
X144170000Y-72220000D02*
X146090000Y-72220000D01*
M02*
