%TF.GenerationSoftware,KiCad,Pcbnew,9.0.5*%
%TF.CreationDate,2026-06-18T12:13:14+02:00*%
%TF.ProjectId,DynoPower_v2,44796e6f-506f-4776-9572-5f76322e6b69,rev?*%
%TF.SameCoordinates,Original*%
%TF.FileFunction,Legend,Top*%
%TF.FilePolarity,Positive*%
%FSLAX46Y46*%
G04 Gerber Fmt 4.6, Leading zero omitted, Abs format (unit mm)*
G04 Created by KiCad (PCBNEW 9.0.5) date 2026-06-18 12:13:14*
%MOMM*%
%LPD*%
G01*
G04 APERTURE LIST*
%ADD10C,0.100000*%
%ADD11C,0.254000*%
%ADD12C,0.150000*%
%ADD13C,0.062500*%
%ADD14C,0.200000*%
%ADD15C,0.800000*%
%ADD16C,0.125000*%
%ADD17C,0.120000*%
%ADD18C,0.000000*%
G04 APERTURE END LIST*
D10*
X183577500Y-71758750D02*
X183577500Y-72478750D01*
X183727500Y-68308750D02*
X183727500Y-71348750D01*
X172937500Y-79738750D02*
X172937500Y-86988750D01*
X183577500Y-79738750D02*
X172937500Y-79738750D01*
X172967500Y-79518750D02*
X172967500Y-64228750D01*
X172937500Y-86988750D02*
X190017500Y-86988750D01*
X183577500Y-75638750D02*
X183577500Y-79738750D01*
X188827500Y-60238750D02*
X188827500Y-71338750D01*
X183707500Y-64218750D02*
X172967500Y-64228750D01*
X190017500Y-86988750D02*
X190017500Y-71758750D01*
X190017500Y-71758750D02*
X183577500Y-71758750D01*
X183707500Y-64218750D02*
X183707500Y-65518750D01*
D11*
X148680952Y-104209080D02*
X148862380Y-104269556D01*
X148862380Y-104269556D02*
X148922857Y-104330032D01*
X148922857Y-104330032D02*
X148983333Y-104450984D01*
X148983333Y-104450984D02*
X148983333Y-104632413D01*
X148983333Y-104632413D02*
X148922857Y-104753365D01*
X148922857Y-104753365D02*
X148862380Y-104813842D01*
X148862380Y-104813842D02*
X148741428Y-104874318D01*
X148741428Y-104874318D02*
X148257618Y-104874318D01*
X148257618Y-104874318D02*
X148257618Y-103604318D01*
X148257618Y-103604318D02*
X148680952Y-103604318D01*
X148680952Y-103604318D02*
X148801904Y-103664794D01*
X148801904Y-103664794D02*
X148862380Y-103725270D01*
X148862380Y-103725270D02*
X148922857Y-103846222D01*
X148922857Y-103846222D02*
X148922857Y-103967175D01*
X148922857Y-103967175D02*
X148862380Y-104088127D01*
X148862380Y-104088127D02*
X148801904Y-104148603D01*
X148801904Y-104148603D02*
X148680952Y-104209080D01*
X148680952Y-104209080D02*
X148257618Y-104209080D01*
X150253333Y-104874318D02*
X149829999Y-104269556D01*
X149527618Y-104874318D02*
X149527618Y-103604318D01*
X149527618Y-103604318D02*
X150011428Y-103604318D01*
X150011428Y-103604318D02*
X150132380Y-103664794D01*
X150132380Y-103664794D02*
X150192857Y-103725270D01*
X150192857Y-103725270D02*
X150253333Y-103846222D01*
X150253333Y-103846222D02*
X150253333Y-104027651D01*
X150253333Y-104027651D02*
X150192857Y-104148603D01*
X150192857Y-104148603D02*
X150132380Y-104209080D01*
X150132380Y-104209080D02*
X150011428Y-104269556D01*
X150011428Y-104269556D02*
X149527618Y-104269556D01*
X151462857Y-104874318D02*
X150737142Y-104874318D01*
X151099999Y-104874318D02*
X151099999Y-103604318D01*
X151099999Y-103604318D02*
X150979047Y-103785746D01*
X150979047Y-103785746D02*
X150858095Y-103906699D01*
X150858095Y-103906699D02*
X150737142Y-103967175D01*
D12*
X149875180Y-49725238D02*
X150875180Y-49725238D01*
X150875180Y-49725238D02*
X150875180Y-50106190D01*
X150875180Y-50106190D02*
X150827561Y-50201428D01*
X150827561Y-50201428D02*
X150779942Y-50249047D01*
X150779942Y-50249047D02*
X150684704Y-50296666D01*
X150684704Y-50296666D02*
X150541847Y-50296666D01*
X150541847Y-50296666D02*
X150446609Y-50249047D01*
X150446609Y-50249047D02*
X150398990Y-50201428D01*
X150398990Y-50201428D02*
X150351371Y-50106190D01*
X150351371Y-50106190D02*
X150351371Y-49725238D01*
X150875180Y-50630000D02*
X149875180Y-50868095D01*
X149875180Y-50868095D02*
X150589466Y-51058571D01*
X150589466Y-51058571D02*
X149875180Y-51249047D01*
X149875180Y-51249047D02*
X150875180Y-51487143D01*
X149875180Y-51868095D02*
X150875180Y-51868095D01*
X150875180Y-51868095D02*
X150160895Y-52201428D01*
X150160895Y-52201428D02*
X150875180Y-52534761D01*
X150875180Y-52534761D02*
X149875180Y-52534761D01*
D13*
X129229047Y-54691869D02*
X129181428Y-54668059D01*
X129181428Y-54668059D02*
X129109999Y-54668059D01*
X129109999Y-54668059D02*
X129038571Y-54691869D01*
X129038571Y-54691869D02*
X128990952Y-54739488D01*
X128990952Y-54739488D02*
X128967142Y-54787107D01*
X128967142Y-54787107D02*
X128943333Y-54882345D01*
X128943333Y-54882345D02*
X128943333Y-54953773D01*
X128943333Y-54953773D02*
X128967142Y-55049011D01*
X128967142Y-55049011D02*
X128990952Y-55096630D01*
X128990952Y-55096630D02*
X129038571Y-55144250D01*
X129038571Y-55144250D02*
X129109999Y-55168059D01*
X129109999Y-55168059D02*
X129157618Y-55168059D01*
X129157618Y-55168059D02*
X129229047Y-55144250D01*
X129229047Y-55144250D02*
X129252856Y-55120440D01*
X129252856Y-55120440D02*
X129252856Y-54953773D01*
X129252856Y-54953773D02*
X129157618Y-54953773D01*
X129467142Y-55168059D02*
X129467142Y-54668059D01*
X129467142Y-54668059D02*
X129752856Y-55168059D01*
X129752856Y-55168059D02*
X129752856Y-54668059D01*
X129990952Y-55168059D02*
X129990952Y-54668059D01*
X129990952Y-54668059D02*
X130110000Y-54668059D01*
X130110000Y-54668059D02*
X130181428Y-54691869D01*
X130181428Y-54691869D02*
X130229047Y-54739488D01*
X130229047Y-54739488D02*
X130252857Y-54787107D01*
X130252857Y-54787107D02*
X130276666Y-54882345D01*
X130276666Y-54882345D02*
X130276666Y-54953773D01*
X130276666Y-54953773D02*
X130252857Y-55049011D01*
X130252857Y-55049011D02*
X130229047Y-55096630D01*
X130229047Y-55096630D02*
X130181428Y-55144250D01*
X130181428Y-55144250D02*
X130110000Y-55168059D01*
X130110000Y-55168059D02*
X129990952Y-55168059D01*
X147729047Y-54691869D02*
X147681428Y-54668059D01*
X147681428Y-54668059D02*
X147609999Y-54668059D01*
X147609999Y-54668059D02*
X147538571Y-54691869D01*
X147538571Y-54691869D02*
X147490952Y-54739488D01*
X147490952Y-54739488D02*
X147467142Y-54787107D01*
X147467142Y-54787107D02*
X147443333Y-54882345D01*
X147443333Y-54882345D02*
X147443333Y-54953773D01*
X147443333Y-54953773D02*
X147467142Y-55049011D01*
X147467142Y-55049011D02*
X147490952Y-55096630D01*
X147490952Y-55096630D02*
X147538571Y-55144250D01*
X147538571Y-55144250D02*
X147609999Y-55168059D01*
X147609999Y-55168059D02*
X147657618Y-55168059D01*
X147657618Y-55168059D02*
X147729047Y-55144250D01*
X147729047Y-55144250D02*
X147752856Y-55120440D01*
X147752856Y-55120440D02*
X147752856Y-54953773D01*
X147752856Y-54953773D02*
X147657618Y-54953773D01*
X147967142Y-55168059D02*
X147967142Y-54668059D01*
X147967142Y-54668059D02*
X148252856Y-55168059D01*
X148252856Y-55168059D02*
X148252856Y-54668059D01*
X148490952Y-55168059D02*
X148490952Y-54668059D01*
X148490952Y-54668059D02*
X148610000Y-54668059D01*
X148610000Y-54668059D02*
X148681428Y-54691869D01*
X148681428Y-54691869D02*
X148729047Y-54739488D01*
X148729047Y-54739488D02*
X148752857Y-54787107D01*
X148752857Y-54787107D02*
X148776666Y-54882345D01*
X148776666Y-54882345D02*
X148776666Y-54953773D01*
X148776666Y-54953773D02*
X148752857Y-55049011D01*
X148752857Y-55049011D02*
X148729047Y-55096630D01*
X148729047Y-55096630D02*
X148681428Y-55144250D01*
X148681428Y-55144250D02*
X148610000Y-55168059D01*
X148610000Y-55168059D02*
X148490952Y-55168059D01*
X180406356Y-55032702D02*
X180644451Y-55032702D01*
X180358737Y-55175559D02*
X180525403Y-54675559D01*
X180525403Y-54675559D02*
X180692070Y-55175559D01*
X181144450Y-55127940D02*
X181120641Y-55151750D01*
X181120641Y-55151750D02*
X181049212Y-55175559D01*
X181049212Y-55175559D02*
X181001593Y-55175559D01*
X181001593Y-55175559D02*
X180930165Y-55151750D01*
X180930165Y-55151750D02*
X180882546Y-55104130D01*
X180882546Y-55104130D02*
X180858736Y-55056511D01*
X180858736Y-55056511D02*
X180834927Y-54961273D01*
X180834927Y-54961273D02*
X180834927Y-54889845D01*
X180834927Y-54889845D02*
X180858736Y-54794607D01*
X180858736Y-54794607D02*
X180882546Y-54746988D01*
X180882546Y-54746988D02*
X180930165Y-54699369D01*
X180930165Y-54699369D02*
X181001593Y-54675559D01*
X181001593Y-54675559D02*
X181049212Y-54675559D01*
X181049212Y-54675559D02*
X181120641Y-54699369D01*
X181120641Y-54699369D02*
X181144450Y-54723178D01*
D10*
X190289842Y-64485015D02*
X190337461Y-64532634D01*
X190337461Y-64532634D02*
X190385080Y-64627872D01*
X190385080Y-64627872D02*
X190385080Y-64865967D01*
X190385080Y-64865967D02*
X190337461Y-64961205D01*
X190337461Y-64961205D02*
X190289842Y-65008824D01*
X190289842Y-65008824D02*
X190194604Y-65056443D01*
X190194604Y-65056443D02*
X190099366Y-65056443D01*
X190099366Y-65056443D02*
X189956509Y-65008824D01*
X189956509Y-65008824D02*
X189385080Y-64437396D01*
X189385080Y-64437396D02*
X189385080Y-65056443D01*
X189385080Y-66008824D02*
X189385080Y-65437396D01*
X189385080Y-65723110D02*
X190385080Y-65723110D01*
X190385080Y-65723110D02*
X190242223Y-65627872D01*
X190242223Y-65627872D02*
X190146985Y-65532634D01*
X190146985Y-65532634D02*
X190099366Y-65437396D01*
X190385080Y-66627872D02*
X190385080Y-66723110D01*
X190385080Y-66723110D02*
X190337461Y-66818348D01*
X190337461Y-66818348D02*
X190289842Y-66865967D01*
X190289842Y-66865967D02*
X190194604Y-66913586D01*
X190194604Y-66913586D02*
X190004128Y-66961205D01*
X190004128Y-66961205D02*
X189766033Y-66961205D01*
X189766033Y-66961205D02*
X189575557Y-66913586D01*
X189575557Y-66913586D02*
X189480319Y-66865967D01*
X189480319Y-66865967D02*
X189432700Y-66818348D01*
X189432700Y-66818348D02*
X189385080Y-66723110D01*
X189385080Y-66723110D02*
X189385080Y-66627872D01*
X189385080Y-66627872D02*
X189432700Y-66532634D01*
X189432700Y-66532634D02*
X189480319Y-66485015D01*
X189480319Y-66485015D02*
X189575557Y-66437396D01*
X189575557Y-66437396D02*
X189766033Y-66389777D01*
X189766033Y-66389777D02*
X190004128Y-66389777D01*
X190004128Y-66389777D02*
X190194604Y-66437396D01*
X190194604Y-66437396D02*
X190289842Y-66485015D01*
X190289842Y-66485015D02*
X190337461Y-66532634D01*
X190337461Y-66532634D02*
X190385080Y-66627872D01*
X190385080Y-67246920D02*
X189385080Y-67580253D01*
X189385080Y-67580253D02*
X190385080Y-67913586D01*
D13*
X153014762Y-54551869D02*
X152967143Y-54528059D01*
X152967143Y-54528059D02*
X152895714Y-54528059D01*
X152895714Y-54528059D02*
X152824286Y-54551869D01*
X152824286Y-54551869D02*
X152776667Y-54599488D01*
X152776667Y-54599488D02*
X152752857Y-54647107D01*
X152752857Y-54647107D02*
X152729048Y-54742345D01*
X152729048Y-54742345D02*
X152729048Y-54813773D01*
X152729048Y-54813773D02*
X152752857Y-54909011D01*
X152752857Y-54909011D02*
X152776667Y-54956630D01*
X152776667Y-54956630D02*
X152824286Y-55004250D01*
X152824286Y-55004250D02*
X152895714Y-55028059D01*
X152895714Y-55028059D02*
X152943333Y-55028059D01*
X152943333Y-55028059D02*
X153014762Y-55004250D01*
X153014762Y-55004250D02*
X153038571Y-54980440D01*
X153038571Y-54980440D02*
X153038571Y-54813773D01*
X153038571Y-54813773D02*
X152943333Y-54813773D01*
X153252857Y-55028059D02*
X153252857Y-54528059D01*
X153252857Y-54528059D02*
X153538571Y-55028059D01*
X153538571Y-55028059D02*
X153538571Y-54528059D01*
X153776667Y-55028059D02*
X153776667Y-54528059D01*
X153776667Y-54528059D02*
X153895715Y-54528059D01*
X153895715Y-54528059D02*
X153967143Y-54551869D01*
X153967143Y-54551869D02*
X154014762Y-54599488D01*
X154014762Y-54599488D02*
X154038572Y-54647107D01*
X154038572Y-54647107D02*
X154062381Y-54742345D01*
X154062381Y-54742345D02*
X154062381Y-54813773D01*
X154062381Y-54813773D02*
X154038572Y-54909011D01*
X154038572Y-54909011D02*
X154014762Y-54956630D01*
X154014762Y-54956630D02*
X153967143Y-55004250D01*
X153967143Y-55004250D02*
X153895715Y-55028059D01*
X153895715Y-55028059D02*
X153776667Y-55028059D01*
X154252858Y-54885202D02*
X154490953Y-54885202D01*
X154205239Y-55028059D02*
X154371905Y-54528059D01*
X154371905Y-54528059D02*
X154538572Y-55028059D01*
X116307143Y-55144250D02*
X116378571Y-55168059D01*
X116378571Y-55168059D02*
X116497619Y-55168059D01*
X116497619Y-55168059D02*
X116545238Y-55144250D01*
X116545238Y-55144250D02*
X116569047Y-55120440D01*
X116569047Y-55120440D02*
X116592857Y-55072821D01*
X116592857Y-55072821D02*
X116592857Y-55025202D01*
X116592857Y-55025202D02*
X116569047Y-54977583D01*
X116569047Y-54977583D02*
X116545238Y-54953773D01*
X116545238Y-54953773D02*
X116497619Y-54929964D01*
X116497619Y-54929964D02*
X116402381Y-54906154D01*
X116402381Y-54906154D02*
X116354762Y-54882345D01*
X116354762Y-54882345D02*
X116330952Y-54858535D01*
X116330952Y-54858535D02*
X116307143Y-54810916D01*
X116307143Y-54810916D02*
X116307143Y-54763297D01*
X116307143Y-54763297D02*
X116330952Y-54715678D01*
X116330952Y-54715678D02*
X116354762Y-54691869D01*
X116354762Y-54691869D02*
X116402381Y-54668059D01*
X116402381Y-54668059D02*
X116521428Y-54668059D01*
X116521428Y-54668059D02*
X116592857Y-54691869D01*
X169006356Y-55081750D02*
X169077784Y-55105559D01*
X169077784Y-55105559D02*
X169196832Y-55105559D01*
X169196832Y-55105559D02*
X169244451Y-55081750D01*
X169244451Y-55081750D02*
X169268260Y-55057940D01*
X169268260Y-55057940D02*
X169292070Y-55010321D01*
X169292070Y-55010321D02*
X169292070Y-54962702D01*
X169292070Y-54962702D02*
X169268260Y-54915083D01*
X169268260Y-54915083D02*
X169244451Y-54891273D01*
X169244451Y-54891273D02*
X169196832Y-54867464D01*
X169196832Y-54867464D02*
X169101594Y-54843654D01*
X169101594Y-54843654D02*
X169053975Y-54819845D01*
X169053975Y-54819845D02*
X169030165Y-54796035D01*
X169030165Y-54796035D02*
X169006356Y-54748416D01*
X169006356Y-54748416D02*
X169006356Y-54700797D01*
X169006356Y-54700797D02*
X169030165Y-54653178D01*
X169030165Y-54653178D02*
X169053975Y-54629369D01*
X169053975Y-54629369D02*
X169101594Y-54605559D01*
X169101594Y-54605559D02*
X169220641Y-54605559D01*
X169220641Y-54605559D02*
X169292070Y-54629369D01*
X169768260Y-55105559D02*
X169482546Y-55105559D01*
X169625403Y-55105559D02*
X169625403Y-54605559D01*
X169625403Y-54605559D02*
X169577784Y-54676988D01*
X169577784Y-54676988D02*
X169530165Y-54724607D01*
X169530165Y-54724607D02*
X169482546Y-54748416D01*
D10*
X106803884Y-129122419D02*
X106803884Y-128122419D01*
X106803884Y-128122419D02*
X107041979Y-128122419D01*
X107041979Y-128122419D02*
X107184836Y-128170038D01*
X107184836Y-128170038D02*
X107280074Y-128265276D01*
X107280074Y-128265276D02*
X107327693Y-128360514D01*
X107327693Y-128360514D02*
X107375312Y-128550990D01*
X107375312Y-128550990D02*
X107375312Y-128693847D01*
X107375312Y-128693847D02*
X107327693Y-128884323D01*
X107327693Y-128884323D02*
X107280074Y-128979561D01*
X107280074Y-128979561D02*
X107184836Y-129074800D01*
X107184836Y-129074800D02*
X107041979Y-129122419D01*
X107041979Y-129122419D02*
X106803884Y-129122419D01*
X108184836Y-129074800D02*
X108089598Y-129122419D01*
X108089598Y-129122419D02*
X107899122Y-129122419D01*
X107899122Y-129122419D02*
X107803884Y-129074800D01*
X107803884Y-129074800D02*
X107756265Y-128979561D01*
X107756265Y-128979561D02*
X107756265Y-128598609D01*
X107756265Y-128598609D02*
X107803884Y-128503371D01*
X107803884Y-128503371D02*
X107899122Y-128455752D01*
X107899122Y-128455752D02*
X108089598Y-128455752D01*
X108089598Y-128455752D02*
X108184836Y-128503371D01*
X108184836Y-128503371D02*
X108232455Y-128598609D01*
X108232455Y-128598609D02*
X108232455Y-128693847D01*
X108232455Y-128693847D02*
X107756265Y-128789085D01*
X108613408Y-129074800D02*
X108708646Y-129122419D01*
X108708646Y-129122419D02*
X108899122Y-129122419D01*
X108899122Y-129122419D02*
X108994360Y-129074800D01*
X108994360Y-129074800D02*
X109041979Y-128979561D01*
X109041979Y-128979561D02*
X109041979Y-128931942D01*
X109041979Y-128931942D02*
X108994360Y-128836704D01*
X108994360Y-128836704D02*
X108899122Y-128789085D01*
X108899122Y-128789085D02*
X108756265Y-128789085D01*
X108756265Y-128789085D02*
X108661027Y-128741466D01*
X108661027Y-128741466D02*
X108613408Y-128646228D01*
X108613408Y-128646228D02*
X108613408Y-128598609D01*
X108613408Y-128598609D02*
X108661027Y-128503371D01*
X108661027Y-128503371D02*
X108756265Y-128455752D01*
X108756265Y-128455752D02*
X108899122Y-128455752D01*
X108899122Y-128455752D02*
X108994360Y-128503371D01*
X109470551Y-129122419D02*
X109470551Y-128455752D01*
X109470551Y-128122419D02*
X109422932Y-128170038D01*
X109422932Y-128170038D02*
X109470551Y-128217657D01*
X109470551Y-128217657D02*
X109518170Y-128170038D01*
X109518170Y-128170038D02*
X109470551Y-128122419D01*
X109470551Y-128122419D02*
X109470551Y-128217657D01*
X110375312Y-128455752D02*
X110375312Y-129265276D01*
X110375312Y-129265276D02*
X110327693Y-129360514D01*
X110327693Y-129360514D02*
X110280074Y-129408133D01*
X110280074Y-129408133D02*
X110184836Y-129455752D01*
X110184836Y-129455752D02*
X110041979Y-129455752D01*
X110041979Y-129455752D02*
X109946741Y-129408133D01*
X110375312Y-129074800D02*
X110280074Y-129122419D01*
X110280074Y-129122419D02*
X110089598Y-129122419D01*
X110089598Y-129122419D02*
X109994360Y-129074800D01*
X109994360Y-129074800D02*
X109946741Y-129027180D01*
X109946741Y-129027180D02*
X109899122Y-128931942D01*
X109899122Y-128931942D02*
X109899122Y-128646228D01*
X109899122Y-128646228D02*
X109946741Y-128550990D01*
X109946741Y-128550990D02*
X109994360Y-128503371D01*
X109994360Y-128503371D02*
X110089598Y-128455752D01*
X110089598Y-128455752D02*
X110280074Y-128455752D01*
X110280074Y-128455752D02*
X110375312Y-128503371D01*
X110851503Y-128455752D02*
X110851503Y-129122419D01*
X110851503Y-128550990D02*
X110899122Y-128503371D01*
X110899122Y-128503371D02*
X110994360Y-128455752D01*
X110994360Y-128455752D02*
X111137217Y-128455752D01*
X111137217Y-128455752D02*
X111232455Y-128503371D01*
X111232455Y-128503371D02*
X111280074Y-128598609D01*
X111280074Y-128598609D02*
X111280074Y-129122419D01*
X112137217Y-129074800D02*
X112041979Y-129122419D01*
X112041979Y-129122419D02*
X111851503Y-129122419D01*
X111851503Y-129122419D02*
X111756265Y-129074800D01*
X111756265Y-129074800D02*
X111708646Y-128979561D01*
X111708646Y-128979561D02*
X111708646Y-128598609D01*
X111708646Y-128598609D02*
X111756265Y-128503371D01*
X111756265Y-128503371D02*
X111851503Y-128455752D01*
X111851503Y-128455752D02*
X112041979Y-128455752D01*
X112041979Y-128455752D02*
X112137217Y-128503371D01*
X112137217Y-128503371D02*
X112184836Y-128598609D01*
X112184836Y-128598609D02*
X112184836Y-128693847D01*
X112184836Y-128693847D02*
X111708646Y-128789085D01*
X113041979Y-129122419D02*
X113041979Y-128122419D01*
X113041979Y-129074800D02*
X112946741Y-129122419D01*
X112946741Y-129122419D02*
X112756265Y-129122419D01*
X112756265Y-129122419D02*
X112661027Y-129074800D01*
X112661027Y-129074800D02*
X112613408Y-129027180D01*
X112613408Y-129027180D02*
X112565789Y-128931942D01*
X112565789Y-128931942D02*
X112565789Y-128646228D01*
X112565789Y-128646228D02*
X112613408Y-128550990D01*
X112613408Y-128550990D02*
X112661027Y-128503371D01*
X112661027Y-128503371D02*
X112756265Y-128455752D01*
X112756265Y-128455752D02*
X112946741Y-128455752D01*
X112946741Y-128455752D02*
X113041979Y-128503371D01*
X114280075Y-129122419D02*
X114280075Y-128122419D01*
X114280075Y-128503371D02*
X114375313Y-128455752D01*
X114375313Y-128455752D02*
X114565789Y-128455752D01*
X114565789Y-128455752D02*
X114661027Y-128503371D01*
X114661027Y-128503371D02*
X114708646Y-128550990D01*
X114708646Y-128550990D02*
X114756265Y-128646228D01*
X114756265Y-128646228D02*
X114756265Y-128931942D01*
X114756265Y-128931942D02*
X114708646Y-129027180D01*
X114708646Y-129027180D02*
X114661027Y-129074800D01*
X114661027Y-129074800D02*
X114565789Y-129122419D01*
X114565789Y-129122419D02*
X114375313Y-129122419D01*
X114375313Y-129122419D02*
X114280075Y-129074800D01*
X115089599Y-128455752D02*
X115327694Y-129122419D01*
X115565789Y-128455752D02*
X115327694Y-129122419D01*
X115327694Y-129122419D02*
X115232456Y-129360514D01*
X115232456Y-129360514D02*
X115184837Y-129408133D01*
X115184837Y-129408133D02*
X115089599Y-129455752D01*
X116661028Y-128836704D02*
X117137218Y-128836704D01*
X116565790Y-129122419D02*
X116899123Y-128122419D01*
X116899123Y-128122419D02*
X117232456Y-129122419D01*
X117994361Y-129122419D02*
X117994361Y-128122419D01*
X117994361Y-129074800D02*
X117899123Y-129122419D01*
X117899123Y-129122419D02*
X117708647Y-129122419D01*
X117708647Y-129122419D02*
X117613409Y-129074800D01*
X117613409Y-129074800D02*
X117565790Y-129027180D01*
X117565790Y-129027180D02*
X117518171Y-128931942D01*
X117518171Y-128931942D02*
X117518171Y-128646228D01*
X117518171Y-128646228D02*
X117565790Y-128550990D01*
X117565790Y-128550990D02*
X117613409Y-128503371D01*
X117613409Y-128503371D02*
X117708647Y-128455752D01*
X117708647Y-128455752D02*
X117899123Y-128455752D01*
X117899123Y-128455752D02*
X117994361Y-128503371D01*
X118470552Y-129122419D02*
X118470552Y-128455752D01*
X118470552Y-128646228D02*
X118518171Y-128550990D01*
X118518171Y-128550990D02*
X118565790Y-128503371D01*
X118565790Y-128503371D02*
X118661028Y-128455752D01*
X118661028Y-128455752D02*
X118756266Y-128455752D01*
X119089600Y-129122419D02*
X119089600Y-128455752D01*
X119089600Y-128122419D02*
X119041981Y-128170038D01*
X119041981Y-128170038D02*
X119089600Y-128217657D01*
X119089600Y-128217657D02*
X119137219Y-128170038D01*
X119137219Y-128170038D02*
X119089600Y-128122419D01*
X119089600Y-128122419D02*
X119089600Y-128217657D01*
X119994361Y-129122419D02*
X119994361Y-128598609D01*
X119994361Y-128598609D02*
X119946742Y-128503371D01*
X119946742Y-128503371D02*
X119851504Y-128455752D01*
X119851504Y-128455752D02*
X119661028Y-128455752D01*
X119661028Y-128455752D02*
X119565790Y-128503371D01*
X119994361Y-129074800D02*
X119899123Y-129122419D01*
X119899123Y-129122419D02*
X119661028Y-129122419D01*
X119661028Y-129122419D02*
X119565790Y-129074800D01*
X119565790Y-129074800D02*
X119518171Y-128979561D01*
X119518171Y-128979561D02*
X119518171Y-128884323D01*
X119518171Y-128884323D02*
X119565790Y-128789085D01*
X119565790Y-128789085D02*
X119661028Y-128741466D01*
X119661028Y-128741466D02*
X119899123Y-128741466D01*
X119899123Y-128741466D02*
X119994361Y-128693847D01*
X120470552Y-128455752D02*
X120470552Y-129122419D01*
X120470552Y-128550990D02*
X120518171Y-128503371D01*
X120518171Y-128503371D02*
X120613409Y-128455752D01*
X120613409Y-128455752D02*
X120756266Y-128455752D01*
X120756266Y-128455752D02*
X120851504Y-128503371D01*
X120851504Y-128503371D02*
X120899123Y-128598609D01*
X120899123Y-128598609D02*
X120899123Y-129122419D01*
X122137219Y-129122419D02*
X122137219Y-128122419D01*
X122137219Y-128122419D02*
X122470552Y-128836704D01*
X122470552Y-128836704D02*
X122803885Y-128122419D01*
X122803885Y-128122419D02*
X122803885Y-129122419D01*
X123708647Y-129122419D02*
X123708647Y-128598609D01*
X123708647Y-128598609D02*
X123661028Y-128503371D01*
X123661028Y-128503371D02*
X123565790Y-128455752D01*
X123565790Y-128455752D02*
X123375314Y-128455752D01*
X123375314Y-128455752D02*
X123280076Y-128503371D01*
X123708647Y-129074800D02*
X123613409Y-129122419D01*
X123613409Y-129122419D02*
X123375314Y-129122419D01*
X123375314Y-129122419D02*
X123280076Y-129074800D01*
X123280076Y-129074800D02*
X123232457Y-128979561D01*
X123232457Y-128979561D02*
X123232457Y-128884323D01*
X123232457Y-128884323D02*
X123280076Y-128789085D01*
X123280076Y-128789085D02*
X123375314Y-128741466D01*
X123375314Y-128741466D02*
X123613409Y-128741466D01*
X123613409Y-128741466D02*
X123708647Y-128693847D01*
X124184838Y-129122419D02*
X124184838Y-128455752D01*
X124184838Y-128646228D02*
X124232457Y-128550990D01*
X124232457Y-128550990D02*
X124280076Y-128503371D01*
X124280076Y-128503371D02*
X124375314Y-128455752D01*
X124375314Y-128455752D02*
X124470552Y-128455752D01*
X125232457Y-129074800D02*
X125137219Y-129122419D01*
X125137219Y-129122419D02*
X124946743Y-129122419D01*
X124946743Y-129122419D02*
X124851505Y-129074800D01*
X124851505Y-129074800D02*
X124803886Y-129027180D01*
X124803886Y-129027180D02*
X124756267Y-128931942D01*
X124756267Y-128931942D02*
X124756267Y-128646228D01*
X124756267Y-128646228D02*
X124803886Y-128550990D01*
X124803886Y-128550990D02*
X124851505Y-128503371D01*
X124851505Y-128503371D02*
X124946743Y-128455752D01*
X124946743Y-128455752D02*
X125137219Y-128455752D01*
X125137219Y-128455752D02*
X125232457Y-128503371D01*
X125803886Y-129122419D02*
X125708648Y-129074800D01*
X125708648Y-129074800D02*
X125661029Y-129027180D01*
X125661029Y-129027180D02*
X125613410Y-128931942D01*
X125613410Y-128931942D02*
X125613410Y-128646228D01*
X125613410Y-128646228D02*
X125661029Y-128550990D01*
X125661029Y-128550990D02*
X125708648Y-128503371D01*
X125708648Y-128503371D02*
X125803886Y-128455752D01*
X125803886Y-128455752D02*
X125946743Y-128455752D01*
X125946743Y-128455752D02*
X126041981Y-128503371D01*
X126041981Y-128503371D02*
X126089600Y-128550990D01*
X126089600Y-128550990D02*
X126137219Y-128646228D01*
X126137219Y-128646228D02*
X126137219Y-128931942D01*
X126137219Y-128931942D02*
X126089600Y-129027180D01*
X126089600Y-129027180D02*
X126041981Y-129074800D01*
X126041981Y-129074800D02*
X125946743Y-129122419D01*
X125946743Y-129122419D02*
X125803886Y-129122419D01*
X126518172Y-129074800D02*
X126613410Y-129122419D01*
X126613410Y-129122419D02*
X126803886Y-129122419D01*
X126803886Y-129122419D02*
X126899124Y-129074800D01*
X126899124Y-129074800D02*
X126946743Y-128979561D01*
X126946743Y-128979561D02*
X126946743Y-128931942D01*
X126946743Y-128931942D02*
X126899124Y-128836704D01*
X126899124Y-128836704D02*
X126803886Y-128789085D01*
X126803886Y-128789085D02*
X126661029Y-128789085D01*
X126661029Y-128789085D02*
X126565791Y-128741466D01*
X126565791Y-128741466D02*
X126518172Y-128646228D01*
X126518172Y-128646228D02*
X126518172Y-128598609D01*
X126518172Y-128598609D02*
X126565791Y-128503371D01*
X126565791Y-128503371D02*
X126661029Y-128455752D01*
X126661029Y-128455752D02*
X126803886Y-128455752D01*
X126803886Y-128455752D02*
X126899124Y-128503371D01*
X191307580Y-78322455D02*
X191307580Y-78131979D01*
X191307580Y-78131979D02*
X191259961Y-78036741D01*
X191259961Y-78036741D02*
X191212342Y-77989122D01*
X191212342Y-77989122D02*
X191069485Y-77893884D01*
X191069485Y-77893884D02*
X190879009Y-77846265D01*
X190879009Y-77846265D02*
X190498057Y-77846265D01*
X190498057Y-77846265D02*
X190402819Y-77893884D01*
X190402819Y-77893884D02*
X190355200Y-77941503D01*
X190355200Y-77941503D02*
X190307580Y-78036741D01*
X190307580Y-78036741D02*
X190307580Y-78227217D01*
X190307580Y-78227217D02*
X190355200Y-78322455D01*
X190355200Y-78322455D02*
X190402819Y-78370074D01*
X190402819Y-78370074D02*
X190498057Y-78417693D01*
X190498057Y-78417693D02*
X190736152Y-78417693D01*
X190736152Y-78417693D02*
X190831390Y-78370074D01*
X190831390Y-78370074D02*
X190879009Y-78322455D01*
X190879009Y-78322455D02*
X190926628Y-78227217D01*
X190926628Y-78227217D02*
X190926628Y-78036741D01*
X190926628Y-78036741D02*
X190879009Y-77941503D01*
X190879009Y-77941503D02*
X190831390Y-77893884D01*
X190831390Y-77893884D02*
X190736152Y-77846265D01*
X191307580Y-79036741D02*
X191307580Y-79131979D01*
X191307580Y-79131979D02*
X191259961Y-79227217D01*
X191259961Y-79227217D02*
X191212342Y-79274836D01*
X191212342Y-79274836D02*
X191117104Y-79322455D01*
X191117104Y-79322455D02*
X190926628Y-79370074D01*
X190926628Y-79370074D02*
X190688533Y-79370074D01*
X190688533Y-79370074D02*
X190498057Y-79322455D01*
X190498057Y-79322455D02*
X190402819Y-79274836D01*
X190402819Y-79274836D02*
X190355200Y-79227217D01*
X190355200Y-79227217D02*
X190307580Y-79131979D01*
X190307580Y-79131979D02*
X190307580Y-79036741D01*
X190307580Y-79036741D02*
X190355200Y-78941503D01*
X190355200Y-78941503D02*
X190402819Y-78893884D01*
X190402819Y-78893884D02*
X190498057Y-78846265D01*
X190498057Y-78846265D02*
X190688533Y-78798646D01*
X190688533Y-78798646D02*
X190926628Y-78798646D01*
X190926628Y-78798646D02*
X191117104Y-78846265D01*
X191117104Y-78846265D02*
X191212342Y-78893884D01*
X191212342Y-78893884D02*
X191259961Y-78941503D01*
X191259961Y-78941503D02*
X191307580Y-79036741D01*
X191307580Y-79989122D02*
X191307580Y-80084360D01*
X191307580Y-80084360D02*
X191259961Y-80179598D01*
X191259961Y-80179598D02*
X191212342Y-80227217D01*
X191212342Y-80227217D02*
X191117104Y-80274836D01*
X191117104Y-80274836D02*
X190926628Y-80322455D01*
X190926628Y-80322455D02*
X190688533Y-80322455D01*
X190688533Y-80322455D02*
X190498057Y-80274836D01*
X190498057Y-80274836D02*
X190402819Y-80227217D01*
X190402819Y-80227217D02*
X190355200Y-80179598D01*
X190355200Y-80179598D02*
X190307580Y-80084360D01*
X190307580Y-80084360D02*
X190307580Y-79989122D01*
X190307580Y-79989122D02*
X190355200Y-79893884D01*
X190355200Y-79893884D02*
X190402819Y-79846265D01*
X190402819Y-79846265D02*
X190498057Y-79798646D01*
X190498057Y-79798646D02*
X190688533Y-79751027D01*
X190688533Y-79751027D02*
X190926628Y-79751027D01*
X190926628Y-79751027D02*
X191117104Y-79798646D01*
X191117104Y-79798646D02*
X191212342Y-79846265D01*
X191212342Y-79846265D02*
X191259961Y-79893884D01*
X191259961Y-79893884D02*
X191307580Y-79989122D01*
X191307580Y-80608170D02*
X190307580Y-80941503D01*
X190307580Y-80941503D02*
X191307580Y-81274836D01*
D13*
X170996356Y-54982702D02*
X171234451Y-54982702D01*
X170948737Y-55125559D02*
X171115403Y-54625559D01*
X171115403Y-54625559D02*
X171282070Y-55125559D01*
X171710641Y-54649369D02*
X171663022Y-54625559D01*
X171663022Y-54625559D02*
X171591593Y-54625559D01*
X171591593Y-54625559D02*
X171520165Y-54649369D01*
X171520165Y-54649369D02*
X171472546Y-54696988D01*
X171472546Y-54696988D02*
X171448736Y-54744607D01*
X171448736Y-54744607D02*
X171424927Y-54839845D01*
X171424927Y-54839845D02*
X171424927Y-54911273D01*
X171424927Y-54911273D02*
X171448736Y-55006511D01*
X171448736Y-55006511D02*
X171472546Y-55054130D01*
X171472546Y-55054130D02*
X171520165Y-55101750D01*
X171520165Y-55101750D02*
X171591593Y-55125559D01*
X171591593Y-55125559D02*
X171639212Y-55125559D01*
X171639212Y-55125559D02*
X171710641Y-55101750D01*
X171710641Y-55101750D02*
X171734450Y-55077940D01*
X171734450Y-55077940D02*
X171734450Y-54911273D01*
X171734450Y-54911273D02*
X171639212Y-54911273D01*
X171948736Y-55125559D02*
X171948736Y-54625559D01*
X171948736Y-54625559D02*
X172234450Y-55125559D01*
X172234450Y-55125559D02*
X172234450Y-54625559D01*
X172472546Y-55125559D02*
X172472546Y-54625559D01*
X172472546Y-54625559D02*
X172591594Y-54625559D01*
X172591594Y-54625559D02*
X172663022Y-54649369D01*
X172663022Y-54649369D02*
X172710641Y-54696988D01*
X172710641Y-54696988D02*
X172734451Y-54744607D01*
X172734451Y-54744607D02*
X172758260Y-54839845D01*
X172758260Y-54839845D02*
X172758260Y-54911273D01*
X172758260Y-54911273D02*
X172734451Y-55006511D01*
X172734451Y-55006511D02*
X172710641Y-55054130D01*
X172710641Y-55054130D02*
X172663022Y-55101750D01*
X172663022Y-55101750D02*
X172591594Y-55125559D01*
X172591594Y-55125559D02*
X172472546Y-55125559D01*
X120941905Y-54668059D02*
X121251429Y-54668059D01*
X121251429Y-54668059D02*
X121084762Y-54858535D01*
X121084762Y-54858535D02*
X121156191Y-54858535D01*
X121156191Y-54858535D02*
X121203810Y-54882345D01*
X121203810Y-54882345D02*
X121227619Y-54906154D01*
X121227619Y-54906154D02*
X121251429Y-54953773D01*
X121251429Y-54953773D02*
X121251429Y-55072821D01*
X121251429Y-55072821D02*
X121227619Y-55120440D01*
X121227619Y-55120440D02*
X121203810Y-55144250D01*
X121203810Y-55144250D02*
X121156191Y-55168059D01*
X121156191Y-55168059D02*
X121013334Y-55168059D01*
X121013334Y-55168059D02*
X120965715Y-55144250D01*
X120965715Y-55144250D02*
X120941905Y-55120440D01*
X121465714Y-55120440D02*
X121489524Y-55144250D01*
X121489524Y-55144250D02*
X121465714Y-55168059D01*
X121465714Y-55168059D02*
X121441905Y-55144250D01*
X121441905Y-55144250D02*
X121465714Y-55120440D01*
X121465714Y-55120440D02*
X121465714Y-55168059D01*
X121656190Y-54668059D02*
X121965714Y-54668059D01*
X121965714Y-54668059D02*
X121799047Y-54858535D01*
X121799047Y-54858535D02*
X121870476Y-54858535D01*
X121870476Y-54858535D02*
X121918095Y-54882345D01*
X121918095Y-54882345D02*
X121941904Y-54906154D01*
X121941904Y-54906154D02*
X121965714Y-54953773D01*
X121965714Y-54953773D02*
X121965714Y-55072821D01*
X121965714Y-55072821D02*
X121941904Y-55120440D01*
X121941904Y-55120440D02*
X121918095Y-55144250D01*
X121918095Y-55144250D02*
X121870476Y-55168059D01*
X121870476Y-55168059D02*
X121727619Y-55168059D01*
X121727619Y-55168059D02*
X121680000Y-55144250D01*
X121680000Y-55144250D02*
X121656190Y-55120440D01*
X122108571Y-54668059D02*
X122275237Y-55168059D01*
X122275237Y-55168059D02*
X122441904Y-54668059D01*
D11*
X139916190Y-104440508D02*
X140883810Y-104440508D01*
D13*
X155910477Y-55028059D02*
X155624763Y-55028059D01*
X155767620Y-55028059D02*
X155767620Y-54528059D01*
X155767620Y-54528059D02*
X155720001Y-54599488D01*
X155720001Y-54599488D02*
X155672382Y-54647107D01*
X155672382Y-54647107D02*
X155624763Y-54670916D01*
X156362857Y-54528059D02*
X156124762Y-54528059D01*
X156124762Y-54528059D02*
X156100953Y-54766154D01*
X156100953Y-54766154D02*
X156124762Y-54742345D01*
X156124762Y-54742345D02*
X156172381Y-54718535D01*
X156172381Y-54718535D02*
X156291429Y-54718535D01*
X156291429Y-54718535D02*
X156339048Y-54742345D01*
X156339048Y-54742345D02*
X156362857Y-54766154D01*
X156362857Y-54766154D02*
X156386667Y-54813773D01*
X156386667Y-54813773D02*
X156386667Y-54932821D01*
X156386667Y-54932821D02*
X156362857Y-54980440D01*
X156362857Y-54980440D02*
X156339048Y-55004250D01*
X156339048Y-55004250D02*
X156291429Y-55028059D01*
X156291429Y-55028059D02*
X156172381Y-55028059D01*
X156172381Y-55028059D02*
X156124762Y-55004250D01*
X156124762Y-55004250D02*
X156100953Y-54980440D01*
X156529524Y-54528059D02*
X156696190Y-55028059D01*
X156696190Y-55028059D02*
X156862857Y-54528059D01*
X134284286Y-55168059D02*
X134284286Y-54668059D01*
X134284286Y-54668059D02*
X134403334Y-54668059D01*
X134403334Y-54668059D02*
X134474762Y-54691869D01*
X134474762Y-54691869D02*
X134522381Y-54739488D01*
X134522381Y-54739488D02*
X134546191Y-54787107D01*
X134546191Y-54787107D02*
X134570000Y-54882345D01*
X134570000Y-54882345D02*
X134570000Y-54953773D01*
X134570000Y-54953773D02*
X134546191Y-55049011D01*
X134546191Y-55049011D02*
X134522381Y-55096630D01*
X134522381Y-55096630D02*
X134474762Y-55144250D01*
X134474762Y-55144250D02*
X134403334Y-55168059D01*
X134403334Y-55168059D02*
X134284286Y-55168059D01*
X134760477Y-55025202D02*
X134998572Y-55025202D01*
X134712858Y-55168059D02*
X134879524Y-54668059D01*
X134879524Y-54668059D02*
X135046191Y-55168059D01*
X135141429Y-54668059D02*
X135427143Y-54668059D01*
X135284286Y-55168059D02*
X135284286Y-54668059D01*
D14*
X139365714Y-77812219D02*
X139365714Y-76812219D01*
X139365714Y-77288409D02*
X139937142Y-77288409D01*
X139937142Y-77812219D02*
X139937142Y-76812219D01*
X140270476Y-76812219D02*
X140603809Y-77812219D01*
X140603809Y-77812219D02*
X140937142Y-76812219D01*
D11*
X168229047Y-67715270D02*
X168108095Y-67654794D01*
X168108095Y-67654794D02*
X167987142Y-67533842D01*
X167987142Y-67533842D02*
X167805714Y-67352413D01*
X167805714Y-67352413D02*
X167684761Y-67291937D01*
X167684761Y-67291937D02*
X167563809Y-67291937D01*
X167624285Y-67594318D02*
X167503333Y-67533842D01*
X167503333Y-67533842D02*
X167382380Y-67412889D01*
X167382380Y-67412889D02*
X167321904Y-67170984D01*
X167321904Y-67170984D02*
X167321904Y-66747651D01*
X167321904Y-66747651D02*
X167382380Y-66505746D01*
X167382380Y-66505746D02*
X167503333Y-66384794D01*
X167503333Y-66384794D02*
X167624285Y-66324318D01*
X167624285Y-66324318D02*
X167866190Y-66324318D01*
X167866190Y-66324318D02*
X167987142Y-66384794D01*
X167987142Y-66384794D02*
X168108095Y-66505746D01*
X168108095Y-66505746D02*
X168168571Y-66747651D01*
X168168571Y-66747651D02*
X168168571Y-67170984D01*
X168168571Y-67170984D02*
X168108095Y-67412889D01*
X168108095Y-67412889D02*
X167987142Y-67533842D01*
X167987142Y-67533842D02*
X167866190Y-67594318D01*
X167866190Y-67594318D02*
X167624285Y-67594318D01*
X169378095Y-67594318D02*
X168652380Y-67594318D01*
X169015237Y-67594318D02*
X169015237Y-66324318D01*
X169015237Y-66324318D02*
X168894285Y-66505746D01*
X168894285Y-66505746D02*
X168773333Y-66626699D01*
X168773333Y-66626699D02*
X168652380Y-66687175D01*
D12*
X137755180Y-49320476D02*
X137755180Y-49891904D01*
X136755180Y-49606190D02*
X137755180Y-49606190D01*
X137278990Y-50225238D02*
X137278990Y-50558571D01*
X136755180Y-50701428D02*
X136755180Y-50225238D01*
X136755180Y-50225238D02*
X137755180Y-50225238D01*
X137755180Y-50225238D02*
X137755180Y-50701428D01*
X136755180Y-51130000D02*
X137755180Y-51130000D01*
X137755180Y-51130000D02*
X137040895Y-51463333D01*
X137040895Y-51463333D02*
X137755180Y-51796666D01*
X137755180Y-51796666D02*
X136755180Y-51796666D01*
X136755180Y-52272857D02*
X137755180Y-52272857D01*
X137755180Y-52272857D02*
X137755180Y-52653809D01*
X137755180Y-52653809D02*
X137707561Y-52749047D01*
X137707561Y-52749047D02*
X137659942Y-52796666D01*
X137659942Y-52796666D02*
X137564704Y-52844285D01*
X137564704Y-52844285D02*
X137421847Y-52844285D01*
X137421847Y-52844285D02*
X137326609Y-52796666D01*
X137326609Y-52796666D02*
X137278990Y-52749047D01*
X137278990Y-52749047D02*
X137231371Y-52653809D01*
X137231371Y-52653809D02*
X137231371Y-52272857D01*
D13*
X131451905Y-54668059D02*
X131761429Y-54668059D01*
X131761429Y-54668059D02*
X131594762Y-54858535D01*
X131594762Y-54858535D02*
X131666191Y-54858535D01*
X131666191Y-54858535D02*
X131713810Y-54882345D01*
X131713810Y-54882345D02*
X131737619Y-54906154D01*
X131737619Y-54906154D02*
X131761429Y-54953773D01*
X131761429Y-54953773D02*
X131761429Y-55072821D01*
X131761429Y-55072821D02*
X131737619Y-55120440D01*
X131737619Y-55120440D02*
X131713810Y-55144250D01*
X131713810Y-55144250D02*
X131666191Y-55168059D01*
X131666191Y-55168059D02*
X131523334Y-55168059D01*
X131523334Y-55168059D02*
X131475715Y-55144250D01*
X131475715Y-55144250D02*
X131451905Y-55120440D01*
X131975714Y-55120440D02*
X131999524Y-55144250D01*
X131999524Y-55144250D02*
X131975714Y-55168059D01*
X131975714Y-55168059D02*
X131951905Y-55144250D01*
X131951905Y-55144250D02*
X131975714Y-55120440D01*
X131975714Y-55120440D02*
X131975714Y-55168059D01*
X132166190Y-54668059D02*
X132475714Y-54668059D01*
X132475714Y-54668059D02*
X132309047Y-54858535D01*
X132309047Y-54858535D02*
X132380476Y-54858535D01*
X132380476Y-54858535D02*
X132428095Y-54882345D01*
X132428095Y-54882345D02*
X132451904Y-54906154D01*
X132451904Y-54906154D02*
X132475714Y-54953773D01*
X132475714Y-54953773D02*
X132475714Y-55072821D01*
X132475714Y-55072821D02*
X132451904Y-55120440D01*
X132451904Y-55120440D02*
X132428095Y-55144250D01*
X132428095Y-55144250D02*
X132380476Y-55168059D01*
X132380476Y-55168059D02*
X132237619Y-55168059D01*
X132237619Y-55168059D02*
X132190000Y-55144250D01*
X132190000Y-55144250D02*
X132166190Y-55120440D01*
X132618571Y-54668059D02*
X132785237Y-55168059D01*
X132785237Y-55168059D02*
X132951904Y-54668059D01*
D11*
X102582618Y-101094318D02*
X102582618Y-99824318D01*
X102582618Y-99824318D02*
X102884999Y-99824318D01*
X102884999Y-99824318D02*
X103066428Y-99884794D01*
X103066428Y-99884794D02*
X103187380Y-100005746D01*
X103187380Y-100005746D02*
X103247857Y-100126699D01*
X103247857Y-100126699D02*
X103308333Y-100368603D01*
X103308333Y-100368603D02*
X103308333Y-100550032D01*
X103308333Y-100550032D02*
X103247857Y-100791937D01*
X103247857Y-100791937D02*
X103187380Y-100912889D01*
X103187380Y-100912889D02*
X103066428Y-101033842D01*
X103066428Y-101033842D02*
X102884999Y-101094318D01*
X102884999Y-101094318D02*
X102582618Y-101094318D01*
X103792142Y-99945270D02*
X103852618Y-99884794D01*
X103852618Y-99884794D02*
X103973571Y-99824318D01*
X103973571Y-99824318D02*
X104275952Y-99824318D01*
X104275952Y-99824318D02*
X104396904Y-99884794D01*
X104396904Y-99884794D02*
X104457380Y-99945270D01*
X104457380Y-99945270D02*
X104517857Y-100066222D01*
X104517857Y-100066222D02*
X104517857Y-100187175D01*
X104517857Y-100187175D02*
X104457380Y-100368603D01*
X104457380Y-100368603D02*
X103731666Y-101094318D01*
X103731666Y-101094318D02*
X104517857Y-101094318D01*
D10*
X138130074Y-125863561D02*
X138320550Y-126396895D01*
X138320550Y-126396895D02*
X138511027Y-125863561D01*
X138777693Y-125673085D02*
X138815789Y-125634990D01*
X138815789Y-125634990D02*
X138891979Y-125596895D01*
X138891979Y-125596895D02*
X139082455Y-125596895D01*
X139082455Y-125596895D02*
X139158646Y-125634990D01*
X139158646Y-125634990D02*
X139196741Y-125673085D01*
X139196741Y-125673085D02*
X139234836Y-125749276D01*
X139234836Y-125749276D02*
X139234836Y-125825466D01*
X139234836Y-125825466D02*
X139196741Y-125939752D01*
X139196741Y-125939752D02*
X138739598Y-126396895D01*
X138739598Y-126396895D02*
X139234836Y-126396895D01*
X139577694Y-126320704D02*
X139615789Y-126358800D01*
X139615789Y-126358800D02*
X139577694Y-126396895D01*
X139577694Y-126396895D02*
X139539598Y-126358800D01*
X139539598Y-126358800D02*
X139577694Y-126320704D01*
X139577694Y-126320704D02*
X139577694Y-126396895D01*
X139882455Y-125596895D02*
X140377693Y-125596895D01*
X140377693Y-125596895D02*
X140111027Y-125901657D01*
X140111027Y-125901657D02*
X140225312Y-125901657D01*
X140225312Y-125901657D02*
X140301503Y-125939752D01*
X140301503Y-125939752D02*
X140339598Y-125977847D01*
X140339598Y-125977847D02*
X140377693Y-126054038D01*
X140377693Y-126054038D02*
X140377693Y-126244514D01*
X140377693Y-126244514D02*
X140339598Y-126320704D01*
X140339598Y-126320704D02*
X140301503Y-126358800D01*
X140301503Y-126358800D02*
X140225312Y-126396895D01*
X140225312Y-126396895D02*
X139996741Y-126396895D01*
X139996741Y-126396895D02*
X139920550Y-126358800D01*
X139920550Y-126358800D02*
X139882455Y-126320704D01*
X141330075Y-126092133D02*
X141939599Y-126092133D01*
X143082456Y-125596895D02*
X143158646Y-125596895D01*
X143158646Y-125596895D02*
X143234837Y-125634990D01*
X143234837Y-125634990D02*
X143272932Y-125673085D01*
X143272932Y-125673085D02*
X143311027Y-125749276D01*
X143311027Y-125749276D02*
X143349122Y-125901657D01*
X143349122Y-125901657D02*
X143349122Y-126092133D01*
X143349122Y-126092133D02*
X143311027Y-126244514D01*
X143311027Y-126244514D02*
X143272932Y-126320704D01*
X143272932Y-126320704D02*
X143234837Y-126358800D01*
X143234837Y-126358800D02*
X143158646Y-126396895D01*
X143158646Y-126396895D02*
X143082456Y-126396895D01*
X143082456Y-126396895D02*
X143006265Y-126358800D01*
X143006265Y-126358800D02*
X142968170Y-126320704D01*
X142968170Y-126320704D02*
X142930075Y-126244514D01*
X142930075Y-126244514D02*
X142891979Y-126092133D01*
X142891979Y-126092133D02*
X142891979Y-125901657D01*
X142891979Y-125901657D02*
X142930075Y-125749276D01*
X142930075Y-125749276D02*
X142968170Y-125673085D01*
X142968170Y-125673085D02*
X143006265Y-125634990D01*
X143006265Y-125634990D02*
X143082456Y-125596895D01*
X143653884Y-125673085D02*
X143691980Y-125634990D01*
X143691980Y-125634990D02*
X143768170Y-125596895D01*
X143768170Y-125596895D02*
X143958646Y-125596895D01*
X143958646Y-125596895D02*
X144034837Y-125634990D01*
X144034837Y-125634990D02*
X144072932Y-125673085D01*
X144072932Y-125673085D02*
X144111027Y-125749276D01*
X144111027Y-125749276D02*
X144111027Y-125825466D01*
X144111027Y-125825466D02*
X144072932Y-125939752D01*
X144072932Y-125939752D02*
X143615789Y-126396895D01*
X143615789Y-126396895D02*
X144111027Y-126396895D01*
X145025313Y-125558800D02*
X144339599Y-126587371D01*
X145253884Y-125673085D02*
X145291980Y-125634990D01*
X145291980Y-125634990D02*
X145368170Y-125596895D01*
X145368170Y-125596895D02*
X145558646Y-125596895D01*
X145558646Y-125596895D02*
X145634837Y-125634990D01*
X145634837Y-125634990D02*
X145672932Y-125673085D01*
X145672932Y-125673085D02*
X145711027Y-125749276D01*
X145711027Y-125749276D02*
X145711027Y-125825466D01*
X145711027Y-125825466D02*
X145672932Y-125939752D01*
X145672932Y-125939752D02*
X145215789Y-126396895D01*
X145215789Y-126396895D02*
X145711027Y-126396895D01*
X146206266Y-125596895D02*
X146282456Y-125596895D01*
X146282456Y-125596895D02*
X146358647Y-125634990D01*
X146358647Y-125634990D02*
X146396742Y-125673085D01*
X146396742Y-125673085D02*
X146434837Y-125749276D01*
X146434837Y-125749276D02*
X146472932Y-125901657D01*
X146472932Y-125901657D02*
X146472932Y-126092133D01*
X146472932Y-126092133D02*
X146434837Y-126244514D01*
X146434837Y-126244514D02*
X146396742Y-126320704D01*
X146396742Y-126320704D02*
X146358647Y-126358800D01*
X146358647Y-126358800D02*
X146282456Y-126396895D01*
X146282456Y-126396895D02*
X146206266Y-126396895D01*
X146206266Y-126396895D02*
X146130075Y-126358800D01*
X146130075Y-126358800D02*
X146091980Y-126320704D01*
X146091980Y-126320704D02*
X146053885Y-126244514D01*
X146053885Y-126244514D02*
X146015789Y-126092133D01*
X146015789Y-126092133D02*
X146015789Y-125901657D01*
X146015789Y-125901657D02*
X146053885Y-125749276D01*
X146053885Y-125749276D02*
X146091980Y-125673085D01*
X146091980Y-125673085D02*
X146130075Y-125634990D01*
X146130075Y-125634990D02*
X146206266Y-125596895D01*
X146777694Y-125673085D02*
X146815790Y-125634990D01*
X146815790Y-125634990D02*
X146891980Y-125596895D01*
X146891980Y-125596895D02*
X147082456Y-125596895D01*
X147082456Y-125596895D02*
X147158647Y-125634990D01*
X147158647Y-125634990D02*
X147196742Y-125673085D01*
X147196742Y-125673085D02*
X147234837Y-125749276D01*
X147234837Y-125749276D02*
X147234837Y-125825466D01*
X147234837Y-125825466D02*
X147196742Y-125939752D01*
X147196742Y-125939752D02*
X146739599Y-126396895D01*
X146739599Y-126396895D02*
X147234837Y-126396895D01*
X147920552Y-125596895D02*
X147768171Y-125596895D01*
X147768171Y-125596895D02*
X147691980Y-125634990D01*
X147691980Y-125634990D02*
X147653885Y-125673085D01*
X147653885Y-125673085D02*
X147577695Y-125787371D01*
X147577695Y-125787371D02*
X147539599Y-125939752D01*
X147539599Y-125939752D02*
X147539599Y-126244514D01*
X147539599Y-126244514D02*
X147577695Y-126320704D01*
X147577695Y-126320704D02*
X147615790Y-126358800D01*
X147615790Y-126358800D02*
X147691980Y-126396895D01*
X147691980Y-126396895D02*
X147844361Y-126396895D01*
X147844361Y-126396895D02*
X147920552Y-126358800D01*
X147920552Y-126358800D02*
X147958647Y-126320704D01*
X147958647Y-126320704D02*
X147996742Y-126244514D01*
X147996742Y-126244514D02*
X147996742Y-126054038D01*
X147996742Y-126054038D02*
X147958647Y-125977847D01*
X147958647Y-125977847D02*
X147920552Y-125939752D01*
X147920552Y-125939752D02*
X147844361Y-125901657D01*
X147844361Y-125901657D02*
X147691980Y-125901657D01*
X147691980Y-125901657D02*
X147615790Y-125939752D01*
X147615790Y-125939752D02*
X147577695Y-125977847D01*
X147577695Y-125977847D02*
X147539599Y-126054038D01*
X176728646Y-62862419D02*
X177347693Y-62862419D01*
X177347693Y-62862419D02*
X177014360Y-63243371D01*
X177014360Y-63243371D02*
X177157217Y-63243371D01*
X177157217Y-63243371D02*
X177252455Y-63290990D01*
X177252455Y-63290990D02*
X177300074Y-63338609D01*
X177300074Y-63338609D02*
X177347693Y-63433847D01*
X177347693Y-63433847D02*
X177347693Y-63671942D01*
X177347693Y-63671942D02*
X177300074Y-63767180D01*
X177300074Y-63767180D02*
X177252455Y-63814800D01*
X177252455Y-63814800D02*
X177157217Y-63862419D01*
X177157217Y-63862419D02*
X176871503Y-63862419D01*
X176871503Y-63862419D02*
X176776265Y-63814800D01*
X176776265Y-63814800D02*
X176728646Y-63767180D01*
X178252455Y-62862419D02*
X177776265Y-62862419D01*
X177776265Y-62862419D02*
X177728646Y-63338609D01*
X177728646Y-63338609D02*
X177776265Y-63290990D01*
X177776265Y-63290990D02*
X177871503Y-63243371D01*
X177871503Y-63243371D02*
X178109598Y-63243371D01*
X178109598Y-63243371D02*
X178204836Y-63290990D01*
X178204836Y-63290990D02*
X178252455Y-63338609D01*
X178252455Y-63338609D02*
X178300074Y-63433847D01*
X178300074Y-63433847D02*
X178300074Y-63671942D01*
X178300074Y-63671942D02*
X178252455Y-63767180D01*
X178252455Y-63767180D02*
X178204836Y-63814800D01*
X178204836Y-63814800D02*
X178109598Y-63862419D01*
X178109598Y-63862419D02*
X177871503Y-63862419D01*
X177871503Y-63862419D02*
X177776265Y-63814800D01*
X177776265Y-63814800D02*
X177728646Y-63767180D01*
X178919122Y-62862419D02*
X179014360Y-62862419D01*
X179014360Y-62862419D02*
X179109598Y-62910038D01*
X179109598Y-62910038D02*
X179157217Y-62957657D01*
X179157217Y-62957657D02*
X179204836Y-63052895D01*
X179204836Y-63052895D02*
X179252455Y-63243371D01*
X179252455Y-63243371D02*
X179252455Y-63481466D01*
X179252455Y-63481466D02*
X179204836Y-63671942D01*
X179204836Y-63671942D02*
X179157217Y-63767180D01*
X179157217Y-63767180D02*
X179109598Y-63814800D01*
X179109598Y-63814800D02*
X179014360Y-63862419D01*
X179014360Y-63862419D02*
X178919122Y-63862419D01*
X178919122Y-63862419D02*
X178823884Y-63814800D01*
X178823884Y-63814800D02*
X178776265Y-63767180D01*
X178776265Y-63767180D02*
X178728646Y-63671942D01*
X178728646Y-63671942D02*
X178681027Y-63481466D01*
X178681027Y-63481466D02*
X178681027Y-63243371D01*
X178681027Y-63243371D02*
X178728646Y-63052895D01*
X178728646Y-63052895D02*
X178776265Y-62957657D01*
X178776265Y-62957657D02*
X178823884Y-62910038D01*
X178823884Y-62910038D02*
X178919122Y-62862419D01*
X179538170Y-62862419D02*
X179871503Y-63862419D01*
X179871503Y-63862419D02*
X180204836Y-62862419D01*
D13*
X177726356Y-55032702D02*
X177964451Y-55032702D01*
X177678737Y-55175559D02*
X177845403Y-54675559D01*
X177845403Y-54675559D02*
X178012070Y-55175559D01*
X178464450Y-55127940D02*
X178440641Y-55151750D01*
X178440641Y-55151750D02*
X178369212Y-55175559D01*
X178369212Y-55175559D02*
X178321593Y-55175559D01*
X178321593Y-55175559D02*
X178250165Y-55151750D01*
X178250165Y-55151750D02*
X178202546Y-55104130D01*
X178202546Y-55104130D02*
X178178736Y-55056511D01*
X178178736Y-55056511D02*
X178154927Y-54961273D01*
X178154927Y-54961273D02*
X178154927Y-54889845D01*
X178154927Y-54889845D02*
X178178736Y-54794607D01*
X178178736Y-54794607D02*
X178202546Y-54746988D01*
X178202546Y-54746988D02*
X178250165Y-54699369D01*
X178250165Y-54699369D02*
X178321593Y-54675559D01*
X178321593Y-54675559D02*
X178369212Y-54675559D01*
X178369212Y-54675559D02*
X178440641Y-54699369D01*
X178440641Y-54699369D02*
X178464450Y-54723178D01*
D15*
X107278695Y-126168876D02*
X107278695Y-122168876D01*
X107278695Y-122168876D02*
X108231076Y-122168876D01*
X108231076Y-122168876D02*
X108802505Y-122359352D01*
X108802505Y-122359352D02*
X109183457Y-122740304D01*
X109183457Y-122740304D02*
X109373934Y-123121257D01*
X109373934Y-123121257D02*
X109564410Y-123883161D01*
X109564410Y-123883161D02*
X109564410Y-124454590D01*
X109564410Y-124454590D02*
X109373934Y-125216495D01*
X109373934Y-125216495D02*
X109183457Y-125597447D01*
X109183457Y-125597447D02*
X108802505Y-125978400D01*
X108802505Y-125978400D02*
X108231076Y-126168876D01*
X108231076Y-126168876D02*
X107278695Y-126168876D01*
X110897743Y-123502209D02*
X111850124Y-126168876D01*
X112802505Y-123502209D02*
X111850124Y-126168876D01*
X111850124Y-126168876D02*
X111469172Y-127121257D01*
X111469172Y-127121257D02*
X111278695Y-127311733D01*
X111278695Y-127311733D02*
X110897743Y-127502209D01*
X114326314Y-123502209D02*
X114326314Y-126168876D01*
X114326314Y-123883161D02*
X114516791Y-123692685D01*
X114516791Y-123692685D02*
X114897743Y-123502209D01*
X114897743Y-123502209D02*
X115469172Y-123502209D01*
X115469172Y-123502209D02*
X115850124Y-123692685D01*
X115850124Y-123692685D02*
X116040600Y-124073638D01*
X116040600Y-124073638D02*
X116040600Y-126168876D01*
X118516791Y-126168876D02*
X118135839Y-125978400D01*
X118135839Y-125978400D02*
X117945362Y-125787923D01*
X117945362Y-125787923D02*
X117754886Y-125406971D01*
X117754886Y-125406971D02*
X117754886Y-124264114D01*
X117754886Y-124264114D02*
X117945362Y-123883161D01*
X117945362Y-123883161D02*
X118135839Y-123692685D01*
X118135839Y-123692685D02*
X118516791Y-123502209D01*
X118516791Y-123502209D02*
X119088220Y-123502209D01*
X119088220Y-123502209D02*
X119469172Y-123692685D01*
X119469172Y-123692685D02*
X119659648Y-123883161D01*
X119659648Y-123883161D02*
X119850124Y-124264114D01*
X119850124Y-124264114D02*
X119850124Y-125406971D01*
X119850124Y-125406971D02*
X119659648Y-125787923D01*
X119659648Y-125787923D02*
X119469172Y-125978400D01*
X119469172Y-125978400D02*
X119088220Y-126168876D01*
X119088220Y-126168876D02*
X118516791Y-126168876D01*
X121564410Y-126168876D02*
X121564410Y-122168876D01*
X121564410Y-122168876D02*
X123088220Y-122168876D01*
X123088220Y-122168876D02*
X123469172Y-122359352D01*
X123469172Y-122359352D02*
X123659649Y-122549828D01*
X123659649Y-122549828D02*
X123850125Y-122930780D01*
X123850125Y-122930780D02*
X123850125Y-123502209D01*
X123850125Y-123502209D02*
X123659649Y-123883161D01*
X123659649Y-123883161D02*
X123469172Y-124073638D01*
X123469172Y-124073638D02*
X123088220Y-124264114D01*
X123088220Y-124264114D02*
X121564410Y-124264114D01*
X126135839Y-126168876D02*
X125754887Y-125978400D01*
X125754887Y-125978400D02*
X125564410Y-125787923D01*
X125564410Y-125787923D02*
X125373934Y-125406971D01*
X125373934Y-125406971D02*
X125373934Y-124264114D01*
X125373934Y-124264114D02*
X125564410Y-123883161D01*
X125564410Y-123883161D02*
X125754887Y-123692685D01*
X125754887Y-123692685D02*
X126135839Y-123502209D01*
X126135839Y-123502209D02*
X126707268Y-123502209D01*
X126707268Y-123502209D02*
X127088220Y-123692685D01*
X127088220Y-123692685D02*
X127278696Y-123883161D01*
X127278696Y-123883161D02*
X127469172Y-124264114D01*
X127469172Y-124264114D02*
X127469172Y-125406971D01*
X127469172Y-125406971D02*
X127278696Y-125787923D01*
X127278696Y-125787923D02*
X127088220Y-125978400D01*
X127088220Y-125978400D02*
X126707268Y-126168876D01*
X126707268Y-126168876D02*
X126135839Y-126168876D01*
X128802506Y-123502209D02*
X129564411Y-126168876D01*
X129564411Y-126168876D02*
X130326316Y-124264114D01*
X130326316Y-124264114D02*
X131088220Y-126168876D01*
X131088220Y-126168876D02*
X131850125Y-123502209D01*
X134897744Y-125978400D02*
X134516792Y-126168876D01*
X134516792Y-126168876D02*
X133754887Y-126168876D01*
X133754887Y-126168876D02*
X133373934Y-125978400D01*
X133373934Y-125978400D02*
X133183458Y-125597447D01*
X133183458Y-125597447D02*
X133183458Y-124073638D01*
X133183458Y-124073638D02*
X133373934Y-123692685D01*
X133373934Y-123692685D02*
X133754887Y-123502209D01*
X133754887Y-123502209D02*
X134516792Y-123502209D01*
X134516792Y-123502209D02*
X134897744Y-123692685D01*
X134897744Y-123692685D02*
X135088220Y-124073638D01*
X135088220Y-124073638D02*
X135088220Y-124454590D01*
X135088220Y-124454590D02*
X133183458Y-124835542D01*
X136802505Y-126168876D02*
X136802505Y-123502209D01*
X136802505Y-124264114D02*
X136992982Y-123883161D01*
X136992982Y-123883161D02*
X137183458Y-123692685D01*
X137183458Y-123692685D02*
X137564410Y-123502209D01*
X137564410Y-123502209D02*
X137945363Y-123502209D01*
D16*
X129313810Y-58926119D02*
X129932857Y-58926119D01*
X129932857Y-58926119D02*
X129599524Y-59307071D01*
X129599524Y-59307071D02*
X129742381Y-59307071D01*
X129742381Y-59307071D02*
X129837619Y-59354690D01*
X129837619Y-59354690D02*
X129885238Y-59402309D01*
X129885238Y-59402309D02*
X129932857Y-59497547D01*
X129932857Y-59497547D02*
X129932857Y-59735642D01*
X129932857Y-59735642D02*
X129885238Y-59830880D01*
X129885238Y-59830880D02*
X129837619Y-59878500D01*
X129837619Y-59878500D02*
X129742381Y-59926119D01*
X129742381Y-59926119D02*
X129456667Y-59926119D01*
X129456667Y-59926119D02*
X129361429Y-59878500D01*
X129361429Y-59878500D02*
X129313810Y-59830880D01*
X130361429Y-59830880D02*
X130409048Y-59878500D01*
X130409048Y-59878500D02*
X130361429Y-59926119D01*
X130361429Y-59926119D02*
X130313810Y-59878500D01*
X130313810Y-59878500D02*
X130361429Y-59830880D01*
X130361429Y-59830880D02*
X130361429Y-59926119D01*
X130742381Y-58926119D02*
X131361428Y-58926119D01*
X131361428Y-58926119D02*
X131028095Y-59307071D01*
X131028095Y-59307071D02*
X131170952Y-59307071D01*
X131170952Y-59307071D02*
X131266190Y-59354690D01*
X131266190Y-59354690D02*
X131313809Y-59402309D01*
X131313809Y-59402309D02*
X131361428Y-59497547D01*
X131361428Y-59497547D02*
X131361428Y-59735642D01*
X131361428Y-59735642D02*
X131313809Y-59830880D01*
X131313809Y-59830880D02*
X131266190Y-59878500D01*
X131266190Y-59878500D02*
X131170952Y-59926119D01*
X131170952Y-59926119D02*
X130885238Y-59926119D01*
X130885238Y-59926119D02*
X130790000Y-59878500D01*
X130790000Y-59878500D02*
X130742381Y-59830880D01*
X131647143Y-58926119D02*
X131980476Y-59926119D01*
X131980476Y-59926119D02*
X132313809Y-58926119D01*
D11*
X157816190Y-111090508D02*
X158783810Y-111090508D01*
D13*
X118589047Y-54691869D02*
X118541428Y-54668059D01*
X118541428Y-54668059D02*
X118469999Y-54668059D01*
X118469999Y-54668059D02*
X118398571Y-54691869D01*
X118398571Y-54691869D02*
X118350952Y-54739488D01*
X118350952Y-54739488D02*
X118327142Y-54787107D01*
X118327142Y-54787107D02*
X118303333Y-54882345D01*
X118303333Y-54882345D02*
X118303333Y-54953773D01*
X118303333Y-54953773D02*
X118327142Y-55049011D01*
X118327142Y-55049011D02*
X118350952Y-55096630D01*
X118350952Y-55096630D02*
X118398571Y-55144250D01*
X118398571Y-55144250D02*
X118469999Y-55168059D01*
X118469999Y-55168059D02*
X118517618Y-55168059D01*
X118517618Y-55168059D02*
X118589047Y-55144250D01*
X118589047Y-55144250D02*
X118612856Y-55120440D01*
X118612856Y-55120440D02*
X118612856Y-54953773D01*
X118612856Y-54953773D02*
X118517618Y-54953773D01*
X118827142Y-55168059D02*
X118827142Y-54668059D01*
X118827142Y-54668059D02*
X119112856Y-55168059D01*
X119112856Y-55168059D02*
X119112856Y-54668059D01*
X119350952Y-55168059D02*
X119350952Y-54668059D01*
X119350952Y-54668059D02*
X119470000Y-54668059D01*
X119470000Y-54668059D02*
X119541428Y-54691869D01*
X119541428Y-54691869D02*
X119589047Y-54739488D01*
X119589047Y-54739488D02*
X119612857Y-54787107D01*
X119612857Y-54787107D02*
X119636666Y-54882345D01*
X119636666Y-54882345D02*
X119636666Y-54953773D01*
X119636666Y-54953773D02*
X119612857Y-55049011D01*
X119612857Y-55049011D02*
X119589047Y-55096630D01*
X119589047Y-55096630D02*
X119541428Y-55144250D01*
X119541428Y-55144250D02*
X119470000Y-55168059D01*
X119470000Y-55168059D02*
X119350952Y-55168059D01*
D16*
X136099523Y-65026119D02*
X135623333Y-65026119D01*
X135623333Y-65026119D02*
X135575714Y-65502309D01*
X135575714Y-65502309D02*
X135623333Y-65454690D01*
X135623333Y-65454690D02*
X135718571Y-65407071D01*
X135718571Y-65407071D02*
X135956666Y-65407071D01*
X135956666Y-65407071D02*
X136051904Y-65454690D01*
X136051904Y-65454690D02*
X136099523Y-65502309D01*
X136099523Y-65502309D02*
X136147142Y-65597547D01*
X136147142Y-65597547D02*
X136147142Y-65835642D01*
X136147142Y-65835642D02*
X136099523Y-65930880D01*
X136099523Y-65930880D02*
X136051904Y-65978500D01*
X136051904Y-65978500D02*
X135956666Y-66026119D01*
X135956666Y-66026119D02*
X135718571Y-66026119D01*
X135718571Y-66026119D02*
X135623333Y-65978500D01*
X135623333Y-65978500D02*
X135575714Y-65930880D01*
X136432857Y-65026119D02*
X136766190Y-66026119D01*
X136766190Y-66026119D02*
X137099523Y-65026119D01*
D11*
X138292618Y-55714318D02*
X138292618Y-54444318D01*
X138292618Y-54444318D02*
X138594999Y-54444318D01*
X138594999Y-54444318D02*
X138776428Y-54504794D01*
X138776428Y-54504794D02*
X138897380Y-54625746D01*
X138897380Y-54625746D02*
X138957857Y-54746699D01*
X138957857Y-54746699D02*
X139018333Y-54988603D01*
X139018333Y-54988603D02*
X139018333Y-55170032D01*
X139018333Y-55170032D02*
X138957857Y-55411937D01*
X138957857Y-55411937D02*
X138897380Y-55532889D01*
X138897380Y-55532889D02*
X138776428Y-55653842D01*
X138776428Y-55653842D02*
X138594999Y-55714318D01*
X138594999Y-55714318D02*
X138292618Y-55714318D01*
X139441666Y-54444318D02*
X140227857Y-54444318D01*
X140227857Y-54444318D02*
X139804523Y-54928127D01*
X139804523Y-54928127D02*
X139985952Y-54928127D01*
X139985952Y-54928127D02*
X140106904Y-54988603D01*
X140106904Y-54988603D02*
X140167380Y-55049080D01*
X140167380Y-55049080D02*
X140227857Y-55170032D01*
X140227857Y-55170032D02*
X140227857Y-55472413D01*
X140227857Y-55472413D02*
X140167380Y-55593365D01*
X140167380Y-55593365D02*
X140106904Y-55653842D01*
X140106904Y-55653842D02*
X139985952Y-55714318D01*
X139985952Y-55714318D02*
X139623095Y-55714318D01*
X139623095Y-55714318D02*
X139502142Y-55653842D01*
X139502142Y-55653842D02*
X139441666Y-55593365D01*
D13*
X142357618Y-55168059D02*
X142357618Y-54668059D01*
X142357618Y-54668059D02*
X142548094Y-54668059D01*
X142548094Y-54668059D02*
X142595713Y-54691869D01*
X142595713Y-54691869D02*
X142619523Y-54715678D01*
X142619523Y-54715678D02*
X142643332Y-54763297D01*
X142643332Y-54763297D02*
X142643332Y-54834726D01*
X142643332Y-54834726D02*
X142619523Y-54882345D01*
X142619523Y-54882345D02*
X142595713Y-54906154D01*
X142595713Y-54906154D02*
X142548094Y-54929964D01*
X142548094Y-54929964D02*
X142357618Y-54929964D01*
X142809999Y-54668059D02*
X142929047Y-55168059D01*
X142929047Y-55168059D02*
X143024285Y-54810916D01*
X143024285Y-54810916D02*
X143119523Y-55168059D01*
X143119523Y-55168059D02*
X143238571Y-54668059D01*
X143429047Y-55168059D02*
X143429047Y-54668059D01*
X143429047Y-54668059D02*
X143595714Y-55025202D01*
X143595714Y-55025202D02*
X143762380Y-54668059D01*
X143762380Y-54668059D02*
X143762380Y-55168059D01*
D12*
X159047561Y-49320475D02*
X159095180Y-49225237D01*
X159095180Y-49225237D02*
X159095180Y-49082380D01*
X159095180Y-49082380D02*
X159047561Y-48939523D01*
X159047561Y-48939523D02*
X158952323Y-48844285D01*
X158952323Y-48844285D02*
X158857085Y-48796666D01*
X158857085Y-48796666D02*
X158666609Y-48749047D01*
X158666609Y-48749047D02*
X158523752Y-48749047D01*
X158523752Y-48749047D02*
X158333276Y-48796666D01*
X158333276Y-48796666D02*
X158238038Y-48844285D01*
X158238038Y-48844285D02*
X158142800Y-48939523D01*
X158142800Y-48939523D02*
X158095180Y-49082380D01*
X158095180Y-49082380D02*
X158095180Y-49177618D01*
X158095180Y-49177618D02*
X158142800Y-49320475D01*
X158142800Y-49320475D02*
X158190419Y-49368094D01*
X158190419Y-49368094D02*
X158523752Y-49368094D01*
X158523752Y-49368094D02*
X158523752Y-49177618D01*
X158380895Y-49749047D02*
X158380895Y-50225237D01*
X158095180Y-49653809D02*
X159095180Y-49987142D01*
X159095180Y-49987142D02*
X158095180Y-50320475D01*
X159095180Y-50510952D02*
X159095180Y-51082380D01*
X158095180Y-50796666D02*
X159095180Y-50796666D01*
X158618990Y-51415714D02*
X158618990Y-51749047D01*
X158095180Y-51891904D02*
X158095180Y-51415714D01*
X158095180Y-51415714D02*
X159095180Y-51415714D01*
X159095180Y-51415714D02*
X159095180Y-51891904D01*
X159095180Y-52939524D02*
X158095180Y-53272857D01*
X158095180Y-53272857D02*
X159095180Y-53606190D01*
X174865180Y-48106190D02*
X173865180Y-48439523D01*
X173865180Y-48439523D02*
X174865180Y-48772856D01*
X174865180Y-49296666D02*
X174865180Y-49487142D01*
X174865180Y-49487142D02*
X174817561Y-49582380D01*
X174817561Y-49582380D02*
X174722323Y-49677618D01*
X174722323Y-49677618D02*
X174531847Y-49725237D01*
X174531847Y-49725237D02*
X174198514Y-49725237D01*
X174198514Y-49725237D02*
X174008038Y-49677618D01*
X174008038Y-49677618D02*
X173912800Y-49582380D01*
X173912800Y-49582380D02*
X173865180Y-49487142D01*
X173865180Y-49487142D02*
X173865180Y-49296666D01*
X173865180Y-49296666D02*
X173912800Y-49201428D01*
X173912800Y-49201428D02*
X174008038Y-49106190D01*
X174008038Y-49106190D02*
X174198514Y-49058571D01*
X174198514Y-49058571D02*
X174531847Y-49058571D01*
X174531847Y-49058571D02*
X174722323Y-49106190D01*
X174722323Y-49106190D02*
X174817561Y-49201428D01*
X174817561Y-49201428D02*
X174865180Y-49296666D01*
X173865180Y-50629999D02*
X173865180Y-50153809D01*
X173865180Y-50153809D02*
X174865180Y-50153809D01*
X174865180Y-50820476D02*
X174865180Y-51391904D01*
X173865180Y-51106190D02*
X174865180Y-51106190D01*
X174150895Y-51677619D02*
X174150895Y-52153809D01*
X173865180Y-51582381D02*
X174865180Y-51915714D01*
X174865180Y-51915714D02*
X173865180Y-52249047D01*
X174817561Y-53106190D02*
X174865180Y-53010952D01*
X174865180Y-53010952D02*
X174865180Y-52868095D01*
X174865180Y-52868095D02*
X174817561Y-52725238D01*
X174817561Y-52725238D02*
X174722323Y-52630000D01*
X174722323Y-52630000D02*
X174627085Y-52582381D01*
X174627085Y-52582381D02*
X174436609Y-52534762D01*
X174436609Y-52534762D02*
X174293752Y-52534762D01*
X174293752Y-52534762D02*
X174103276Y-52582381D01*
X174103276Y-52582381D02*
X174008038Y-52630000D01*
X174008038Y-52630000D02*
X173912800Y-52725238D01*
X173912800Y-52725238D02*
X173865180Y-52868095D01*
X173865180Y-52868095D02*
X173865180Y-52963333D01*
X173865180Y-52963333D02*
X173912800Y-53106190D01*
X173912800Y-53106190D02*
X173960419Y-53153809D01*
X173960419Y-53153809D02*
X174293752Y-53153809D01*
X174293752Y-53153809D02*
X174293752Y-52963333D01*
X174388990Y-53582381D02*
X174388990Y-53915714D01*
X173865180Y-54058571D02*
X173865180Y-53582381D01*
X173865180Y-53582381D02*
X174865180Y-53582381D01*
X174865180Y-53582381D02*
X174865180Y-54058571D01*
X182790895Y-48582381D02*
X182790895Y-49058571D01*
X182505180Y-48487143D02*
X183505180Y-48820476D01*
X183505180Y-48820476D02*
X182505180Y-49153809D01*
X182600419Y-50058571D02*
X182552800Y-50010952D01*
X182552800Y-50010952D02*
X182505180Y-49868095D01*
X182505180Y-49868095D02*
X182505180Y-49772857D01*
X182505180Y-49772857D02*
X182552800Y-49630000D01*
X182552800Y-49630000D02*
X182648038Y-49534762D01*
X182648038Y-49534762D02*
X182743276Y-49487143D01*
X182743276Y-49487143D02*
X182933752Y-49439524D01*
X182933752Y-49439524D02*
X183076609Y-49439524D01*
X183076609Y-49439524D02*
X183267085Y-49487143D01*
X183267085Y-49487143D02*
X183362323Y-49534762D01*
X183362323Y-49534762D02*
X183457561Y-49630000D01*
X183457561Y-49630000D02*
X183505180Y-49772857D01*
X183505180Y-49772857D02*
X183505180Y-49868095D01*
X183505180Y-49868095D02*
X183457561Y-50010952D01*
X183457561Y-50010952D02*
X183409942Y-50058571D01*
X183505180Y-51439524D02*
X183505180Y-51630000D01*
X183505180Y-51630000D02*
X183457561Y-51725238D01*
X183457561Y-51725238D02*
X183362323Y-51820476D01*
X183362323Y-51820476D02*
X183171847Y-51868095D01*
X183171847Y-51868095D02*
X182838514Y-51868095D01*
X182838514Y-51868095D02*
X182648038Y-51820476D01*
X182648038Y-51820476D02*
X182552800Y-51725238D01*
X182552800Y-51725238D02*
X182505180Y-51630000D01*
X182505180Y-51630000D02*
X182505180Y-51439524D01*
X182505180Y-51439524D02*
X182552800Y-51344286D01*
X182552800Y-51344286D02*
X182648038Y-51249048D01*
X182648038Y-51249048D02*
X182838514Y-51201429D01*
X182838514Y-51201429D02*
X183171847Y-51201429D01*
X183171847Y-51201429D02*
X183362323Y-51249048D01*
X183362323Y-51249048D02*
X183457561Y-51344286D01*
X183457561Y-51344286D02*
X183505180Y-51439524D01*
X183505180Y-52296667D02*
X182695657Y-52296667D01*
X182695657Y-52296667D02*
X182600419Y-52344286D01*
X182600419Y-52344286D02*
X182552800Y-52391905D01*
X182552800Y-52391905D02*
X182505180Y-52487143D01*
X182505180Y-52487143D02*
X182505180Y-52677619D01*
X182505180Y-52677619D02*
X182552800Y-52772857D01*
X182552800Y-52772857D02*
X182600419Y-52820476D01*
X182600419Y-52820476D02*
X182695657Y-52868095D01*
X182695657Y-52868095D02*
X183505180Y-52868095D01*
X183505180Y-53201429D02*
X183505180Y-53772857D01*
X182505180Y-53487143D02*
X183505180Y-53487143D01*
X123445180Y-49606190D02*
X124445180Y-49606190D01*
X123968990Y-49606190D02*
X123968990Y-50177618D01*
X123445180Y-50177618D02*
X124445180Y-50177618D01*
X123730895Y-50606190D02*
X123730895Y-51082380D01*
X123445180Y-50510952D02*
X124445180Y-50844285D01*
X124445180Y-50844285D02*
X123445180Y-51177618D01*
X123445180Y-51987142D02*
X123445180Y-51510952D01*
X123445180Y-51510952D02*
X124445180Y-51510952D01*
X123445180Y-52796666D02*
X123445180Y-52320476D01*
X123445180Y-52320476D02*
X124445180Y-52320476D01*
D16*
X165390952Y-54736119D02*
X164819524Y-54736119D01*
X165105238Y-54736119D02*
X165105238Y-53736119D01*
X165105238Y-53736119D02*
X165010000Y-53878976D01*
X165010000Y-53878976D02*
X164914762Y-53974214D01*
X164914762Y-53974214D02*
X164819524Y-54021833D01*
X166295714Y-53736119D02*
X165819524Y-53736119D01*
X165819524Y-53736119D02*
X165771905Y-54212309D01*
X165771905Y-54212309D02*
X165819524Y-54164690D01*
X165819524Y-54164690D02*
X165914762Y-54117071D01*
X165914762Y-54117071D02*
X166152857Y-54117071D01*
X166152857Y-54117071D02*
X166248095Y-54164690D01*
X166248095Y-54164690D02*
X166295714Y-54212309D01*
X166295714Y-54212309D02*
X166343333Y-54307547D01*
X166343333Y-54307547D02*
X166343333Y-54545642D01*
X166343333Y-54545642D02*
X166295714Y-54640880D01*
X166295714Y-54640880D02*
X166248095Y-54688500D01*
X166248095Y-54688500D02*
X166152857Y-54736119D01*
X166152857Y-54736119D02*
X165914762Y-54736119D01*
X165914762Y-54736119D02*
X165819524Y-54688500D01*
X165819524Y-54688500D02*
X165771905Y-54640880D01*
X166629048Y-53736119D02*
X166962381Y-54736119D01*
X166962381Y-54736119D02*
X167295714Y-53736119D01*
D13*
X145474762Y-54668059D02*
X145236667Y-54668059D01*
X145236667Y-54668059D02*
X145212858Y-54906154D01*
X145212858Y-54906154D02*
X145236667Y-54882345D01*
X145236667Y-54882345D02*
X145284286Y-54858535D01*
X145284286Y-54858535D02*
X145403334Y-54858535D01*
X145403334Y-54858535D02*
X145450953Y-54882345D01*
X145450953Y-54882345D02*
X145474762Y-54906154D01*
X145474762Y-54906154D02*
X145498572Y-54953773D01*
X145498572Y-54953773D02*
X145498572Y-55072821D01*
X145498572Y-55072821D02*
X145474762Y-55120440D01*
X145474762Y-55120440D02*
X145450953Y-55144250D01*
X145450953Y-55144250D02*
X145403334Y-55168059D01*
X145403334Y-55168059D02*
X145284286Y-55168059D01*
X145284286Y-55168059D02*
X145236667Y-55144250D01*
X145236667Y-55144250D02*
X145212858Y-55120440D01*
X145641429Y-54668059D02*
X145808095Y-55168059D01*
X145808095Y-55168059D02*
X145974762Y-54668059D01*
D11*
X105464048Y-92174318D02*
X105040714Y-91569556D01*
X104738333Y-92174318D02*
X104738333Y-90904318D01*
X104738333Y-90904318D02*
X105222143Y-90904318D01*
X105222143Y-90904318D02*
X105343095Y-90964794D01*
X105343095Y-90964794D02*
X105403572Y-91025270D01*
X105403572Y-91025270D02*
X105464048Y-91146222D01*
X105464048Y-91146222D02*
X105464048Y-91327651D01*
X105464048Y-91327651D02*
X105403572Y-91448603D01*
X105403572Y-91448603D02*
X105343095Y-91509080D01*
X105343095Y-91509080D02*
X105222143Y-91569556D01*
X105222143Y-91569556D02*
X104738333Y-91569556D01*
X105826905Y-90904318D02*
X106250238Y-92174318D01*
X106250238Y-92174318D02*
X106673572Y-90904318D01*
X107762143Y-92174318D02*
X107036428Y-92174318D01*
X107399285Y-92174318D02*
X107399285Y-90904318D01*
X107399285Y-90904318D02*
X107278333Y-91085746D01*
X107278333Y-91085746D02*
X107157381Y-91206699D01*
X107157381Y-91206699D02*
X107036428Y-91267175D01*
D13*
X180628571Y-84328059D02*
X180461905Y-84089964D01*
X180342857Y-84328059D02*
X180342857Y-83828059D01*
X180342857Y-83828059D02*
X180533333Y-83828059D01*
X180533333Y-83828059D02*
X180580952Y-83851869D01*
X180580952Y-83851869D02*
X180604762Y-83875678D01*
X180604762Y-83875678D02*
X180628571Y-83923297D01*
X180628571Y-83923297D02*
X180628571Y-83994726D01*
X180628571Y-83994726D02*
X180604762Y-84042345D01*
X180604762Y-84042345D02*
X180580952Y-84066154D01*
X180580952Y-84066154D02*
X180533333Y-84089964D01*
X180533333Y-84089964D02*
X180342857Y-84089964D01*
X181104762Y-84328059D02*
X180819048Y-84328059D01*
X180961905Y-84328059D02*
X180961905Y-83828059D01*
X180961905Y-83828059D02*
X180914286Y-83899488D01*
X180914286Y-83899488D02*
X180866667Y-83947107D01*
X180866667Y-83947107D02*
X180819048Y-83970916D01*
X181533333Y-83994726D02*
X181533333Y-84328059D01*
X181414285Y-83804250D02*
X181295238Y-84161392D01*
X181295238Y-84161392D02*
X181604761Y-84161392D01*
X173396666Y-58958059D02*
X173230000Y-58719964D01*
X173110952Y-58958059D02*
X173110952Y-58458059D01*
X173110952Y-58458059D02*
X173301428Y-58458059D01*
X173301428Y-58458059D02*
X173349047Y-58481869D01*
X173349047Y-58481869D02*
X173372857Y-58505678D01*
X173372857Y-58505678D02*
X173396666Y-58553297D01*
X173396666Y-58553297D02*
X173396666Y-58624726D01*
X173396666Y-58624726D02*
X173372857Y-58672345D01*
X173372857Y-58672345D02*
X173349047Y-58696154D01*
X173349047Y-58696154D02*
X173301428Y-58719964D01*
X173301428Y-58719964D02*
X173110952Y-58719964D01*
X173825238Y-58458059D02*
X173730000Y-58458059D01*
X173730000Y-58458059D02*
X173682381Y-58481869D01*
X173682381Y-58481869D02*
X173658571Y-58505678D01*
X173658571Y-58505678D02*
X173610952Y-58577107D01*
X173610952Y-58577107D02*
X173587143Y-58672345D01*
X173587143Y-58672345D02*
X173587143Y-58862821D01*
X173587143Y-58862821D02*
X173610952Y-58910440D01*
X173610952Y-58910440D02*
X173634762Y-58934250D01*
X173634762Y-58934250D02*
X173682381Y-58958059D01*
X173682381Y-58958059D02*
X173777619Y-58958059D01*
X173777619Y-58958059D02*
X173825238Y-58934250D01*
X173825238Y-58934250D02*
X173849047Y-58910440D01*
X173849047Y-58910440D02*
X173872857Y-58862821D01*
X173872857Y-58862821D02*
X173872857Y-58743773D01*
X173872857Y-58743773D02*
X173849047Y-58696154D01*
X173849047Y-58696154D02*
X173825238Y-58672345D01*
X173825238Y-58672345D02*
X173777619Y-58648535D01*
X173777619Y-58648535D02*
X173682381Y-58648535D01*
X173682381Y-58648535D02*
X173634762Y-58672345D01*
X173634762Y-58672345D02*
X173610952Y-58696154D01*
X173610952Y-58696154D02*
X173587143Y-58743773D01*
D10*
X145041531Y-116970669D02*
X145041531Y-117038012D01*
X145041531Y-117038012D02*
X144974188Y-117172699D01*
X144974188Y-117172699D02*
X144906844Y-117240043D01*
X144906844Y-117240043D02*
X144772157Y-117307386D01*
X144772157Y-117307386D02*
X144637470Y-117307386D01*
X144637470Y-117307386D02*
X144536455Y-117273715D01*
X144536455Y-117273715D02*
X144368096Y-117172699D01*
X144368096Y-117172699D02*
X144267081Y-117071684D01*
X144267081Y-117071684D02*
X144166066Y-116903325D01*
X144166066Y-116903325D02*
X144132394Y-116802310D01*
X144132394Y-116802310D02*
X144132394Y-116667623D01*
X144132394Y-116667623D02*
X144199738Y-116532936D01*
X144199738Y-116532936D02*
X144267081Y-116465593D01*
X144267081Y-116465593D02*
X144401768Y-116398249D01*
X144401768Y-116398249D02*
X144469112Y-116398249D01*
X145782310Y-116364577D02*
X145378249Y-116768638D01*
X145580279Y-116566608D02*
X144873173Y-115859501D01*
X144873173Y-115859501D02*
X144906844Y-116027860D01*
X144906844Y-116027860D02*
X144906844Y-116162547D01*
X144906844Y-116162547D02*
X144873173Y-116263562D01*
X145512936Y-115219738D02*
X145580279Y-115152394D01*
X145580279Y-115152394D02*
X145681295Y-115118722D01*
X145681295Y-115118722D02*
X145748638Y-115118722D01*
X145748638Y-115118722D02*
X145849653Y-115152394D01*
X145849653Y-115152394D02*
X146018012Y-115253409D01*
X146018012Y-115253409D02*
X146186371Y-115421768D01*
X146186371Y-115421768D02*
X146287386Y-115590127D01*
X146287386Y-115590127D02*
X146321058Y-115691142D01*
X146321058Y-115691142D02*
X146321058Y-115758486D01*
X146321058Y-115758486D02*
X146287386Y-115859501D01*
X146287386Y-115859501D02*
X146220043Y-115926844D01*
X146220043Y-115926844D02*
X146119028Y-115960516D01*
X146119028Y-115960516D02*
X146051684Y-115960516D01*
X146051684Y-115960516D02*
X145950669Y-115926844D01*
X145950669Y-115926844D02*
X145782310Y-115825829D01*
X145782310Y-115825829D02*
X145613951Y-115657470D01*
X145613951Y-115657470D02*
X145512936Y-115489112D01*
X145512936Y-115489112D02*
X145479264Y-115388096D01*
X145479264Y-115388096D02*
X145479264Y-115320753D01*
X145479264Y-115320753D02*
X145512936Y-115219738D01*
D13*
X175358571Y-84328059D02*
X175191905Y-84089964D01*
X175072857Y-84328059D02*
X175072857Y-83828059D01*
X175072857Y-83828059D02*
X175263333Y-83828059D01*
X175263333Y-83828059D02*
X175310952Y-83851869D01*
X175310952Y-83851869D02*
X175334762Y-83875678D01*
X175334762Y-83875678D02*
X175358571Y-83923297D01*
X175358571Y-83923297D02*
X175358571Y-83994726D01*
X175358571Y-83994726D02*
X175334762Y-84042345D01*
X175334762Y-84042345D02*
X175310952Y-84066154D01*
X175310952Y-84066154D02*
X175263333Y-84089964D01*
X175263333Y-84089964D02*
X175072857Y-84089964D01*
X175834762Y-84328059D02*
X175549048Y-84328059D01*
X175691905Y-84328059D02*
X175691905Y-83828059D01*
X175691905Y-83828059D02*
X175644286Y-83899488D01*
X175644286Y-83899488D02*
X175596667Y-83947107D01*
X175596667Y-83947107D02*
X175549048Y-83970916D01*
X176287142Y-83828059D02*
X176049047Y-83828059D01*
X176049047Y-83828059D02*
X176025238Y-84066154D01*
X176025238Y-84066154D02*
X176049047Y-84042345D01*
X176049047Y-84042345D02*
X176096666Y-84018535D01*
X176096666Y-84018535D02*
X176215714Y-84018535D01*
X176215714Y-84018535D02*
X176263333Y-84042345D01*
X176263333Y-84042345D02*
X176287142Y-84066154D01*
X176287142Y-84066154D02*
X176310952Y-84113773D01*
X176310952Y-84113773D02*
X176310952Y-84232821D01*
X176310952Y-84232821D02*
X176287142Y-84280440D01*
X176287142Y-84280440D02*
X176263333Y-84304250D01*
X176263333Y-84304250D02*
X176215714Y-84328059D01*
X176215714Y-84328059D02*
X176096666Y-84328059D01*
X176096666Y-84328059D02*
X176049047Y-84304250D01*
X176049047Y-84304250D02*
X176025238Y-84280440D01*
D11*
X138182618Y-82764318D02*
X138182618Y-81494318D01*
X138182618Y-81494318D02*
X138484999Y-81494318D01*
X138484999Y-81494318D02*
X138666428Y-81554794D01*
X138666428Y-81554794D02*
X138787380Y-81675746D01*
X138787380Y-81675746D02*
X138847857Y-81796699D01*
X138847857Y-81796699D02*
X138908333Y-82038603D01*
X138908333Y-82038603D02*
X138908333Y-82220032D01*
X138908333Y-82220032D02*
X138847857Y-82461937D01*
X138847857Y-82461937D02*
X138787380Y-82582889D01*
X138787380Y-82582889D02*
X138666428Y-82703842D01*
X138666428Y-82703842D02*
X138484999Y-82764318D01*
X138484999Y-82764318D02*
X138182618Y-82764318D01*
X139331666Y-81494318D02*
X140117857Y-81494318D01*
X140117857Y-81494318D02*
X139694523Y-81978127D01*
X139694523Y-81978127D02*
X139875952Y-81978127D01*
X139875952Y-81978127D02*
X139996904Y-82038603D01*
X139996904Y-82038603D02*
X140057380Y-82099080D01*
X140057380Y-82099080D02*
X140117857Y-82220032D01*
X140117857Y-82220032D02*
X140117857Y-82522413D01*
X140117857Y-82522413D02*
X140057380Y-82643365D01*
X140057380Y-82643365D02*
X139996904Y-82703842D01*
X139996904Y-82703842D02*
X139875952Y-82764318D01*
X139875952Y-82764318D02*
X139513095Y-82764318D01*
X139513095Y-82764318D02*
X139392142Y-82703842D01*
X139392142Y-82703842D02*
X139331666Y-82643365D01*
D13*
X119728571Y-62788059D02*
X119561905Y-62549964D01*
X119442857Y-62788059D02*
X119442857Y-62288059D01*
X119442857Y-62288059D02*
X119633333Y-62288059D01*
X119633333Y-62288059D02*
X119680952Y-62311869D01*
X119680952Y-62311869D02*
X119704762Y-62335678D01*
X119704762Y-62335678D02*
X119728571Y-62383297D01*
X119728571Y-62383297D02*
X119728571Y-62454726D01*
X119728571Y-62454726D02*
X119704762Y-62502345D01*
X119704762Y-62502345D02*
X119680952Y-62526154D01*
X119680952Y-62526154D02*
X119633333Y-62549964D01*
X119633333Y-62549964D02*
X119442857Y-62549964D01*
X120204762Y-62788059D02*
X119919048Y-62788059D01*
X120061905Y-62788059D02*
X120061905Y-62288059D01*
X120061905Y-62288059D02*
X120014286Y-62359488D01*
X120014286Y-62359488D02*
X119966667Y-62407107D01*
X119966667Y-62407107D02*
X119919048Y-62430916D01*
X120514285Y-62288059D02*
X120561904Y-62288059D01*
X120561904Y-62288059D02*
X120609523Y-62311869D01*
X120609523Y-62311869D02*
X120633333Y-62335678D01*
X120633333Y-62335678D02*
X120657142Y-62383297D01*
X120657142Y-62383297D02*
X120680952Y-62478535D01*
X120680952Y-62478535D02*
X120680952Y-62597583D01*
X120680952Y-62597583D02*
X120657142Y-62692821D01*
X120657142Y-62692821D02*
X120633333Y-62740440D01*
X120633333Y-62740440D02*
X120609523Y-62764250D01*
X120609523Y-62764250D02*
X120561904Y-62788059D01*
X120561904Y-62788059D02*
X120514285Y-62788059D01*
X120514285Y-62788059D02*
X120466666Y-62764250D01*
X120466666Y-62764250D02*
X120442857Y-62740440D01*
X120442857Y-62740440D02*
X120419047Y-62692821D01*
X120419047Y-62692821D02*
X120395238Y-62597583D01*
X120395238Y-62597583D02*
X120395238Y-62478535D01*
X120395238Y-62478535D02*
X120419047Y-62383297D01*
X120419047Y-62383297D02*
X120442857Y-62335678D01*
X120442857Y-62335678D02*
X120466666Y-62311869D01*
X120466666Y-62311869D02*
X120514285Y-62288059D01*
X175616666Y-76628059D02*
X175450000Y-76389964D01*
X175330952Y-76628059D02*
X175330952Y-76128059D01*
X175330952Y-76128059D02*
X175521428Y-76128059D01*
X175521428Y-76128059D02*
X175569047Y-76151869D01*
X175569047Y-76151869D02*
X175592857Y-76175678D01*
X175592857Y-76175678D02*
X175616666Y-76223297D01*
X175616666Y-76223297D02*
X175616666Y-76294726D01*
X175616666Y-76294726D02*
X175592857Y-76342345D01*
X175592857Y-76342345D02*
X175569047Y-76366154D01*
X175569047Y-76366154D02*
X175521428Y-76389964D01*
X175521428Y-76389964D02*
X175330952Y-76389964D01*
X175902381Y-76342345D02*
X175854762Y-76318535D01*
X175854762Y-76318535D02*
X175830952Y-76294726D01*
X175830952Y-76294726D02*
X175807143Y-76247107D01*
X175807143Y-76247107D02*
X175807143Y-76223297D01*
X175807143Y-76223297D02*
X175830952Y-76175678D01*
X175830952Y-76175678D02*
X175854762Y-76151869D01*
X175854762Y-76151869D02*
X175902381Y-76128059D01*
X175902381Y-76128059D02*
X175997619Y-76128059D01*
X175997619Y-76128059D02*
X176045238Y-76151869D01*
X176045238Y-76151869D02*
X176069047Y-76175678D01*
X176069047Y-76175678D02*
X176092857Y-76223297D01*
X176092857Y-76223297D02*
X176092857Y-76247107D01*
X176092857Y-76247107D02*
X176069047Y-76294726D01*
X176069047Y-76294726D02*
X176045238Y-76318535D01*
X176045238Y-76318535D02*
X175997619Y-76342345D01*
X175997619Y-76342345D02*
X175902381Y-76342345D01*
X175902381Y-76342345D02*
X175854762Y-76366154D01*
X175854762Y-76366154D02*
X175830952Y-76389964D01*
X175830952Y-76389964D02*
X175807143Y-76437583D01*
X175807143Y-76437583D02*
X175807143Y-76532821D01*
X175807143Y-76532821D02*
X175830952Y-76580440D01*
X175830952Y-76580440D02*
X175854762Y-76604250D01*
X175854762Y-76604250D02*
X175902381Y-76628059D01*
X175902381Y-76628059D02*
X175997619Y-76628059D01*
X175997619Y-76628059D02*
X176045238Y-76604250D01*
X176045238Y-76604250D02*
X176069047Y-76580440D01*
X176069047Y-76580440D02*
X176092857Y-76532821D01*
X176092857Y-76532821D02*
X176092857Y-76437583D01*
X176092857Y-76437583D02*
X176069047Y-76389964D01*
X176069047Y-76389964D02*
X176045238Y-76366154D01*
X176045238Y-76366154D02*
X175997619Y-76342345D01*
X155258571Y-74260440D02*
X155234762Y-74284250D01*
X155234762Y-74284250D02*
X155163333Y-74308059D01*
X155163333Y-74308059D02*
X155115714Y-74308059D01*
X155115714Y-74308059D02*
X155044286Y-74284250D01*
X155044286Y-74284250D02*
X154996667Y-74236630D01*
X154996667Y-74236630D02*
X154972857Y-74189011D01*
X154972857Y-74189011D02*
X154949048Y-74093773D01*
X154949048Y-74093773D02*
X154949048Y-74022345D01*
X154949048Y-74022345D02*
X154972857Y-73927107D01*
X154972857Y-73927107D02*
X154996667Y-73879488D01*
X154996667Y-73879488D02*
X155044286Y-73831869D01*
X155044286Y-73831869D02*
X155115714Y-73808059D01*
X155115714Y-73808059D02*
X155163333Y-73808059D01*
X155163333Y-73808059D02*
X155234762Y-73831869D01*
X155234762Y-73831869D02*
X155258571Y-73855678D01*
X155734762Y-74308059D02*
X155449048Y-74308059D01*
X155591905Y-74308059D02*
X155591905Y-73808059D01*
X155591905Y-73808059D02*
X155544286Y-73879488D01*
X155544286Y-73879488D02*
X155496667Y-73927107D01*
X155496667Y-73927107D02*
X155449048Y-73950916D01*
X156163333Y-73974726D02*
X156163333Y-74308059D01*
X156044285Y-73784250D02*
X155925238Y-74141392D01*
X155925238Y-74141392D02*
X156234761Y-74141392D01*
X132168571Y-90028059D02*
X132001905Y-89789964D01*
X131882857Y-90028059D02*
X131882857Y-89528059D01*
X131882857Y-89528059D02*
X132073333Y-89528059D01*
X132073333Y-89528059D02*
X132120952Y-89551869D01*
X132120952Y-89551869D02*
X132144762Y-89575678D01*
X132144762Y-89575678D02*
X132168571Y-89623297D01*
X132168571Y-89623297D02*
X132168571Y-89694726D01*
X132168571Y-89694726D02*
X132144762Y-89742345D01*
X132144762Y-89742345D02*
X132120952Y-89766154D01*
X132120952Y-89766154D02*
X132073333Y-89789964D01*
X132073333Y-89789964D02*
X131882857Y-89789964D01*
X132359048Y-89575678D02*
X132382857Y-89551869D01*
X132382857Y-89551869D02*
X132430476Y-89528059D01*
X132430476Y-89528059D02*
X132549524Y-89528059D01*
X132549524Y-89528059D02*
X132597143Y-89551869D01*
X132597143Y-89551869D02*
X132620952Y-89575678D01*
X132620952Y-89575678D02*
X132644762Y-89623297D01*
X132644762Y-89623297D02*
X132644762Y-89670916D01*
X132644762Y-89670916D02*
X132620952Y-89742345D01*
X132620952Y-89742345D02*
X132335238Y-90028059D01*
X132335238Y-90028059D02*
X132644762Y-90028059D01*
X133073333Y-89694726D02*
X133073333Y-90028059D01*
X132954285Y-89504250D02*
X132835238Y-89861392D01*
X132835238Y-89861392D02*
X133144761Y-89861392D01*
X156808571Y-76538059D02*
X156641905Y-76299964D01*
X156522857Y-76538059D02*
X156522857Y-76038059D01*
X156522857Y-76038059D02*
X156713333Y-76038059D01*
X156713333Y-76038059D02*
X156760952Y-76061869D01*
X156760952Y-76061869D02*
X156784762Y-76085678D01*
X156784762Y-76085678D02*
X156808571Y-76133297D01*
X156808571Y-76133297D02*
X156808571Y-76204726D01*
X156808571Y-76204726D02*
X156784762Y-76252345D01*
X156784762Y-76252345D02*
X156760952Y-76276154D01*
X156760952Y-76276154D02*
X156713333Y-76299964D01*
X156713333Y-76299964D02*
X156522857Y-76299964D01*
X156999048Y-76085678D02*
X157022857Y-76061869D01*
X157022857Y-76061869D02*
X157070476Y-76038059D01*
X157070476Y-76038059D02*
X157189524Y-76038059D01*
X157189524Y-76038059D02*
X157237143Y-76061869D01*
X157237143Y-76061869D02*
X157260952Y-76085678D01*
X157260952Y-76085678D02*
X157284762Y-76133297D01*
X157284762Y-76133297D02*
X157284762Y-76180916D01*
X157284762Y-76180916D02*
X157260952Y-76252345D01*
X157260952Y-76252345D02*
X156975238Y-76538059D01*
X156975238Y-76538059D02*
X157284762Y-76538059D01*
X157570476Y-76252345D02*
X157522857Y-76228535D01*
X157522857Y-76228535D02*
X157499047Y-76204726D01*
X157499047Y-76204726D02*
X157475238Y-76157107D01*
X157475238Y-76157107D02*
X157475238Y-76133297D01*
X157475238Y-76133297D02*
X157499047Y-76085678D01*
X157499047Y-76085678D02*
X157522857Y-76061869D01*
X157522857Y-76061869D02*
X157570476Y-76038059D01*
X157570476Y-76038059D02*
X157665714Y-76038059D01*
X157665714Y-76038059D02*
X157713333Y-76061869D01*
X157713333Y-76061869D02*
X157737142Y-76085678D01*
X157737142Y-76085678D02*
X157760952Y-76133297D01*
X157760952Y-76133297D02*
X157760952Y-76157107D01*
X157760952Y-76157107D02*
X157737142Y-76204726D01*
X157737142Y-76204726D02*
X157713333Y-76228535D01*
X157713333Y-76228535D02*
X157665714Y-76252345D01*
X157665714Y-76252345D02*
X157570476Y-76252345D01*
X157570476Y-76252345D02*
X157522857Y-76276154D01*
X157522857Y-76276154D02*
X157499047Y-76299964D01*
X157499047Y-76299964D02*
X157475238Y-76347583D01*
X157475238Y-76347583D02*
X157475238Y-76442821D01*
X157475238Y-76442821D02*
X157499047Y-76490440D01*
X157499047Y-76490440D02*
X157522857Y-76514250D01*
X157522857Y-76514250D02*
X157570476Y-76538059D01*
X157570476Y-76538059D02*
X157665714Y-76538059D01*
X157665714Y-76538059D02*
X157713333Y-76514250D01*
X157713333Y-76514250D02*
X157737142Y-76490440D01*
X157737142Y-76490440D02*
X157760952Y-76442821D01*
X157760952Y-76442821D02*
X157760952Y-76347583D01*
X157760952Y-76347583D02*
X157737142Y-76299964D01*
X157737142Y-76299964D02*
X157713333Y-76276154D01*
X157713333Y-76276154D02*
X157665714Y-76252345D01*
D12*
X189045180Y-73166666D02*
X188330895Y-73166666D01*
X188330895Y-73166666D02*
X188188038Y-73119047D01*
X188188038Y-73119047D02*
X188092800Y-73023809D01*
X188092800Y-73023809D02*
X188045180Y-72880952D01*
X188045180Y-72880952D02*
X188045180Y-72785714D01*
X188045180Y-73642857D02*
X189045180Y-73642857D01*
X189045180Y-73642857D02*
X189045180Y-74023809D01*
X189045180Y-74023809D02*
X188997561Y-74119047D01*
X188997561Y-74119047D02*
X188949942Y-74166666D01*
X188949942Y-74166666D02*
X188854704Y-74214285D01*
X188854704Y-74214285D02*
X188711847Y-74214285D01*
X188711847Y-74214285D02*
X188616609Y-74166666D01*
X188616609Y-74166666D02*
X188568990Y-74119047D01*
X188568990Y-74119047D02*
X188521371Y-74023809D01*
X188521371Y-74023809D02*
X188521371Y-73642857D01*
X189045180Y-75119047D02*
X189045180Y-74642857D01*
X189045180Y-74642857D02*
X188568990Y-74595238D01*
X188568990Y-74595238D02*
X188616609Y-74642857D01*
X188616609Y-74642857D02*
X188664228Y-74738095D01*
X188664228Y-74738095D02*
X188664228Y-74976190D01*
X188664228Y-74976190D02*
X188616609Y-75071428D01*
X188616609Y-75071428D02*
X188568990Y-75119047D01*
X188568990Y-75119047D02*
X188473752Y-75166666D01*
X188473752Y-75166666D02*
X188235657Y-75166666D01*
X188235657Y-75166666D02*
X188140419Y-75119047D01*
X188140419Y-75119047D02*
X188092800Y-75071428D01*
X188092800Y-75071428D02*
X188045180Y-74976190D01*
X188045180Y-74976190D02*
X188045180Y-74738095D01*
X188045180Y-74738095D02*
X188092800Y-74642857D01*
X188092800Y-74642857D02*
X188140419Y-74595238D01*
D13*
X159478571Y-73878059D02*
X159311905Y-73639964D01*
X159192857Y-73878059D02*
X159192857Y-73378059D01*
X159192857Y-73378059D02*
X159383333Y-73378059D01*
X159383333Y-73378059D02*
X159430952Y-73401869D01*
X159430952Y-73401869D02*
X159454762Y-73425678D01*
X159454762Y-73425678D02*
X159478571Y-73473297D01*
X159478571Y-73473297D02*
X159478571Y-73544726D01*
X159478571Y-73544726D02*
X159454762Y-73592345D01*
X159454762Y-73592345D02*
X159430952Y-73616154D01*
X159430952Y-73616154D02*
X159383333Y-73639964D01*
X159383333Y-73639964D02*
X159192857Y-73639964D01*
X159669048Y-73425678D02*
X159692857Y-73401869D01*
X159692857Y-73401869D02*
X159740476Y-73378059D01*
X159740476Y-73378059D02*
X159859524Y-73378059D01*
X159859524Y-73378059D02*
X159907143Y-73401869D01*
X159907143Y-73401869D02*
X159930952Y-73425678D01*
X159930952Y-73425678D02*
X159954762Y-73473297D01*
X159954762Y-73473297D02*
X159954762Y-73520916D01*
X159954762Y-73520916D02*
X159930952Y-73592345D01*
X159930952Y-73592345D02*
X159645238Y-73878059D01*
X159645238Y-73878059D02*
X159954762Y-73878059D01*
X160383333Y-73378059D02*
X160288095Y-73378059D01*
X160288095Y-73378059D02*
X160240476Y-73401869D01*
X160240476Y-73401869D02*
X160216666Y-73425678D01*
X160216666Y-73425678D02*
X160169047Y-73497107D01*
X160169047Y-73497107D02*
X160145238Y-73592345D01*
X160145238Y-73592345D02*
X160145238Y-73782821D01*
X160145238Y-73782821D02*
X160169047Y-73830440D01*
X160169047Y-73830440D02*
X160192857Y-73854250D01*
X160192857Y-73854250D02*
X160240476Y-73878059D01*
X160240476Y-73878059D02*
X160335714Y-73878059D01*
X160335714Y-73878059D02*
X160383333Y-73854250D01*
X160383333Y-73854250D02*
X160407142Y-73830440D01*
X160407142Y-73830440D02*
X160430952Y-73782821D01*
X160430952Y-73782821D02*
X160430952Y-73663773D01*
X160430952Y-73663773D02*
X160407142Y-73616154D01*
X160407142Y-73616154D02*
X160383333Y-73592345D01*
X160383333Y-73592345D02*
X160335714Y-73568535D01*
X160335714Y-73568535D02*
X160240476Y-73568535D01*
X160240476Y-73568535D02*
X160192857Y-73592345D01*
X160192857Y-73592345D02*
X160169047Y-73616154D01*
X160169047Y-73616154D02*
X160145238Y-73663773D01*
X177446666Y-56938059D02*
X177280000Y-56699964D01*
X177160952Y-56938059D02*
X177160952Y-56438059D01*
X177160952Y-56438059D02*
X177351428Y-56438059D01*
X177351428Y-56438059D02*
X177399047Y-56461869D01*
X177399047Y-56461869D02*
X177422857Y-56485678D01*
X177422857Y-56485678D02*
X177446666Y-56533297D01*
X177446666Y-56533297D02*
X177446666Y-56604726D01*
X177446666Y-56604726D02*
X177422857Y-56652345D01*
X177422857Y-56652345D02*
X177399047Y-56676154D01*
X177399047Y-56676154D02*
X177351428Y-56699964D01*
X177351428Y-56699964D02*
X177160952Y-56699964D01*
X177875238Y-56604726D02*
X177875238Y-56938059D01*
X177756190Y-56414250D02*
X177637143Y-56771392D01*
X177637143Y-56771392D02*
X177946666Y-56771392D01*
D12*
X184095180Y-66016666D02*
X183380895Y-66016666D01*
X183380895Y-66016666D02*
X183238038Y-65969047D01*
X183238038Y-65969047D02*
X183142800Y-65873809D01*
X183142800Y-65873809D02*
X183095180Y-65730952D01*
X183095180Y-65730952D02*
X183095180Y-65635714D01*
X183095180Y-66492857D02*
X184095180Y-66492857D01*
X184095180Y-66492857D02*
X184095180Y-66873809D01*
X184095180Y-66873809D02*
X184047561Y-66969047D01*
X184047561Y-66969047D02*
X183999942Y-67016666D01*
X183999942Y-67016666D02*
X183904704Y-67064285D01*
X183904704Y-67064285D02*
X183761847Y-67064285D01*
X183761847Y-67064285D02*
X183666609Y-67016666D01*
X183666609Y-67016666D02*
X183618990Y-66969047D01*
X183618990Y-66969047D02*
X183571371Y-66873809D01*
X183571371Y-66873809D02*
X183571371Y-66492857D01*
X183095180Y-68016666D02*
X183095180Y-67445238D01*
X183095180Y-67730952D02*
X184095180Y-67730952D01*
X184095180Y-67730952D02*
X183952323Y-67635714D01*
X183952323Y-67635714D02*
X183857085Y-67540476D01*
X183857085Y-67540476D02*
X183809466Y-67445238D01*
D13*
X175646666Y-68958059D02*
X175480000Y-68719964D01*
X175360952Y-68958059D02*
X175360952Y-68458059D01*
X175360952Y-68458059D02*
X175551428Y-68458059D01*
X175551428Y-68458059D02*
X175599047Y-68481869D01*
X175599047Y-68481869D02*
X175622857Y-68505678D01*
X175622857Y-68505678D02*
X175646666Y-68553297D01*
X175646666Y-68553297D02*
X175646666Y-68624726D01*
X175646666Y-68624726D02*
X175622857Y-68672345D01*
X175622857Y-68672345D02*
X175599047Y-68696154D01*
X175599047Y-68696154D02*
X175551428Y-68719964D01*
X175551428Y-68719964D02*
X175360952Y-68719964D01*
X175813333Y-68458059D02*
X176146666Y-68458059D01*
X176146666Y-68458059D02*
X175932381Y-68958059D01*
X124398571Y-59988059D02*
X124231905Y-59749964D01*
X124112857Y-59988059D02*
X124112857Y-59488059D01*
X124112857Y-59488059D02*
X124303333Y-59488059D01*
X124303333Y-59488059D02*
X124350952Y-59511869D01*
X124350952Y-59511869D02*
X124374762Y-59535678D01*
X124374762Y-59535678D02*
X124398571Y-59583297D01*
X124398571Y-59583297D02*
X124398571Y-59654726D01*
X124398571Y-59654726D02*
X124374762Y-59702345D01*
X124374762Y-59702345D02*
X124350952Y-59726154D01*
X124350952Y-59726154D02*
X124303333Y-59749964D01*
X124303333Y-59749964D02*
X124112857Y-59749964D01*
X124874762Y-59988059D02*
X124589048Y-59988059D01*
X124731905Y-59988059D02*
X124731905Y-59488059D01*
X124731905Y-59488059D02*
X124684286Y-59559488D01*
X124684286Y-59559488D02*
X124636667Y-59607107D01*
X124636667Y-59607107D02*
X124589048Y-59630916D01*
X125303333Y-59488059D02*
X125208095Y-59488059D01*
X125208095Y-59488059D02*
X125160476Y-59511869D01*
X125160476Y-59511869D02*
X125136666Y-59535678D01*
X125136666Y-59535678D02*
X125089047Y-59607107D01*
X125089047Y-59607107D02*
X125065238Y-59702345D01*
X125065238Y-59702345D02*
X125065238Y-59892821D01*
X125065238Y-59892821D02*
X125089047Y-59940440D01*
X125089047Y-59940440D02*
X125112857Y-59964250D01*
X125112857Y-59964250D02*
X125160476Y-59988059D01*
X125160476Y-59988059D02*
X125255714Y-59988059D01*
X125255714Y-59988059D02*
X125303333Y-59964250D01*
X125303333Y-59964250D02*
X125327142Y-59940440D01*
X125327142Y-59940440D02*
X125350952Y-59892821D01*
X125350952Y-59892821D02*
X125350952Y-59773773D01*
X125350952Y-59773773D02*
X125327142Y-59726154D01*
X125327142Y-59726154D02*
X125303333Y-59702345D01*
X125303333Y-59702345D02*
X125255714Y-59678535D01*
X125255714Y-59678535D02*
X125160476Y-59678535D01*
X125160476Y-59678535D02*
X125112857Y-59702345D01*
X125112857Y-59702345D02*
X125089047Y-59726154D01*
X125089047Y-59726154D02*
X125065238Y-59773773D01*
X142828571Y-61008059D02*
X142661905Y-60769964D01*
X142542857Y-61008059D02*
X142542857Y-60508059D01*
X142542857Y-60508059D02*
X142733333Y-60508059D01*
X142733333Y-60508059D02*
X142780952Y-60531869D01*
X142780952Y-60531869D02*
X142804762Y-60555678D01*
X142804762Y-60555678D02*
X142828571Y-60603297D01*
X142828571Y-60603297D02*
X142828571Y-60674726D01*
X142828571Y-60674726D02*
X142804762Y-60722345D01*
X142804762Y-60722345D02*
X142780952Y-60746154D01*
X142780952Y-60746154D02*
X142733333Y-60769964D01*
X142733333Y-60769964D02*
X142542857Y-60769964D01*
X143019048Y-60555678D02*
X143042857Y-60531869D01*
X143042857Y-60531869D02*
X143090476Y-60508059D01*
X143090476Y-60508059D02*
X143209524Y-60508059D01*
X143209524Y-60508059D02*
X143257143Y-60531869D01*
X143257143Y-60531869D02*
X143280952Y-60555678D01*
X143280952Y-60555678D02*
X143304762Y-60603297D01*
X143304762Y-60603297D02*
X143304762Y-60650916D01*
X143304762Y-60650916D02*
X143280952Y-60722345D01*
X143280952Y-60722345D02*
X142995238Y-61008059D01*
X142995238Y-61008059D02*
X143304762Y-61008059D01*
X143614285Y-60508059D02*
X143661904Y-60508059D01*
X143661904Y-60508059D02*
X143709523Y-60531869D01*
X143709523Y-60531869D02*
X143733333Y-60555678D01*
X143733333Y-60555678D02*
X143757142Y-60603297D01*
X143757142Y-60603297D02*
X143780952Y-60698535D01*
X143780952Y-60698535D02*
X143780952Y-60817583D01*
X143780952Y-60817583D02*
X143757142Y-60912821D01*
X143757142Y-60912821D02*
X143733333Y-60960440D01*
X143733333Y-60960440D02*
X143709523Y-60984250D01*
X143709523Y-60984250D02*
X143661904Y-61008059D01*
X143661904Y-61008059D02*
X143614285Y-61008059D01*
X143614285Y-61008059D02*
X143566666Y-60984250D01*
X143566666Y-60984250D02*
X143542857Y-60960440D01*
X143542857Y-60960440D02*
X143519047Y-60912821D01*
X143519047Y-60912821D02*
X143495238Y-60817583D01*
X143495238Y-60817583D02*
X143495238Y-60698535D01*
X143495238Y-60698535D02*
X143519047Y-60603297D01*
X143519047Y-60603297D02*
X143542857Y-60555678D01*
X143542857Y-60555678D02*
X143566666Y-60531869D01*
X143566666Y-60531869D02*
X143614285Y-60508059D01*
X157068571Y-56278059D02*
X156901905Y-56039964D01*
X156782857Y-56278059D02*
X156782857Y-55778059D01*
X156782857Y-55778059D02*
X156973333Y-55778059D01*
X156973333Y-55778059D02*
X157020952Y-55801869D01*
X157020952Y-55801869D02*
X157044762Y-55825678D01*
X157044762Y-55825678D02*
X157068571Y-55873297D01*
X157068571Y-55873297D02*
X157068571Y-55944726D01*
X157068571Y-55944726D02*
X157044762Y-55992345D01*
X157044762Y-55992345D02*
X157020952Y-56016154D01*
X157020952Y-56016154D02*
X156973333Y-56039964D01*
X156973333Y-56039964D02*
X156782857Y-56039964D01*
X157544762Y-56278059D02*
X157259048Y-56278059D01*
X157401905Y-56278059D02*
X157401905Y-55778059D01*
X157401905Y-55778059D02*
X157354286Y-55849488D01*
X157354286Y-55849488D02*
X157306667Y-55897107D01*
X157306667Y-55897107D02*
X157259048Y-55920916D01*
X157830476Y-55992345D02*
X157782857Y-55968535D01*
X157782857Y-55968535D02*
X157759047Y-55944726D01*
X157759047Y-55944726D02*
X157735238Y-55897107D01*
X157735238Y-55897107D02*
X157735238Y-55873297D01*
X157735238Y-55873297D02*
X157759047Y-55825678D01*
X157759047Y-55825678D02*
X157782857Y-55801869D01*
X157782857Y-55801869D02*
X157830476Y-55778059D01*
X157830476Y-55778059D02*
X157925714Y-55778059D01*
X157925714Y-55778059D02*
X157973333Y-55801869D01*
X157973333Y-55801869D02*
X157997142Y-55825678D01*
X157997142Y-55825678D02*
X158020952Y-55873297D01*
X158020952Y-55873297D02*
X158020952Y-55897107D01*
X158020952Y-55897107D02*
X157997142Y-55944726D01*
X157997142Y-55944726D02*
X157973333Y-55968535D01*
X157973333Y-55968535D02*
X157925714Y-55992345D01*
X157925714Y-55992345D02*
X157830476Y-55992345D01*
X157830476Y-55992345D02*
X157782857Y-56016154D01*
X157782857Y-56016154D02*
X157759047Y-56039964D01*
X157759047Y-56039964D02*
X157735238Y-56087583D01*
X157735238Y-56087583D02*
X157735238Y-56182821D01*
X157735238Y-56182821D02*
X157759047Y-56230440D01*
X157759047Y-56230440D02*
X157782857Y-56254250D01*
X157782857Y-56254250D02*
X157830476Y-56278059D01*
X157830476Y-56278059D02*
X157925714Y-56278059D01*
X157925714Y-56278059D02*
X157973333Y-56254250D01*
X157973333Y-56254250D02*
X157997142Y-56230440D01*
X157997142Y-56230440D02*
X158020952Y-56182821D01*
X158020952Y-56182821D02*
X158020952Y-56087583D01*
X158020952Y-56087583D02*
X157997142Y-56039964D01*
X157997142Y-56039964D02*
X157973333Y-56016154D01*
X157973333Y-56016154D02*
X157925714Y-55992345D01*
X119966666Y-59290440D02*
X119942857Y-59314250D01*
X119942857Y-59314250D02*
X119871428Y-59338059D01*
X119871428Y-59338059D02*
X119823809Y-59338059D01*
X119823809Y-59338059D02*
X119752381Y-59314250D01*
X119752381Y-59314250D02*
X119704762Y-59266630D01*
X119704762Y-59266630D02*
X119680952Y-59219011D01*
X119680952Y-59219011D02*
X119657143Y-59123773D01*
X119657143Y-59123773D02*
X119657143Y-59052345D01*
X119657143Y-59052345D02*
X119680952Y-58957107D01*
X119680952Y-58957107D02*
X119704762Y-58909488D01*
X119704762Y-58909488D02*
X119752381Y-58861869D01*
X119752381Y-58861869D02*
X119823809Y-58838059D01*
X119823809Y-58838059D02*
X119871428Y-58838059D01*
X119871428Y-58838059D02*
X119942857Y-58861869D01*
X119942857Y-58861869D02*
X119966666Y-58885678D01*
X120395238Y-59004726D02*
X120395238Y-59338059D01*
X120276190Y-58814250D02*
X120157143Y-59171392D01*
X120157143Y-59171392D02*
X120466666Y-59171392D01*
X185811071Y-76658059D02*
X185644405Y-76419964D01*
X185525357Y-76658059D02*
X185525357Y-76158059D01*
X185525357Y-76158059D02*
X185715833Y-76158059D01*
X185715833Y-76158059D02*
X185763452Y-76181869D01*
X185763452Y-76181869D02*
X185787262Y-76205678D01*
X185787262Y-76205678D02*
X185811071Y-76253297D01*
X185811071Y-76253297D02*
X185811071Y-76324726D01*
X185811071Y-76324726D02*
X185787262Y-76372345D01*
X185787262Y-76372345D02*
X185763452Y-76396154D01*
X185763452Y-76396154D02*
X185715833Y-76419964D01*
X185715833Y-76419964D02*
X185525357Y-76419964D01*
X186287262Y-76658059D02*
X186001548Y-76658059D01*
X186144405Y-76658059D02*
X186144405Y-76158059D01*
X186144405Y-76158059D02*
X186096786Y-76229488D01*
X186096786Y-76229488D02*
X186049167Y-76277107D01*
X186049167Y-76277107D02*
X186001548Y-76300916D01*
X186477738Y-76205678D02*
X186501547Y-76181869D01*
X186501547Y-76181869D02*
X186549166Y-76158059D01*
X186549166Y-76158059D02*
X186668214Y-76158059D01*
X186668214Y-76158059D02*
X186715833Y-76181869D01*
X186715833Y-76181869D02*
X186739642Y-76205678D01*
X186739642Y-76205678D02*
X186763452Y-76253297D01*
X186763452Y-76253297D02*
X186763452Y-76300916D01*
X186763452Y-76300916D02*
X186739642Y-76372345D01*
X186739642Y-76372345D02*
X186453928Y-76658059D01*
X186453928Y-76658059D02*
X186763452Y-76658059D01*
X132168571Y-95348059D02*
X132001905Y-95109964D01*
X131882857Y-95348059D02*
X131882857Y-94848059D01*
X131882857Y-94848059D02*
X132073333Y-94848059D01*
X132073333Y-94848059D02*
X132120952Y-94871869D01*
X132120952Y-94871869D02*
X132144762Y-94895678D01*
X132144762Y-94895678D02*
X132168571Y-94943297D01*
X132168571Y-94943297D02*
X132168571Y-95014726D01*
X132168571Y-95014726D02*
X132144762Y-95062345D01*
X132144762Y-95062345D02*
X132120952Y-95086154D01*
X132120952Y-95086154D02*
X132073333Y-95109964D01*
X132073333Y-95109964D02*
X131882857Y-95109964D01*
X132359048Y-94895678D02*
X132382857Y-94871869D01*
X132382857Y-94871869D02*
X132430476Y-94848059D01*
X132430476Y-94848059D02*
X132549524Y-94848059D01*
X132549524Y-94848059D02*
X132597143Y-94871869D01*
X132597143Y-94871869D02*
X132620952Y-94895678D01*
X132620952Y-94895678D02*
X132644762Y-94943297D01*
X132644762Y-94943297D02*
X132644762Y-94990916D01*
X132644762Y-94990916D02*
X132620952Y-95062345D01*
X132620952Y-95062345D02*
X132335238Y-95348059D01*
X132335238Y-95348059D02*
X132644762Y-95348059D01*
X132835238Y-94895678D02*
X132859047Y-94871869D01*
X132859047Y-94871869D02*
X132906666Y-94848059D01*
X132906666Y-94848059D02*
X133025714Y-94848059D01*
X133025714Y-94848059D02*
X133073333Y-94871869D01*
X133073333Y-94871869D02*
X133097142Y-94895678D01*
X133097142Y-94895678D02*
X133120952Y-94943297D01*
X133120952Y-94943297D02*
X133120952Y-94990916D01*
X133120952Y-94990916D02*
X133097142Y-95062345D01*
X133097142Y-95062345D02*
X132811428Y-95348059D01*
X132811428Y-95348059D02*
X133120952Y-95348059D01*
D12*
X189095180Y-80966666D02*
X188380895Y-80966666D01*
X188380895Y-80966666D02*
X188238038Y-80919047D01*
X188238038Y-80919047D02*
X188142800Y-80823809D01*
X188142800Y-80823809D02*
X188095180Y-80680952D01*
X188095180Y-80680952D02*
X188095180Y-80585714D01*
X188095180Y-81442857D02*
X189095180Y-81442857D01*
X189095180Y-81442857D02*
X189095180Y-81823809D01*
X189095180Y-81823809D02*
X189047561Y-81919047D01*
X189047561Y-81919047D02*
X188999942Y-81966666D01*
X188999942Y-81966666D02*
X188904704Y-82014285D01*
X188904704Y-82014285D02*
X188761847Y-82014285D01*
X188761847Y-82014285D02*
X188666609Y-81966666D01*
X188666609Y-81966666D02*
X188618990Y-81919047D01*
X188618990Y-81919047D02*
X188571371Y-81823809D01*
X188571371Y-81823809D02*
X188571371Y-81442857D01*
X189095180Y-82871428D02*
X189095180Y-82680952D01*
X189095180Y-82680952D02*
X189047561Y-82585714D01*
X189047561Y-82585714D02*
X188999942Y-82538095D01*
X188999942Y-82538095D02*
X188857085Y-82442857D01*
X188857085Y-82442857D02*
X188666609Y-82395238D01*
X188666609Y-82395238D02*
X188285657Y-82395238D01*
X188285657Y-82395238D02*
X188190419Y-82442857D01*
X188190419Y-82442857D02*
X188142800Y-82490476D01*
X188142800Y-82490476D02*
X188095180Y-82585714D01*
X188095180Y-82585714D02*
X188095180Y-82776190D01*
X188095180Y-82776190D02*
X188142800Y-82871428D01*
X188142800Y-82871428D02*
X188190419Y-82919047D01*
X188190419Y-82919047D02*
X188285657Y-82966666D01*
X188285657Y-82966666D02*
X188523752Y-82966666D01*
X188523752Y-82966666D02*
X188618990Y-82919047D01*
X188618990Y-82919047D02*
X188666609Y-82871428D01*
X188666609Y-82871428D02*
X188714228Y-82776190D01*
X188714228Y-82776190D02*
X188714228Y-82585714D01*
X188714228Y-82585714D02*
X188666609Y-82490476D01*
X188666609Y-82490476D02*
X188618990Y-82442857D01*
X188618990Y-82442857D02*
X188523752Y-82395238D01*
D10*
X151378333Y-92212180D02*
X151330714Y-92259800D01*
X151330714Y-92259800D02*
X151187857Y-92307419D01*
X151187857Y-92307419D02*
X151092619Y-92307419D01*
X151092619Y-92307419D02*
X150949762Y-92259800D01*
X150949762Y-92259800D02*
X150854524Y-92164561D01*
X150854524Y-92164561D02*
X150806905Y-92069323D01*
X150806905Y-92069323D02*
X150759286Y-91878847D01*
X150759286Y-91878847D02*
X150759286Y-91735990D01*
X150759286Y-91735990D02*
X150806905Y-91545514D01*
X150806905Y-91545514D02*
X150854524Y-91450276D01*
X150854524Y-91450276D02*
X150949762Y-91355038D01*
X150949762Y-91355038D02*
X151092619Y-91307419D01*
X151092619Y-91307419D02*
X151187857Y-91307419D01*
X151187857Y-91307419D02*
X151330714Y-91355038D01*
X151330714Y-91355038D02*
X151378333Y-91402657D01*
X151854524Y-92307419D02*
X152045000Y-92307419D01*
X152045000Y-92307419D02*
X152140238Y-92259800D01*
X152140238Y-92259800D02*
X152187857Y-92212180D01*
X152187857Y-92212180D02*
X152283095Y-92069323D01*
X152283095Y-92069323D02*
X152330714Y-91878847D01*
X152330714Y-91878847D02*
X152330714Y-91497895D01*
X152330714Y-91497895D02*
X152283095Y-91402657D01*
X152283095Y-91402657D02*
X152235476Y-91355038D01*
X152235476Y-91355038D02*
X152140238Y-91307419D01*
X152140238Y-91307419D02*
X151949762Y-91307419D01*
X151949762Y-91307419D02*
X151854524Y-91355038D01*
X151854524Y-91355038D02*
X151806905Y-91402657D01*
X151806905Y-91402657D02*
X151759286Y-91497895D01*
X151759286Y-91497895D02*
X151759286Y-91735990D01*
X151759286Y-91735990D02*
X151806905Y-91831228D01*
X151806905Y-91831228D02*
X151854524Y-91878847D01*
X151854524Y-91878847D02*
X151949762Y-91926466D01*
X151949762Y-91926466D02*
X152140238Y-91926466D01*
X152140238Y-91926466D02*
X152235476Y-91878847D01*
X152235476Y-91878847D02*
X152283095Y-91831228D01*
X152283095Y-91831228D02*
X152330714Y-91735990D01*
D13*
X143076666Y-68790440D02*
X143052857Y-68814250D01*
X143052857Y-68814250D02*
X142981428Y-68838059D01*
X142981428Y-68838059D02*
X142933809Y-68838059D01*
X142933809Y-68838059D02*
X142862381Y-68814250D01*
X142862381Y-68814250D02*
X142814762Y-68766630D01*
X142814762Y-68766630D02*
X142790952Y-68719011D01*
X142790952Y-68719011D02*
X142767143Y-68623773D01*
X142767143Y-68623773D02*
X142767143Y-68552345D01*
X142767143Y-68552345D02*
X142790952Y-68457107D01*
X142790952Y-68457107D02*
X142814762Y-68409488D01*
X142814762Y-68409488D02*
X142862381Y-68361869D01*
X142862381Y-68361869D02*
X142933809Y-68338059D01*
X142933809Y-68338059D02*
X142981428Y-68338059D01*
X142981428Y-68338059D02*
X143052857Y-68361869D01*
X143052857Y-68361869D02*
X143076666Y-68385678D01*
X143362381Y-68552345D02*
X143314762Y-68528535D01*
X143314762Y-68528535D02*
X143290952Y-68504726D01*
X143290952Y-68504726D02*
X143267143Y-68457107D01*
X143267143Y-68457107D02*
X143267143Y-68433297D01*
X143267143Y-68433297D02*
X143290952Y-68385678D01*
X143290952Y-68385678D02*
X143314762Y-68361869D01*
X143314762Y-68361869D02*
X143362381Y-68338059D01*
X143362381Y-68338059D02*
X143457619Y-68338059D01*
X143457619Y-68338059D02*
X143505238Y-68361869D01*
X143505238Y-68361869D02*
X143529047Y-68385678D01*
X143529047Y-68385678D02*
X143552857Y-68433297D01*
X143552857Y-68433297D02*
X143552857Y-68457107D01*
X143552857Y-68457107D02*
X143529047Y-68504726D01*
X143529047Y-68504726D02*
X143505238Y-68528535D01*
X143505238Y-68528535D02*
X143457619Y-68552345D01*
X143457619Y-68552345D02*
X143362381Y-68552345D01*
X143362381Y-68552345D02*
X143314762Y-68576154D01*
X143314762Y-68576154D02*
X143290952Y-68599964D01*
X143290952Y-68599964D02*
X143267143Y-68647583D01*
X143267143Y-68647583D02*
X143267143Y-68742821D01*
X143267143Y-68742821D02*
X143290952Y-68790440D01*
X143290952Y-68790440D02*
X143314762Y-68814250D01*
X143314762Y-68814250D02*
X143362381Y-68838059D01*
X143362381Y-68838059D02*
X143457619Y-68838059D01*
X143457619Y-68838059D02*
X143505238Y-68814250D01*
X143505238Y-68814250D02*
X143529047Y-68790440D01*
X143529047Y-68790440D02*
X143552857Y-68742821D01*
X143552857Y-68742821D02*
X143552857Y-68647583D01*
X143552857Y-68647583D02*
X143529047Y-68599964D01*
X143529047Y-68599964D02*
X143505238Y-68576154D01*
X143505238Y-68576154D02*
X143457619Y-68552345D01*
X157116666Y-81420440D02*
X157092857Y-81444250D01*
X157092857Y-81444250D02*
X157021428Y-81468059D01*
X157021428Y-81468059D02*
X156973809Y-81468059D01*
X156973809Y-81468059D02*
X156902381Y-81444250D01*
X156902381Y-81444250D02*
X156854762Y-81396630D01*
X156854762Y-81396630D02*
X156830952Y-81349011D01*
X156830952Y-81349011D02*
X156807143Y-81253773D01*
X156807143Y-81253773D02*
X156807143Y-81182345D01*
X156807143Y-81182345D02*
X156830952Y-81087107D01*
X156830952Y-81087107D02*
X156854762Y-81039488D01*
X156854762Y-81039488D02*
X156902381Y-80991869D01*
X156902381Y-80991869D02*
X156973809Y-80968059D01*
X156973809Y-80968059D02*
X157021428Y-80968059D01*
X157021428Y-80968059D02*
X157092857Y-80991869D01*
X157092857Y-80991869D02*
X157116666Y-81015678D01*
X157569047Y-80968059D02*
X157330952Y-80968059D01*
X157330952Y-80968059D02*
X157307143Y-81206154D01*
X157307143Y-81206154D02*
X157330952Y-81182345D01*
X157330952Y-81182345D02*
X157378571Y-81158535D01*
X157378571Y-81158535D02*
X157497619Y-81158535D01*
X157497619Y-81158535D02*
X157545238Y-81182345D01*
X157545238Y-81182345D02*
X157569047Y-81206154D01*
X157569047Y-81206154D02*
X157592857Y-81253773D01*
X157592857Y-81253773D02*
X157592857Y-81372821D01*
X157592857Y-81372821D02*
X157569047Y-81420440D01*
X157569047Y-81420440D02*
X157545238Y-81444250D01*
X157545238Y-81444250D02*
X157497619Y-81468059D01*
X157497619Y-81468059D02*
X157378571Y-81468059D01*
X157378571Y-81468059D02*
X157330952Y-81444250D01*
X157330952Y-81444250D02*
X157307143Y-81420440D01*
X132158571Y-84668059D02*
X131991905Y-84429964D01*
X131872857Y-84668059D02*
X131872857Y-84168059D01*
X131872857Y-84168059D02*
X132063333Y-84168059D01*
X132063333Y-84168059D02*
X132110952Y-84191869D01*
X132110952Y-84191869D02*
X132134762Y-84215678D01*
X132134762Y-84215678D02*
X132158571Y-84263297D01*
X132158571Y-84263297D02*
X132158571Y-84334726D01*
X132158571Y-84334726D02*
X132134762Y-84382345D01*
X132134762Y-84382345D02*
X132110952Y-84406154D01*
X132110952Y-84406154D02*
X132063333Y-84429964D01*
X132063333Y-84429964D02*
X131872857Y-84429964D01*
X132349048Y-84215678D02*
X132372857Y-84191869D01*
X132372857Y-84191869D02*
X132420476Y-84168059D01*
X132420476Y-84168059D02*
X132539524Y-84168059D01*
X132539524Y-84168059D02*
X132587143Y-84191869D01*
X132587143Y-84191869D02*
X132610952Y-84215678D01*
X132610952Y-84215678D02*
X132634762Y-84263297D01*
X132634762Y-84263297D02*
X132634762Y-84310916D01*
X132634762Y-84310916D02*
X132610952Y-84382345D01*
X132610952Y-84382345D02*
X132325238Y-84668059D01*
X132325238Y-84668059D02*
X132634762Y-84668059D01*
X133087142Y-84168059D02*
X132849047Y-84168059D01*
X132849047Y-84168059D02*
X132825238Y-84406154D01*
X132825238Y-84406154D02*
X132849047Y-84382345D01*
X132849047Y-84382345D02*
X132896666Y-84358535D01*
X132896666Y-84358535D02*
X133015714Y-84358535D01*
X133015714Y-84358535D02*
X133063333Y-84382345D01*
X133063333Y-84382345D02*
X133087142Y-84406154D01*
X133087142Y-84406154D02*
X133110952Y-84453773D01*
X133110952Y-84453773D02*
X133110952Y-84572821D01*
X133110952Y-84572821D02*
X133087142Y-84620440D01*
X133087142Y-84620440D02*
X133063333Y-84644250D01*
X133063333Y-84644250D02*
X133015714Y-84668059D01*
X133015714Y-84668059D02*
X132896666Y-84668059D01*
X132896666Y-84668059D02*
X132849047Y-84644250D01*
X132849047Y-84644250D02*
X132825238Y-84620440D01*
D12*
X183945180Y-73166666D02*
X183230895Y-73166666D01*
X183230895Y-73166666D02*
X183088038Y-73119047D01*
X183088038Y-73119047D02*
X182992800Y-73023809D01*
X182992800Y-73023809D02*
X182945180Y-72880952D01*
X182945180Y-72880952D02*
X182945180Y-72785714D01*
X182945180Y-73642857D02*
X183945180Y-73642857D01*
X183945180Y-73642857D02*
X183945180Y-74023809D01*
X183945180Y-74023809D02*
X183897561Y-74119047D01*
X183897561Y-74119047D02*
X183849942Y-74166666D01*
X183849942Y-74166666D02*
X183754704Y-74214285D01*
X183754704Y-74214285D02*
X183611847Y-74214285D01*
X183611847Y-74214285D02*
X183516609Y-74166666D01*
X183516609Y-74166666D02*
X183468990Y-74119047D01*
X183468990Y-74119047D02*
X183421371Y-74023809D01*
X183421371Y-74023809D02*
X183421371Y-73642857D01*
X183611847Y-75071428D02*
X182945180Y-75071428D01*
X183992800Y-74833333D02*
X183278514Y-74595238D01*
X183278514Y-74595238D02*
X183278514Y-75214285D01*
D13*
X180889166Y-76728059D02*
X180722500Y-76489964D01*
X180603452Y-76728059D02*
X180603452Y-76228059D01*
X180603452Y-76228059D02*
X180793928Y-76228059D01*
X180793928Y-76228059D02*
X180841547Y-76251869D01*
X180841547Y-76251869D02*
X180865357Y-76275678D01*
X180865357Y-76275678D02*
X180889166Y-76323297D01*
X180889166Y-76323297D02*
X180889166Y-76394726D01*
X180889166Y-76394726D02*
X180865357Y-76442345D01*
X180865357Y-76442345D02*
X180841547Y-76466154D01*
X180841547Y-76466154D02*
X180793928Y-76489964D01*
X180793928Y-76489964D02*
X180603452Y-76489964D01*
X181127262Y-76728059D02*
X181222500Y-76728059D01*
X181222500Y-76728059D02*
X181270119Y-76704250D01*
X181270119Y-76704250D02*
X181293928Y-76680440D01*
X181293928Y-76680440D02*
X181341547Y-76609011D01*
X181341547Y-76609011D02*
X181365357Y-76513773D01*
X181365357Y-76513773D02*
X181365357Y-76323297D01*
X181365357Y-76323297D02*
X181341547Y-76275678D01*
X181341547Y-76275678D02*
X181317738Y-76251869D01*
X181317738Y-76251869D02*
X181270119Y-76228059D01*
X181270119Y-76228059D02*
X181174881Y-76228059D01*
X181174881Y-76228059D02*
X181127262Y-76251869D01*
X181127262Y-76251869D02*
X181103452Y-76275678D01*
X181103452Y-76275678D02*
X181079643Y-76323297D01*
X181079643Y-76323297D02*
X181079643Y-76442345D01*
X181079643Y-76442345D02*
X181103452Y-76489964D01*
X181103452Y-76489964D02*
X181127262Y-76513773D01*
X181127262Y-76513773D02*
X181174881Y-76537583D01*
X181174881Y-76537583D02*
X181270119Y-76537583D01*
X181270119Y-76537583D02*
X181317738Y-76513773D01*
X181317738Y-76513773D02*
X181341547Y-76489964D01*
X181341547Y-76489964D02*
X181365357Y-76442345D01*
X181166666Y-56938059D02*
X181000000Y-56699964D01*
X180880952Y-56938059D02*
X180880952Y-56438059D01*
X180880952Y-56438059D02*
X181071428Y-56438059D01*
X181071428Y-56438059D02*
X181119047Y-56461869D01*
X181119047Y-56461869D02*
X181142857Y-56485678D01*
X181142857Y-56485678D02*
X181166666Y-56533297D01*
X181166666Y-56533297D02*
X181166666Y-56604726D01*
X181166666Y-56604726D02*
X181142857Y-56652345D01*
X181142857Y-56652345D02*
X181119047Y-56676154D01*
X181119047Y-56676154D02*
X181071428Y-56699964D01*
X181071428Y-56699964D02*
X180880952Y-56699964D01*
X181333333Y-56438059D02*
X181642857Y-56438059D01*
X181642857Y-56438059D02*
X181476190Y-56628535D01*
X181476190Y-56628535D02*
X181547619Y-56628535D01*
X181547619Y-56628535D02*
X181595238Y-56652345D01*
X181595238Y-56652345D02*
X181619047Y-56676154D01*
X181619047Y-56676154D02*
X181642857Y-56723773D01*
X181642857Y-56723773D02*
X181642857Y-56842821D01*
X181642857Y-56842821D02*
X181619047Y-56890440D01*
X181619047Y-56890440D02*
X181595238Y-56914250D01*
X181595238Y-56914250D02*
X181547619Y-56938059D01*
X181547619Y-56938059D02*
X181404762Y-56938059D01*
X181404762Y-56938059D02*
X181357143Y-56914250D01*
X181357143Y-56914250D02*
X181333333Y-56890440D01*
D12*
X183945180Y-80966666D02*
X183230895Y-80966666D01*
X183230895Y-80966666D02*
X183088038Y-80919047D01*
X183088038Y-80919047D02*
X182992800Y-80823809D01*
X182992800Y-80823809D02*
X182945180Y-80680952D01*
X182945180Y-80680952D02*
X182945180Y-80585714D01*
X182945180Y-81442857D02*
X183945180Y-81442857D01*
X183945180Y-81442857D02*
X183945180Y-81823809D01*
X183945180Y-81823809D02*
X183897561Y-81919047D01*
X183897561Y-81919047D02*
X183849942Y-81966666D01*
X183849942Y-81966666D02*
X183754704Y-82014285D01*
X183754704Y-82014285D02*
X183611847Y-82014285D01*
X183611847Y-82014285D02*
X183516609Y-81966666D01*
X183516609Y-81966666D02*
X183468990Y-81919047D01*
X183468990Y-81919047D02*
X183421371Y-81823809D01*
X183421371Y-81823809D02*
X183421371Y-81442857D01*
X183945180Y-82347619D02*
X183945180Y-83014285D01*
X183945180Y-83014285D02*
X182945180Y-82585714D01*
D13*
X139908571Y-68838059D02*
X139741905Y-68599964D01*
X139622857Y-68838059D02*
X139622857Y-68338059D01*
X139622857Y-68338059D02*
X139813333Y-68338059D01*
X139813333Y-68338059D02*
X139860952Y-68361869D01*
X139860952Y-68361869D02*
X139884762Y-68385678D01*
X139884762Y-68385678D02*
X139908571Y-68433297D01*
X139908571Y-68433297D02*
X139908571Y-68504726D01*
X139908571Y-68504726D02*
X139884762Y-68552345D01*
X139884762Y-68552345D02*
X139860952Y-68576154D01*
X139860952Y-68576154D02*
X139813333Y-68599964D01*
X139813333Y-68599964D02*
X139622857Y-68599964D01*
X140384762Y-68838059D02*
X140099048Y-68838059D01*
X140241905Y-68838059D02*
X140241905Y-68338059D01*
X140241905Y-68338059D02*
X140194286Y-68409488D01*
X140194286Y-68409488D02*
X140146667Y-68457107D01*
X140146667Y-68457107D02*
X140099048Y-68480916D01*
X140551428Y-68338059D02*
X140884761Y-68338059D01*
X140884761Y-68338059D02*
X140670476Y-68838059D01*
X130340952Y-56488059D02*
X130340952Y-55988059D01*
X130340952Y-55988059D02*
X130460000Y-55988059D01*
X130460000Y-55988059D02*
X130531428Y-56011869D01*
X130531428Y-56011869D02*
X130579047Y-56059488D01*
X130579047Y-56059488D02*
X130602857Y-56107107D01*
X130602857Y-56107107D02*
X130626666Y-56202345D01*
X130626666Y-56202345D02*
X130626666Y-56273773D01*
X130626666Y-56273773D02*
X130602857Y-56369011D01*
X130602857Y-56369011D02*
X130579047Y-56416630D01*
X130579047Y-56416630D02*
X130531428Y-56464250D01*
X130531428Y-56464250D02*
X130460000Y-56488059D01*
X130460000Y-56488059D02*
X130340952Y-56488059D01*
X131055238Y-56154726D02*
X131055238Y-56488059D01*
X130936190Y-55964250D02*
X130817143Y-56321392D01*
X130817143Y-56321392D02*
X131126666Y-56321392D01*
X149096666Y-61060440D02*
X149072857Y-61084250D01*
X149072857Y-61084250D02*
X149001428Y-61108059D01*
X149001428Y-61108059D02*
X148953809Y-61108059D01*
X148953809Y-61108059D02*
X148882381Y-61084250D01*
X148882381Y-61084250D02*
X148834762Y-61036630D01*
X148834762Y-61036630D02*
X148810952Y-60989011D01*
X148810952Y-60989011D02*
X148787143Y-60893773D01*
X148787143Y-60893773D02*
X148787143Y-60822345D01*
X148787143Y-60822345D02*
X148810952Y-60727107D01*
X148810952Y-60727107D02*
X148834762Y-60679488D01*
X148834762Y-60679488D02*
X148882381Y-60631869D01*
X148882381Y-60631869D02*
X148953809Y-60608059D01*
X148953809Y-60608059D02*
X149001428Y-60608059D01*
X149001428Y-60608059D02*
X149072857Y-60631869D01*
X149072857Y-60631869D02*
X149096666Y-60655678D01*
X149263333Y-60608059D02*
X149596666Y-60608059D01*
X149596666Y-60608059D02*
X149382381Y-61108059D01*
D11*
X170290952Y-102959080D02*
X170472380Y-103019556D01*
X170472380Y-103019556D02*
X170532857Y-103080032D01*
X170532857Y-103080032D02*
X170593333Y-103200984D01*
X170593333Y-103200984D02*
X170593333Y-103382413D01*
X170593333Y-103382413D02*
X170532857Y-103503365D01*
X170532857Y-103503365D02*
X170472380Y-103563842D01*
X170472380Y-103563842D02*
X170351428Y-103624318D01*
X170351428Y-103624318D02*
X169867618Y-103624318D01*
X169867618Y-103624318D02*
X169867618Y-102354318D01*
X169867618Y-102354318D02*
X170290952Y-102354318D01*
X170290952Y-102354318D02*
X170411904Y-102414794D01*
X170411904Y-102414794D02*
X170472380Y-102475270D01*
X170472380Y-102475270D02*
X170532857Y-102596222D01*
X170532857Y-102596222D02*
X170532857Y-102717175D01*
X170532857Y-102717175D02*
X170472380Y-102838127D01*
X170472380Y-102838127D02*
X170411904Y-102898603D01*
X170411904Y-102898603D02*
X170290952Y-102959080D01*
X170290952Y-102959080D02*
X169867618Y-102959080D01*
X171863333Y-103624318D02*
X171439999Y-103019556D01*
X171137618Y-103624318D02*
X171137618Y-102354318D01*
X171137618Y-102354318D02*
X171621428Y-102354318D01*
X171621428Y-102354318D02*
X171742380Y-102414794D01*
X171742380Y-102414794D02*
X171802857Y-102475270D01*
X171802857Y-102475270D02*
X171863333Y-102596222D01*
X171863333Y-102596222D02*
X171863333Y-102777651D01*
X171863333Y-102777651D02*
X171802857Y-102898603D01*
X171802857Y-102898603D02*
X171742380Y-102959080D01*
X171742380Y-102959080D02*
X171621428Y-103019556D01*
X171621428Y-103019556D02*
X171137618Y-103019556D01*
X173072857Y-103624318D02*
X172347142Y-103624318D01*
X172709999Y-103624318D02*
X172709999Y-102354318D01*
X172709999Y-102354318D02*
X172589047Y-102535746D01*
X172589047Y-102535746D02*
X172468095Y-102656699D01*
X172468095Y-102656699D02*
X172347142Y-102717175D01*
D13*
X114926666Y-59310440D02*
X114902857Y-59334250D01*
X114902857Y-59334250D02*
X114831428Y-59358059D01*
X114831428Y-59358059D02*
X114783809Y-59358059D01*
X114783809Y-59358059D02*
X114712381Y-59334250D01*
X114712381Y-59334250D02*
X114664762Y-59286630D01*
X114664762Y-59286630D02*
X114640952Y-59239011D01*
X114640952Y-59239011D02*
X114617143Y-59143773D01*
X114617143Y-59143773D02*
X114617143Y-59072345D01*
X114617143Y-59072345D02*
X114640952Y-58977107D01*
X114640952Y-58977107D02*
X114664762Y-58929488D01*
X114664762Y-58929488D02*
X114712381Y-58881869D01*
X114712381Y-58881869D02*
X114783809Y-58858059D01*
X114783809Y-58858059D02*
X114831428Y-58858059D01*
X114831428Y-58858059D02*
X114902857Y-58881869D01*
X114902857Y-58881869D02*
X114926666Y-58905678D01*
X115117143Y-58905678D02*
X115140952Y-58881869D01*
X115140952Y-58881869D02*
X115188571Y-58858059D01*
X115188571Y-58858059D02*
X115307619Y-58858059D01*
X115307619Y-58858059D02*
X115355238Y-58881869D01*
X115355238Y-58881869D02*
X115379047Y-58905678D01*
X115379047Y-58905678D02*
X115402857Y-58953297D01*
X115402857Y-58953297D02*
X115402857Y-59000916D01*
X115402857Y-59000916D02*
X115379047Y-59072345D01*
X115379047Y-59072345D02*
X115093333Y-59358059D01*
X115093333Y-59358059D02*
X115402857Y-59358059D01*
X173396666Y-62580440D02*
X173372857Y-62604250D01*
X173372857Y-62604250D02*
X173301428Y-62628059D01*
X173301428Y-62628059D02*
X173253809Y-62628059D01*
X173253809Y-62628059D02*
X173182381Y-62604250D01*
X173182381Y-62604250D02*
X173134762Y-62556630D01*
X173134762Y-62556630D02*
X173110952Y-62509011D01*
X173110952Y-62509011D02*
X173087143Y-62413773D01*
X173087143Y-62413773D02*
X173087143Y-62342345D01*
X173087143Y-62342345D02*
X173110952Y-62247107D01*
X173110952Y-62247107D02*
X173134762Y-62199488D01*
X173134762Y-62199488D02*
X173182381Y-62151869D01*
X173182381Y-62151869D02*
X173253809Y-62128059D01*
X173253809Y-62128059D02*
X173301428Y-62128059D01*
X173301428Y-62128059D02*
X173372857Y-62151869D01*
X173372857Y-62151869D02*
X173396666Y-62175678D01*
X173872857Y-62628059D02*
X173587143Y-62628059D01*
X173730000Y-62628059D02*
X173730000Y-62128059D01*
X173730000Y-62128059D02*
X173682381Y-62199488D01*
X173682381Y-62199488D02*
X173634762Y-62247107D01*
X173634762Y-62247107D02*
X173587143Y-62270916D01*
D12*
X178745180Y-80966666D02*
X178030895Y-80966666D01*
X178030895Y-80966666D02*
X177888038Y-80919047D01*
X177888038Y-80919047D02*
X177792800Y-80823809D01*
X177792800Y-80823809D02*
X177745180Y-80680952D01*
X177745180Y-80680952D02*
X177745180Y-80585714D01*
X177745180Y-81442857D02*
X178745180Y-81442857D01*
X178745180Y-81442857D02*
X178745180Y-81823809D01*
X178745180Y-81823809D02*
X178697561Y-81919047D01*
X178697561Y-81919047D02*
X178649942Y-81966666D01*
X178649942Y-81966666D02*
X178554704Y-82014285D01*
X178554704Y-82014285D02*
X178411847Y-82014285D01*
X178411847Y-82014285D02*
X178316609Y-81966666D01*
X178316609Y-81966666D02*
X178268990Y-81919047D01*
X178268990Y-81919047D02*
X178221371Y-81823809D01*
X178221371Y-81823809D02*
X178221371Y-81442857D01*
X178316609Y-82585714D02*
X178364228Y-82490476D01*
X178364228Y-82490476D02*
X178411847Y-82442857D01*
X178411847Y-82442857D02*
X178507085Y-82395238D01*
X178507085Y-82395238D02*
X178554704Y-82395238D01*
X178554704Y-82395238D02*
X178649942Y-82442857D01*
X178649942Y-82442857D02*
X178697561Y-82490476D01*
X178697561Y-82490476D02*
X178745180Y-82585714D01*
X178745180Y-82585714D02*
X178745180Y-82776190D01*
X178745180Y-82776190D02*
X178697561Y-82871428D01*
X178697561Y-82871428D02*
X178649942Y-82919047D01*
X178649942Y-82919047D02*
X178554704Y-82966666D01*
X178554704Y-82966666D02*
X178507085Y-82966666D01*
X178507085Y-82966666D02*
X178411847Y-82919047D01*
X178411847Y-82919047D02*
X178364228Y-82871428D01*
X178364228Y-82871428D02*
X178316609Y-82776190D01*
X178316609Y-82776190D02*
X178316609Y-82585714D01*
X178316609Y-82585714D02*
X178268990Y-82490476D01*
X178268990Y-82490476D02*
X178221371Y-82442857D01*
X178221371Y-82442857D02*
X178126133Y-82395238D01*
X178126133Y-82395238D02*
X177935657Y-82395238D01*
X177935657Y-82395238D02*
X177840419Y-82442857D01*
X177840419Y-82442857D02*
X177792800Y-82490476D01*
X177792800Y-82490476D02*
X177745180Y-82585714D01*
X177745180Y-82585714D02*
X177745180Y-82776190D01*
X177745180Y-82776190D02*
X177792800Y-82871428D01*
X177792800Y-82871428D02*
X177840419Y-82919047D01*
X177840419Y-82919047D02*
X177935657Y-82966666D01*
X177935657Y-82966666D02*
X178126133Y-82966666D01*
X178126133Y-82966666D02*
X178221371Y-82919047D01*
X178221371Y-82919047D02*
X178268990Y-82871428D01*
X178268990Y-82871428D02*
X178316609Y-82776190D01*
D11*
X148149047Y-70315270D02*
X148028095Y-70254794D01*
X148028095Y-70254794D02*
X147907142Y-70133842D01*
X147907142Y-70133842D02*
X147725714Y-69952413D01*
X147725714Y-69952413D02*
X147604761Y-69891937D01*
X147604761Y-69891937D02*
X147483809Y-69891937D01*
X147544285Y-70194318D02*
X147423333Y-70133842D01*
X147423333Y-70133842D02*
X147302380Y-70012889D01*
X147302380Y-70012889D02*
X147241904Y-69770984D01*
X147241904Y-69770984D02*
X147241904Y-69347651D01*
X147241904Y-69347651D02*
X147302380Y-69105746D01*
X147302380Y-69105746D02*
X147423333Y-68984794D01*
X147423333Y-68984794D02*
X147544285Y-68924318D01*
X147544285Y-68924318D02*
X147786190Y-68924318D01*
X147786190Y-68924318D02*
X147907142Y-68984794D01*
X147907142Y-68984794D02*
X148028095Y-69105746D01*
X148028095Y-69105746D02*
X148088571Y-69347651D01*
X148088571Y-69347651D02*
X148088571Y-69770984D01*
X148088571Y-69770984D02*
X148028095Y-70012889D01*
X148028095Y-70012889D02*
X147907142Y-70133842D01*
X147907142Y-70133842D02*
X147786190Y-70194318D01*
X147786190Y-70194318D02*
X147544285Y-70194318D01*
X149298095Y-70194318D02*
X148572380Y-70194318D01*
X148935237Y-70194318D02*
X148935237Y-68924318D01*
X148935237Y-68924318D02*
X148814285Y-69105746D01*
X148814285Y-69105746D02*
X148693333Y-69226699D01*
X148693333Y-69226699D02*
X148572380Y-69287175D01*
X121850237Y-68314318D02*
X121850237Y-67044318D01*
X123180714Y-68193365D02*
X123120238Y-68253842D01*
X123120238Y-68253842D02*
X122938809Y-68314318D01*
X122938809Y-68314318D02*
X122817857Y-68314318D01*
X122817857Y-68314318D02*
X122636428Y-68253842D01*
X122636428Y-68253842D02*
X122515476Y-68132889D01*
X122515476Y-68132889D02*
X122454999Y-68011937D01*
X122454999Y-68011937D02*
X122394523Y-67770032D01*
X122394523Y-67770032D02*
X122394523Y-67588603D01*
X122394523Y-67588603D02*
X122454999Y-67346699D01*
X122454999Y-67346699D02*
X122515476Y-67225746D01*
X122515476Y-67225746D02*
X122636428Y-67104794D01*
X122636428Y-67104794D02*
X122817857Y-67044318D01*
X122817857Y-67044318D02*
X122938809Y-67044318D01*
X122938809Y-67044318D02*
X123120238Y-67104794D01*
X123120238Y-67104794D02*
X123180714Y-67165270D01*
X124390238Y-68314318D02*
X123664523Y-68314318D01*
X124027380Y-68314318D02*
X124027380Y-67044318D01*
X124027380Y-67044318D02*
X123906428Y-67225746D01*
X123906428Y-67225746D02*
X123785476Y-67346699D01*
X123785476Y-67346699D02*
X123664523Y-67407175D01*
D13*
X159248571Y-67008059D02*
X159081905Y-66769964D01*
X158962857Y-67008059D02*
X158962857Y-66508059D01*
X158962857Y-66508059D02*
X159153333Y-66508059D01*
X159153333Y-66508059D02*
X159200952Y-66531869D01*
X159200952Y-66531869D02*
X159224762Y-66555678D01*
X159224762Y-66555678D02*
X159248571Y-66603297D01*
X159248571Y-66603297D02*
X159248571Y-66674726D01*
X159248571Y-66674726D02*
X159224762Y-66722345D01*
X159224762Y-66722345D02*
X159200952Y-66746154D01*
X159200952Y-66746154D02*
X159153333Y-66769964D01*
X159153333Y-66769964D02*
X158962857Y-66769964D01*
X159439048Y-66555678D02*
X159462857Y-66531869D01*
X159462857Y-66531869D02*
X159510476Y-66508059D01*
X159510476Y-66508059D02*
X159629524Y-66508059D01*
X159629524Y-66508059D02*
X159677143Y-66531869D01*
X159677143Y-66531869D02*
X159700952Y-66555678D01*
X159700952Y-66555678D02*
X159724762Y-66603297D01*
X159724762Y-66603297D02*
X159724762Y-66650916D01*
X159724762Y-66650916D02*
X159700952Y-66722345D01*
X159700952Y-66722345D02*
X159415238Y-67008059D01*
X159415238Y-67008059D02*
X159724762Y-67008059D01*
X159891428Y-66508059D02*
X160224761Y-66508059D01*
X160224761Y-66508059D02*
X160010476Y-67008059D01*
X161838571Y-51480440D02*
X161814762Y-51504250D01*
X161814762Y-51504250D02*
X161743333Y-51528059D01*
X161743333Y-51528059D02*
X161695714Y-51528059D01*
X161695714Y-51528059D02*
X161624286Y-51504250D01*
X161624286Y-51504250D02*
X161576667Y-51456630D01*
X161576667Y-51456630D02*
X161552857Y-51409011D01*
X161552857Y-51409011D02*
X161529048Y-51313773D01*
X161529048Y-51313773D02*
X161529048Y-51242345D01*
X161529048Y-51242345D02*
X161552857Y-51147107D01*
X161552857Y-51147107D02*
X161576667Y-51099488D01*
X161576667Y-51099488D02*
X161624286Y-51051869D01*
X161624286Y-51051869D02*
X161695714Y-51028059D01*
X161695714Y-51028059D02*
X161743333Y-51028059D01*
X161743333Y-51028059D02*
X161814762Y-51051869D01*
X161814762Y-51051869D02*
X161838571Y-51075678D01*
X162314762Y-51528059D02*
X162029048Y-51528059D01*
X162171905Y-51528059D02*
X162171905Y-51028059D01*
X162171905Y-51028059D02*
X162124286Y-51099488D01*
X162124286Y-51099488D02*
X162076667Y-51147107D01*
X162076667Y-51147107D02*
X162029048Y-51170916D01*
X162505238Y-51075678D02*
X162529047Y-51051869D01*
X162529047Y-51051869D02*
X162576666Y-51028059D01*
X162576666Y-51028059D02*
X162695714Y-51028059D01*
X162695714Y-51028059D02*
X162743333Y-51051869D01*
X162743333Y-51051869D02*
X162767142Y-51075678D01*
X162767142Y-51075678D02*
X162790952Y-51123297D01*
X162790952Y-51123297D02*
X162790952Y-51170916D01*
X162790952Y-51170916D02*
X162767142Y-51242345D01*
X162767142Y-51242345D02*
X162481428Y-51528059D01*
X162481428Y-51528059D02*
X162790952Y-51528059D01*
D11*
X158060237Y-61604318D02*
X158060237Y-60334318D01*
X159390714Y-61483365D02*
X159330238Y-61543842D01*
X159330238Y-61543842D02*
X159148809Y-61604318D01*
X159148809Y-61604318D02*
X159027857Y-61604318D01*
X159027857Y-61604318D02*
X158846428Y-61543842D01*
X158846428Y-61543842D02*
X158725476Y-61422889D01*
X158725476Y-61422889D02*
X158664999Y-61301937D01*
X158664999Y-61301937D02*
X158604523Y-61060032D01*
X158604523Y-61060032D02*
X158604523Y-60878603D01*
X158604523Y-60878603D02*
X158664999Y-60636699D01*
X158664999Y-60636699D02*
X158725476Y-60515746D01*
X158725476Y-60515746D02*
X158846428Y-60394794D01*
X158846428Y-60394794D02*
X159027857Y-60334318D01*
X159027857Y-60334318D02*
X159148809Y-60334318D01*
X159148809Y-60334318D02*
X159330238Y-60394794D01*
X159330238Y-60394794D02*
X159390714Y-60455270D01*
X159874523Y-60455270D02*
X159934999Y-60394794D01*
X159934999Y-60394794D02*
X160055952Y-60334318D01*
X160055952Y-60334318D02*
X160358333Y-60334318D01*
X160358333Y-60334318D02*
X160479285Y-60394794D01*
X160479285Y-60394794D02*
X160539761Y-60455270D01*
X160539761Y-60455270D02*
X160600238Y-60576222D01*
X160600238Y-60576222D02*
X160600238Y-60697175D01*
X160600238Y-60697175D02*
X160539761Y-60878603D01*
X160539761Y-60878603D02*
X159814047Y-61604318D01*
X159814047Y-61604318D02*
X160600238Y-61604318D01*
D13*
X161858571Y-54720440D02*
X161834762Y-54744250D01*
X161834762Y-54744250D02*
X161763333Y-54768059D01*
X161763333Y-54768059D02*
X161715714Y-54768059D01*
X161715714Y-54768059D02*
X161644286Y-54744250D01*
X161644286Y-54744250D02*
X161596667Y-54696630D01*
X161596667Y-54696630D02*
X161572857Y-54649011D01*
X161572857Y-54649011D02*
X161549048Y-54553773D01*
X161549048Y-54553773D02*
X161549048Y-54482345D01*
X161549048Y-54482345D02*
X161572857Y-54387107D01*
X161572857Y-54387107D02*
X161596667Y-54339488D01*
X161596667Y-54339488D02*
X161644286Y-54291869D01*
X161644286Y-54291869D02*
X161715714Y-54268059D01*
X161715714Y-54268059D02*
X161763333Y-54268059D01*
X161763333Y-54268059D02*
X161834762Y-54291869D01*
X161834762Y-54291869D02*
X161858571Y-54315678D01*
X162334762Y-54768059D02*
X162049048Y-54768059D01*
X162191905Y-54768059D02*
X162191905Y-54268059D01*
X162191905Y-54268059D02*
X162144286Y-54339488D01*
X162144286Y-54339488D02*
X162096667Y-54387107D01*
X162096667Y-54387107D02*
X162049048Y-54410916D01*
X162501428Y-54268059D02*
X162810952Y-54268059D01*
X162810952Y-54268059D02*
X162644285Y-54458535D01*
X162644285Y-54458535D02*
X162715714Y-54458535D01*
X162715714Y-54458535D02*
X162763333Y-54482345D01*
X162763333Y-54482345D02*
X162787142Y-54506154D01*
X162787142Y-54506154D02*
X162810952Y-54553773D01*
X162810952Y-54553773D02*
X162810952Y-54672821D01*
X162810952Y-54672821D02*
X162787142Y-54720440D01*
X162787142Y-54720440D02*
X162763333Y-54744250D01*
X162763333Y-54744250D02*
X162715714Y-54768059D01*
X162715714Y-54768059D02*
X162572857Y-54768059D01*
X162572857Y-54768059D02*
X162525238Y-54744250D01*
X162525238Y-54744250D02*
X162501428Y-54720440D01*
X146076666Y-60970440D02*
X146052857Y-60994250D01*
X146052857Y-60994250D02*
X145981428Y-61018059D01*
X145981428Y-61018059D02*
X145933809Y-61018059D01*
X145933809Y-61018059D02*
X145862381Y-60994250D01*
X145862381Y-60994250D02*
X145814762Y-60946630D01*
X145814762Y-60946630D02*
X145790952Y-60899011D01*
X145790952Y-60899011D02*
X145767143Y-60803773D01*
X145767143Y-60803773D02*
X145767143Y-60732345D01*
X145767143Y-60732345D02*
X145790952Y-60637107D01*
X145790952Y-60637107D02*
X145814762Y-60589488D01*
X145814762Y-60589488D02*
X145862381Y-60541869D01*
X145862381Y-60541869D02*
X145933809Y-60518059D01*
X145933809Y-60518059D02*
X145981428Y-60518059D01*
X145981428Y-60518059D02*
X146052857Y-60541869D01*
X146052857Y-60541869D02*
X146076666Y-60565678D01*
X146505238Y-60518059D02*
X146410000Y-60518059D01*
X146410000Y-60518059D02*
X146362381Y-60541869D01*
X146362381Y-60541869D02*
X146338571Y-60565678D01*
X146338571Y-60565678D02*
X146290952Y-60637107D01*
X146290952Y-60637107D02*
X146267143Y-60732345D01*
X146267143Y-60732345D02*
X146267143Y-60922821D01*
X146267143Y-60922821D02*
X146290952Y-60970440D01*
X146290952Y-60970440D02*
X146314762Y-60994250D01*
X146314762Y-60994250D02*
X146362381Y-61018059D01*
X146362381Y-61018059D02*
X146457619Y-61018059D01*
X146457619Y-61018059D02*
X146505238Y-60994250D01*
X146505238Y-60994250D02*
X146529047Y-60970440D01*
X146529047Y-60970440D02*
X146552857Y-60922821D01*
X146552857Y-60922821D02*
X146552857Y-60803773D01*
X146552857Y-60803773D02*
X146529047Y-60756154D01*
X146529047Y-60756154D02*
X146505238Y-60732345D01*
X146505238Y-60732345D02*
X146457619Y-60708535D01*
X146457619Y-60708535D02*
X146362381Y-60708535D01*
X146362381Y-60708535D02*
X146314762Y-60732345D01*
X146314762Y-60732345D02*
X146290952Y-60756154D01*
X146290952Y-60756154D02*
X146267143Y-60803773D01*
X185791071Y-84328059D02*
X185624405Y-84089964D01*
X185505357Y-84328059D02*
X185505357Y-83828059D01*
X185505357Y-83828059D02*
X185695833Y-83828059D01*
X185695833Y-83828059D02*
X185743452Y-83851869D01*
X185743452Y-83851869D02*
X185767262Y-83875678D01*
X185767262Y-83875678D02*
X185791071Y-83923297D01*
X185791071Y-83923297D02*
X185791071Y-83994726D01*
X185791071Y-83994726D02*
X185767262Y-84042345D01*
X185767262Y-84042345D02*
X185743452Y-84066154D01*
X185743452Y-84066154D02*
X185695833Y-84089964D01*
X185695833Y-84089964D02*
X185505357Y-84089964D01*
X186267262Y-84328059D02*
X185981548Y-84328059D01*
X186124405Y-84328059D02*
X186124405Y-83828059D01*
X186124405Y-83828059D02*
X186076786Y-83899488D01*
X186076786Y-83899488D02*
X186029167Y-83947107D01*
X186029167Y-83947107D02*
X185981548Y-83970916D01*
X186433928Y-83828059D02*
X186743452Y-83828059D01*
X186743452Y-83828059D02*
X186576785Y-84018535D01*
X186576785Y-84018535D02*
X186648214Y-84018535D01*
X186648214Y-84018535D02*
X186695833Y-84042345D01*
X186695833Y-84042345D02*
X186719642Y-84066154D01*
X186719642Y-84066154D02*
X186743452Y-84113773D01*
X186743452Y-84113773D02*
X186743452Y-84232821D01*
X186743452Y-84232821D02*
X186719642Y-84280440D01*
X186719642Y-84280440D02*
X186695833Y-84304250D01*
X186695833Y-84304250D02*
X186648214Y-84328059D01*
X186648214Y-84328059D02*
X186505357Y-84328059D01*
X186505357Y-84328059D02*
X186457738Y-84304250D01*
X186457738Y-84304250D02*
X186433928Y-84280440D01*
X169240952Y-62588059D02*
X169240952Y-62088059D01*
X169240952Y-62088059D02*
X169360000Y-62088059D01*
X169360000Y-62088059D02*
X169431428Y-62111869D01*
X169431428Y-62111869D02*
X169479047Y-62159488D01*
X169479047Y-62159488D02*
X169502857Y-62207107D01*
X169502857Y-62207107D02*
X169526666Y-62302345D01*
X169526666Y-62302345D02*
X169526666Y-62373773D01*
X169526666Y-62373773D02*
X169502857Y-62469011D01*
X169502857Y-62469011D02*
X169479047Y-62516630D01*
X169479047Y-62516630D02*
X169431428Y-62564250D01*
X169431428Y-62564250D02*
X169360000Y-62588059D01*
X169360000Y-62588059D02*
X169240952Y-62588059D01*
X170002857Y-62588059D02*
X169717143Y-62588059D01*
X169860000Y-62588059D02*
X169860000Y-62088059D01*
X169860000Y-62088059D02*
X169812381Y-62159488D01*
X169812381Y-62159488D02*
X169764762Y-62207107D01*
X169764762Y-62207107D02*
X169717143Y-62230916D01*
X186971940Y-68676666D02*
X187210035Y-68510000D01*
X186971940Y-68390952D02*
X187471940Y-68390952D01*
X187471940Y-68390952D02*
X187471940Y-68581428D01*
X187471940Y-68581428D02*
X187448130Y-68629047D01*
X187448130Y-68629047D02*
X187424321Y-68652857D01*
X187424321Y-68652857D02*
X187376702Y-68676666D01*
X187376702Y-68676666D02*
X187305273Y-68676666D01*
X187305273Y-68676666D02*
X187257654Y-68652857D01*
X187257654Y-68652857D02*
X187233845Y-68629047D01*
X187233845Y-68629047D02*
X187210035Y-68581428D01*
X187210035Y-68581428D02*
X187210035Y-68390952D01*
X186971940Y-69152857D02*
X186971940Y-68867143D01*
X186971940Y-69010000D02*
X187471940Y-69010000D01*
X187471940Y-69010000D02*
X187400511Y-68962381D01*
X187400511Y-68962381D02*
X187352892Y-68914762D01*
X187352892Y-68914762D02*
X187329083Y-68867143D01*
X128056666Y-63310440D02*
X128032857Y-63334250D01*
X128032857Y-63334250D02*
X127961428Y-63358059D01*
X127961428Y-63358059D02*
X127913809Y-63358059D01*
X127913809Y-63358059D02*
X127842381Y-63334250D01*
X127842381Y-63334250D02*
X127794762Y-63286630D01*
X127794762Y-63286630D02*
X127770952Y-63239011D01*
X127770952Y-63239011D02*
X127747143Y-63143773D01*
X127747143Y-63143773D02*
X127747143Y-63072345D01*
X127747143Y-63072345D02*
X127770952Y-62977107D01*
X127770952Y-62977107D02*
X127794762Y-62929488D01*
X127794762Y-62929488D02*
X127842381Y-62881869D01*
X127842381Y-62881869D02*
X127913809Y-62858059D01*
X127913809Y-62858059D02*
X127961428Y-62858059D01*
X127961428Y-62858059D02*
X128032857Y-62881869D01*
X128032857Y-62881869D02*
X128056666Y-62905678D01*
X128223333Y-62858059D02*
X128532857Y-62858059D01*
X128532857Y-62858059D02*
X128366190Y-63048535D01*
X128366190Y-63048535D02*
X128437619Y-63048535D01*
X128437619Y-63048535D02*
X128485238Y-63072345D01*
X128485238Y-63072345D02*
X128509047Y-63096154D01*
X128509047Y-63096154D02*
X128532857Y-63143773D01*
X128532857Y-63143773D02*
X128532857Y-63262821D01*
X128532857Y-63262821D02*
X128509047Y-63310440D01*
X128509047Y-63310440D02*
X128485238Y-63334250D01*
X128485238Y-63334250D02*
X128437619Y-63358059D01*
X128437619Y-63358059D02*
X128294762Y-63358059D01*
X128294762Y-63358059D02*
X128247143Y-63334250D01*
X128247143Y-63334250D02*
X128223333Y-63310440D01*
D12*
X178645180Y-66016666D02*
X177930895Y-66016666D01*
X177930895Y-66016666D02*
X177788038Y-65969047D01*
X177788038Y-65969047D02*
X177692800Y-65873809D01*
X177692800Y-65873809D02*
X177645180Y-65730952D01*
X177645180Y-65730952D02*
X177645180Y-65635714D01*
X177645180Y-66492857D02*
X178645180Y-66492857D01*
X178645180Y-66492857D02*
X178645180Y-66873809D01*
X178645180Y-66873809D02*
X178597561Y-66969047D01*
X178597561Y-66969047D02*
X178549942Y-67016666D01*
X178549942Y-67016666D02*
X178454704Y-67064285D01*
X178454704Y-67064285D02*
X178311847Y-67064285D01*
X178311847Y-67064285D02*
X178216609Y-67016666D01*
X178216609Y-67016666D02*
X178168990Y-66969047D01*
X178168990Y-66969047D02*
X178121371Y-66873809D01*
X178121371Y-66873809D02*
X178121371Y-66492857D01*
X178549942Y-67445238D02*
X178597561Y-67492857D01*
X178597561Y-67492857D02*
X178645180Y-67588095D01*
X178645180Y-67588095D02*
X178645180Y-67826190D01*
X178645180Y-67826190D02*
X178597561Y-67921428D01*
X178597561Y-67921428D02*
X178549942Y-67969047D01*
X178549942Y-67969047D02*
X178454704Y-68016666D01*
X178454704Y-68016666D02*
X178359466Y-68016666D01*
X178359466Y-68016666D02*
X178216609Y-67969047D01*
X178216609Y-67969047D02*
X177645180Y-67397619D01*
X177645180Y-67397619D02*
X177645180Y-68016666D01*
D13*
X186971940Y-63516666D02*
X187210035Y-63350000D01*
X186971940Y-63230952D02*
X187471940Y-63230952D01*
X187471940Y-63230952D02*
X187471940Y-63421428D01*
X187471940Y-63421428D02*
X187448130Y-63469047D01*
X187448130Y-63469047D02*
X187424321Y-63492857D01*
X187424321Y-63492857D02*
X187376702Y-63516666D01*
X187376702Y-63516666D02*
X187305273Y-63516666D01*
X187305273Y-63516666D02*
X187257654Y-63492857D01*
X187257654Y-63492857D02*
X187233845Y-63469047D01*
X187233845Y-63469047D02*
X187210035Y-63421428D01*
X187210035Y-63421428D02*
X187210035Y-63230952D01*
X187424321Y-63707143D02*
X187448130Y-63730952D01*
X187448130Y-63730952D02*
X187471940Y-63778571D01*
X187471940Y-63778571D02*
X187471940Y-63897619D01*
X187471940Y-63897619D02*
X187448130Y-63945238D01*
X187448130Y-63945238D02*
X187424321Y-63969047D01*
X187424321Y-63969047D02*
X187376702Y-63992857D01*
X187376702Y-63992857D02*
X187329083Y-63992857D01*
X187329083Y-63992857D02*
X187257654Y-63969047D01*
X187257654Y-63969047D02*
X186971940Y-63683333D01*
X186971940Y-63683333D02*
X186971940Y-63992857D01*
X167590952Y-56338059D02*
X167590952Y-55838059D01*
X167590952Y-55838059D02*
X167710000Y-55838059D01*
X167710000Y-55838059D02*
X167781428Y-55861869D01*
X167781428Y-55861869D02*
X167829047Y-55909488D01*
X167829047Y-55909488D02*
X167852857Y-55957107D01*
X167852857Y-55957107D02*
X167876666Y-56052345D01*
X167876666Y-56052345D02*
X167876666Y-56123773D01*
X167876666Y-56123773D02*
X167852857Y-56219011D01*
X167852857Y-56219011D02*
X167829047Y-56266630D01*
X167829047Y-56266630D02*
X167781428Y-56314250D01*
X167781428Y-56314250D02*
X167710000Y-56338059D01*
X167710000Y-56338059D02*
X167590952Y-56338059D01*
X168305238Y-55838059D02*
X168210000Y-55838059D01*
X168210000Y-55838059D02*
X168162381Y-55861869D01*
X168162381Y-55861869D02*
X168138571Y-55885678D01*
X168138571Y-55885678D02*
X168090952Y-55957107D01*
X168090952Y-55957107D02*
X168067143Y-56052345D01*
X168067143Y-56052345D02*
X168067143Y-56242821D01*
X168067143Y-56242821D02*
X168090952Y-56290440D01*
X168090952Y-56290440D02*
X168114762Y-56314250D01*
X168114762Y-56314250D02*
X168162381Y-56338059D01*
X168162381Y-56338059D02*
X168257619Y-56338059D01*
X168257619Y-56338059D02*
X168305238Y-56314250D01*
X168305238Y-56314250D02*
X168329047Y-56290440D01*
X168329047Y-56290440D02*
X168352857Y-56242821D01*
X168352857Y-56242821D02*
X168352857Y-56123773D01*
X168352857Y-56123773D02*
X168329047Y-56076154D01*
X168329047Y-56076154D02*
X168305238Y-56052345D01*
X168305238Y-56052345D02*
X168257619Y-56028535D01*
X168257619Y-56028535D02*
X168162381Y-56028535D01*
X168162381Y-56028535D02*
X168114762Y-56052345D01*
X168114762Y-56052345D02*
X168090952Y-56076154D01*
X168090952Y-56076154D02*
X168067143Y-56123773D01*
X152420952Y-72308059D02*
X152420952Y-71808059D01*
X152420952Y-71808059D02*
X152540000Y-71808059D01*
X152540000Y-71808059D02*
X152611428Y-71831869D01*
X152611428Y-71831869D02*
X152659047Y-71879488D01*
X152659047Y-71879488D02*
X152682857Y-71927107D01*
X152682857Y-71927107D02*
X152706666Y-72022345D01*
X152706666Y-72022345D02*
X152706666Y-72093773D01*
X152706666Y-72093773D02*
X152682857Y-72189011D01*
X152682857Y-72189011D02*
X152659047Y-72236630D01*
X152659047Y-72236630D02*
X152611428Y-72284250D01*
X152611428Y-72284250D02*
X152540000Y-72308059D01*
X152540000Y-72308059D02*
X152420952Y-72308059D01*
X152992381Y-72022345D02*
X152944762Y-71998535D01*
X152944762Y-71998535D02*
X152920952Y-71974726D01*
X152920952Y-71974726D02*
X152897143Y-71927107D01*
X152897143Y-71927107D02*
X152897143Y-71903297D01*
X152897143Y-71903297D02*
X152920952Y-71855678D01*
X152920952Y-71855678D02*
X152944762Y-71831869D01*
X152944762Y-71831869D02*
X152992381Y-71808059D01*
X152992381Y-71808059D02*
X153087619Y-71808059D01*
X153087619Y-71808059D02*
X153135238Y-71831869D01*
X153135238Y-71831869D02*
X153159047Y-71855678D01*
X153159047Y-71855678D02*
X153182857Y-71903297D01*
X153182857Y-71903297D02*
X153182857Y-71927107D01*
X153182857Y-71927107D02*
X153159047Y-71974726D01*
X153159047Y-71974726D02*
X153135238Y-71998535D01*
X153135238Y-71998535D02*
X153087619Y-72022345D01*
X153087619Y-72022345D02*
X152992381Y-72022345D01*
X152992381Y-72022345D02*
X152944762Y-72046154D01*
X152944762Y-72046154D02*
X152920952Y-72069964D01*
X152920952Y-72069964D02*
X152897143Y-72117583D01*
X152897143Y-72117583D02*
X152897143Y-72212821D01*
X152897143Y-72212821D02*
X152920952Y-72260440D01*
X152920952Y-72260440D02*
X152944762Y-72284250D01*
X152944762Y-72284250D02*
X152992381Y-72308059D01*
X152992381Y-72308059D02*
X153087619Y-72308059D01*
X153087619Y-72308059D02*
X153135238Y-72284250D01*
X153135238Y-72284250D02*
X153159047Y-72260440D01*
X153159047Y-72260440D02*
X153182857Y-72212821D01*
X153182857Y-72212821D02*
X153182857Y-72117583D01*
X153182857Y-72117583D02*
X153159047Y-72069964D01*
X153159047Y-72069964D02*
X153135238Y-72046154D01*
X153135238Y-72046154D02*
X153087619Y-72022345D01*
X135860952Y-68948059D02*
X135860952Y-68448059D01*
X135860952Y-68448059D02*
X135980000Y-68448059D01*
X135980000Y-68448059D02*
X136051428Y-68471869D01*
X136051428Y-68471869D02*
X136099047Y-68519488D01*
X136099047Y-68519488D02*
X136122857Y-68567107D01*
X136122857Y-68567107D02*
X136146666Y-68662345D01*
X136146666Y-68662345D02*
X136146666Y-68733773D01*
X136146666Y-68733773D02*
X136122857Y-68829011D01*
X136122857Y-68829011D02*
X136099047Y-68876630D01*
X136099047Y-68876630D02*
X136051428Y-68924250D01*
X136051428Y-68924250D02*
X135980000Y-68948059D01*
X135980000Y-68948059D02*
X135860952Y-68948059D01*
X136599047Y-68448059D02*
X136360952Y-68448059D01*
X136360952Y-68448059D02*
X136337143Y-68686154D01*
X136337143Y-68686154D02*
X136360952Y-68662345D01*
X136360952Y-68662345D02*
X136408571Y-68638535D01*
X136408571Y-68638535D02*
X136527619Y-68638535D01*
X136527619Y-68638535D02*
X136575238Y-68662345D01*
X136575238Y-68662345D02*
X136599047Y-68686154D01*
X136599047Y-68686154D02*
X136622857Y-68733773D01*
X136622857Y-68733773D02*
X136622857Y-68852821D01*
X136622857Y-68852821D02*
X136599047Y-68900440D01*
X136599047Y-68900440D02*
X136575238Y-68924250D01*
X136575238Y-68924250D02*
X136527619Y-68948059D01*
X136527619Y-68948059D02*
X136408571Y-68948059D01*
X136408571Y-68948059D02*
X136360952Y-68924250D01*
X136360952Y-68924250D02*
X136337143Y-68900440D01*
X162398571Y-81498059D02*
X162231905Y-81259964D01*
X162112857Y-81498059D02*
X162112857Y-80998059D01*
X162112857Y-80998059D02*
X162303333Y-80998059D01*
X162303333Y-80998059D02*
X162350952Y-81021869D01*
X162350952Y-81021869D02*
X162374762Y-81045678D01*
X162374762Y-81045678D02*
X162398571Y-81093297D01*
X162398571Y-81093297D02*
X162398571Y-81164726D01*
X162398571Y-81164726D02*
X162374762Y-81212345D01*
X162374762Y-81212345D02*
X162350952Y-81236154D01*
X162350952Y-81236154D02*
X162303333Y-81259964D01*
X162303333Y-81259964D02*
X162112857Y-81259964D01*
X162874762Y-81498059D02*
X162589048Y-81498059D01*
X162731905Y-81498059D02*
X162731905Y-80998059D01*
X162731905Y-80998059D02*
X162684286Y-81069488D01*
X162684286Y-81069488D02*
X162636667Y-81117107D01*
X162636667Y-81117107D02*
X162589048Y-81140916D01*
X163112857Y-81498059D02*
X163208095Y-81498059D01*
X163208095Y-81498059D02*
X163255714Y-81474250D01*
X163255714Y-81474250D02*
X163279523Y-81450440D01*
X163279523Y-81450440D02*
X163327142Y-81379011D01*
X163327142Y-81379011D02*
X163350952Y-81283773D01*
X163350952Y-81283773D02*
X163350952Y-81093297D01*
X163350952Y-81093297D02*
X163327142Y-81045678D01*
X163327142Y-81045678D02*
X163303333Y-81021869D01*
X163303333Y-81021869D02*
X163255714Y-80998059D01*
X163255714Y-80998059D02*
X163160476Y-80998059D01*
X163160476Y-80998059D02*
X163112857Y-81021869D01*
X163112857Y-81021869D02*
X163089047Y-81045678D01*
X163089047Y-81045678D02*
X163065238Y-81093297D01*
X163065238Y-81093297D02*
X163065238Y-81212345D01*
X163065238Y-81212345D02*
X163089047Y-81259964D01*
X163089047Y-81259964D02*
X163112857Y-81283773D01*
X163112857Y-81283773D02*
X163160476Y-81307583D01*
X163160476Y-81307583D02*
X163255714Y-81307583D01*
X163255714Y-81307583D02*
X163303333Y-81283773D01*
X163303333Y-81283773D02*
X163327142Y-81259964D01*
X163327142Y-81259964D02*
X163350952Y-81212345D01*
D12*
X123126666Y-119701009D02*
X122793333Y-119701009D01*
X122793333Y-120224819D02*
X122793333Y-119224819D01*
X122793333Y-119224819D02*
X123269523Y-119224819D01*
X124174285Y-120224819D02*
X123602857Y-120224819D01*
X123888571Y-120224819D02*
X123888571Y-119224819D01*
X123888571Y-119224819D02*
X123793333Y-119367676D01*
X123793333Y-119367676D02*
X123698095Y-119462914D01*
X123698095Y-119462914D02*
X123602857Y-119510533D01*
D13*
X180916666Y-68928059D02*
X180750000Y-68689964D01*
X180630952Y-68928059D02*
X180630952Y-68428059D01*
X180630952Y-68428059D02*
X180821428Y-68428059D01*
X180821428Y-68428059D02*
X180869047Y-68451869D01*
X180869047Y-68451869D02*
X180892857Y-68475678D01*
X180892857Y-68475678D02*
X180916666Y-68523297D01*
X180916666Y-68523297D02*
X180916666Y-68594726D01*
X180916666Y-68594726D02*
X180892857Y-68642345D01*
X180892857Y-68642345D02*
X180869047Y-68666154D01*
X180869047Y-68666154D02*
X180821428Y-68689964D01*
X180821428Y-68689964D02*
X180630952Y-68689964D01*
X181369047Y-68428059D02*
X181130952Y-68428059D01*
X181130952Y-68428059D02*
X181107143Y-68666154D01*
X181107143Y-68666154D02*
X181130952Y-68642345D01*
X181130952Y-68642345D02*
X181178571Y-68618535D01*
X181178571Y-68618535D02*
X181297619Y-68618535D01*
X181297619Y-68618535D02*
X181345238Y-68642345D01*
X181345238Y-68642345D02*
X181369047Y-68666154D01*
X181369047Y-68666154D02*
X181392857Y-68713773D01*
X181392857Y-68713773D02*
X181392857Y-68832821D01*
X181392857Y-68832821D02*
X181369047Y-68880440D01*
X181369047Y-68880440D02*
X181345238Y-68904250D01*
X181345238Y-68904250D02*
X181297619Y-68928059D01*
X181297619Y-68928059D02*
X181178571Y-68928059D01*
X181178571Y-68928059D02*
X181130952Y-68904250D01*
X181130952Y-68904250D02*
X181107143Y-68880440D01*
D11*
X108412618Y-80814318D02*
X108412618Y-79544318D01*
X108412618Y-79544318D02*
X108714999Y-79544318D01*
X108714999Y-79544318D02*
X108896428Y-79604794D01*
X108896428Y-79604794D02*
X109017380Y-79725746D01*
X109017380Y-79725746D02*
X109077857Y-79846699D01*
X109077857Y-79846699D02*
X109138333Y-80088603D01*
X109138333Y-80088603D02*
X109138333Y-80270032D01*
X109138333Y-80270032D02*
X109077857Y-80511937D01*
X109077857Y-80511937D02*
X109017380Y-80632889D01*
X109017380Y-80632889D02*
X108896428Y-80753842D01*
X108896428Y-80753842D02*
X108714999Y-80814318D01*
X108714999Y-80814318D02*
X108412618Y-80814318D01*
X109622142Y-79665270D02*
X109682618Y-79604794D01*
X109682618Y-79604794D02*
X109803571Y-79544318D01*
X109803571Y-79544318D02*
X110105952Y-79544318D01*
X110105952Y-79544318D02*
X110226904Y-79604794D01*
X110226904Y-79604794D02*
X110287380Y-79665270D01*
X110287380Y-79665270D02*
X110347857Y-79786222D01*
X110347857Y-79786222D02*
X110347857Y-79907175D01*
X110347857Y-79907175D02*
X110287380Y-80088603D01*
X110287380Y-80088603D02*
X109561666Y-80814318D01*
X109561666Y-80814318D02*
X110347857Y-80814318D01*
D13*
X135288571Y-76138059D02*
X135121905Y-75899964D01*
X135002857Y-76138059D02*
X135002857Y-75638059D01*
X135002857Y-75638059D02*
X135193333Y-75638059D01*
X135193333Y-75638059D02*
X135240952Y-75661869D01*
X135240952Y-75661869D02*
X135264762Y-75685678D01*
X135264762Y-75685678D02*
X135288571Y-75733297D01*
X135288571Y-75733297D02*
X135288571Y-75804726D01*
X135288571Y-75804726D02*
X135264762Y-75852345D01*
X135264762Y-75852345D02*
X135240952Y-75876154D01*
X135240952Y-75876154D02*
X135193333Y-75899964D01*
X135193333Y-75899964D02*
X135002857Y-75899964D01*
X135479048Y-75685678D02*
X135502857Y-75661869D01*
X135502857Y-75661869D02*
X135550476Y-75638059D01*
X135550476Y-75638059D02*
X135669524Y-75638059D01*
X135669524Y-75638059D02*
X135717143Y-75661869D01*
X135717143Y-75661869D02*
X135740952Y-75685678D01*
X135740952Y-75685678D02*
X135764762Y-75733297D01*
X135764762Y-75733297D02*
X135764762Y-75780916D01*
X135764762Y-75780916D02*
X135740952Y-75852345D01*
X135740952Y-75852345D02*
X135455238Y-76138059D01*
X135455238Y-76138059D02*
X135764762Y-76138059D01*
X135931428Y-75638059D02*
X136240952Y-75638059D01*
X136240952Y-75638059D02*
X136074285Y-75828535D01*
X136074285Y-75828535D02*
X136145714Y-75828535D01*
X136145714Y-75828535D02*
X136193333Y-75852345D01*
X136193333Y-75852345D02*
X136217142Y-75876154D01*
X136217142Y-75876154D02*
X136240952Y-75923773D01*
X136240952Y-75923773D02*
X136240952Y-76042821D01*
X136240952Y-76042821D02*
X136217142Y-76090440D01*
X136217142Y-76090440D02*
X136193333Y-76114250D01*
X136193333Y-76114250D02*
X136145714Y-76138059D01*
X136145714Y-76138059D02*
X136002857Y-76138059D01*
X136002857Y-76138059D02*
X135955238Y-76114250D01*
X135955238Y-76114250D02*
X135931428Y-76090440D01*
D10*
X163561531Y-124230669D02*
X163561531Y-124298012D01*
X163561531Y-124298012D02*
X163494188Y-124432699D01*
X163494188Y-124432699D02*
X163426844Y-124500043D01*
X163426844Y-124500043D02*
X163292157Y-124567386D01*
X163292157Y-124567386D02*
X163157470Y-124567386D01*
X163157470Y-124567386D02*
X163056455Y-124533715D01*
X163056455Y-124533715D02*
X162888096Y-124432699D01*
X162888096Y-124432699D02*
X162787081Y-124331684D01*
X162787081Y-124331684D02*
X162686066Y-124163325D01*
X162686066Y-124163325D02*
X162652394Y-124062310D01*
X162652394Y-124062310D02*
X162652394Y-123927623D01*
X162652394Y-123927623D02*
X162719738Y-123792936D01*
X162719738Y-123792936D02*
X162787081Y-123725593D01*
X162787081Y-123725593D02*
X162921768Y-123658249D01*
X162921768Y-123658249D02*
X162989112Y-123658249D01*
X164302310Y-123624577D02*
X163898249Y-124028638D01*
X164100279Y-123826608D02*
X163393173Y-123119501D01*
X163393173Y-123119501D02*
X163426844Y-123287860D01*
X163426844Y-123287860D02*
X163426844Y-123422547D01*
X163426844Y-123422547D02*
X163393173Y-123523562D01*
X164975745Y-122951142D02*
X164571684Y-123355203D01*
X164773715Y-123153173D02*
X164066608Y-122446066D01*
X164066608Y-122446066D02*
X164100279Y-122614425D01*
X164100279Y-122614425D02*
X164100279Y-122749112D01*
X164100279Y-122749112D02*
X164066608Y-122850127D01*
D12*
X178745180Y-73166666D02*
X178030895Y-73166666D01*
X178030895Y-73166666D02*
X177888038Y-73119047D01*
X177888038Y-73119047D02*
X177792800Y-73023809D01*
X177792800Y-73023809D02*
X177745180Y-72880952D01*
X177745180Y-72880952D02*
X177745180Y-72785714D01*
X177745180Y-73642857D02*
X178745180Y-73642857D01*
X178745180Y-73642857D02*
X178745180Y-74023809D01*
X178745180Y-74023809D02*
X178697561Y-74119047D01*
X178697561Y-74119047D02*
X178649942Y-74166666D01*
X178649942Y-74166666D02*
X178554704Y-74214285D01*
X178554704Y-74214285D02*
X178411847Y-74214285D01*
X178411847Y-74214285D02*
X178316609Y-74166666D01*
X178316609Y-74166666D02*
X178268990Y-74119047D01*
X178268990Y-74119047D02*
X178221371Y-74023809D01*
X178221371Y-74023809D02*
X178221371Y-73642857D01*
X178745180Y-74547619D02*
X178745180Y-75166666D01*
X178745180Y-75166666D02*
X178364228Y-74833333D01*
X178364228Y-74833333D02*
X178364228Y-74976190D01*
X178364228Y-74976190D02*
X178316609Y-75071428D01*
X178316609Y-75071428D02*
X178268990Y-75119047D01*
X178268990Y-75119047D02*
X178173752Y-75166666D01*
X178173752Y-75166666D02*
X177935657Y-75166666D01*
X177935657Y-75166666D02*
X177840419Y-75119047D01*
X177840419Y-75119047D02*
X177792800Y-75071428D01*
X177792800Y-75071428D02*
X177745180Y-74976190D01*
X177745180Y-74976190D02*
X177745180Y-74690476D01*
X177745180Y-74690476D02*
X177792800Y-74595238D01*
X177792800Y-74595238D02*
X177840419Y-74547619D01*
D17*
%TO.C,R14*%
X180240436Y-84718750D02*
X181694564Y-84718750D01*
X180240436Y-86538750D02*
X181694564Y-86538750D01*
%TO.C,R6*%
X174212064Y-56250000D02*
X172757936Y-56250000D01*
X174212064Y-58070000D02*
X172757936Y-58070000D01*
%TO.C,R15*%
X174970436Y-84718750D02*
X176424564Y-84718750D01*
X174970436Y-86538750D02*
X176424564Y-86538750D01*
%TO.C,D7*%
X139075000Y-76560000D02*
X141935000Y-76560000D01*
X141935000Y-74640000D02*
X139075000Y-74640000D01*
X141935000Y-76560000D02*
X141935000Y-74640000D01*
%TO.C,R10*%
X120754564Y-60100000D02*
X119300436Y-60100000D01*
X120754564Y-61920000D02*
X119300436Y-61920000D01*
%TO.C,R8*%
X176424564Y-77108750D02*
X174970436Y-77108750D01*
X176424564Y-78928750D02*
X174970436Y-78928750D01*
%TO.C,C14*%
X153001233Y-73550000D02*
X153293767Y-73550000D01*
X153001233Y-74570000D02*
X153293767Y-74570000D01*
%TO.C,R24*%
X134657064Y-90410000D02*
X130302936Y-90410000D01*
X134657064Y-93830000D02*
X130302936Y-93830000D01*
%TO.C,R28*%
X154674564Y-75400000D02*
X153220436Y-75400000D01*
X154674564Y-77220000D02*
X153220436Y-77220000D01*
%TO.C,JP5*%
X184730000Y-74288750D02*
X184730000Y-73688750D01*
X185430000Y-72988750D02*
X186830000Y-72988750D01*
X186830000Y-74988750D02*
X185430000Y-74988750D01*
X187530000Y-73688750D02*
X187530000Y-74288750D01*
X184730000Y-73688750D02*
G75*
G02*
X185430000Y-72988750I699999J1D01*
G01*
X185430000Y-74988750D02*
G75*
G02*
X184730000Y-74288750I-1J699999D01*
G01*
X186830000Y-72988750D02*
G75*
G02*
X187530000Y-73688750I0J-700000D01*
G01*
X187530000Y-74288750D02*
G75*
G02*
X186830000Y-74988750I-700000J0D01*
G01*
%TO.C,R26*%
X161987064Y-69600000D02*
X157632936Y-69600000D01*
X161987064Y-73020000D02*
X157632936Y-73020000D01*
%TO.C,R4*%
X176620000Y-58640436D02*
X176620000Y-60094564D01*
X178440000Y-58640436D02*
X178440000Y-60094564D01*
%TO.C,JP1*%
X179567500Y-67128750D02*
X179567500Y-66528750D01*
X180267500Y-65828750D02*
X181667500Y-65828750D01*
X181667500Y-67828750D02*
X180267500Y-67828750D01*
X182367500Y-66528750D02*
X182367500Y-67128750D01*
X179567500Y-66528750D02*
G75*
G02*
X180267500Y-65828750I700000J0D01*
G01*
X180267500Y-67828750D02*
G75*
G02*
X179567500Y-67128750I0J700000D01*
G01*
X181667500Y-65828750D02*
G75*
G02*
X182367500Y-66528750I1J-699999D01*
G01*
X182367500Y-67128750D02*
G75*
G02*
X181667500Y-67828750I-699999J-1D01*
G01*
%TO.C,R7*%
X174970436Y-69318750D02*
X176424564Y-69318750D01*
X174970436Y-71138750D02*
X176424564Y-71138750D01*
D18*
%TO.C,G\u002A\u002A\u002A*%
G36*
X106505574Y-60667884D02*
G01*
X106516771Y-60693484D01*
X106530781Y-60731203D01*
X106545608Y-60775064D01*
X106559255Y-60819093D01*
X106569725Y-60857315D01*
X106575023Y-60883754D01*
X106575307Y-60888161D01*
X106563702Y-60895604D01*
X106532343Y-60900240D01*
X106500270Y-60901329D01*
X106460696Y-60899533D01*
X106433507Y-60894866D01*
X106425233Y-60889468D01*
X106428956Y-60870588D01*
X106438656Y-60835699D01*
X106452129Y-60791625D01*
X106467173Y-60745191D01*
X106481584Y-60703224D01*
X106493158Y-60672549D01*
X106499188Y-60660376D01*
X106505574Y-60667884D01*
G37*
G36*
X104755648Y-60596613D02*
G01*
X104805711Y-60621699D01*
X104844242Y-60666201D01*
X104869515Y-60727989D01*
X104879802Y-60804935D01*
X104879931Y-60820039D01*
X104870995Y-60900473D01*
X104846481Y-60963805D01*
X104807427Y-61008683D01*
X104754872Y-61033756D01*
X104711890Y-61038803D01*
X104670320Y-61031951D01*
X104629709Y-61015362D01*
X104628081Y-61014390D01*
X104586076Y-60978569D01*
X104559281Y-60929784D01*
X104546095Y-60864333D01*
X104544064Y-60820039D01*
X104550920Y-60735891D01*
X104572944Y-60671394D01*
X104610453Y-60626070D01*
X104663769Y-60599441D01*
X104695781Y-60593070D01*
X104755648Y-60596613D01*
G37*
G36*
X108522941Y-54530577D02*
G01*
X108600152Y-54582585D01*
X108664445Y-54652285D01*
X108701322Y-54714175D01*
X108703859Y-54719773D01*
X108706219Y-54725978D01*
X108708407Y-54733672D01*
X108710428Y-54743739D01*
X108712289Y-54757063D01*
X108713995Y-54774529D01*
X108715551Y-54797018D01*
X108716963Y-54825415D01*
X108718237Y-54860604D01*
X108719378Y-54903469D01*
X108720391Y-54954892D01*
X108721282Y-55015758D01*
X108722058Y-55086950D01*
X108722722Y-55169352D01*
X108723281Y-55263848D01*
X108723741Y-55371321D01*
X108724107Y-55492655D01*
X108724384Y-55628734D01*
X108724578Y-55780441D01*
X108724695Y-55948660D01*
X108724739Y-56134274D01*
X108724718Y-56338168D01*
X108724636Y-56561224D01*
X108724498Y-56804327D01*
X108724311Y-57068361D01*
X108724080Y-57354208D01*
X108723810Y-57662753D01*
X108723508Y-57994879D01*
X108723306Y-58212844D01*
X108722982Y-58560065D01*
X108722672Y-58883156D01*
X108722369Y-59183001D01*
X108722065Y-59460481D01*
X108721755Y-59716480D01*
X108721430Y-59951880D01*
X108721083Y-60167565D01*
X108720709Y-60364416D01*
X108720299Y-60543317D01*
X108719846Y-60705150D01*
X108719344Y-60850799D01*
X108718785Y-60981145D01*
X108718162Y-61097072D01*
X108717469Y-61199462D01*
X108716698Y-61289198D01*
X108715842Y-61367163D01*
X108714895Y-61434239D01*
X108713848Y-61491310D01*
X108712695Y-61539258D01*
X108711430Y-61578965D01*
X108710044Y-61611315D01*
X108708531Y-61637191D01*
X108706884Y-61657474D01*
X108705096Y-61673048D01*
X108703160Y-61684795D01*
X108701068Y-61693598D01*
X108698813Y-61700341D01*
X108696390Y-61705905D01*
X108695382Y-61707976D01*
X108652098Y-61772452D01*
X108592111Y-61830770D01*
X108523696Y-61875502D01*
X108494170Y-61888552D01*
X108485839Y-61891595D01*
X108477096Y-61894388D01*
X108466886Y-61896942D01*
X108454154Y-61899266D01*
X108437847Y-61901372D01*
X108416909Y-61903270D01*
X108390288Y-61904970D01*
X108356927Y-61906482D01*
X108315774Y-61907817D01*
X108265774Y-61908986D01*
X108205872Y-61909998D01*
X108135014Y-61910864D01*
X108052146Y-61911594D01*
X107956213Y-61912199D01*
X107846162Y-61912689D01*
X107720938Y-61913074D01*
X107579486Y-61913365D01*
X107420752Y-61913572D01*
X107243683Y-61913706D01*
X107047223Y-61913777D01*
X106830318Y-61913795D01*
X106591915Y-61913770D01*
X106330958Y-61913714D01*
X106046394Y-61913636D01*
X105946404Y-61913607D01*
X103467528Y-61912886D01*
X103398744Y-61881706D01*
X103320769Y-61836483D01*
X103259657Y-61777332D01*
X103210101Y-61699112D01*
X103209975Y-61698864D01*
X103173544Y-61627222D01*
X103173544Y-61618789D01*
X103261176Y-61618789D01*
X103287586Y-61673344D01*
X103330373Y-61735476D01*
X103389627Y-61785360D01*
X103439250Y-61810090D01*
X103450497Y-61811950D01*
X103474101Y-61813668D01*
X103510834Y-61815250D01*
X103561470Y-61816701D01*
X103626782Y-61818025D01*
X103707543Y-61819226D01*
X103804526Y-61820311D01*
X103918505Y-61821283D01*
X104050254Y-61822148D01*
X104200545Y-61822911D01*
X104370151Y-61823576D01*
X104559846Y-61824147D01*
X104770404Y-61824631D01*
X105002597Y-61825032D01*
X105257199Y-61825354D01*
X105534983Y-61825603D01*
X105836723Y-61825783D01*
X105953528Y-61825833D01*
X106248419Y-61825931D01*
X106519322Y-61825986D01*
X106767259Y-61825990D01*
X106993254Y-61825934D01*
X107198331Y-61825812D01*
X107383512Y-61825617D01*
X107549821Y-61825340D01*
X107698281Y-61824974D01*
X107829917Y-61824511D01*
X107945750Y-61823945D01*
X108046806Y-61823267D01*
X108134106Y-61822471D01*
X108208674Y-61821548D01*
X108271535Y-61820491D01*
X108323710Y-61819292D01*
X108366224Y-61817945D01*
X108400100Y-61816441D01*
X108426361Y-61814774D01*
X108446031Y-61812935D01*
X108460133Y-61810917D01*
X108469691Y-61808713D01*
X108473518Y-61807362D01*
X108541183Y-61765901D01*
X108597414Y-61704097D01*
X108618082Y-61670457D01*
X108645076Y-61620433D01*
X108648890Y-58243771D01*
X108649281Y-57868448D01*
X108649577Y-57517622D01*
X108649776Y-57190776D01*
X108649878Y-56887394D01*
X108649881Y-56606961D01*
X108649782Y-56348961D01*
X108649581Y-56112877D01*
X108649276Y-55898194D01*
X108648866Y-55704397D01*
X108648349Y-55530968D01*
X108647723Y-55377393D01*
X108646987Y-55243155D01*
X108646140Y-55127739D01*
X108645180Y-55030628D01*
X108644105Y-54951307D01*
X108642914Y-54889260D01*
X108641606Y-54843971D01*
X108640178Y-54814924D01*
X108638820Y-54802375D01*
X108610429Y-54724109D01*
X108563036Y-54659648D01*
X108499252Y-54612449D01*
X108492999Y-54609266D01*
X108432471Y-54579468D01*
X105949999Y-54579468D01*
X103467528Y-54579468D01*
X103417503Y-54606461D01*
X103347636Y-54656352D01*
X103296573Y-54719303D01*
X103280599Y-54751026D01*
X103278616Y-54757563D01*
X103276772Y-54767927D01*
X103275060Y-54782982D01*
X103273477Y-54803598D01*
X103272017Y-54830642D01*
X103270675Y-54864980D01*
X103269446Y-54907481D01*
X103268326Y-54959011D01*
X103267310Y-55020439D01*
X103266392Y-55092632D01*
X103265569Y-55176456D01*
X103264835Y-55272780D01*
X103264185Y-55382471D01*
X103263614Y-55506396D01*
X103263117Y-55645423D01*
X103262691Y-55800419D01*
X103262329Y-55972252D01*
X103262027Y-56161789D01*
X103261779Y-56369898D01*
X103261582Y-56597445D01*
X103261430Y-56845299D01*
X103261319Y-57114326D01*
X103261243Y-57405395D01*
X103261198Y-57719372D01*
X103261178Y-58057125D01*
X103261176Y-58208155D01*
X103261176Y-61618789D01*
X103173544Y-61618789D01*
X103173678Y-58208155D01*
X103173678Y-58199675D01*
X103173812Y-54772128D01*
X103204965Y-54710652D01*
X103254666Y-54630595D01*
X103313412Y-54570997D01*
X103369446Y-54535365D01*
X103430009Y-54504431D01*
X105943746Y-54501048D01*
X108457483Y-54497665D01*
X108522941Y-54530577D01*
G37*
G36*
X105973361Y-55146004D02*
G01*
X105984220Y-55165012D01*
X105991951Y-55178888D01*
X106011681Y-55213140D01*
X106042721Y-55266591D01*
X106084380Y-55338063D01*
X106135968Y-55426377D01*
X106196794Y-55530357D01*
X106266169Y-55648824D01*
X106343403Y-55780600D01*
X106427804Y-55924507D01*
X106518683Y-56079368D01*
X106615350Y-56244005D01*
X106717114Y-56417240D01*
X106823285Y-56597895D01*
X106933173Y-56784793D01*
X106992972Y-56886465D01*
X107104335Y-57075852D01*
X107212198Y-57259418D01*
X107315883Y-57436002D01*
X107414712Y-57604443D01*
X107508005Y-57763582D01*
X107595084Y-57912256D01*
X107675271Y-58049305D01*
X107747886Y-58173568D01*
X107812253Y-58283885D01*
X107867691Y-58379094D01*
X107913523Y-58458035D01*
X107949070Y-58519547D01*
X107973653Y-58562469D01*
X107986593Y-58585640D01*
X107988503Y-58589546D01*
X107976215Y-58590715D01*
X107940227Y-58591848D01*
X107881849Y-58592939D01*
X107802393Y-58593979D01*
X107703171Y-58594964D01*
X107585493Y-58595885D01*
X107450672Y-58596735D01*
X107300019Y-58597509D01*
X107134845Y-58598199D01*
X106956461Y-58598798D01*
X106766180Y-58599300D01*
X106565312Y-58599697D01*
X106355169Y-58599984D01*
X106137063Y-58600151D01*
X105949999Y-58600196D01*
X105726254Y-58600169D01*
X105509378Y-58600089D01*
X105300683Y-58599959D01*
X105101481Y-58599782D01*
X104913083Y-58599561D01*
X104736800Y-58599299D01*
X104573944Y-58598999D01*
X104425827Y-58598664D01*
X104293760Y-58598297D01*
X104179053Y-58597900D01*
X104083020Y-58597476D01*
X104006970Y-58597029D01*
X103952217Y-58596561D01*
X103920070Y-58596076D01*
X103911496Y-58595660D01*
X103917745Y-58584555D01*
X103936008Y-58553152D01*
X103965561Y-58502681D01*
X104005680Y-58434370D01*
X104055640Y-58349447D01*
X104114718Y-58249139D01*
X104182189Y-58134677D01*
X104257329Y-58007287D01*
X104339414Y-57868198D01*
X104427720Y-57718640D01*
X104521521Y-57559839D01*
X104562597Y-57490327D01*
X105299587Y-57490327D01*
X105310275Y-57487526D01*
X105340333Y-57474774D01*
X105386825Y-57453444D01*
X105446818Y-57424908D01*
X105517379Y-57390537D01*
X105588675Y-57355156D01*
X105666687Y-57316412D01*
X105737117Y-57281986D01*
X105796961Y-57253304D01*
X105843212Y-57231789D01*
X105872864Y-57218865D01*
X105882877Y-57215759D01*
X105883804Y-57229104D01*
X105883614Y-57263309D01*
X105882475Y-57314254D01*
X105880556Y-57377822D01*
X105878025Y-57449892D01*
X105875050Y-57526347D01*
X105871799Y-57603065D01*
X105868442Y-57675930D01*
X105865145Y-57740820D01*
X105862078Y-57793618D01*
X105859408Y-57830204D01*
X105857305Y-57846459D01*
X105857093Y-57846853D01*
X105843294Y-57847280D01*
X105812344Y-57843577D01*
X105780273Y-57838214D01*
X105741251Y-57831570D01*
X105713855Y-57827982D01*
X105705116Y-57827974D01*
X105706850Y-57840677D01*
X105714031Y-57873289D01*
X105725589Y-57921680D01*
X105740455Y-57981722D01*
X105757560Y-58049288D01*
X105775835Y-58120248D01*
X105794211Y-58190476D01*
X105811618Y-58255841D01*
X105826988Y-58312217D01*
X105839251Y-58355475D01*
X105847339Y-58381486D01*
X105849950Y-58387222D01*
X105858338Y-58377185D01*
X105878457Y-58349170D01*
X105908297Y-58306097D01*
X105945847Y-58250886D01*
X105989097Y-58186460D01*
X106015657Y-58146538D01*
X106175111Y-57906105D01*
X106096947Y-57893277D01*
X106051736Y-57884106D01*
X106027876Y-57874313D01*
X106021726Y-57862364D01*
X106021823Y-57861650D01*
X106025760Y-57846085D01*
X106035833Y-57808939D01*
X106051350Y-57752692D01*
X106071620Y-57679825D01*
X106095951Y-57592818D01*
X106123651Y-57494152D01*
X106154028Y-57386308D01*
X106181743Y-57288197D01*
X106213623Y-57175106D01*
X106243164Y-57069593D01*
X106269709Y-56974051D01*
X106292602Y-56890874D01*
X106311189Y-56822454D01*
X106324813Y-56771187D01*
X106332820Y-56739465D01*
X106334695Y-56729615D01*
X106323281Y-56734598D01*
X106292622Y-56750533D01*
X106245233Y-56776044D01*
X106183632Y-56809755D01*
X106110337Y-56850290D01*
X106027865Y-56896273D01*
X105955986Y-56936612D01*
X105867889Y-56985982D01*
X105786886Y-57030975D01*
X105715499Y-57070220D01*
X105656253Y-57102346D01*
X105611671Y-57125982D01*
X105584277Y-57139759D01*
X105576419Y-57142749D01*
X105580447Y-57130760D01*
X105593744Y-57097951D01*
X105615429Y-57046364D01*
X105644622Y-56978039D01*
X105680443Y-56895019D01*
X105722012Y-56799344D01*
X105768449Y-56693056D01*
X105818874Y-56578196D01*
X105860865Y-56482932D01*
X105913936Y-56362600D01*
X105963860Y-56249131D01*
X106009740Y-56144583D01*
X106050678Y-56051012D01*
X106085778Y-55970476D01*
X106114142Y-55905032D01*
X106134874Y-55856737D01*
X106147077Y-55827648D01*
X106150098Y-55819613D01*
X106138318Y-55816709D01*
X106105881Y-55814249D01*
X106057141Y-55812429D01*
X105996452Y-55811443D01*
X105965182Y-55811324D01*
X105780265Y-55811324D01*
X105539880Y-56646110D01*
X105499739Y-56785646D01*
X105461699Y-56918141D01*
X105426319Y-57041637D01*
X105394156Y-57154174D01*
X105365768Y-57253793D01*
X105341713Y-57338536D01*
X105322547Y-57406442D01*
X105308829Y-57455553D01*
X105301117Y-57483910D01*
X105299587Y-57490327D01*
X104562597Y-57490327D01*
X104620095Y-57393024D01*
X104722716Y-57219424D01*
X104794489Y-57098048D01*
X104902281Y-56915767D01*
X105008319Y-56736434D01*
X105111720Y-56561541D01*
X105211601Y-56392581D01*
X105307081Y-56231048D01*
X105397276Y-56078435D01*
X105481304Y-55936235D01*
X105558284Y-55805942D01*
X105627332Y-55689048D01*
X105687566Y-55587048D01*
X105738105Y-55501433D01*
X105778065Y-55433698D01*
X105806564Y-55385336D01*
X105815302Y-55370482D01*
X105856022Y-55301869D01*
X105892792Y-55241179D01*
X105923663Y-55191522D01*
X105946689Y-55156013D01*
X105959922Y-55137763D01*
X105962060Y-55135991D01*
X105973361Y-55146004D01*
G37*
G36*
X108477087Y-54676597D02*
G01*
X108533492Y-54728806D01*
X108569395Y-54795124D01*
X108582291Y-54852108D01*
X108582936Y-54870102D01*
X108583540Y-54912057D01*
X108584100Y-54976922D01*
X108584616Y-55063645D01*
X108585086Y-55171174D01*
X108585510Y-55298458D01*
X108585887Y-55444446D01*
X108586213Y-55608086D01*
X108586490Y-55788326D01*
X108586715Y-55984116D01*
X108586888Y-56194404D01*
X108587006Y-56418138D01*
X108587069Y-56654267D01*
X108587076Y-56901739D01*
X108587025Y-57159504D01*
X108586915Y-57426509D01*
X108586746Y-57701703D01*
X108586514Y-57984034D01*
X108586239Y-58256277D01*
X108585857Y-58598053D01*
X108585491Y-58915713D01*
X108585134Y-59210153D01*
X108584778Y-59482269D01*
X108584415Y-59732956D01*
X108584039Y-59963112D01*
X108583643Y-60173632D01*
X108583218Y-60365412D01*
X108582758Y-60539348D01*
X108582255Y-60696336D01*
X108581703Y-60837273D01*
X108581093Y-60963054D01*
X108580419Y-61074575D01*
X108579673Y-61172733D01*
X108578848Y-61258424D01*
X108577937Y-61332543D01*
X108576932Y-61395987D01*
X108575826Y-61449651D01*
X108574613Y-61494432D01*
X108573283Y-61531227D01*
X108571831Y-61560930D01*
X108570250Y-61584438D01*
X108568530Y-61602647D01*
X108566666Y-61616454D01*
X108564651Y-61626753D01*
X108562476Y-61634442D01*
X108560135Y-61640416D01*
X108558705Y-61643434D01*
X108532704Y-61680788D01*
X108496641Y-61715898D01*
X108484582Y-61724724D01*
X108434300Y-61758000D01*
X105963420Y-61760383D01*
X105632538Y-61760638D01*
X105324390Y-61760744D01*
X105039148Y-61760702D01*
X104776986Y-61760512D01*
X104538076Y-61760174D01*
X104322590Y-61759691D01*
X104130701Y-61759061D01*
X103962581Y-61758287D01*
X103818403Y-61757368D01*
X103698339Y-61756306D01*
X103602562Y-61755101D01*
X103531244Y-61753754D01*
X103484558Y-61752265D01*
X103462676Y-61750635D01*
X103461275Y-61750286D01*
X103419968Y-61725344D01*
X103378099Y-61686824D01*
X103345400Y-61643944D01*
X103341350Y-61636686D01*
X103339530Y-61630471D01*
X103337836Y-61618480D01*
X103336264Y-61599875D01*
X103334809Y-61573821D01*
X103333467Y-61539479D01*
X103332234Y-61496012D01*
X103331105Y-61442585D01*
X103330076Y-61378358D01*
X103329142Y-61302496D01*
X103328301Y-61214162D01*
X103327546Y-61112517D01*
X103326874Y-60996726D01*
X103326281Y-60865950D01*
X103325762Y-60719354D01*
X103325313Y-60556099D01*
X103325144Y-60476119D01*
X103703033Y-60476119D01*
X103813799Y-60798153D01*
X103843215Y-60883653D01*
X103870103Y-60961767D01*
X103893349Y-61029260D01*
X103911839Y-61082899D01*
X103924459Y-61119450D01*
X103930095Y-61135679D01*
X103930144Y-61135819D01*
X103946713Y-61145766D01*
X103987127Y-61150809D01*
X104016258Y-61151452D01*
X104096792Y-61151452D01*
X104121451Y-61079541D01*
X104132985Y-61045962D01*
X104151029Y-60993497D01*
X104173944Y-60926909D01*
X104200092Y-60850961D01*
X104214369Y-60809507D01*
X104375499Y-60809507D01*
X104376435Y-60875790D01*
X104384508Y-60930703D01*
X104385057Y-60932786D01*
X104419838Y-61017190D01*
X104473453Y-61085781D01*
X104544125Y-61136784D01*
X104618094Y-61165469D01*
X104681515Y-61173293D01*
X104755295Y-61168715D01*
X104828865Y-61153033D01*
X104833005Y-61151452D01*
X105174618Y-61151452D01*
X105424741Y-61151452D01*
X105674864Y-61151452D01*
X105674864Y-61082668D01*
X105674864Y-61013884D01*
X105506031Y-61013884D01*
X105337198Y-61013884D01*
X105337198Y-60745002D01*
X105337198Y-60601181D01*
X105624839Y-60601181D01*
X105718635Y-60601181D01*
X105812432Y-60601181D01*
X105812432Y-60876316D01*
X105812432Y-61151452D01*
X105899975Y-61151452D01*
X105987518Y-61151452D01*
X105987518Y-61142072D01*
X106175457Y-61142072D01*
X106186702Y-61146759D01*
X106216545Y-61150101D01*
X106258580Y-61151386D01*
X106259527Y-61151386D01*
X106343943Y-61151321D01*
X106362702Y-61091982D01*
X106381462Y-61032643D01*
X106500270Y-61032643D01*
X106619079Y-61032643D01*
X106637838Y-61091982D01*
X106656597Y-61151321D01*
X106747267Y-61151386D01*
X106791204Y-61151023D01*
X106823299Y-61150004D01*
X106837370Y-61148538D01*
X106837553Y-61148325D01*
X106833454Y-61136200D01*
X106822068Y-61103510D01*
X106804455Y-61053271D01*
X106781673Y-60988496D01*
X106754781Y-60912200D01*
X106738315Y-60865566D01*
X106892081Y-60865566D01*
X106908285Y-60948096D01*
X106941241Y-61023155D01*
X106979766Y-61074355D01*
X107046989Y-61129075D01*
X107122288Y-61162150D01*
X107201757Y-61172955D01*
X107281489Y-61160861D01*
X107345025Y-61133008D01*
X107376653Y-61112340D01*
X107396829Y-61095054D01*
X107400713Y-61088394D01*
X107405421Y-61075203D01*
X107416034Y-61080093D01*
X107427291Y-61098765D01*
X107431979Y-61113933D01*
X107440091Y-61138415D01*
X107455515Y-61149052D01*
X107486802Y-61151448D01*
X107489250Y-61151452D01*
X107538281Y-61151452D01*
X107675849Y-61151452D01*
X107938478Y-61151452D01*
X108201107Y-61151452D01*
X108201107Y-61089264D01*
X108201107Y-61027077D01*
X108022894Y-61023607D01*
X107844682Y-61020137D01*
X107844682Y-60945100D01*
X107844682Y-60870063D01*
X108004135Y-60866563D01*
X108163589Y-60863063D01*
X108163589Y-60800906D01*
X108163589Y-60738749D01*
X108000355Y-60738749D01*
X107837122Y-60738749D01*
X107840902Y-60673091D01*
X107844682Y-60607434D01*
X108016641Y-60603955D01*
X108188601Y-60600475D01*
X108188601Y-60538297D01*
X108188601Y-60476119D01*
X107932225Y-60476119D01*
X107675849Y-60476119D01*
X107675849Y-60813786D01*
X107675849Y-61151452D01*
X107538281Y-61151452D01*
X107538281Y-60970113D01*
X107538281Y-60813786D01*
X107538281Y-60788773D01*
X107388207Y-60788773D01*
X107238133Y-60788773D01*
X107238133Y-60851304D01*
X107238133Y-60913835D01*
X107313170Y-60913835D01*
X107360036Y-60916198D01*
X107384004Y-60924842D01*
X107386873Y-60942102D01*
X107370445Y-60970311D01*
X107363619Y-60979239D01*
X107320889Y-61015047D01*
X107267028Y-61033936D01*
X107209569Y-61035263D01*
X107156049Y-61018384D01*
X107128990Y-60999277D01*
X107090649Y-60948034D01*
X107068297Y-60884038D01*
X107061663Y-60813542D01*
X107070475Y-60742799D01*
X107094462Y-60678061D01*
X107133352Y-60625580D01*
X107145675Y-60614869D01*
X107193979Y-60591613D01*
X107248622Y-60588559D01*
X107302752Y-60604657D01*
X107349516Y-60638856D01*
X107356942Y-60647240D01*
X107373559Y-60663989D01*
X107393171Y-60672551D01*
X107423622Y-60674936D01*
X107460509Y-60673773D01*
X107539064Y-60669965D01*
X107505870Y-60603468D01*
X107464639Y-60541454D01*
X107410235Y-60497500D01*
X107338817Y-60468837D01*
X107309614Y-60462010D01*
X107218035Y-60455752D01*
X107125937Y-60471707D01*
X107043646Y-60507100D01*
X106984105Y-60555736D01*
X106938643Y-60620651D01*
X106907795Y-60697094D01*
X106892096Y-60780316D01*
X106892081Y-60865566D01*
X106738315Y-60865566D01*
X106724839Y-60827398D01*
X106720028Y-60813786D01*
X106602887Y-60482373D01*
X106506710Y-60482373D01*
X106410533Y-60482373D01*
X106293168Y-60807533D01*
X106262494Y-60892808D01*
X106234787Y-60970398D01*
X106211140Y-61037196D01*
X106192648Y-61090091D01*
X106180403Y-61125977D01*
X106175500Y-61141743D01*
X106175457Y-61142072D01*
X105987518Y-61142072D01*
X105987518Y-60876316D01*
X105987518Y-60601181D01*
X106086851Y-60601181D01*
X106186184Y-60601181D01*
X106185700Y-60538650D01*
X106185215Y-60476119D01*
X105905027Y-60476119D01*
X105624839Y-60476119D01*
X105624839Y-60538650D01*
X105624839Y-60601181D01*
X105337198Y-60601181D01*
X105337198Y-60538650D01*
X105337198Y-60476119D01*
X105255908Y-60476119D01*
X105174618Y-60476119D01*
X105174618Y-60813786D01*
X105174618Y-61151452D01*
X104833005Y-61151452D01*
X104880839Y-61133184D01*
X104950397Y-61086704D01*
X105001260Y-61024283D01*
X105033605Y-60945543D01*
X105047607Y-60850110D01*
X105047276Y-60813786D01*
X105046959Y-60778999D01*
X105035608Y-60694084D01*
X105011119Y-60625456D01*
X104970781Y-60566666D01*
X104947476Y-60542411D01*
X104891531Y-60499546D01*
X104827921Y-60473292D01*
X104750671Y-60461570D01*
X104711890Y-60460480D01*
X104616086Y-60469804D01*
X104535983Y-60498239D01*
X104470356Y-60546477D01*
X104417983Y-60615214D01*
X104408487Y-60632446D01*
X104392227Y-60678833D01*
X104380997Y-60740854D01*
X104375499Y-60809507D01*
X104214369Y-60809507D01*
X104227832Y-60770415D01*
X104235155Y-60749156D01*
X104261170Y-60673321D01*
X104284189Y-60605611D01*
X104303034Y-60549537D01*
X104316530Y-60508609D01*
X104323501Y-60486340D01*
X104324199Y-60483401D01*
X104312762Y-60479775D01*
X104282717Y-60477167D01*
X104240464Y-60476121D01*
X104238652Y-60476119D01*
X104153104Y-60476119D01*
X104106427Y-60648079D01*
X104080904Y-60741814D01*
X104060960Y-60814121D01*
X104045730Y-60867737D01*
X104034349Y-60905402D01*
X104025952Y-60929855D01*
X104019674Y-60943834D01*
X104014650Y-60950080D01*
X104010658Y-60951353D01*
X104000555Y-60941120D01*
X103999039Y-60931193D01*
X103995880Y-60913044D01*
X103987111Y-60875071D01*
X103973794Y-60821558D01*
X103956992Y-60756788D01*
X103940086Y-60693576D01*
X103881132Y-60476119D01*
X103792083Y-60476119D01*
X103703033Y-60476119D01*
X103325144Y-60476119D01*
X103324930Y-60375349D01*
X103324607Y-60176267D01*
X103324441Y-60039547D01*
X105512284Y-60039547D01*
X105594047Y-60035849D01*
X105675810Y-60032151D01*
X105675810Y-59694485D01*
X105675810Y-59663872D01*
X105803731Y-59663872D01*
X105806531Y-59764272D01*
X105831768Y-59858000D01*
X105875380Y-59936947D01*
X105928568Y-59990183D01*
X105996259Y-60027574D01*
X106072469Y-60047626D01*
X106151213Y-60048841D01*
X106226508Y-60029725D01*
X106233837Y-60026538D01*
X106269630Y-60006317D01*
X106296788Y-59984023D01*
X106302503Y-59976788D01*
X106319429Y-59955156D01*
X106331188Y-59956035D01*
X106340199Y-59980490D01*
X106343118Y-59994633D01*
X106350460Y-60022911D01*
X106363779Y-60035327D01*
X106391606Y-60038355D01*
X106400788Y-60038404D01*
X106450246Y-60038404D01*
X106587813Y-60038404D01*
X106668706Y-60038404D01*
X106749599Y-60038404D01*
X106753123Y-59891457D01*
X106756646Y-59744509D01*
X106881708Y-59744509D01*
X107006769Y-59744509D01*
X107010293Y-59891457D01*
X107013816Y-60038404D01*
X107094709Y-60038404D01*
X107175602Y-60038404D01*
X107175602Y-59694485D01*
X107175602Y-59350566D01*
X107094765Y-59350566D01*
X107013928Y-59350566D01*
X107010349Y-59472501D01*
X107006769Y-59594436D01*
X106881708Y-59594436D01*
X106756646Y-59594436D01*
X106753067Y-59472501D01*
X106749487Y-59350566D01*
X106668650Y-59350566D01*
X106587813Y-59350566D01*
X106587813Y-59694485D01*
X106587813Y-60038404D01*
X106450246Y-60038404D01*
X106450246Y-59850812D01*
X106450246Y-59694485D01*
X106450246Y-59663219D01*
X106300172Y-59663219D01*
X106150098Y-59663219D01*
X106150098Y-59725750D01*
X106150098Y-59788281D01*
X106225135Y-59788281D01*
X106272261Y-59790733D01*
X106296154Y-59799740D01*
X106298254Y-59817775D01*
X106280005Y-59847316D01*
X106268102Y-59861992D01*
X106221077Y-59900961D01*
X106167339Y-59918386D01*
X106111851Y-59914845D01*
X106059575Y-59890915D01*
X106015473Y-59847174D01*
X106005241Y-59831412D01*
X105983139Y-59774930D01*
X105974686Y-59709661D01*
X105978933Y-59642171D01*
X105994928Y-59579029D01*
X106021722Y-59526802D01*
X106053931Y-59494790D01*
X106106669Y-59472301D01*
X106162371Y-59468347D01*
X106214203Y-59481921D01*
X106255334Y-59512014D01*
X106265801Y-59526045D01*
X106279176Y-59540115D01*
X106301406Y-59547669D01*
X106339215Y-59550475D01*
X106359458Y-59550664D01*
X106404452Y-59549605D01*
X106428426Y-59544039D01*
X106435352Y-59530382D01*
X106429204Y-59505053D01*
X106424438Y-59492074D01*
X106388295Y-59430190D01*
X106333285Y-59383380D01*
X106261231Y-59352663D01*
X106173959Y-59339062D01*
X106150098Y-59338456D01*
X106052591Y-59348629D01*
X105969646Y-59378894D01*
X105902209Y-59428363D01*
X105851226Y-59496147D01*
X105817643Y-59581357D01*
X105803731Y-59663872D01*
X105675810Y-59663872D01*
X105675810Y-59356819D01*
X105594047Y-59353121D01*
X105512284Y-59349423D01*
X105512284Y-59694485D01*
X105512284Y-60039547D01*
X103324441Y-60039547D01*
X103324440Y-60038404D01*
X104774421Y-60038404D01*
X104861964Y-60038404D01*
X104949507Y-60038404D01*
X104949507Y-59887877D01*
X104949507Y-59737351D01*
X105071442Y-59740930D01*
X105193377Y-59744509D01*
X105196900Y-59891457D01*
X105200424Y-60038404D01*
X105281317Y-60038404D01*
X105362210Y-60038404D01*
X105362210Y-59694485D01*
X105362210Y-59350566D01*
X105280920Y-59350566D01*
X105199630Y-59350566D01*
X105199630Y-59475627D01*
X105199630Y-59600689D01*
X105074569Y-59600689D01*
X104949507Y-59600689D01*
X104949507Y-59475627D01*
X104949507Y-59350566D01*
X104861964Y-59350566D01*
X104774421Y-59350566D01*
X104774421Y-59694485D01*
X104774421Y-60038404D01*
X103324440Y-60038404D01*
X103324342Y-59958015D01*
X103324130Y-59719756D01*
X103324114Y-59694485D01*
X103323966Y-59460654D01*
X103323846Y-59179871D01*
X103323765Y-58876570D01*
X103323735Y-58662094D01*
X103699516Y-58662094D01*
X103699575Y-58679519D01*
X103702991Y-58693999D01*
X103709060Y-58706973D01*
X103716996Y-58719760D01*
X103722056Y-58728161D01*
X103726474Y-58735830D01*
X103731355Y-58742802D01*
X103737806Y-58749110D01*
X103746934Y-58754787D01*
X103759845Y-58759868D01*
X103777646Y-58764384D01*
X103801442Y-58768370D01*
X103832341Y-58771860D01*
X103871450Y-58774885D01*
X103919873Y-58777481D01*
X103978719Y-58779680D01*
X104049093Y-58781515D01*
X104132102Y-58783021D01*
X104228853Y-58784230D01*
X104340452Y-58785177D01*
X104468005Y-58785893D01*
X104612619Y-58786414D01*
X104775400Y-58786772D01*
X104957456Y-58787000D01*
X105159892Y-58787132D01*
X105383815Y-58787202D01*
X105630331Y-58787243D01*
X105900547Y-58787288D01*
X105953528Y-58787299D01*
X106228331Y-58787341D01*
X106479204Y-58787328D01*
X106707229Y-58787252D01*
X106913488Y-58787104D01*
X107099062Y-58786875D01*
X107265035Y-58786556D01*
X107412487Y-58786139D01*
X107542500Y-58785614D01*
X107656158Y-58784973D01*
X107754541Y-58784207D01*
X107838732Y-58783306D01*
X107909813Y-58782263D01*
X107968866Y-58781069D01*
X108016973Y-58779713D01*
X108055215Y-58778189D01*
X108084675Y-58776486D01*
X108106435Y-58774596D01*
X108121577Y-58772510D01*
X108131183Y-58770220D01*
X108133175Y-58769479D01*
X108173297Y-58740446D01*
X108199879Y-58697036D01*
X108208493Y-58647860D01*
X108205850Y-58628230D01*
X108198596Y-58613058D01*
X108179567Y-58577682D01*
X108149570Y-58523517D01*
X108109412Y-58451976D01*
X108059900Y-58364474D01*
X108001840Y-58262423D01*
X107936039Y-58147239D01*
X107863303Y-58020336D01*
X107784440Y-57883126D01*
X107700256Y-57737025D01*
X107611558Y-57583446D01*
X107519152Y-57423804D01*
X107490627Y-57374593D01*
X107388545Y-57198534D01*
X107283935Y-57018096D01*
X107178213Y-56835726D01*
X107072801Y-56653872D01*
X106969116Y-56474984D01*
X106868578Y-56301510D01*
X106772605Y-56135897D01*
X106682616Y-55980595D01*
X106600031Y-55838052D01*
X106526267Y-55710715D01*
X106462746Y-55601034D01*
X106428820Y-55542441D01*
X106362307Y-55428073D01*
X106298548Y-55319437D01*
X106238803Y-55218613D01*
X106184332Y-55127684D01*
X106136396Y-55048729D01*
X106096255Y-54983831D01*
X106065170Y-54935069D01*
X106044400Y-54904525D01*
X106036839Y-54895248D01*
X106004332Y-54871630D01*
X105967718Y-54861947D01*
X105941782Y-54860856D01*
X105901532Y-54863850D01*
X105873325Y-54876433D01*
X105846818Y-54901501D01*
X105832194Y-54921470D01*
X105806858Y-54960478D01*
X105772450Y-55015814D01*
X105730615Y-55084770D01*
X105682996Y-55164638D01*
X105631235Y-55252708D01*
X105576976Y-55346271D01*
X105575637Y-55348596D01*
X105529979Y-55427864D01*
X105482930Y-55509514D01*
X105433766Y-55594798D01*
X105381761Y-55684973D01*
X105326192Y-55781292D01*
X105266334Y-55885010D01*
X105201462Y-55997382D01*
X105130852Y-56119661D01*
X105053779Y-56253102D01*
X104969519Y-56398959D01*
X104877348Y-56558488D01*
X104776541Y-56732942D01*
X104666374Y-56923576D01*
X104546121Y-57131644D01*
X104415059Y-57358401D01*
X104272463Y-57605101D01*
X104217751Y-57699753D01*
X104122438Y-57864705D01*
X104038956Y-58009452D01*
X103966600Y-58135433D01*
X103904662Y-58244085D01*
X103852438Y-58336848D01*
X103809220Y-58415159D01*
X103774303Y-58480457D01*
X103746981Y-58534181D01*
X103726548Y-58577768D01*
X103712296Y-58612657D01*
X103703521Y-58640286D01*
X103699516Y-58662094D01*
X103323735Y-58662094D01*
X103323720Y-58549914D01*
X103323707Y-58206375D01*
X103323709Y-57861704D01*
X103323720Y-57541157D01*
X103323745Y-57243844D01*
X103323791Y-56968878D01*
X103323866Y-56715368D01*
X103323974Y-56482426D01*
X103324122Y-56269164D01*
X103324317Y-56074693D01*
X103324566Y-55898123D01*
X103324873Y-55738566D01*
X103325247Y-55595133D01*
X103325693Y-55466936D01*
X103326218Y-55353085D01*
X103326827Y-55252691D01*
X103327528Y-55164867D01*
X103328327Y-55088722D01*
X103329229Y-55023369D01*
X103330243Y-54967918D01*
X103331373Y-54921481D01*
X103332627Y-54883169D01*
X103334010Y-54852092D01*
X103335529Y-54827363D01*
X103337191Y-54808092D01*
X103339001Y-54793390D01*
X103340967Y-54782369D01*
X103343094Y-54774140D01*
X103345389Y-54767814D01*
X103347859Y-54762502D01*
X103348436Y-54761362D01*
X103374720Y-54722407D01*
X103407822Y-54688503D01*
X103414093Y-54683697D01*
X103455021Y-54654505D01*
X105944888Y-54651287D01*
X108434754Y-54648069D01*
X108477087Y-54676597D01*
G37*
D17*
%TO.C,R16*%
X123780000Y-57769564D02*
X123780000Y-56315436D01*
X125600000Y-57769564D02*
X125600000Y-56315436D01*
%TO.C,R20*%
X142253333Y-57215436D02*
X142253333Y-58669564D01*
X144073333Y-57215436D02*
X144073333Y-58669564D01*
%TO.C,R18*%
X159912936Y-55170000D02*
X161367064Y-55170000D01*
X159912936Y-56990000D02*
X161367064Y-56990000D01*
%TO.C,C4*%
X120738752Y-56620000D02*
X119316248Y-56620000D01*
X120738752Y-58440000D02*
X119316248Y-58440000D01*
%TO.C,R12*%
X186857064Y-77108750D02*
X185402936Y-77108750D01*
X186857064Y-78928750D02*
X185402936Y-78928750D01*
%TO.C,R22*%
X130302936Y-95720000D02*
X134657064Y-95720000D01*
X130302936Y-99140000D02*
X134657064Y-99140000D01*
%TO.C,JP6*%
X184730000Y-82088750D02*
X184730000Y-81488750D01*
X185430000Y-80788750D02*
X186830000Y-80788750D01*
X186830000Y-82788750D02*
X185430000Y-82788750D01*
X187530000Y-81488750D02*
X187530000Y-82088750D01*
X184730000Y-81488750D02*
G75*
G02*
X185430000Y-80788750I700000J0D01*
G01*
X185430000Y-82788750D02*
G75*
G02*
X184730000Y-82088750I0J700000D01*
G01*
X186830000Y-80788750D02*
G75*
G02*
X187530000Y-81488750I1J-699999D01*
G01*
X187530000Y-82088750D02*
G75*
G02*
X186830000Y-82788750I-699999J-1D01*
G01*
%TO.C,C8*%
X142250000Y-64956248D02*
X142250000Y-66378752D01*
X144070000Y-64956248D02*
X144070000Y-66378752D01*
%TO.C,C5*%
X156491248Y-78750000D02*
X157913752Y-78750000D01*
X156491248Y-80570000D02*
X157913752Y-80570000D01*
%TO.C,R25*%
X130302936Y-85100000D02*
X134657064Y-85100000D01*
X130302936Y-88520000D02*
X134657064Y-88520000D01*
%TO.C,JP4*%
X179567500Y-74288750D02*
X179567500Y-73688750D01*
X180267500Y-72988750D02*
X181667500Y-72988750D01*
X181667500Y-74988750D02*
X180267500Y-74988750D01*
X182367500Y-73688750D02*
X182367500Y-74288750D01*
X179567500Y-73688750D02*
G75*
G02*
X180267500Y-72988750I699999J1D01*
G01*
X180267500Y-74988750D02*
G75*
G02*
X179567500Y-74288750I-1J699999D01*
G01*
X181667500Y-72988750D02*
G75*
G02*
X182367500Y-73688750I0J-700000D01*
G01*
X182367500Y-74288750D02*
G75*
G02*
X181667500Y-74988750I-700000J0D01*
G01*
%TO.C,R9*%
X181694564Y-77108750D02*
X180240436Y-77108750D01*
X181694564Y-78928750D02*
X180240436Y-78928750D01*
%TO.C,R3*%
X180340000Y-60094564D02*
X180340000Y-58640436D01*
X182160000Y-60094564D02*
X182160000Y-58640436D01*
%TO.C,JP7*%
X179567500Y-82088750D02*
X179567500Y-81488750D01*
X180267500Y-80788750D02*
X181667500Y-80788750D01*
X181667500Y-82788750D02*
X180267500Y-82788750D01*
X182367500Y-81488750D02*
X182367500Y-82088750D01*
X179567500Y-81488750D02*
G75*
G02*
X180267500Y-80788750I700000J0D01*
G01*
X180267500Y-82788750D02*
G75*
G02*
X179567500Y-82088750I0J700000D01*
G01*
X181667500Y-80788750D02*
G75*
G02*
X182367500Y-81488750I1J-699999D01*
G01*
X182367500Y-82088750D02*
G75*
G02*
X181667500Y-82788750I-699999J-1D01*
G01*
%TO.C,R17*%
X139300000Y-64972936D02*
X139300000Y-66427064D01*
X141120000Y-64972936D02*
X141120000Y-66427064D01*
%TO.C,D4*%
X129717500Y-58600000D02*
X132577500Y-58600000D01*
X132577500Y-56680000D02*
X129717500Y-56680000D01*
X132577500Y-58600000D02*
X132577500Y-56680000D01*
%TO.C,C7*%
X148260000Y-57231248D02*
X148260000Y-58653752D01*
X150080000Y-57231248D02*
X150080000Y-58653752D01*
D14*
%TO.C,BR1*%
X174478000Y-116893000D02*
G75*
G02*
X174356000Y-116893000I-61000J0D01*
G01*
X174356000Y-116893000D02*
G75*
G02*
X174478000Y-116893000I61000J0D01*
G01*
D17*
%TO.C,C2*%
X114273748Y-56570000D02*
X115696252Y-56570000D01*
X114273748Y-58390000D02*
X115696252Y-58390000D01*
%TO.C,C1*%
X174196252Y-59930000D02*
X172773748Y-59930000D01*
X174196252Y-61750000D02*
X172773748Y-61750000D01*
%TO.C,JP8*%
X174297500Y-82088750D02*
X174297500Y-81488750D01*
X174997500Y-80788750D02*
X176397500Y-80788750D01*
X176397500Y-82788750D02*
X174997500Y-82788750D01*
X177097500Y-81488750D02*
X177097500Y-82088750D01*
X174297500Y-81488750D02*
G75*
G02*
X174997500Y-80788750I700000J0D01*
G01*
X174997500Y-82788750D02*
G75*
G02*
X174297500Y-82088750I0J700000D01*
G01*
X176397500Y-80788750D02*
G75*
G02*
X177097500Y-81488750I1J-699999D01*
G01*
X177097500Y-82088750D02*
G75*
G02*
X176397500Y-82788750I-699999J-1D01*
G01*
D14*
%TO.C,IC1*%
X119890000Y-65390000D02*
X120890000Y-65390000D01*
X119890000Y-67140000D02*
X119890000Y-65390000D01*
X119890000Y-70190000D02*
X119890000Y-68340000D01*
X120290000Y-70190000D02*
X119890000Y-70190000D01*
D10*
X124690000Y-64040000D02*
X124690000Y-64040000D01*
X124690000Y-64140000D02*
X124690000Y-64140000D01*
D14*
X126290000Y-65390000D02*
X125290000Y-65390000D01*
X126290000Y-67140000D02*
X126290000Y-65390000D01*
X126290000Y-68340000D02*
X126290000Y-70190000D01*
X126290000Y-70190000D02*
X125890000Y-70190000D01*
D10*
X124690000Y-64040000D02*
G75*
G02*
X124690000Y-64140000I0J-50000D01*
G01*
X124690000Y-64140000D02*
G75*
G02*
X124690000Y-64040000I0J50000D01*
G01*
D17*
%TO.C,R27*%
X156917064Y-65080000D02*
X152562936Y-65080000D01*
X156917064Y-68500000D02*
X152562936Y-68500000D01*
%TO.C,C12*%
X161448748Y-48750000D02*
X162871252Y-48750000D01*
X161448748Y-50570000D02*
X162871252Y-50570000D01*
D14*
%TO.C,IC2*%
X153050000Y-58450000D02*
X154900000Y-58450000D01*
X155250000Y-58105000D02*
X163350000Y-58105000D01*
X155250000Y-63955000D02*
X155250000Y-58105000D01*
X163350000Y-58105000D02*
X163350000Y-63955000D01*
X163350000Y-63955000D02*
X155250000Y-63955000D01*
D17*
%TO.C,C13*%
X161448748Y-52100000D02*
X162871252Y-52100000D01*
X161448748Y-53920000D02*
X162871252Y-53920000D01*
%TO.C,C6*%
X145246667Y-57231248D02*
X145246667Y-58653752D01*
X147066667Y-57231248D02*
X147066667Y-58653752D01*
%TO.C,R13*%
X185402936Y-84718750D02*
X186857064Y-84718750D01*
X185402936Y-86538750D02*
X186857064Y-86538750D01*
%TO.C,D1*%
X168590000Y-61960000D02*
X168590000Y-58100000D01*
X168590000Y-61960000D02*
X170590000Y-61960000D01*
X170590000Y-61960000D02*
X170590000Y-58100000D01*
%TO.C,R1*%
X184737500Y-69493314D02*
X184737500Y-68039186D01*
X186557500Y-69493314D02*
X186557500Y-68039186D01*
%TO.C,C3*%
X127423748Y-60610000D02*
X128846252Y-60610000D01*
X127423748Y-62430000D02*
X128846252Y-62430000D01*
%TO.C,JP2*%
X174297500Y-67128750D02*
X174297500Y-66528750D01*
X174997500Y-65828750D02*
X176397500Y-65828750D01*
X176397500Y-67828750D02*
X174997500Y-67828750D01*
X177097500Y-66528750D02*
X177097500Y-67128750D01*
X174297500Y-66528750D02*
G75*
G02*
X174997500Y-65828750I700000J0D01*
G01*
X174997500Y-67828750D02*
G75*
G02*
X174297500Y-67128750I0J700000D01*
G01*
X176397500Y-65828750D02*
G75*
G02*
X177097500Y-66528750I1J-699999D01*
G01*
X177097500Y-67128750D02*
G75*
G02*
X176397500Y-67828750I-699999J-1D01*
G01*
%TO.C,R2*%
X184737500Y-64333314D02*
X184737500Y-62879186D01*
X186557500Y-64333314D02*
X186557500Y-62879186D01*
%TO.C,D6*%
X164535000Y-57040000D02*
X167395000Y-57040000D01*
X167395000Y-55120000D02*
X164535000Y-55120000D01*
X167395000Y-57040000D02*
X167395000Y-55120000D01*
%TO.C,D8*%
X155150000Y-69530000D02*
X151140000Y-69530000D01*
X155150000Y-71530000D02*
X151140000Y-71530000D01*
X155150000Y-71530000D02*
X155150000Y-69530000D01*
%TO.C,D5*%
X134365000Y-66290000D02*
X134365000Y-68210000D01*
X134365000Y-68210000D02*
X137225000Y-68210000D01*
X137225000Y-66290000D02*
X134365000Y-66290000D01*
%TO.C,R19*%
X163437064Y-78790000D02*
X161982936Y-78790000D01*
X163437064Y-80610000D02*
X161982936Y-80610000D01*
%TO.C,R5*%
X180240436Y-69318750D02*
X181694564Y-69318750D01*
X180240436Y-71138750D02*
X181694564Y-71138750D01*
%TO.C,R23*%
X133840000Y-82477064D02*
X133840000Y-78122936D01*
X137260000Y-82477064D02*
X137260000Y-78122936D01*
%TO.C,JP3*%
X174297500Y-74288750D02*
X174297500Y-73688750D01*
X174997500Y-72988750D02*
X176397500Y-72988750D01*
X176397500Y-74988750D02*
X174997500Y-74988750D01*
X177097500Y-73688750D02*
X177097500Y-74288750D01*
X174297500Y-73688750D02*
G75*
G02*
X174997500Y-72988750I699999J1D01*
G01*
X174997500Y-74988750D02*
G75*
G02*
X174297500Y-74288750I-1J699999D01*
G01*
X176397500Y-72988750D02*
G75*
G02*
X177097500Y-73688750I0J-700000D01*
G01*
X177097500Y-74288750D02*
G75*
G02*
X176397500Y-74988750I-700000J0D01*
G01*
%TD*%
M02*
